%TF.GenerationSoftware,KiCad,Pcbnew,9.0.2*%
%TF.CreationDate,2025-07-13T13:24:02+03:30*%
%TF.ProjectId,paralleled-full-bridge,70617261-6c6c-4656-9c65-642d66756c6c,rev?*%
%TF.SameCoordinates,Original*%
%TF.FileFunction,Drillmap*%
%TF.FilePolarity,Positive*%
%FSLAX45Y45*%
G04 Gerber Fmt 4.5, Leading zero omitted, Abs format (unit mm)*
G04 Created by KiCad (PCBNEW 9.0.2) date 2025-07-13 13:24:02*
%MOMM*%
%LPD*%
G01*
G04 APERTURE LIST*
%ADD10C,0.050000*%
%ADD11C,0.200000*%
%ADD12C,0.100000*%
%ADD13C,0.110000*%
%ADD14C,0.120000*%
%ADD15C,0.130000*%
%ADD16C,0.140000*%
%ADD17C,0.150000*%
%ADD18C,0.152000*%
%ADD19C,0.320000*%
G04 APERTURE END LIST*
D10*
X1500000Y-9950000D02*
G75*
G02*
X1200000Y-9650000I0J300000D01*
G01*
X11200000Y-9650000D02*
G75*
G02*
X10900000Y-9950000I-300000J0D01*
G01*
X1200000Y-9650000D02*
X1200000Y-1500000D01*
X10900000Y-1200000D02*
G75*
G02*
X11200000Y-1500000I0J-300000D01*
G01*
X1200000Y-1500000D02*
G75*
G02*
X1500000Y-1200000I300000J0D01*
G01*
X1500000Y-1200000D02*
X10900000Y-1200000D01*
X11200000Y-1500000D02*
X11200000Y-9650000D01*
X10900000Y-9950000D02*
X1500000Y-9950000D01*
D11*
D12*
X2360000Y-1979000D02*
X2440000Y-2059000D01*
X2440000Y-1979000D02*
X2360000Y-2059000D01*
X2360000Y-2741000D02*
X2440000Y-2821000D01*
X2440000Y-2741000D02*
X2360000Y-2821000D01*
X3715000Y-8099000D02*
X3795000Y-8179000D01*
X3795000Y-8099000D02*
X3715000Y-8179000D01*
X3715000Y-8861000D02*
X3795000Y-8941000D01*
X3795000Y-8861000D02*
X3715000Y-8941000D01*
X4160000Y-1979000D02*
X4240000Y-2059000D01*
X4240000Y-1979000D02*
X4160000Y-2059000D01*
X4160000Y-2741000D02*
X4240000Y-2821000D01*
X4240000Y-2741000D02*
X4160000Y-2821000D01*
X5510000Y-8099000D02*
X5590000Y-8179000D01*
X5590000Y-8099000D02*
X5510000Y-8179000D01*
X5510000Y-8861000D02*
X5590000Y-8941000D01*
X5590000Y-8861000D02*
X5510000Y-8941000D01*
X7160000Y-1979000D02*
X7240000Y-2059000D01*
X7240000Y-1979000D02*
X7160000Y-2059000D01*
X7160000Y-2741000D02*
X7240000Y-2821000D01*
X7240000Y-2741000D02*
X7160000Y-2821000D01*
X8060000Y-8080000D02*
X8140000Y-8160000D01*
X8140000Y-8080000D02*
X8060000Y-8160000D01*
X8060000Y-8842000D02*
X8140000Y-8922000D01*
X8140000Y-8842000D02*
X8060000Y-8922000D01*
X9010000Y-1979000D02*
X9090000Y-2059000D01*
X9090000Y-1979000D02*
X9010000Y-2059000D01*
X9010000Y-2741000D02*
X9090000Y-2821000D01*
X9090000Y-2741000D02*
X9010000Y-2821000D01*
X9860000Y-8079000D02*
X9940000Y-8159000D01*
X9940000Y-8079000D02*
X9860000Y-8159000D01*
X9860000Y-8841000D02*
X9940000Y-8921000D01*
X9940000Y-8841000D02*
X9860000Y-8921000D01*
X3450000Y-1950000D02*
G75*
G02*
X3350000Y-1950000I-50000J0D01*
G01*
X3350000Y-1950000D02*
G75*
G02*
X3450000Y-1950000I50000J0D01*
G01*
X3700000Y-1950000D02*
G75*
G02*
X3600000Y-1950000I-50000J0D01*
G01*
X3600000Y-1950000D02*
G75*
G02*
X3700000Y-1950000I50000J0D01*
G01*
X4350000Y-9000000D02*
G75*
G02*
X4250000Y-9000000I-50000J0D01*
G01*
X4250000Y-9000000D02*
G75*
G02*
X4350000Y-9000000I50000J0D01*
G01*
X4600000Y-9000000D02*
G75*
G02*
X4500000Y-9000000I-50000J0D01*
G01*
X4500000Y-9000000D02*
G75*
G02*
X4600000Y-9000000I50000J0D01*
G01*
X7800000Y-1950000D02*
G75*
G02*
X7700000Y-1950000I-50000J0D01*
G01*
X7700000Y-1950000D02*
G75*
G02*
X7800000Y-1950000I50000J0D01*
G01*
X8050000Y-1950000D02*
G75*
G02*
X7950000Y-1950000I-50000J0D01*
G01*
X7950000Y-1950000D02*
G75*
G02*
X8050000Y-1950000I50000J0D01*
G01*
X8650000Y-9000000D02*
G75*
G02*
X8550000Y-9000000I-50000J0D01*
G01*
X8550000Y-9000000D02*
G75*
G02*
X8650000Y-9000000I50000J0D01*
G01*
X8900000Y-9000000D02*
G75*
G02*
X8800000Y-9000000I-50000J0D01*
G01*
X8800000Y-9000000D02*
G75*
G02*
X8900000Y-9000000I50000J0D01*
G01*
D13*
X2800000Y-1934000D02*
X2800000Y-2044000D01*
X2745000Y-1989000D02*
X2855000Y-1989000D01*
X2800000Y-2696000D02*
X2800000Y-2806000D01*
X2745000Y-2751000D02*
X2855000Y-2751000D01*
X3350000Y-8114000D02*
X3350000Y-8224000D01*
X3295000Y-8169000D02*
X3405000Y-8169000D01*
X3350000Y-8876000D02*
X3350000Y-8986000D01*
X3295000Y-8931000D02*
X3405000Y-8931000D01*
X4346000Y-3995000D02*
X4346000Y-4105000D01*
X4291000Y-4050000D02*
X4401000Y-4050000D01*
X4350000Y-6845000D02*
X4350000Y-6955000D01*
X4295000Y-6900000D02*
X4405000Y-6900000D01*
X4600000Y-1934000D02*
X4600000Y-2044000D01*
X4545000Y-1989000D02*
X4655000Y-1989000D01*
X4600000Y-2696000D02*
X4600000Y-2806000D01*
X4545000Y-2751000D02*
X4655000Y-2751000D01*
X4854000Y-3995000D02*
X4854000Y-4105000D01*
X4799000Y-4050000D02*
X4909000Y-4050000D01*
X4858000Y-6845000D02*
X4858000Y-6955000D01*
X4803000Y-6900000D02*
X4913000Y-6900000D01*
X5150000Y-8114000D02*
X5150000Y-8224000D01*
X5095000Y-8169000D02*
X5205000Y-8169000D01*
X5150000Y-8876000D02*
X5150000Y-8986000D01*
X5095000Y-8931000D02*
X5205000Y-8931000D01*
X6800000Y-1934000D02*
X6800000Y-2044000D01*
X6745000Y-1989000D02*
X6855000Y-1989000D01*
X6800000Y-2696000D02*
X6800000Y-2806000D01*
X6745000Y-2751000D02*
X6855000Y-2751000D01*
X7492000Y-3995000D02*
X7492000Y-4105000D01*
X7437000Y-4050000D02*
X7547000Y-4050000D01*
X7500000Y-6845000D02*
X7500000Y-6955000D01*
X7445000Y-6900000D02*
X7555000Y-6900000D01*
X7700000Y-8095000D02*
X7700000Y-8205000D01*
X7645000Y-8150000D02*
X7755000Y-8150000D01*
X7700000Y-8857000D02*
X7700000Y-8967000D01*
X7645000Y-8912000D02*
X7755000Y-8912000D01*
X8000000Y-3995000D02*
X8000000Y-4105000D01*
X7945000Y-4050000D02*
X8055000Y-4050000D01*
X8008000Y-6845000D02*
X8008000Y-6955000D01*
X7953000Y-6900000D02*
X8063000Y-6900000D01*
X8650000Y-1934000D02*
X8650000Y-2044000D01*
X8595000Y-1989000D02*
X8705000Y-1989000D01*
X8650000Y-2696000D02*
X8650000Y-2806000D01*
X8595000Y-2751000D02*
X8705000Y-2751000D01*
X9500000Y-8094000D02*
X9500000Y-8204000D01*
X9445000Y-8149000D02*
X9555000Y-8149000D01*
X9500000Y-8856000D02*
X9500000Y-8966000D01*
X9445000Y-8911000D02*
X9555000Y-8911000D01*
D14*
X3787427Y-4276427D02*
X3787427Y-4191573D01*
X3702573Y-4191573D01*
X3702573Y-4276427D01*
X3787427Y-4276427D01*
X3787427Y-5292427D02*
X3787427Y-5207573D01*
X3702573Y-5207573D01*
X3702573Y-5292427D01*
X3787427Y-5292427D01*
X3787427Y-5642427D02*
X3787427Y-5557573D01*
X3702573Y-5557573D01*
X3702573Y-5642427D01*
X3787427Y-5642427D01*
X3787427Y-6658427D02*
X3787427Y-6573573D01*
X3702573Y-6573573D01*
X3702573Y-6658427D01*
X3787427Y-6658427D01*
X5076427Y-5492427D02*
X5076427Y-5407573D01*
X4991573Y-5407573D01*
X4991573Y-5492427D01*
X5076427Y-5492427D01*
X7108427Y-5492427D02*
X7108427Y-5407573D01*
X7023573Y-5407573D01*
X7023573Y-5492427D01*
X7108427Y-5492427D01*
X8792427Y-4276427D02*
X8792427Y-4191573D01*
X8707573Y-4191573D01*
X8707573Y-4276427D01*
X8792427Y-4276427D01*
X8792427Y-5292427D02*
X8792427Y-5207573D01*
X8707573Y-5207573D01*
X8707573Y-5292427D01*
X8792427Y-5292427D01*
X8792427Y-5642427D02*
X8792427Y-5557573D01*
X8707573Y-5557573D01*
X8707573Y-5642427D01*
X8792427Y-5642427D01*
X8792427Y-6658427D02*
X8792427Y-6573573D01*
X8707573Y-6573573D01*
X8707573Y-6658427D01*
X8792427Y-6658427D01*
X10642427Y-6467427D02*
X10642427Y-6382573D01*
X10557573Y-6382573D01*
X10557573Y-6467427D01*
X10642427Y-6467427D01*
X10642427Y-8717427D02*
X10642427Y-8632573D01*
X10557573Y-8632573D01*
X10557573Y-8717427D01*
X10642427Y-8717427D01*
D15*
X2575000Y-8365000D02*
X2640000Y-8300000D01*
X2575000Y-8235000D01*
X2510000Y-8300000D01*
X2575000Y-8365000D01*
X2956000Y-8365000D02*
X3021000Y-8300000D01*
X2956000Y-8235000D01*
X2891000Y-8300000D01*
X2956000Y-8365000D01*
X3219000Y-2665000D02*
X3284000Y-2600000D01*
X3219000Y-2535000D01*
X3154000Y-2600000D01*
X3219000Y-2665000D01*
X3600000Y-2665000D02*
X3665000Y-2600000D01*
X3600000Y-2535000D01*
X3535000Y-2600000D01*
X3600000Y-2665000D01*
X4361000Y-8365000D02*
X4426000Y-8300000D01*
X4361000Y-8235000D01*
X4296000Y-8300000D01*
X4361000Y-8365000D01*
X4742000Y-8365000D02*
X4807000Y-8300000D01*
X4742000Y-8235000D01*
X4677000Y-8300000D01*
X4742000Y-8365000D01*
X5019000Y-2665000D02*
X5084000Y-2600000D01*
X5019000Y-2535000D01*
X4954000Y-2600000D01*
X5019000Y-2665000D01*
X5400000Y-2665000D02*
X5465000Y-2600000D01*
X5400000Y-2535000D01*
X5335000Y-2600000D01*
X5400000Y-2665000D01*
X6938500Y-8365000D02*
X7003500Y-8300000D01*
X6938500Y-8235000D01*
X6873500Y-8300000D01*
X6938500Y-8365000D01*
X7319500Y-8365000D02*
X7384500Y-8300000D01*
X7319500Y-8235000D01*
X7254500Y-8300000D01*
X7319500Y-8365000D01*
X7619000Y-2665000D02*
X7684000Y-2600000D01*
X7619000Y-2535000D01*
X7554000Y-2600000D01*
X7619000Y-2665000D01*
X8000000Y-2665000D02*
X8065000Y-2600000D01*
X8000000Y-2535000D01*
X7935000Y-2600000D01*
X8000000Y-2665000D01*
X8738500Y-8365000D02*
X8803500Y-8300000D01*
X8738500Y-8235000D01*
X8673500Y-8300000D01*
X8738500Y-8365000D01*
X9119500Y-8365000D02*
X9184500Y-8300000D01*
X9119500Y-8235000D01*
X9054500Y-8300000D01*
X9119500Y-8365000D01*
X9419000Y-2665000D02*
X9484000Y-2600000D01*
X9419000Y-2535000D01*
X9354000Y-2600000D01*
X9419000Y-2665000D01*
X9800000Y-2665000D02*
X9865000Y-2600000D01*
X9800000Y-2535000D01*
X9735000Y-2600000D01*
X9800000Y-2665000D01*
D16*
X4237500Y-5391000D02*
X4377500Y-5531000D01*
X4377500Y-5391000D02*
X4237500Y-5531000D01*
X4377500Y-5461000D02*
G75*
G02*
X4237500Y-5461000I-70000J0D01*
G01*
X4237500Y-5461000D02*
G75*
G02*
X4377500Y-5461000I70000J0D01*
G01*
X7987500Y-5391000D02*
X8127500Y-5531000D01*
X8127500Y-5391000D02*
X7987500Y-5531000D01*
X8127500Y-5461000D02*
G75*
G02*
X7987500Y-5461000I-70000J0D01*
G01*
X7987500Y-5461000D02*
G75*
G02*
X8127500Y-5461000I70000J0D01*
G01*
D17*
X2475000Y-3175000D02*
X2625000Y-3325000D01*
X2625000Y-3175000D02*
X2475000Y-3325000D01*
X2550000Y-3175000D02*
X2550000Y-3325000D01*
X2475000Y-3250000D02*
X2625000Y-3250000D01*
X2475000Y-7589000D02*
X2625000Y-7739000D01*
X2625000Y-7589000D02*
X2475000Y-7739000D01*
X2550000Y-7589000D02*
X2550000Y-7739000D01*
X2475000Y-7664000D02*
X2625000Y-7664000D01*
X3020000Y-3175000D02*
X3170000Y-3325000D01*
X3170000Y-3175000D02*
X3020000Y-3325000D01*
X3095000Y-3175000D02*
X3095000Y-3325000D01*
X3020000Y-3250000D02*
X3170000Y-3250000D01*
X3020000Y-7589000D02*
X3170000Y-7739000D01*
X3170000Y-7589000D02*
X3020000Y-7739000D01*
X3095000Y-7589000D02*
X3095000Y-7739000D01*
X3020000Y-7664000D02*
X3170000Y-7664000D01*
X3565000Y-3175000D02*
X3715000Y-3325000D01*
X3715000Y-3175000D02*
X3565000Y-3325000D01*
X3640000Y-3175000D02*
X3640000Y-3325000D01*
X3565000Y-3250000D02*
X3715000Y-3250000D01*
X3565000Y-7589000D02*
X3715000Y-7739000D01*
X3715000Y-7589000D02*
X3565000Y-7739000D01*
X3640000Y-7589000D02*
X3640000Y-7739000D01*
X3565000Y-7664000D02*
X3715000Y-7664000D01*
X4275000Y-3175000D02*
X4425000Y-3325000D01*
X4425000Y-3175000D02*
X4275000Y-3325000D01*
X4350000Y-3175000D02*
X4350000Y-3325000D01*
X4275000Y-3250000D02*
X4425000Y-3250000D01*
X4275000Y-7589000D02*
X4425000Y-7739000D01*
X4425000Y-7589000D02*
X4275000Y-7739000D01*
X4350000Y-7589000D02*
X4350000Y-7739000D01*
X4275000Y-7664000D02*
X4425000Y-7664000D01*
X4820000Y-3175000D02*
X4970000Y-3325000D01*
X4970000Y-3175000D02*
X4820000Y-3325000D01*
X4895000Y-3175000D02*
X4895000Y-3325000D01*
X4820000Y-3250000D02*
X4970000Y-3250000D01*
X4820000Y-7589000D02*
X4970000Y-7739000D01*
X4970000Y-7589000D02*
X4820000Y-7739000D01*
X4895000Y-7589000D02*
X4895000Y-7739000D01*
X4820000Y-7664000D02*
X4970000Y-7664000D01*
X5365000Y-3175000D02*
X5515000Y-3325000D01*
X5515000Y-3175000D02*
X5365000Y-3325000D01*
X5440000Y-3175000D02*
X5440000Y-3325000D01*
X5365000Y-3250000D02*
X5515000Y-3250000D01*
X5365000Y-7589000D02*
X5515000Y-7739000D01*
X5515000Y-7589000D02*
X5365000Y-7739000D01*
X5440000Y-7589000D02*
X5440000Y-7739000D01*
X5365000Y-7664000D02*
X5515000Y-7664000D01*
X6852500Y-3175000D02*
X7002500Y-3325000D01*
X7002500Y-3175000D02*
X6852500Y-3325000D01*
X6927500Y-3175000D02*
X6927500Y-3325000D01*
X6852500Y-3250000D02*
X7002500Y-3250000D01*
X6852500Y-7600000D02*
X7002500Y-7750000D01*
X7002500Y-7600000D02*
X6852500Y-7750000D01*
X6927500Y-7600000D02*
X6927500Y-7750000D01*
X6852500Y-7675000D02*
X7002500Y-7675000D01*
X7397500Y-3175000D02*
X7547500Y-3325000D01*
X7547500Y-3175000D02*
X7397500Y-3325000D01*
X7472500Y-3175000D02*
X7472500Y-3325000D01*
X7397500Y-3250000D02*
X7547500Y-3250000D01*
X7397500Y-7600000D02*
X7547500Y-7750000D01*
X7547500Y-7600000D02*
X7397500Y-7750000D01*
X7472500Y-7600000D02*
X7472500Y-7750000D01*
X7397500Y-7675000D02*
X7547500Y-7675000D01*
X7942500Y-3175000D02*
X8092500Y-3325000D01*
X8092500Y-3175000D02*
X7942500Y-3325000D01*
X8017500Y-3175000D02*
X8017500Y-3325000D01*
X7942500Y-3250000D02*
X8092500Y-3250000D01*
X7942500Y-7600000D02*
X8092500Y-7750000D01*
X8092500Y-7600000D02*
X7942500Y-7750000D01*
X8017500Y-7600000D02*
X8017500Y-7750000D01*
X7942500Y-7675000D02*
X8092500Y-7675000D01*
X8652500Y-3175000D02*
X8802500Y-3325000D01*
X8802500Y-3175000D02*
X8652500Y-3325000D01*
X8727500Y-3175000D02*
X8727500Y-3325000D01*
X8652500Y-3250000D02*
X8802500Y-3250000D01*
X8652500Y-7600000D02*
X8802500Y-7750000D01*
X8802500Y-7600000D02*
X8652500Y-7750000D01*
X8727500Y-7600000D02*
X8727500Y-7750000D01*
X8652500Y-7675000D02*
X8802500Y-7675000D01*
X9197500Y-3175000D02*
X9347500Y-3325000D01*
X9347500Y-3175000D02*
X9197500Y-3325000D01*
X9272500Y-3175000D02*
X9272500Y-3325000D01*
X9197500Y-3250000D02*
X9347500Y-3250000D01*
X9197500Y-7600000D02*
X9347500Y-7750000D01*
X9347500Y-7600000D02*
X9197500Y-7750000D01*
X9272500Y-7600000D02*
X9272500Y-7750000D01*
X9197500Y-7675000D02*
X9347500Y-7675000D01*
X9742500Y-3175000D02*
X9892500Y-3325000D01*
X9892500Y-3175000D02*
X9742500Y-3325000D01*
X9817500Y-3175000D02*
X9817500Y-3325000D01*
X9742500Y-3250000D02*
X9892500Y-3250000D01*
X9742500Y-7600000D02*
X9892500Y-7750000D01*
X9892500Y-7600000D02*
X9742500Y-7750000D01*
X9817500Y-7600000D02*
X9817500Y-7750000D01*
X9742500Y-7675000D02*
X9892500Y-7675000D01*
D18*
X5920000Y-9324000D02*
X6072000Y-9476000D01*
X6072000Y-9324000D02*
X5920000Y-9476000D01*
X6049741Y-9453741D02*
X6049741Y-9346259D01*
X5942259Y-9346259D01*
X5942259Y-9453741D01*
X6049741Y-9453741D01*
X6428000Y-9324000D02*
X6580000Y-9476000D01*
X6580000Y-9324000D02*
X6428000Y-9476000D01*
X6557741Y-9453741D02*
X6557741Y-9346259D01*
X6450259Y-9346259D01*
X6450259Y-9453741D01*
X6557741Y-9453741D01*
X10424000Y-5116000D02*
X10576000Y-5268000D01*
X10576000Y-5116000D02*
X10424000Y-5268000D01*
X10553741Y-5245741D02*
X10553741Y-5138259D01*
X10446259Y-5138259D01*
X10446259Y-5245741D01*
X10553741Y-5245741D01*
X10424000Y-5624000D02*
X10576000Y-5776000D01*
X10576000Y-5624000D02*
X10424000Y-5776000D01*
X10553741Y-5753741D02*
X10553741Y-5646259D01*
X10446259Y-5646259D01*
X10446259Y-5753741D01*
X10553741Y-5753741D01*
D19*
X10440000Y-9180000D02*
X10760000Y-9500000D01*
X10760000Y-9180000D02*
X10440000Y-9500000D01*
X10600000Y-9500000D02*
X10760000Y-9340000D01*
X10600000Y-9180000D01*
X10440000Y-9340000D01*
X10600000Y-9500000D01*
D11*
X1458277Y-10263984D02*
X1458277Y-10063984D01*
X1458277Y-10063984D02*
X1505896Y-10063984D01*
X1505896Y-10063984D02*
X1534467Y-10073508D01*
X1534467Y-10073508D02*
X1553515Y-10092555D01*
X1553515Y-10092555D02*
X1563039Y-10111603D01*
X1563039Y-10111603D02*
X1572562Y-10149698D01*
X1572562Y-10149698D02*
X1572562Y-10178270D01*
X1572562Y-10178270D02*
X1563039Y-10216365D01*
X1563039Y-10216365D02*
X1553515Y-10235412D01*
X1553515Y-10235412D02*
X1534467Y-10254460D01*
X1534467Y-10254460D02*
X1505896Y-10263984D01*
X1505896Y-10263984D02*
X1458277Y-10263984D01*
X1658277Y-10263984D02*
X1658277Y-10130650D01*
X1658277Y-10168746D02*
X1667801Y-10149698D01*
X1667801Y-10149698D02*
X1677324Y-10140174D01*
X1677324Y-10140174D02*
X1696372Y-10130650D01*
X1696372Y-10130650D02*
X1715420Y-10130650D01*
X1782086Y-10263984D02*
X1782086Y-10130650D01*
X1782086Y-10063984D02*
X1772562Y-10073508D01*
X1772562Y-10073508D02*
X1782086Y-10083031D01*
X1782086Y-10083031D02*
X1791610Y-10073508D01*
X1791610Y-10073508D02*
X1782086Y-10063984D01*
X1782086Y-10063984D02*
X1782086Y-10083031D01*
X1905896Y-10263984D02*
X1886848Y-10254460D01*
X1886848Y-10254460D02*
X1877324Y-10235412D01*
X1877324Y-10235412D02*
X1877324Y-10063984D01*
X2010658Y-10263984D02*
X1991610Y-10254460D01*
X1991610Y-10254460D02*
X1982086Y-10235412D01*
X1982086Y-10235412D02*
X1982086Y-10063984D01*
X2239229Y-10263984D02*
X2239229Y-10063984D01*
X2239229Y-10063984D02*
X2305896Y-10206841D01*
X2305896Y-10206841D02*
X2372563Y-10063984D01*
X2372563Y-10063984D02*
X2372563Y-10263984D01*
X2553515Y-10263984D02*
X2553515Y-10159222D01*
X2553515Y-10159222D02*
X2543991Y-10140174D01*
X2543991Y-10140174D02*
X2524944Y-10130650D01*
X2524944Y-10130650D02*
X2486848Y-10130650D01*
X2486848Y-10130650D02*
X2467801Y-10140174D01*
X2553515Y-10254460D02*
X2534467Y-10263984D01*
X2534467Y-10263984D02*
X2486848Y-10263984D01*
X2486848Y-10263984D02*
X2467801Y-10254460D01*
X2467801Y-10254460D02*
X2458277Y-10235412D01*
X2458277Y-10235412D02*
X2458277Y-10216365D01*
X2458277Y-10216365D02*
X2467801Y-10197317D01*
X2467801Y-10197317D02*
X2486848Y-10187793D01*
X2486848Y-10187793D02*
X2534467Y-10187793D01*
X2534467Y-10187793D02*
X2553515Y-10178270D01*
X2648753Y-10130650D02*
X2648753Y-10330650D01*
X2648753Y-10140174D02*
X2667801Y-10130650D01*
X2667801Y-10130650D02*
X2705896Y-10130650D01*
X2705896Y-10130650D02*
X2724944Y-10140174D01*
X2724944Y-10140174D02*
X2734467Y-10149698D01*
X2734467Y-10149698D02*
X2743991Y-10168746D01*
X2743991Y-10168746D02*
X2743991Y-10225889D01*
X2743991Y-10225889D02*
X2734467Y-10244936D01*
X2734467Y-10244936D02*
X2724944Y-10254460D01*
X2724944Y-10254460D02*
X2705896Y-10263984D01*
X2705896Y-10263984D02*
X2667801Y-10263984D01*
X2667801Y-10263984D02*
X2648753Y-10254460D01*
X2829705Y-10244936D02*
X2839229Y-10254460D01*
X2839229Y-10254460D02*
X2829705Y-10263984D01*
X2829705Y-10263984D02*
X2820182Y-10254460D01*
X2820182Y-10254460D02*
X2829705Y-10244936D01*
X2829705Y-10244936D02*
X2829705Y-10263984D01*
X2829705Y-10140174D02*
X2839229Y-10149698D01*
X2839229Y-10149698D02*
X2829705Y-10159222D01*
X2829705Y-10159222D02*
X2820182Y-10149698D01*
X2820182Y-10149698D02*
X2829705Y-10140174D01*
X2829705Y-10140174D02*
X2829705Y-10159222D01*
D12*
X1117500Y-10552500D02*
X1197500Y-10632500D01*
X1197500Y-10552500D02*
X1117500Y-10632500D01*
D11*
X1496372Y-10483984D02*
X1515420Y-10483984D01*
X1515420Y-10483984D02*
X1534467Y-10493508D01*
X1534467Y-10493508D02*
X1543991Y-10503031D01*
X1543991Y-10503031D02*
X1553515Y-10522079D01*
X1553515Y-10522079D02*
X1563039Y-10560174D01*
X1563039Y-10560174D02*
X1563039Y-10607793D01*
X1563039Y-10607793D02*
X1553515Y-10645889D01*
X1553515Y-10645889D02*
X1543991Y-10664936D01*
X1543991Y-10664936D02*
X1534467Y-10674460D01*
X1534467Y-10674460D02*
X1515420Y-10683984D01*
X1515420Y-10683984D02*
X1496372Y-10683984D01*
X1496372Y-10683984D02*
X1477324Y-10674460D01*
X1477324Y-10674460D02*
X1467801Y-10664936D01*
X1467801Y-10664936D02*
X1458277Y-10645889D01*
X1458277Y-10645889D02*
X1448753Y-10607793D01*
X1448753Y-10607793D02*
X1448753Y-10560174D01*
X1448753Y-10560174D02*
X1458277Y-10522079D01*
X1458277Y-10522079D02*
X1467801Y-10503031D01*
X1467801Y-10503031D02*
X1477324Y-10493508D01*
X1477324Y-10493508D02*
X1496372Y-10483984D01*
X1648753Y-10664936D02*
X1658277Y-10674460D01*
X1658277Y-10674460D02*
X1648753Y-10683984D01*
X1648753Y-10683984D02*
X1639229Y-10674460D01*
X1639229Y-10674460D02*
X1648753Y-10664936D01*
X1648753Y-10664936D02*
X1648753Y-10683984D01*
X1772562Y-10569698D02*
X1753515Y-10560174D01*
X1753515Y-10560174D02*
X1743991Y-10550650D01*
X1743991Y-10550650D02*
X1734467Y-10531603D01*
X1734467Y-10531603D02*
X1734467Y-10522079D01*
X1734467Y-10522079D02*
X1743991Y-10503031D01*
X1743991Y-10503031D02*
X1753515Y-10493508D01*
X1753515Y-10493508D02*
X1772562Y-10483984D01*
X1772562Y-10483984D02*
X1810658Y-10483984D01*
X1810658Y-10483984D02*
X1829705Y-10493508D01*
X1829705Y-10493508D02*
X1839229Y-10503031D01*
X1839229Y-10503031D02*
X1848753Y-10522079D01*
X1848753Y-10522079D02*
X1848753Y-10531603D01*
X1848753Y-10531603D02*
X1839229Y-10550650D01*
X1839229Y-10550650D02*
X1829705Y-10560174D01*
X1829705Y-10560174D02*
X1810658Y-10569698D01*
X1810658Y-10569698D02*
X1772562Y-10569698D01*
X1772562Y-10569698D02*
X1753515Y-10579222D01*
X1753515Y-10579222D02*
X1743991Y-10588746D01*
X1743991Y-10588746D02*
X1734467Y-10607793D01*
X1734467Y-10607793D02*
X1734467Y-10645889D01*
X1734467Y-10645889D02*
X1743991Y-10664936D01*
X1743991Y-10664936D02*
X1753515Y-10674460D01*
X1753515Y-10674460D02*
X1772562Y-10683984D01*
X1772562Y-10683984D02*
X1810658Y-10683984D01*
X1810658Y-10683984D02*
X1829705Y-10674460D01*
X1829705Y-10674460D02*
X1839229Y-10664936D01*
X1839229Y-10664936D02*
X1848753Y-10645889D01*
X1848753Y-10645889D02*
X1848753Y-10607793D01*
X1848753Y-10607793D02*
X1839229Y-10588746D01*
X1839229Y-10588746D02*
X1829705Y-10579222D01*
X1829705Y-10579222D02*
X1810658Y-10569698D01*
X1972562Y-10483984D02*
X1991610Y-10483984D01*
X1991610Y-10483984D02*
X2010658Y-10493508D01*
X2010658Y-10493508D02*
X2020182Y-10503031D01*
X2020182Y-10503031D02*
X2029705Y-10522079D01*
X2029705Y-10522079D02*
X2039229Y-10560174D01*
X2039229Y-10560174D02*
X2039229Y-10607793D01*
X2039229Y-10607793D02*
X2029705Y-10645889D01*
X2029705Y-10645889D02*
X2020182Y-10664936D01*
X2020182Y-10664936D02*
X2010658Y-10674460D01*
X2010658Y-10674460D02*
X1991610Y-10683984D01*
X1991610Y-10683984D02*
X1972562Y-10683984D01*
X1972562Y-10683984D02*
X1953515Y-10674460D01*
X1953515Y-10674460D02*
X1943991Y-10664936D01*
X1943991Y-10664936D02*
X1934467Y-10645889D01*
X1934467Y-10645889D02*
X1924943Y-10607793D01*
X1924943Y-10607793D02*
X1924943Y-10560174D01*
X1924943Y-10560174D02*
X1934467Y-10522079D01*
X1934467Y-10522079D02*
X1943991Y-10503031D01*
X1943991Y-10503031D02*
X1953515Y-10493508D01*
X1953515Y-10493508D02*
X1972562Y-10483984D01*
X2163039Y-10483984D02*
X2182086Y-10483984D01*
X2182086Y-10483984D02*
X2201134Y-10493508D01*
X2201134Y-10493508D02*
X2210658Y-10503031D01*
X2210658Y-10503031D02*
X2220182Y-10522079D01*
X2220182Y-10522079D02*
X2229705Y-10560174D01*
X2229705Y-10560174D02*
X2229705Y-10607793D01*
X2229705Y-10607793D02*
X2220182Y-10645889D01*
X2220182Y-10645889D02*
X2210658Y-10664936D01*
X2210658Y-10664936D02*
X2201134Y-10674460D01*
X2201134Y-10674460D02*
X2182086Y-10683984D01*
X2182086Y-10683984D02*
X2163039Y-10683984D01*
X2163039Y-10683984D02*
X2143991Y-10674460D01*
X2143991Y-10674460D02*
X2134467Y-10664936D01*
X2134467Y-10664936D02*
X2124944Y-10645889D01*
X2124944Y-10645889D02*
X2115420Y-10607793D01*
X2115420Y-10607793D02*
X2115420Y-10560174D01*
X2115420Y-10560174D02*
X2124944Y-10522079D01*
X2124944Y-10522079D02*
X2134467Y-10503031D01*
X2134467Y-10503031D02*
X2143991Y-10493508D01*
X2143991Y-10493508D02*
X2163039Y-10483984D01*
X2315420Y-10683984D02*
X2315420Y-10550650D01*
X2315420Y-10569698D02*
X2324944Y-10560174D01*
X2324944Y-10560174D02*
X2343991Y-10550650D01*
X2343991Y-10550650D02*
X2372563Y-10550650D01*
X2372563Y-10550650D02*
X2391610Y-10560174D01*
X2391610Y-10560174D02*
X2401134Y-10579222D01*
X2401134Y-10579222D02*
X2401134Y-10683984D01*
X2401134Y-10579222D02*
X2410658Y-10560174D01*
X2410658Y-10560174D02*
X2429705Y-10550650D01*
X2429705Y-10550650D02*
X2458277Y-10550650D01*
X2458277Y-10550650D02*
X2477325Y-10560174D01*
X2477325Y-10560174D02*
X2486848Y-10579222D01*
X2486848Y-10579222D02*
X2486848Y-10683984D01*
X2582086Y-10683984D02*
X2582086Y-10550650D01*
X2582086Y-10569698D02*
X2591610Y-10560174D01*
X2591610Y-10560174D02*
X2610658Y-10550650D01*
X2610658Y-10550650D02*
X2639229Y-10550650D01*
X2639229Y-10550650D02*
X2658277Y-10560174D01*
X2658277Y-10560174D02*
X2667801Y-10579222D01*
X2667801Y-10579222D02*
X2667801Y-10683984D01*
X2667801Y-10579222D02*
X2677325Y-10560174D01*
X2677325Y-10560174D02*
X2696372Y-10550650D01*
X2696372Y-10550650D02*
X2724944Y-10550650D01*
X2724944Y-10550650D02*
X2743991Y-10560174D01*
X2743991Y-10560174D02*
X2753515Y-10579222D01*
X2753515Y-10579222D02*
X2753515Y-10683984D01*
X3143991Y-10474460D02*
X2972563Y-10731603D01*
X3401134Y-10483984D02*
X3420182Y-10483984D01*
X3420182Y-10483984D02*
X3439229Y-10493508D01*
X3439229Y-10493508D02*
X3448753Y-10503031D01*
X3448753Y-10503031D02*
X3458277Y-10522079D01*
X3458277Y-10522079D02*
X3467801Y-10560174D01*
X3467801Y-10560174D02*
X3467801Y-10607793D01*
X3467801Y-10607793D02*
X3458277Y-10645889D01*
X3458277Y-10645889D02*
X3448753Y-10664936D01*
X3448753Y-10664936D02*
X3439229Y-10674460D01*
X3439229Y-10674460D02*
X3420182Y-10683984D01*
X3420182Y-10683984D02*
X3401134Y-10683984D01*
X3401134Y-10683984D02*
X3382086Y-10674460D01*
X3382086Y-10674460D02*
X3372563Y-10664936D01*
X3372563Y-10664936D02*
X3363039Y-10645889D01*
X3363039Y-10645889D02*
X3353515Y-10607793D01*
X3353515Y-10607793D02*
X3353515Y-10560174D01*
X3353515Y-10560174D02*
X3363039Y-10522079D01*
X3363039Y-10522079D02*
X3372563Y-10503031D01*
X3372563Y-10503031D02*
X3382086Y-10493508D01*
X3382086Y-10493508D02*
X3401134Y-10483984D01*
X3553515Y-10664936D02*
X3563039Y-10674460D01*
X3563039Y-10674460D02*
X3553515Y-10683984D01*
X3553515Y-10683984D02*
X3543991Y-10674460D01*
X3543991Y-10674460D02*
X3553515Y-10664936D01*
X3553515Y-10664936D02*
X3553515Y-10683984D01*
X3686848Y-10483984D02*
X3705896Y-10483984D01*
X3705896Y-10483984D02*
X3724944Y-10493508D01*
X3724944Y-10493508D02*
X3734467Y-10503031D01*
X3734467Y-10503031D02*
X3743991Y-10522079D01*
X3743991Y-10522079D02*
X3753515Y-10560174D01*
X3753515Y-10560174D02*
X3753515Y-10607793D01*
X3753515Y-10607793D02*
X3743991Y-10645889D01*
X3743991Y-10645889D02*
X3734467Y-10664936D01*
X3734467Y-10664936D02*
X3724944Y-10674460D01*
X3724944Y-10674460D02*
X3705896Y-10683984D01*
X3705896Y-10683984D02*
X3686848Y-10683984D01*
X3686848Y-10683984D02*
X3667801Y-10674460D01*
X3667801Y-10674460D02*
X3658277Y-10664936D01*
X3658277Y-10664936D02*
X3648753Y-10645889D01*
X3648753Y-10645889D02*
X3639229Y-10607793D01*
X3639229Y-10607793D02*
X3639229Y-10560174D01*
X3639229Y-10560174D02*
X3648753Y-10522079D01*
X3648753Y-10522079D02*
X3658277Y-10503031D01*
X3658277Y-10503031D02*
X3667801Y-10493508D01*
X3667801Y-10493508D02*
X3686848Y-10483984D01*
X3820182Y-10483984D02*
X3943991Y-10483984D01*
X3943991Y-10483984D02*
X3877325Y-10560174D01*
X3877325Y-10560174D02*
X3905896Y-10560174D01*
X3905896Y-10560174D02*
X3924944Y-10569698D01*
X3924944Y-10569698D02*
X3934467Y-10579222D01*
X3934467Y-10579222D02*
X3943991Y-10598270D01*
X3943991Y-10598270D02*
X3943991Y-10645889D01*
X3943991Y-10645889D02*
X3934467Y-10664936D01*
X3934467Y-10664936D02*
X3924944Y-10674460D01*
X3924944Y-10674460D02*
X3905896Y-10683984D01*
X3905896Y-10683984D02*
X3848753Y-10683984D01*
X3848753Y-10683984D02*
X3829706Y-10674460D01*
X3829706Y-10674460D02*
X3820182Y-10664936D01*
X4134467Y-10683984D02*
X4020182Y-10683984D01*
X4077325Y-10683984D02*
X4077325Y-10483984D01*
X4077325Y-10483984D02*
X4058277Y-10512555D01*
X4058277Y-10512555D02*
X4039229Y-10531603D01*
X4039229Y-10531603D02*
X4020182Y-10541127D01*
X4315420Y-10483984D02*
X4220182Y-10483984D01*
X4220182Y-10483984D02*
X4210658Y-10579222D01*
X4210658Y-10579222D02*
X4220182Y-10569698D01*
X4220182Y-10569698D02*
X4239229Y-10560174D01*
X4239229Y-10560174D02*
X4286849Y-10560174D01*
X4286849Y-10560174D02*
X4305896Y-10569698D01*
X4305896Y-10569698D02*
X4315420Y-10579222D01*
X4315420Y-10579222D02*
X4324944Y-10598270D01*
X4324944Y-10598270D02*
X4324944Y-10645889D01*
X4324944Y-10645889D02*
X4315420Y-10664936D01*
X4315420Y-10664936D02*
X4305896Y-10674460D01*
X4305896Y-10674460D02*
X4286849Y-10683984D01*
X4286849Y-10683984D02*
X4239229Y-10683984D01*
X4239229Y-10683984D02*
X4220182Y-10674460D01*
X4220182Y-10674460D02*
X4210658Y-10664936D01*
X4401134Y-10483984D02*
X4401134Y-10522079D01*
X4477325Y-10483984D02*
X4477325Y-10522079D01*
X4772563Y-10760174D02*
X4763039Y-10750650D01*
X4763039Y-10750650D02*
X4743991Y-10722079D01*
X4743991Y-10722079D02*
X4734468Y-10703031D01*
X4734468Y-10703031D02*
X4724944Y-10674460D01*
X4724944Y-10674460D02*
X4715420Y-10626841D01*
X4715420Y-10626841D02*
X4715420Y-10588746D01*
X4715420Y-10588746D02*
X4724944Y-10541127D01*
X4724944Y-10541127D02*
X4734468Y-10512555D01*
X4734468Y-10512555D02*
X4743991Y-10493508D01*
X4743991Y-10493508D02*
X4763039Y-10464936D01*
X4763039Y-10464936D02*
X4772563Y-10455412D01*
X4953515Y-10683984D02*
X4839230Y-10683984D01*
X4896372Y-10683984D02*
X4896372Y-10483984D01*
X4896372Y-10483984D02*
X4877325Y-10512555D01*
X4877325Y-10512555D02*
X4858277Y-10531603D01*
X4858277Y-10531603D02*
X4839230Y-10541127D01*
X5124944Y-10483984D02*
X5086849Y-10483984D01*
X5086849Y-10483984D02*
X5067801Y-10493508D01*
X5067801Y-10493508D02*
X5058277Y-10503031D01*
X5058277Y-10503031D02*
X5039230Y-10531603D01*
X5039230Y-10531603D02*
X5029706Y-10569698D01*
X5029706Y-10569698D02*
X5029706Y-10645889D01*
X5029706Y-10645889D02*
X5039230Y-10664936D01*
X5039230Y-10664936D02*
X5048753Y-10674460D01*
X5048753Y-10674460D02*
X5067801Y-10683984D01*
X5067801Y-10683984D02*
X5105896Y-10683984D01*
X5105896Y-10683984D02*
X5124944Y-10674460D01*
X5124944Y-10674460D02*
X5134468Y-10664936D01*
X5134468Y-10664936D02*
X5143991Y-10645889D01*
X5143991Y-10645889D02*
X5143991Y-10598270D01*
X5143991Y-10598270D02*
X5134468Y-10579222D01*
X5134468Y-10579222D02*
X5124944Y-10569698D01*
X5124944Y-10569698D02*
X5105896Y-10560174D01*
X5105896Y-10560174D02*
X5067801Y-10560174D01*
X5067801Y-10560174D02*
X5048753Y-10569698D01*
X5048753Y-10569698D02*
X5039230Y-10579222D01*
X5039230Y-10579222D02*
X5029706Y-10598270D01*
X5382087Y-10683984D02*
X5382087Y-10483984D01*
X5467801Y-10683984D02*
X5467801Y-10579222D01*
X5467801Y-10579222D02*
X5458277Y-10560174D01*
X5458277Y-10560174D02*
X5439230Y-10550650D01*
X5439230Y-10550650D02*
X5410658Y-10550650D01*
X5410658Y-10550650D02*
X5391611Y-10560174D01*
X5391611Y-10560174D02*
X5382087Y-10569698D01*
X5591611Y-10683984D02*
X5572563Y-10674460D01*
X5572563Y-10674460D02*
X5563039Y-10664936D01*
X5563039Y-10664936D02*
X5553515Y-10645889D01*
X5553515Y-10645889D02*
X5553515Y-10588746D01*
X5553515Y-10588746D02*
X5563039Y-10569698D01*
X5563039Y-10569698D02*
X5572563Y-10560174D01*
X5572563Y-10560174D02*
X5591611Y-10550650D01*
X5591611Y-10550650D02*
X5620182Y-10550650D01*
X5620182Y-10550650D02*
X5639230Y-10560174D01*
X5639230Y-10560174D02*
X5648753Y-10569698D01*
X5648753Y-10569698D02*
X5658277Y-10588746D01*
X5658277Y-10588746D02*
X5658277Y-10645889D01*
X5658277Y-10645889D02*
X5648753Y-10664936D01*
X5648753Y-10664936D02*
X5639230Y-10674460D01*
X5639230Y-10674460D02*
X5620182Y-10683984D01*
X5620182Y-10683984D02*
X5591611Y-10683984D01*
X5772563Y-10683984D02*
X5753515Y-10674460D01*
X5753515Y-10674460D02*
X5743991Y-10655412D01*
X5743991Y-10655412D02*
X5743991Y-10483984D01*
X5924944Y-10674460D02*
X5905896Y-10683984D01*
X5905896Y-10683984D02*
X5867801Y-10683984D01*
X5867801Y-10683984D02*
X5848753Y-10674460D01*
X5848753Y-10674460D02*
X5839230Y-10655412D01*
X5839230Y-10655412D02*
X5839230Y-10579222D01*
X5839230Y-10579222D02*
X5848753Y-10560174D01*
X5848753Y-10560174D02*
X5867801Y-10550650D01*
X5867801Y-10550650D02*
X5905896Y-10550650D01*
X5905896Y-10550650D02*
X5924944Y-10560174D01*
X5924944Y-10560174D02*
X5934468Y-10579222D01*
X5934468Y-10579222D02*
X5934468Y-10598270D01*
X5934468Y-10598270D02*
X5839230Y-10617317D01*
X6010658Y-10674460D02*
X6029706Y-10683984D01*
X6029706Y-10683984D02*
X6067801Y-10683984D01*
X6067801Y-10683984D02*
X6086849Y-10674460D01*
X6086849Y-10674460D02*
X6096372Y-10655412D01*
X6096372Y-10655412D02*
X6096372Y-10645889D01*
X6096372Y-10645889D02*
X6086849Y-10626841D01*
X6086849Y-10626841D02*
X6067801Y-10617317D01*
X6067801Y-10617317D02*
X6039230Y-10617317D01*
X6039230Y-10617317D02*
X6020182Y-10607793D01*
X6020182Y-10607793D02*
X6010658Y-10588746D01*
X6010658Y-10588746D02*
X6010658Y-10579222D01*
X6010658Y-10579222D02*
X6020182Y-10560174D01*
X6020182Y-10560174D02*
X6039230Y-10550650D01*
X6039230Y-10550650D02*
X6067801Y-10550650D01*
X6067801Y-10550650D02*
X6086849Y-10560174D01*
X6163039Y-10760174D02*
X6172563Y-10750650D01*
X6172563Y-10750650D02*
X6191611Y-10722079D01*
X6191611Y-10722079D02*
X6201134Y-10703031D01*
X6201134Y-10703031D02*
X6210658Y-10674460D01*
X6210658Y-10674460D02*
X6220182Y-10626841D01*
X6220182Y-10626841D02*
X6220182Y-10588746D01*
X6220182Y-10588746D02*
X6210658Y-10541127D01*
X6210658Y-10541127D02*
X6201134Y-10512555D01*
X6201134Y-10512555D02*
X6191611Y-10493508D01*
X6191611Y-10493508D02*
X6172563Y-10464936D01*
X6172563Y-10464936D02*
X6163039Y-10455412D01*
D12*
X1197500Y-10856500D02*
G75*
G02*
X1097500Y-10856500I-50000J0D01*
G01*
X1097500Y-10856500D02*
G75*
G02*
X1197500Y-10856500I50000J0D01*
G01*
D11*
X1563039Y-10947984D02*
X1448753Y-10947984D01*
X1505896Y-10947984D02*
X1505896Y-10747984D01*
X1505896Y-10747984D02*
X1486848Y-10776555D01*
X1486848Y-10776555D02*
X1467801Y-10795603D01*
X1467801Y-10795603D02*
X1448753Y-10805127D01*
X1648753Y-10928936D02*
X1658277Y-10938460D01*
X1658277Y-10938460D02*
X1648753Y-10947984D01*
X1648753Y-10947984D02*
X1639229Y-10938460D01*
X1639229Y-10938460D02*
X1648753Y-10928936D01*
X1648753Y-10928936D02*
X1648753Y-10947984D01*
X1782086Y-10747984D02*
X1801134Y-10747984D01*
X1801134Y-10747984D02*
X1820182Y-10757508D01*
X1820182Y-10757508D02*
X1829705Y-10767031D01*
X1829705Y-10767031D02*
X1839229Y-10786079D01*
X1839229Y-10786079D02*
X1848753Y-10824174D01*
X1848753Y-10824174D02*
X1848753Y-10871793D01*
X1848753Y-10871793D02*
X1839229Y-10909889D01*
X1839229Y-10909889D02*
X1829705Y-10928936D01*
X1829705Y-10928936D02*
X1820182Y-10938460D01*
X1820182Y-10938460D02*
X1801134Y-10947984D01*
X1801134Y-10947984D02*
X1782086Y-10947984D01*
X1782086Y-10947984D02*
X1763039Y-10938460D01*
X1763039Y-10938460D02*
X1753515Y-10928936D01*
X1753515Y-10928936D02*
X1743991Y-10909889D01*
X1743991Y-10909889D02*
X1734467Y-10871793D01*
X1734467Y-10871793D02*
X1734467Y-10824174D01*
X1734467Y-10824174D02*
X1743991Y-10786079D01*
X1743991Y-10786079D02*
X1753515Y-10767031D01*
X1753515Y-10767031D02*
X1763039Y-10757508D01*
X1763039Y-10757508D02*
X1782086Y-10747984D01*
X1972562Y-10747984D02*
X1991610Y-10747984D01*
X1991610Y-10747984D02*
X2010658Y-10757508D01*
X2010658Y-10757508D02*
X2020182Y-10767031D01*
X2020182Y-10767031D02*
X2029705Y-10786079D01*
X2029705Y-10786079D02*
X2039229Y-10824174D01*
X2039229Y-10824174D02*
X2039229Y-10871793D01*
X2039229Y-10871793D02*
X2029705Y-10909889D01*
X2029705Y-10909889D02*
X2020182Y-10928936D01*
X2020182Y-10928936D02*
X2010658Y-10938460D01*
X2010658Y-10938460D02*
X1991610Y-10947984D01*
X1991610Y-10947984D02*
X1972562Y-10947984D01*
X1972562Y-10947984D02*
X1953515Y-10938460D01*
X1953515Y-10938460D02*
X1943991Y-10928936D01*
X1943991Y-10928936D02*
X1934467Y-10909889D01*
X1934467Y-10909889D02*
X1924943Y-10871793D01*
X1924943Y-10871793D02*
X1924943Y-10824174D01*
X1924943Y-10824174D02*
X1934467Y-10786079D01*
X1934467Y-10786079D02*
X1943991Y-10767031D01*
X1943991Y-10767031D02*
X1953515Y-10757508D01*
X1953515Y-10757508D02*
X1972562Y-10747984D01*
X2163039Y-10747984D02*
X2182086Y-10747984D01*
X2182086Y-10747984D02*
X2201134Y-10757508D01*
X2201134Y-10757508D02*
X2210658Y-10767031D01*
X2210658Y-10767031D02*
X2220182Y-10786079D01*
X2220182Y-10786079D02*
X2229705Y-10824174D01*
X2229705Y-10824174D02*
X2229705Y-10871793D01*
X2229705Y-10871793D02*
X2220182Y-10909889D01*
X2220182Y-10909889D02*
X2210658Y-10928936D01*
X2210658Y-10928936D02*
X2201134Y-10938460D01*
X2201134Y-10938460D02*
X2182086Y-10947984D01*
X2182086Y-10947984D02*
X2163039Y-10947984D01*
X2163039Y-10947984D02*
X2143991Y-10938460D01*
X2143991Y-10938460D02*
X2134467Y-10928936D01*
X2134467Y-10928936D02*
X2124944Y-10909889D01*
X2124944Y-10909889D02*
X2115420Y-10871793D01*
X2115420Y-10871793D02*
X2115420Y-10824174D01*
X2115420Y-10824174D02*
X2124944Y-10786079D01*
X2124944Y-10786079D02*
X2134467Y-10767031D01*
X2134467Y-10767031D02*
X2143991Y-10757508D01*
X2143991Y-10757508D02*
X2163039Y-10747984D01*
X2315420Y-10947984D02*
X2315420Y-10814650D01*
X2315420Y-10833698D02*
X2324944Y-10824174D01*
X2324944Y-10824174D02*
X2343991Y-10814650D01*
X2343991Y-10814650D02*
X2372563Y-10814650D01*
X2372563Y-10814650D02*
X2391610Y-10824174D01*
X2391610Y-10824174D02*
X2401134Y-10843222D01*
X2401134Y-10843222D02*
X2401134Y-10947984D01*
X2401134Y-10843222D02*
X2410658Y-10824174D01*
X2410658Y-10824174D02*
X2429705Y-10814650D01*
X2429705Y-10814650D02*
X2458277Y-10814650D01*
X2458277Y-10814650D02*
X2477325Y-10824174D01*
X2477325Y-10824174D02*
X2486848Y-10843222D01*
X2486848Y-10843222D02*
X2486848Y-10947984D01*
X2582086Y-10947984D02*
X2582086Y-10814650D01*
X2582086Y-10833698D02*
X2591610Y-10824174D01*
X2591610Y-10824174D02*
X2610658Y-10814650D01*
X2610658Y-10814650D02*
X2639229Y-10814650D01*
X2639229Y-10814650D02*
X2658277Y-10824174D01*
X2658277Y-10824174D02*
X2667801Y-10843222D01*
X2667801Y-10843222D02*
X2667801Y-10947984D01*
X2667801Y-10843222D02*
X2677325Y-10824174D01*
X2677325Y-10824174D02*
X2696372Y-10814650D01*
X2696372Y-10814650D02*
X2724944Y-10814650D01*
X2724944Y-10814650D02*
X2743991Y-10824174D01*
X2743991Y-10824174D02*
X2753515Y-10843222D01*
X2753515Y-10843222D02*
X2753515Y-10947984D01*
X3143991Y-10738460D02*
X2972563Y-10995603D01*
X3401134Y-10747984D02*
X3420182Y-10747984D01*
X3420182Y-10747984D02*
X3439229Y-10757508D01*
X3439229Y-10757508D02*
X3448753Y-10767031D01*
X3448753Y-10767031D02*
X3458277Y-10786079D01*
X3458277Y-10786079D02*
X3467801Y-10824174D01*
X3467801Y-10824174D02*
X3467801Y-10871793D01*
X3467801Y-10871793D02*
X3458277Y-10909889D01*
X3458277Y-10909889D02*
X3448753Y-10928936D01*
X3448753Y-10928936D02*
X3439229Y-10938460D01*
X3439229Y-10938460D02*
X3420182Y-10947984D01*
X3420182Y-10947984D02*
X3401134Y-10947984D01*
X3401134Y-10947984D02*
X3382086Y-10938460D01*
X3382086Y-10938460D02*
X3372563Y-10928936D01*
X3372563Y-10928936D02*
X3363039Y-10909889D01*
X3363039Y-10909889D02*
X3353515Y-10871793D01*
X3353515Y-10871793D02*
X3353515Y-10824174D01*
X3353515Y-10824174D02*
X3363039Y-10786079D01*
X3363039Y-10786079D02*
X3372563Y-10767031D01*
X3372563Y-10767031D02*
X3382086Y-10757508D01*
X3382086Y-10757508D02*
X3401134Y-10747984D01*
X3553515Y-10928936D02*
X3563039Y-10938460D01*
X3563039Y-10938460D02*
X3553515Y-10947984D01*
X3553515Y-10947984D02*
X3543991Y-10938460D01*
X3543991Y-10938460D02*
X3553515Y-10928936D01*
X3553515Y-10928936D02*
X3553515Y-10947984D01*
X3686848Y-10747984D02*
X3705896Y-10747984D01*
X3705896Y-10747984D02*
X3724944Y-10757508D01*
X3724944Y-10757508D02*
X3734467Y-10767031D01*
X3734467Y-10767031D02*
X3743991Y-10786079D01*
X3743991Y-10786079D02*
X3753515Y-10824174D01*
X3753515Y-10824174D02*
X3753515Y-10871793D01*
X3753515Y-10871793D02*
X3743991Y-10909889D01*
X3743991Y-10909889D02*
X3734467Y-10928936D01*
X3734467Y-10928936D02*
X3724944Y-10938460D01*
X3724944Y-10938460D02*
X3705896Y-10947984D01*
X3705896Y-10947984D02*
X3686848Y-10947984D01*
X3686848Y-10947984D02*
X3667801Y-10938460D01*
X3667801Y-10938460D02*
X3658277Y-10928936D01*
X3658277Y-10928936D02*
X3648753Y-10909889D01*
X3648753Y-10909889D02*
X3639229Y-10871793D01*
X3639229Y-10871793D02*
X3639229Y-10824174D01*
X3639229Y-10824174D02*
X3648753Y-10786079D01*
X3648753Y-10786079D02*
X3658277Y-10767031D01*
X3658277Y-10767031D02*
X3667801Y-10757508D01*
X3667801Y-10757508D02*
X3686848Y-10747984D01*
X3820182Y-10747984D02*
X3943991Y-10747984D01*
X3943991Y-10747984D02*
X3877325Y-10824174D01*
X3877325Y-10824174D02*
X3905896Y-10824174D01*
X3905896Y-10824174D02*
X3924944Y-10833698D01*
X3924944Y-10833698D02*
X3934467Y-10843222D01*
X3934467Y-10843222D02*
X3943991Y-10862270D01*
X3943991Y-10862270D02*
X3943991Y-10909889D01*
X3943991Y-10909889D02*
X3934467Y-10928936D01*
X3934467Y-10928936D02*
X3924944Y-10938460D01*
X3924944Y-10938460D02*
X3905896Y-10947984D01*
X3905896Y-10947984D02*
X3848753Y-10947984D01*
X3848753Y-10947984D02*
X3829706Y-10938460D01*
X3829706Y-10938460D02*
X3820182Y-10928936D01*
X4039229Y-10947984D02*
X4077325Y-10947984D01*
X4077325Y-10947984D02*
X4096372Y-10938460D01*
X4096372Y-10938460D02*
X4105896Y-10928936D01*
X4105896Y-10928936D02*
X4124944Y-10900365D01*
X4124944Y-10900365D02*
X4134467Y-10862270D01*
X4134467Y-10862270D02*
X4134467Y-10786079D01*
X4134467Y-10786079D02*
X4124944Y-10767031D01*
X4124944Y-10767031D02*
X4115420Y-10757508D01*
X4115420Y-10757508D02*
X4096372Y-10747984D01*
X4096372Y-10747984D02*
X4058277Y-10747984D01*
X4058277Y-10747984D02*
X4039229Y-10757508D01*
X4039229Y-10757508D02*
X4029706Y-10767031D01*
X4029706Y-10767031D02*
X4020182Y-10786079D01*
X4020182Y-10786079D02*
X4020182Y-10833698D01*
X4020182Y-10833698D02*
X4029706Y-10852746D01*
X4029706Y-10852746D02*
X4039229Y-10862270D01*
X4039229Y-10862270D02*
X4058277Y-10871793D01*
X4058277Y-10871793D02*
X4096372Y-10871793D01*
X4096372Y-10871793D02*
X4115420Y-10862270D01*
X4115420Y-10862270D02*
X4124944Y-10852746D01*
X4124944Y-10852746D02*
X4134467Y-10833698D01*
X4305896Y-10814650D02*
X4305896Y-10947984D01*
X4258277Y-10738460D02*
X4210658Y-10881317D01*
X4210658Y-10881317D02*
X4334468Y-10881317D01*
X4401134Y-10747984D02*
X4401134Y-10786079D01*
X4477325Y-10747984D02*
X4477325Y-10786079D01*
X4772563Y-11024174D02*
X4763039Y-11014650D01*
X4763039Y-11014650D02*
X4743991Y-10986079D01*
X4743991Y-10986079D02*
X4734468Y-10967031D01*
X4734468Y-10967031D02*
X4724944Y-10938460D01*
X4724944Y-10938460D02*
X4715420Y-10890841D01*
X4715420Y-10890841D02*
X4715420Y-10852746D01*
X4715420Y-10852746D02*
X4724944Y-10805127D01*
X4724944Y-10805127D02*
X4734468Y-10776555D01*
X4734468Y-10776555D02*
X4743991Y-10757508D01*
X4743991Y-10757508D02*
X4763039Y-10728936D01*
X4763039Y-10728936D02*
X4772563Y-10719412D01*
X4877325Y-10833698D02*
X4858277Y-10824174D01*
X4858277Y-10824174D02*
X4848753Y-10814650D01*
X4848753Y-10814650D02*
X4839230Y-10795603D01*
X4839230Y-10795603D02*
X4839230Y-10786079D01*
X4839230Y-10786079D02*
X4848753Y-10767031D01*
X4848753Y-10767031D02*
X4858277Y-10757508D01*
X4858277Y-10757508D02*
X4877325Y-10747984D01*
X4877325Y-10747984D02*
X4915420Y-10747984D01*
X4915420Y-10747984D02*
X4934468Y-10757508D01*
X4934468Y-10757508D02*
X4943991Y-10767031D01*
X4943991Y-10767031D02*
X4953515Y-10786079D01*
X4953515Y-10786079D02*
X4953515Y-10795603D01*
X4953515Y-10795603D02*
X4943991Y-10814650D01*
X4943991Y-10814650D02*
X4934468Y-10824174D01*
X4934468Y-10824174D02*
X4915420Y-10833698D01*
X4915420Y-10833698D02*
X4877325Y-10833698D01*
X4877325Y-10833698D02*
X4858277Y-10843222D01*
X4858277Y-10843222D02*
X4848753Y-10852746D01*
X4848753Y-10852746D02*
X4839230Y-10871793D01*
X4839230Y-10871793D02*
X4839230Y-10909889D01*
X4839230Y-10909889D02*
X4848753Y-10928936D01*
X4848753Y-10928936D02*
X4858277Y-10938460D01*
X4858277Y-10938460D02*
X4877325Y-10947984D01*
X4877325Y-10947984D02*
X4915420Y-10947984D01*
X4915420Y-10947984D02*
X4934468Y-10938460D01*
X4934468Y-10938460D02*
X4943991Y-10928936D01*
X4943991Y-10928936D02*
X4953515Y-10909889D01*
X4953515Y-10909889D02*
X4953515Y-10871793D01*
X4953515Y-10871793D02*
X4943991Y-10852746D01*
X4943991Y-10852746D02*
X4934468Y-10843222D01*
X4934468Y-10843222D02*
X4915420Y-10833698D01*
X5191611Y-10947984D02*
X5191611Y-10747984D01*
X5277325Y-10947984D02*
X5277325Y-10843222D01*
X5277325Y-10843222D02*
X5267801Y-10824174D01*
X5267801Y-10824174D02*
X5248753Y-10814650D01*
X5248753Y-10814650D02*
X5220182Y-10814650D01*
X5220182Y-10814650D02*
X5201134Y-10824174D01*
X5201134Y-10824174D02*
X5191611Y-10833698D01*
X5401134Y-10947984D02*
X5382087Y-10938460D01*
X5382087Y-10938460D02*
X5372563Y-10928936D01*
X5372563Y-10928936D02*
X5363039Y-10909889D01*
X5363039Y-10909889D02*
X5363039Y-10852746D01*
X5363039Y-10852746D02*
X5372563Y-10833698D01*
X5372563Y-10833698D02*
X5382087Y-10824174D01*
X5382087Y-10824174D02*
X5401134Y-10814650D01*
X5401134Y-10814650D02*
X5429706Y-10814650D01*
X5429706Y-10814650D02*
X5448753Y-10824174D01*
X5448753Y-10824174D02*
X5458277Y-10833698D01*
X5458277Y-10833698D02*
X5467801Y-10852746D01*
X5467801Y-10852746D02*
X5467801Y-10909889D01*
X5467801Y-10909889D02*
X5458277Y-10928936D01*
X5458277Y-10928936D02*
X5448753Y-10938460D01*
X5448753Y-10938460D02*
X5429706Y-10947984D01*
X5429706Y-10947984D02*
X5401134Y-10947984D01*
X5582087Y-10947984D02*
X5563039Y-10938460D01*
X5563039Y-10938460D02*
X5553515Y-10919412D01*
X5553515Y-10919412D02*
X5553515Y-10747984D01*
X5734468Y-10938460D02*
X5715420Y-10947984D01*
X5715420Y-10947984D02*
X5677325Y-10947984D01*
X5677325Y-10947984D02*
X5658277Y-10938460D01*
X5658277Y-10938460D02*
X5648753Y-10919412D01*
X5648753Y-10919412D02*
X5648753Y-10843222D01*
X5648753Y-10843222D02*
X5658277Y-10824174D01*
X5658277Y-10824174D02*
X5677325Y-10814650D01*
X5677325Y-10814650D02*
X5715420Y-10814650D01*
X5715420Y-10814650D02*
X5734468Y-10824174D01*
X5734468Y-10824174D02*
X5743991Y-10843222D01*
X5743991Y-10843222D02*
X5743991Y-10862270D01*
X5743991Y-10862270D02*
X5648753Y-10881317D01*
X5820182Y-10938460D02*
X5839230Y-10947984D01*
X5839230Y-10947984D02*
X5877325Y-10947984D01*
X5877325Y-10947984D02*
X5896372Y-10938460D01*
X5896372Y-10938460D02*
X5905896Y-10919412D01*
X5905896Y-10919412D02*
X5905896Y-10909889D01*
X5905896Y-10909889D02*
X5896372Y-10890841D01*
X5896372Y-10890841D02*
X5877325Y-10881317D01*
X5877325Y-10881317D02*
X5848753Y-10881317D01*
X5848753Y-10881317D02*
X5829706Y-10871793D01*
X5829706Y-10871793D02*
X5820182Y-10852746D01*
X5820182Y-10852746D02*
X5820182Y-10843222D01*
X5820182Y-10843222D02*
X5829706Y-10824174D01*
X5829706Y-10824174D02*
X5848753Y-10814650D01*
X5848753Y-10814650D02*
X5877325Y-10814650D01*
X5877325Y-10814650D02*
X5896372Y-10824174D01*
X5972563Y-11024174D02*
X5982087Y-11014650D01*
X5982087Y-11014650D02*
X6001134Y-10986079D01*
X6001134Y-10986079D02*
X6010658Y-10967031D01*
X6010658Y-10967031D02*
X6020182Y-10938460D01*
X6020182Y-10938460D02*
X6029706Y-10890841D01*
X6029706Y-10890841D02*
X6029706Y-10852746D01*
X6029706Y-10852746D02*
X6020182Y-10805127D01*
X6020182Y-10805127D02*
X6010658Y-10776555D01*
X6010658Y-10776555D02*
X6001134Y-10757508D01*
X6001134Y-10757508D02*
X5982087Y-10728936D01*
X5982087Y-10728936D02*
X5972563Y-10719412D01*
D13*
X1142500Y-11065500D02*
X1142500Y-11175500D01*
X1087500Y-11120500D02*
X1197500Y-11120500D01*
D11*
X1563039Y-11211984D02*
X1448753Y-11211984D01*
X1505896Y-11211984D02*
X1505896Y-11011984D01*
X1505896Y-11011984D02*
X1486848Y-11040555D01*
X1486848Y-11040555D02*
X1467801Y-11059603D01*
X1467801Y-11059603D02*
X1448753Y-11069127D01*
X1648753Y-11192936D02*
X1658277Y-11202460D01*
X1658277Y-11202460D02*
X1648753Y-11211984D01*
X1648753Y-11211984D02*
X1639229Y-11202460D01*
X1639229Y-11202460D02*
X1648753Y-11192936D01*
X1648753Y-11192936D02*
X1648753Y-11211984D01*
X1848753Y-11211984D02*
X1734467Y-11211984D01*
X1791610Y-11211984D02*
X1791610Y-11011984D01*
X1791610Y-11011984D02*
X1772562Y-11040555D01*
X1772562Y-11040555D02*
X1753515Y-11059603D01*
X1753515Y-11059603D02*
X1734467Y-11069127D01*
X1972562Y-11011984D02*
X1991610Y-11011984D01*
X1991610Y-11011984D02*
X2010658Y-11021508D01*
X2010658Y-11021508D02*
X2020182Y-11031031D01*
X2020182Y-11031031D02*
X2029705Y-11050079D01*
X2029705Y-11050079D02*
X2039229Y-11088174D01*
X2039229Y-11088174D02*
X2039229Y-11135793D01*
X2039229Y-11135793D02*
X2029705Y-11173889D01*
X2029705Y-11173889D02*
X2020182Y-11192936D01*
X2020182Y-11192936D02*
X2010658Y-11202460D01*
X2010658Y-11202460D02*
X1991610Y-11211984D01*
X1991610Y-11211984D02*
X1972562Y-11211984D01*
X1972562Y-11211984D02*
X1953515Y-11202460D01*
X1953515Y-11202460D02*
X1943991Y-11192936D01*
X1943991Y-11192936D02*
X1934467Y-11173889D01*
X1934467Y-11173889D02*
X1924943Y-11135793D01*
X1924943Y-11135793D02*
X1924943Y-11088174D01*
X1924943Y-11088174D02*
X1934467Y-11050079D01*
X1934467Y-11050079D02*
X1943991Y-11031031D01*
X1943991Y-11031031D02*
X1953515Y-11021508D01*
X1953515Y-11021508D02*
X1972562Y-11011984D01*
X2163039Y-11011984D02*
X2182086Y-11011984D01*
X2182086Y-11011984D02*
X2201134Y-11021508D01*
X2201134Y-11021508D02*
X2210658Y-11031031D01*
X2210658Y-11031031D02*
X2220182Y-11050079D01*
X2220182Y-11050079D02*
X2229705Y-11088174D01*
X2229705Y-11088174D02*
X2229705Y-11135793D01*
X2229705Y-11135793D02*
X2220182Y-11173889D01*
X2220182Y-11173889D02*
X2210658Y-11192936D01*
X2210658Y-11192936D02*
X2201134Y-11202460D01*
X2201134Y-11202460D02*
X2182086Y-11211984D01*
X2182086Y-11211984D02*
X2163039Y-11211984D01*
X2163039Y-11211984D02*
X2143991Y-11202460D01*
X2143991Y-11202460D02*
X2134467Y-11192936D01*
X2134467Y-11192936D02*
X2124944Y-11173889D01*
X2124944Y-11173889D02*
X2115420Y-11135793D01*
X2115420Y-11135793D02*
X2115420Y-11088174D01*
X2115420Y-11088174D02*
X2124944Y-11050079D01*
X2124944Y-11050079D02*
X2134467Y-11031031D01*
X2134467Y-11031031D02*
X2143991Y-11021508D01*
X2143991Y-11021508D02*
X2163039Y-11011984D01*
X2315420Y-11211984D02*
X2315420Y-11078650D01*
X2315420Y-11097698D02*
X2324944Y-11088174D01*
X2324944Y-11088174D02*
X2343991Y-11078650D01*
X2343991Y-11078650D02*
X2372563Y-11078650D01*
X2372563Y-11078650D02*
X2391610Y-11088174D01*
X2391610Y-11088174D02*
X2401134Y-11107222D01*
X2401134Y-11107222D02*
X2401134Y-11211984D01*
X2401134Y-11107222D02*
X2410658Y-11088174D01*
X2410658Y-11088174D02*
X2429705Y-11078650D01*
X2429705Y-11078650D02*
X2458277Y-11078650D01*
X2458277Y-11078650D02*
X2477325Y-11088174D01*
X2477325Y-11088174D02*
X2486848Y-11107222D01*
X2486848Y-11107222D02*
X2486848Y-11211984D01*
X2582086Y-11211984D02*
X2582086Y-11078650D01*
X2582086Y-11097698D02*
X2591610Y-11088174D01*
X2591610Y-11088174D02*
X2610658Y-11078650D01*
X2610658Y-11078650D02*
X2639229Y-11078650D01*
X2639229Y-11078650D02*
X2658277Y-11088174D01*
X2658277Y-11088174D02*
X2667801Y-11107222D01*
X2667801Y-11107222D02*
X2667801Y-11211984D01*
X2667801Y-11107222D02*
X2677325Y-11088174D01*
X2677325Y-11088174D02*
X2696372Y-11078650D01*
X2696372Y-11078650D02*
X2724944Y-11078650D01*
X2724944Y-11078650D02*
X2743991Y-11088174D01*
X2743991Y-11088174D02*
X2753515Y-11107222D01*
X2753515Y-11107222D02*
X2753515Y-11211984D01*
X3143991Y-11002460D02*
X2972563Y-11259603D01*
X3401134Y-11011984D02*
X3420182Y-11011984D01*
X3420182Y-11011984D02*
X3439229Y-11021508D01*
X3439229Y-11021508D02*
X3448753Y-11031031D01*
X3448753Y-11031031D02*
X3458277Y-11050079D01*
X3458277Y-11050079D02*
X3467801Y-11088174D01*
X3467801Y-11088174D02*
X3467801Y-11135793D01*
X3467801Y-11135793D02*
X3458277Y-11173889D01*
X3458277Y-11173889D02*
X3448753Y-11192936D01*
X3448753Y-11192936D02*
X3439229Y-11202460D01*
X3439229Y-11202460D02*
X3420182Y-11211984D01*
X3420182Y-11211984D02*
X3401134Y-11211984D01*
X3401134Y-11211984D02*
X3382086Y-11202460D01*
X3382086Y-11202460D02*
X3372563Y-11192936D01*
X3372563Y-11192936D02*
X3363039Y-11173889D01*
X3363039Y-11173889D02*
X3353515Y-11135793D01*
X3353515Y-11135793D02*
X3353515Y-11088174D01*
X3353515Y-11088174D02*
X3363039Y-11050079D01*
X3363039Y-11050079D02*
X3372563Y-11031031D01*
X3372563Y-11031031D02*
X3382086Y-11021508D01*
X3382086Y-11021508D02*
X3401134Y-11011984D01*
X3553515Y-11192936D02*
X3563039Y-11202460D01*
X3563039Y-11202460D02*
X3553515Y-11211984D01*
X3553515Y-11211984D02*
X3543991Y-11202460D01*
X3543991Y-11202460D02*
X3553515Y-11192936D01*
X3553515Y-11192936D02*
X3553515Y-11211984D01*
X3686848Y-11011984D02*
X3705896Y-11011984D01*
X3705896Y-11011984D02*
X3724944Y-11021508D01*
X3724944Y-11021508D02*
X3734467Y-11031031D01*
X3734467Y-11031031D02*
X3743991Y-11050079D01*
X3743991Y-11050079D02*
X3753515Y-11088174D01*
X3753515Y-11088174D02*
X3753515Y-11135793D01*
X3753515Y-11135793D02*
X3743991Y-11173889D01*
X3743991Y-11173889D02*
X3734467Y-11192936D01*
X3734467Y-11192936D02*
X3724944Y-11202460D01*
X3724944Y-11202460D02*
X3705896Y-11211984D01*
X3705896Y-11211984D02*
X3686848Y-11211984D01*
X3686848Y-11211984D02*
X3667801Y-11202460D01*
X3667801Y-11202460D02*
X3658277Y-11192936D01*
X3658277Y-11192936D02*
X3648753Y-11173889D01*
X3648753Y-11173889D02*
X3639229Y-11135793D01*
X3639229Y-11135793D02*
X3639229Y-11088174D01*
X3639229Y-11088174D02*
X3648753Y-11050079D01*
X3648753Y-11050079D02*
X3658277Y-11031031D01*
X3658277Y-11031031D02*
X3667801Y-11021508D01*
X3667801Y-11021508D02*
X3686848Y-11011984D01*
X3924944Y-11078650D02*
X3924944Y-11211984D01*
X3877325Y-11002460D02*
X3829706Y-11145317D01*
X3829706Y-11145317D02*
X3953515Y-11145317D01*
X4010658Y-11011984D02*
X4134467Y-11011984D01*
X4134467Y-11011984D02*
X4067801Y-11088174D01*
X4067801Y-11088174D02*
X4096372Y-11088174D01*
X4096372Y-11088174D02*
X4115420Y-11097698D01*
X4115420Y-11097698D02*
X4124944Y-11107222D01*
X4124944Y-11107222D02*
X4134467Y-11126270D01*
X4134467Y-11126270D02*
X4134467Y-11173889D01*
X4134467Y-11173889D02*
X4124944Y-11192936D01*
X4124944Y-11192936D02*
X4115420Y-11202460D01*
X4115420Y-11202460D02*
X4096372Y-11211984D01*
X4096372Y-11211984D02*
X4039229Y-11211984D01*
X4039229Y-11211984D02*
X4020182Y-11202460D01*
X4020182Y-11202460D02*
X4010658Y-11192936D01*
X4201134Y-11011984D02*
X4324944Y-11011984D01*
X4324944Y-11011984D02*
X4258277Y-11088174D01*
X4258277Y-11088174D02*
X4286849Y-11088174D01*
X4286849Y-11088174D02*
X4305896Y-11097698D01*
X4305896Y-11097698D02*
X4315420Y-11107222D01*
X4315420Y-11107222D02*
X4324944Y-11126270D01*
X4324944Y-11126270D02*
X4324944Y-11173889D01*
X4324944Y-11173889D02*
X4315420Y-11192936D01*
X4315420Y-11192936D02*
X4305896Y-11202460D01*
X4305896Y-11202460D02*
X4286849Y-11211984D01*
X4286849Y-11211984D02*
X4229706Y-11211984D01*
X4229706Y-11211984D02*
X4210658Y-11202460D01*
X4210658Y-11202460D02*
X4201134Y-11192936D01*
X4401134Y-11011984D02*
X4401134Y-11050079D01*
X4477325Y-11011984D02*
X4477325Y-11050079D01*
X4772563Y-11288174D02*
X4763039Y-11278650D01*
X4763039Y-11278650D02*
X4743991Y-11250079D01*
X4743991Y-11250079D02*
X4734468Y-11231031D01*
X4734468Y-11231031D02*
X4724944Y-11202460D01*
X4724944Y-11202460D02*
X4715420Y-11154841D01*
X4715420Y-11154841D02*
X4715420Y-11116746D01*
X4715420Y-11116746D02*
X4724944Y-11069127D01*
X4724944Y-11069127D02*
X4734468Y-11040555D01*
X4734468Y-11040555D02*
X4743991Y-11021508D01*
X4743991Y-11021508D02*
X4763039Y-10992936D01*
X4763039Y-10992936D02*
X4772563Y-10983412D01*
X4839230Y-11031031D02*
X4848753Y-11021508D01*
X4848753Y-11021508D02*
X4867801Y-11011984D01*
X4867801Y-11011984D02*
X4915420Y-11011984D01*
X4915420Y-11011984D02*
X4934468Y-11021508D01*
X4934468Y-11021508D02*
X4943991Y-11031031D01*
X4943991Y-11031031D02*
X4953515Y-11050079D01*
X4953515Y-11050079D02*
X4953515Y-11069127D01*
X4953515Y-11069127D02*
X4943991Y-11097698D01*
X4943991Y-11097698D02*
X4829706Y-11211984D01*
X4829706Y-11211984D02*
X4953515Y-11211984D01*
X5124944Y-11078650D02*
X5124944Y-11211984D01*
X5077325Y-11002460D02*
X5029706Y-11145317D01*
X5029706Y-11145317D02*
X5153515Y-11145317D01*
X5382087Y-11211984D02*
X5382087Y-11011984D01*
X5467801Y-11211984D02*
X5467801Y-11107222D01*
X5467801Y-11107222D02*
X5458277Y-11088174D01*
X5458277Y-11088174D02*
X5439230Y-11078650D01*
X5439230Y-11078650D02*
X5410658Y-11078650D01*
X5410658Y-11078650D02*
X5391611Y-11088174D01*
X5391611Y-11088174D02*
X5382087Y-11097698D01*
X5591611Y-11211984D02*
X5572563Y-11202460D01*
X5572563Y-11202460D02*
X5563039Y-11192936D01*
X5563039Y-11192936D02*
X5553515Y-11173889D01*
X5553515Y-11173889D02*
X5553515Y-11116746D01*
X5553515Y-11116746D02*
X5563039Y-11097698D01*
X5563039Y-11097698D02*
X5572563Y-11088174D01*
X5572563Y-11088174D02*
X5591611Y-11078650D01*
X5591611Y-11078650D02*
X5620182Y-11078650D01*
X5620182Y-11078650D02*
X5639230Y-11088174D01*
X5639230Y-11088174D02*
X5648753Y-11097698D01*
X5648753Y-11097698D02*
X5658277Y-11116746D01*
X5658277Y-11116746D02*
X5658277Y-11173889D01*
X5658277Y-11173889D02*
X5648753Y-11192936D01*
X5648753Y-11192936D02*
X5639230Y-11202460D01*
X5639230Y-11202460D02*
X5620182Y-11211984D01*
X5620182Y-11211984D02*
X5591611Y-11211984D01*
X5772563Y-11211984D02*
X5753515Y-11202460D01*
X5753515Y-11202460D02*
X5743991Y-11183412D01*
X5743991Y-11183412D02*
X5743991Y-11011984D01*
X5924944Y-11202460D02*
X5905896Y-11211984D01*
X5905896Y-11211984D02*
X5867801Y-11211984D01*
X5867801Y-11211984D02*
X5848753Y-11202460D01*
X5848753Y-11202460D02*
X5839230Y-11183412D01*
X5839230Y-11183412D02*
X5839230Y-11107222D01*
X5839230Y-11107222D02*
X5848753Y-11088174D01*
X5848753Y-11088174D02*
X5867801Y-11078650D01*
X5867801Y-11078650D02*
X5905896Y-11078650D01*
X5905896Y-11078650D02*
X5924944Y-11088174D01*
X5924944Y-11088174D02*
X5934468Y-11107222D01*
X5934468Y-11107222D02*
X5934468Y-11126270D01*
X5934468Y-11126270D02*
X5839230Y-11145317D01*
X6010658Y-11202460D02*
X6029706Y-11211984D01*
X6029706Y-11211984D02*
X6067801Y-11211984D01*
X6067801Y-11211984D02*
X6086849Y-11202460D01*
X6086849Y-11202460D02*
X6096372Y-11183412D01*
X6096372Y-11183412D02*
X6096372Y-11173889D01*
X6096372Y-11173889D02*
X6086849Y-11154841D01*
X6086849Y-11154841D02*
X6067801Y-11145317D01*
X6067801Y-11145317D02*
X6039230Y-11145317D01*
X6039230Y-11145317D02*
X6020182Y-11135793D01*
X6020182Y-11135793D02*
X6010658Y-11116746D01*
X6010658Y-11116746D02*
X6010658Y-11107222D01*
X6010658Y-11107222D02*
X6020182Y-11088174D01*
X6020182Y-11088174D02*
X6039230Y-11078650D01*
X6039230Y-11078650D02*
X6067801Y-11078650D01*
X6067801Y-11078650D02*
X6086849Y-11088174D01*
X6163039Y-11288174D02*
X6172563Y-11278650D01*
X6172563Y-11278650D02*
X6191611Y-11250079D01*
X6191611Y-11250079D02*
X6201134Y-11231031D01*
X6201134Y-11231031D02*
X6210658Y-11202460D01*
X6210658Y-11202460D02*
X6220182Y-11154841D01*
X6220182Y-11154841D02*
X6220182Y-11116746D01*
X6220182Y-11116746D02*
X6210658Y-11069127D01*
X6210658Y-11069127D02*
X6201134Y-11040555D01*
X6201134Y-11040555D02*
X6191611Y-11021508D01*
X6191611Y-11021508D02*
X6172563Y-10992936D01*
X6172563Y-10992936D02*
X6163039Y-10983412D01*
D14*
X1179927Y-11426927D02*
X1179927Y-11342073D01*
X1095073Y-11342073D01*
X1095073Y-11426927D01*
X1179927Y-11426927D01*
D11*
X1563039Y-11475984D02*
X1448753Y-11475984D01*
X1505896Y-11475984D02*
X1505896Y-11275984D01*
X1505896Y-11275984D02*
X1486848Y-11304555D01*
X1486848Y-11304555D02*
X1467801Y-11323603D01*
X1467801Y-11323603D02*
X1448753Y-11333127D01*
X1648753Y-11456936D02*
X1658277Y-11466460D01*
X1658277Y-11466460D02*
X1648753Y-11475984D01*
X1648753Y-11475984D02*
X1639229Y-11466460D01*
X1639229Y-11466460D02*
X1648753Y-11456936D01*
X1648753Y-11456936D02*
X1648753Y-11475984D01*
X1734467Y-11295031D02*
X1743991Y-11285508D01*
X1743991Y-11285508D02*
X1763039Y-11275984D01*
X1763039Y-11275984D02*
X1810658Y-11275984D01*
X1810658Y-11275984D02*
X1829705Y-11285508D01*
X1829705Y-11285508D02*
X1839229Y-11295031D01*
X1839229Y-11295031D02*
X1848753Y-11314079D01*
X1848753Y-11314079D02*
X1848753Y-11333127D01*
X1848753Y-11333127D02*
X1839229Y-11361698D01*
X1839229Y-11361698D02*
X1724943Y-11475984D01*
X1724943Y-11475984D02*
X1848753Y-11475984D01*
X1972562Y-11275984D02*
X1991610Y-11275984D01*
X1991610Y-11275984D02*
X2010658Y-11285508D01*
X2010658Y-11285508D02*
X2020182Y-11295031D01*
X2020182Y-11295031D02*
X2029705Y-11314079D01*
X2029705Y-11314079D02*
X2039229Y-11352174D01*
X2039229Y-11352174D02*
X2039229Y-11399793D01*
X2039229Y-11399793D02*
X2029705Y-11437888D01*
X2029705Y-11437888D02*
X2020182Y-11456936D01*
X2020182Y-11456936D02*
X2010658Y-11466460D01*
X2010658Y-11466460D02*
X1991610Y-11475984D01*
X1991610Y-11475984D02*
X1972562Y-11475984D01*
X1972562Y-11475984D02*
X1953515Y-11466460D01*
X1953515Y-11466460D02*
X1943991Y-11456936D01*
X1943991Y-11456936D02*
X1934467Y-11437888D01*
X1934467Y-11437888D02*
X1924943Y-11399793D01*
X1924943Y-11399793D02*
X1924943Y-11352174D01*
X1924943Y-11352174D02*
X1934467Y-11314079D01*
X1934467Y-11314079D02*
X1943991Y-11295031D01*
X1943991Y-11295031D02*
X1953515Y-11285508D01*
X1953515Y-11285508D02*
X1972562Y-11275984D01*
X2163039Y-11275984D02*
X2182086Y-11275984D01*
X2182086Y-11275984D02*
X2201134Y-11285508D01*
X2201134Y-11285508D02*
X2210658Y-11295031D01*
X2210658Y-11295031D02*
X2220182Y-11314079D01*
X2220182Y-11314079D02*
X2229705Y-11352174D01*
X2229705Y-11352174D02*
X2229705Y-11399793D01*
X2229705Y-11399793D02*
X2220182Y-11437888D01*
X2220182Y-11437888D02*
X2210658Y-11456936D01*
X2210658Y-11456936D02*
X2201134Y-11466460D01*
X2201134Y-11466460D02*
X2182086Y-11475984D01*
X2182086Y-11475984D02*
X2163039Y-11475984D01*
X2163039Y-11475984D02*
X2143991Y-11466460D01*
X2143991Y-11466460D02*
X2134467Y-11456936D01*
X2134467Y-11456936D02*
X2124944Y-11437888D01*
X2124944Y-11437888D02*
X2115420Y-11399793D01*
X2115420Y-11399793D02*
X2115420Y-11352174D01*
X2115420Y-11352174D02*
X2124944Y-11314079D01*
X2124944Y-11314079D02*
X2134467Y-11295031D01*
X2134467Y-11295031D02*
X2143991Y-11285508D01*
X2143991Y-11285508D02*
X2163039Y-11275984D01*
X2315420Y-11475984D02*
X2315420Y-11342650D01*
X2315420Y-11361698D02*
X2324944Y-11352174D01*
X2324944Y-11352174D02*
X2343991Y-11342650D01*
X2343991Y-11342650D02*
X2372563Y-11342650D01*
X2372563Y-11342650D02*
X2391610Y-11352174D01*
X2391610Y-11352174D02*
X2401134Y-11371222D01*
X2401134Y-11371222D02*
X2401134Y-11475984D01*
X2401134Y-11371222D02*
X2410658Y-11352174D01*
X2410658Y-11352174D02*
X2429705Y-11342650D01*
X2429705Y-11342650D02*
X2458277Y-11342650D01*
X2458277Y-11342650D02*
X2477325Y-11352174D01*
X2477325Y-11352174D02*
X2486848Y-11371222D01*
X2486848Y-11371222D02*
X2486848Y-11475984D01*
X2582086Y-11475984D02*
X2582086Y-11342650D01*
X2582086Y-11361698D02*
X2591610Y-11352174D01*
X2591610Y-11352174D02*
X2610658Y-11342650D01*
X2610658Y-11342650D02*
X2639229Y-11342650D01*
X2639229Y-11342650D02*
X2658277Y-11352174D01*
X2658277Y-11352174D02*
X2667801Y-11371222D01*
X2667801Y-11371222D02*
X2667801Y-11475984D01*
X2667801Y-11371222D02*
X2677325Y-11352174D01*
X2677325Y-11352174D02*
X2696372Y-11342650D01*
X2696372Y-11342650D02*
X2724944Y-11342650D01*
X2724944Y-11342650D02*
X2743991Y-11352174D01*
X2743991Y-11352174D02*
X2753515Y-11371222D01*
X2753515Y-11371222D02*
X2753515Y-11475984D01*
X3143991Y-11266460D02*
X2972563Y-11523603D01*
X3401134Y-11275984D02*
X3420182Y-11275984D01*
X3420182Y-11275984D02*
X3439229Y-11285508D01*
X3439229Y-11285508D02*
X3448753Y-11295031D01*
X3448753Y-11295031D02*
X3458277Y-11314079D01*
X3458277Y-11314079D02*
X3467801Y-11352174D01*
X3467801Y-11352174D02*
X3467801Y-11399793D01*
X3467801Y-11399793D02*
X3458277Y-11437888D01*
X3458277Y-11437888D02*
X3448753Y-11456936D01*
X3448753Y-11456936D02*
X3439229Y-11466460D01*
X3439229Y-11466460D02*
X3420182Y-11475984D01*
X3420182Y-11475984D02*
X3401134Y-11475984D01*
X3401134Y-11475984D02*
X3382086Y-11466460D01*
X3382086Y-11466460D02*
X3372563Y-11456936D01*
X3372563Y-11456936D02*
X3363039Y-11437888D01*
X3363039Y-11437888D02*
X3353515Y-11399793D01*
X3353515Y-11399793D02*
X3353515Y-11352174D01*
X3353515Y-11352174D02*
X3363039Y-11314079D01*
X3363039Y-11314079D02*
X3372563Y-11295031D01*
X3372563Y-11295031D02*
X3382086Y-11285508D01*
X3382086Y-11285508D02*
X3401134Y-11275984D01*
X3553515Y-11456936D02*
X3563039Y-11466460D01*
X3563039Y-11466460D02*
X3553515Y-11475984D01*
X3553515Y-11475984D02*
X3543991Y-11466460D01*
X3543991Y-11466460D02*
X3553515Y-11456936D01*
X3553515Y-11456936D02*
X3553515Y-11475984D01*
X3686848Y-11275984D02*
X3705896Y-11275984D01*
X3705896Y-11275984D02*
X3724944Y-11285508D01*
X3724944Y-11285508D02*
X3734467Y-11295031D01*
X3734467Y-11295031D02*
X3743991Y-11314079D01*
X3743991Y-11314079D02*
X3753515Y-11352174D01*
X3753515Y-11352174D02*
X3753515Y-11399793D01*
X3753515Y-11399793D02*
X3743991Y-11437888D01*
X3743991Y-11437888D02*
X3734467Y-11456936D01*
X3734467Y-11456936D02*
X3724944Y-11466460D01*
X3724944Y-11466460D02*
X3705896Y-11475984D01*
X3705896Y-11475984D02*
X3686848Y-11475984D01*
X3686848Y-11475984D02*
X3667801Y-11466460D01*
X3667801Y-11466460D02*
X3658277Y-11456936D01*
X3658277Y-11456936D02*
X3648753Y-11437888D01*
X3648753Y-11437888D02*
X3639229Y-11399793D01*
X3639229Y-11399793D02*
X3639229Y-11352174D01*
X3639229Y-11352174D02*
X3648753Y-11314079D01*
X3648753Y-11314079D02*
X3658277Y-11295031D01*
X3658277Y-11295031D02*
X3667801Y-11285508D01*
X3667801Y-11285508D02*
X3686848Y-11275984D01*
X3924944Y-11342650D02*
X3924944Y-11475984D01*
X3877325Y-11266460D02*
X3829706Y-11409317D01*
X3829706Y-11409317D02*
X3953515Y-11409317D01*
X4010658Y-11275984D02*
X4143991Y-11275984D01*
X4143991Y-11275984D02*
X4058277Y-11475984D01*
X4210658Y-11295031D02*
X4220182Y-11285508D01*
X4220182Y-11285508D02*
X4239229Y-11275984D01*
X4239229Y-11275984D02*
X4286849Y-11275984D01*
X4286849Y-11275984D02*
X4305896Y-11285508D01*
X4305896Y-11285508D02*
X4315420Y-11295031D01*
X4315420Y-11295031D02*
X4324944Y-11314079D01*
X4324944Y-11314079D02*
X4324944Y-11333127D01*
X4324944Y-11333127D02*
X4315420Y-11361698D01*
X4315420Y-11361698D02*
X4201134Y-11475984D01*
X4201134Y-11475984D02*
X4324944Y-11475984D01*
X4401134Y-11275984D02*
X4401134Y-11314079D01*
X4477325Y-11275984D02*
X4477325Y-11314079D01*
X4772563Y-11552174D02*
X4763039Y-11542650D01*
X4763039Y-11542650D02*
X4743991Y-11514079D01*
X4743991Y-11514079D02*
X4734468Y-11495031D01*
X4734468Y-11495031D02*
X4724944Y-11466460D01*
X4724944Y-11466460D02*
X4715420Y-11418841D01*
X4715420Y-11418841D02*
X4715420Y-11380746D01*
X4715420Y-11380746D02*
X4724944Y-11333127D01*
X4724944Y-11333127D02*
X4734468Y-11304555D01*
X4734468Y-11304555D02*
X4743991Y-11285508D01*
X4743991Y-11285508D02*
X4763039Y-11256936D01*
X4763039Y-11256936D02*
X4772563Y-11247412D01*
X4953515Y-11475984D02*
X4839230Y-11475984D01*
X4896372Y-11475984D02*
X4896372Y-11275984D01*
X4896372Y-11275984D02*
X4877325Y-11304555D01*
X4877325Y-11304555D02*
X4858277Y-11323603D01*
X4858277Y-11323603D02*
X4839230Y-11333127D01*
X5029706Y-11295031D02*
X5039230Y-11285508D01*
X5039230Y-11285508D02*
X5058277Y-11275984D01*
X5058277Y-11275984D02*
X5105896Y-11275984D01*
X5105896Y-11275984D02*
X5124944Y-11285508D01*
X5124944Y-11285508D02*
X5134468Y-11295031D01*
X5134468Y-11295031D02*
X5143991Y-11314079D01*
X5143991Y-11314079D02*
X5143991Y-11333127D01*
X5143991Y-11333127D02*
X5134468Y-11361698D01*
X5134468Y-11361698D02*
X5020182Y-11475984D01*
X5020182Y-11475984D02*
X5143991Y-11475984D01*
X5382087Y-11475984D02*
X5382087Y-11275984D01*
X5467801Y-11475984D02*
X5467801Y-11371222D01*
X5467801Y-11371222D02*
X5458277Y-11352174D01*
X5458277Y-11352174D02*
X5439230Y-11342650D01*
X5439230Y-11342650D02*
X5410658Y-11342650D01*
X5410658Y-11342650D02*
X5391611Y-11352174D01*
X5391611Y-11352174D02*
X5382087Y-11361698D01*
X5591611Y-11475984D02*
X5572563Y-11466460D01*
X5572563Y-11466460D02*
X5563039Y-11456936D01*
X5563039Y-11456936D02*
X5553515Y-11437888D01*
X5553515Y-11437888D02*
X5553515Y-11380746D01*
X5553515Y-11380746D02*
X5563039Y-11361698D01*
X5563039Y-11361698D02*
X5572563Y-11352174D01*
X5572563Y-11352174D02*
X5591611Y-11342650D01*
X5591611Y-11342650D02*
X5620182Y-11342650D01*
X5620182Y-11342650D02*
X5639230Y-11352174D01*
X5639230Y-11352174D02*
X5648753Y-11361698D01*
X5648753Y-11361698D02*
X5658277Y-11380746D01*
X5658277Y-11380746D02*
X5658277Y-11437888D01*
X5658277Y-11437888D02*
X5648753Y-11456936D01*
X5648753Y-11456936D02*
X5639230Y-11466460D01*
X5639230Y-11466460D02*
X5620182Y-11475984D01*
X5620182Y-11475984D02*
X5591611Y-11475984D01*
X5772563Y-11475984D02*
X5753515Y-11466460D01*
X5753515Y-11466460D02*
X5743991Y-11447412D01*
X5743991Y-11447412D02*
X5743991Y-11275984D01*
X5924944Y-11466460D02*
X5905896Y-11475984D01*
X5905896Y-11475984D02*
X5867801Y-11475984D01*
X5867801Y-11475984D02*
X5848753Y-11466460D01*
X5848753Y-11466460D02*
X5839230Y-11447412D01*
X5839230Y-11447412D02*
X5839230Y-11371222D01*
X5839230Y-11371222D02*
X5848753Y-11352174D01*
X5848753Y-11352174D02*
X5867801Y-11342650D01*
X5867801Y-11342650D02*
X5905896Y-11342650D01*
X5905896Y-11342650D02*
X5924944Y-11352174D01*
X5924944Y-11352174D02*
X5934468Y-11371222D01*
X5934468Y-11371222D02*
X5934468Y-11390269D01*
X5934468Y-11390269D02*
X5839230Y-11409317D01*
X6010658Y-11466460D02*
X6029706Y-11475984D01*
X6029706Y-11475984D02*
X6067801Y-11475984D01*
X6067801Y-11475984D02*
X6086849Y-11466460D01*
X6086849Y-11466460D02*
X6096372Y-11447412D01*
X6096372Y-11447412D02*
X6096372Y-11437888D01*
X6096372Y-11437888D02*
X6086849Y-11418841D01*
X6086849Y-11418841D02*
X6067801Y-11409317D01*
X6067801Y-11409317D02*
X6039230Y-11409317D01*
X6039230Y-11409317D02*
X6020182Y-11399793D01*
X6020182Y-11399793D02*
X6010658Y-11380746D01*
X6010658Y-11380746D02*
X6010658Y-11371222D01*
X6010658Y-11371222D02*
X6020182Y-11352174D01*
X6020182Y-11352174D02*
X6039230Y-11342650D01*
X6039230Y-11342650D02*
X6067801Y-11342650D01*
X6067801Y-11342650D02*
X6086849Y-11352174D01*
X6163039Y-11552174D02*
X6172563Y-11542650D01*
X6172563Y-11542650D02*
X6191611Y-11514079D01*
X6191611Y-11514079D02*
X6201134Y-11495031D01*
X6201134Y-11495031D02*
X6210658Y-11466460D01*
X6210658Y-11466460D02*
X6220182Y-11418841D01*
X6220182Y-11418841D02*
X6220182Y-11380746D01*
X6220182Y-11380746D02*
X6210658Y-11333127D01*
X6210658Y-11333127D02*
X6201134Y-11304555D01*
X6201134Y-11304555D02*
X6191611Y-11285508D01*
X6191611Y-11285508D02*
X6172563Y-11256936D01*
X6172563Y-11256936D02*
X6163039Y-11247412D01*
D15*
X1132500Y-11713500D02*
X1197500Y-11648500D01*
X1132500Y-11583500D01*
X1067500Y-11648500D01*
X1132500Y-11713500D01*
D11*
X1563039Y-11739984D02*
X1448753Y-11739984D01*
X1505896Y-11739984D02*
X1505896Y-11539984D01*
X1505896Y-11539984D02*
X1486848Y-11568555D01*
X1486848Y-11568555D02*
X1467801Y-11587603D01*
X1467801Y-11587603D02*
X1448753Y-11597127D01*
X1648753Y-11720936D02*
X1658277Y-11730460D01*
X1658277Y-11730460D02*
X1648753Y-11739984D01*
X1648753Y-11739984D02*
X1639229Y-11730460D01*
X1639229Y-11730460D02*
X1648753Y-11720936D01*
X1648753Y-11720936D02*
X1648753Y-11739984D01*
X1724943Y-11539984D02*
X1848753Y-11539984D01*
X1848753Y-11539984D02*
X1782086Y-11616174D01*
X1782086Y-11616174D02*
X1810658Y-11616174D01*
X1810658Y-11616174D02*
X1829705Y-11625698D01*
X1829705Y-11625698D02*
X1839229Y-11635222D01*
X1839229Y-11635222D02*
X1848753Y-11654269D01*
X1848753Y-11654269D02*
X1848753Y-11701888D01*
X1848753Y-11701888D02*
X1839229Y-11720936D01*
X1839229Y-11720936D02*
X1829705Y-11730460D01*
X1829705Y-11730460D02*
X1810658Y-11739984D01*
X1810658Y-11739984D02*
X1753515Y-11739984D01*
X1753515Y-11739984D02*
X1734467Y-11730460D01*
X1734467Y-11730460D02*
X1724943Y-11720936D01*
X1972562Y-11539984D02*
X1991610Y-11539984D01*
X1991610Y-11539984D02*
X2010658Y-11549508D01*
X2010658Y-11549508D02*
X2020182Y-11559031D01*
X2020182Y-11559031D02*
X2029705Y-11578079D01*
X2029705Y-11578079D02*
X2039229Y-11616174D01*
X2039229Y-11616174D02*
X2039229Y-11663793D01*
X2039229Y-11663793D02*
X2029705Y-11701888D01*
X2029705Y-11701888D02*
X2020182Y-11720936D01*
X2020182Y-11720936D02*
X2010658Y-11730460D01*
X2010658Y-11730460D02*
X1991610Y-11739984D01*
X1991610Y-11739984D02*
X1972562Y-11739984D01*
X1972562Y-11739984D02*
X1953515Y-11730460D01*
X1953515Y-11730460D02*
X1943991Y-11720936D01*
X1943991Y-11720936D02*
X1934467Y-11701888D01*
X1934467Y-11701888D02*
X1924943Y-11663793D01*
X1924943Y-11663793D02*
X1924943Y-11616174D01*
X1924943Y-11616174D02*
X1934467Y-11578079D01*
X1934467Y-11578079D02*
X1943991Y-11559031D01*
X1943991Y-11559031D02*
X1953515Y-11549508D01*
X1953515Y-11549508D02*
X1972562Y-11539984D01*
X2163039Y-11539984D02*
X2182086Y-11539984D01*
X2182086Y-11539984D02*
X2201134Y-11549508D01*
X2201134Y-11549508D02*
X2210658Y-11559031D01*
X2210658Y-11559031D02*
X2220182Y-11578079D01*
X2220182Y-11578079D02*
X2229705Y-11616174D01*
X2229705Y-11616174D02*
X2229705Y-11663793D01*
X2229705Y-11663793D02*
X2220182Y-11701888D01*
X2220182Y-11701888D02*
X2210658Y-11720936D01*
X2210658Y-11720936D02*
X2201134Y-11730460D01*
X2201134Y-11730460D02*
X2182086Y-11739984D01*
X2182086Y-11739984D02*
X2163039Y-11739984D01*
X2163039Y-11739984D02*
X2143991Y-11730460D01*
X2143991Y-11730460D02*
X2134467Y-11720936D01*
X2134467Y-11720936D02*
X2124944Y-11701888D01*
X2124944Y-11701888D02*
X2115420Y-11663793D01*
X2115420Y-11663793D02*
X2115420Y-11616174D01*
X2115420Y-11616174D02*
X2124944Y-11578079D01*
X2124944Y-11578079D02*
X2134467Y-11559031D01*
X2134467Y-11559031D02*
X2143991Y-11549508D01*
X2143991Y-11549508D02*
X2163039Y-11539984D01*
X2315420Y-11739984D02*
X2315420Y-11606650D01*
X2315420Y-11625698D02*
X2324944Y-11616174D01*
X2324944Y-11616174D02*
X2343991Y-11606650D01*
X2343991Y-11606650D02*
X2372563Y-11606650D01*
X2372563Y-11606650D02*
X2391610Y-11616174D01*
X2391610Y-11616174D02*
X2401134Y-11635222D01*
X2401134Y-11635222D02*
X2401134Y-11739984D01*
X2401134Y-11635222D02*
X2410658Y-11616174D01*
X2410658Y-11616174D02*
X2429705Y-11606650D01*
X2429705Y-11606650D02*
X2458277Y-11606650D01*
X2458277Y-11606650D02*
X2477325Y-11616174D01*
X2477325Y-11616174D02*
X2486848Y-11635222D01*
X2486848Y-11635222D02*
X2486848Y-11739984D01*
X2582086Y-11739984D02*
X2582086Y-11606650D01*
X2582086Y-11625698D02*
X2591610Y-11616174D01*
X2591610Y-11616174D02*
X2610658Y-11606650D01*
X2610658Y-11606650D02*
X2639229Y-11606650D01*
X2639229Y-11606650D02*
X2658277Y-11616174D01*
X2658277Y-11616174D02*
X2667801Y-11635222D01*
X2667801Y-11635222D02*
X2667801Y-11739984D01*
X2667801Y-11635222D02*
X2677325Y-11616174D01*
X2677325Y-11616174D02*
X2696372Y-11606650D01*
X2696372Y-11606650D02*
X2724944Y-11606650D01*
X2724944Y-11606650D02*
X2743991Y-11616174D01*
X2743991Y-11616174D02*
X2753515Y-11635222D01*
X2753515Y-11635222D02*
X2753515Y-11739984D01*
X3143991Y-11530460D02*
X2972563Y-11787603D01*
X3401134Y-11539984D02*
X3420182Y-11539984D01*
X3420182Y-11539984D02*
X3439229Y-11549508D01*
X3439229Y-11549508D02*
X3448753Y-11559031D01*
X3448753Y-11559031D02*
X3458277Y-11578079D01*
X3458277Y-11578079D02*
X3467801Y-11616174D01*
X3467801Y-11616174D02*
X3467801Y-11663793D01*
X3467801Y-11663793D02*
X3458277Y-11701888D01*
X3458277Y-11701888D02*
X3448753Y-11720936D01*
X3448753Y-11720936D02*
X3439229Y-11730460D01*
X3439229Y-11730460D02*
X3420182Y-11739984D01*
X3420182Y-11739984D02*
X3401134Y-11739984D01*
X3401134Y-11739984D02*
X3382086Y-11730460D01*
X3382086Y-11730460D02*
X3372563Y-11720936D01*
X3372563Y-11720936D02*
X3363039Y-11701888D01*
X3363039Y-11701888D02*
X3353515Y-11663793D01*
X3353515Y-11663793D02*
X3353515Y-11616174D01*
X3353515Y-11616174D02*
X3363039Y-11578079D01*
X3363039Y-11578079D02*
X3372563Y-11559031D01*
X3372563Y-11559031D02*
X3382086Y-11549508D01*
X3382086Y-11549508D02*
X3401134Y-11539984D01*
X3553515Y-11720936D02*
X3563039Y-11730460D01*
X3563039Y-11730460D02*
X3553515Y-11739984D01*
X3553515Y-11739984D02*
X3543991Y-11730460D01*
X3543991Y-11730460D02*
X3553515Y-11720936D01*
X3553515Y-11720936D02*
X3553515Y-11739984D01*
X3686848Y-11539984D02*
X3705896Y-11539984D01*
X3705896Y-11539984D02*
X3724944Y-11549508D01*
X3724944Y-11549508D02*
X3734467Y-11559031D01*
X3734467Y-11559031D02*
X3743991Y-11578079D01*
X3743991Y-11578079D02*
X3753515Y-11616174D01*
X3753515Y-11616174D02*
X3753515Y-11663793D01*
X3753515Y-11663793D02*
X3743991Y-11701888D01*
X3743991Y-11701888D02*
X3734467Y-11720936D01*
X3734467Y-11720936D02*
X3724944Y-11730460D01*
X3724944Y-11730460D02*
X3705896Y-11739984D01*
X3705896Y-11739984D02*
X3686848Y-11739984D01*
X3686848Y-11739984D02*
X3667801Y-11730460D01*
X3667801Y-11730460D02*
X3658277Y-11720936D01*
X3658277Y-11720936D02*
X3648753Y-11701888D01*
X3648753Y-11701888D02*
X3639229Y-11663793D01*
X3639229Y-11663793D02*
X3639229Y-11616174D01*
X3639229Y-11616174D02*
X3648753Y-11578079D01*
X3648753Y-11578079D02*
X3658277Y-11559031D01*
X3658277Y-11559031D02*
X3667801Y-11549508D01*
X3667801Y-11549508D02*
X3686848Y-11539984D01*
X3934467Y-11539984D02*
X3839229Y-11539984D01*
X3839229Y-11539984D02*
X3829706Y-11635222D01*
X3829706Y-11635222D02*
X3839229Y-11625698D01*
X3839229Y-11625698D02*
X3858277Y-11616174D01*
X3858277Y-11616174D02*
X3905896Y-11616174D01*
X3905896Y-11616174D02*
X3924944Y-11625698D01*
X3924944Y-11625698D02*
X3934467Y-11635222D01*
X3934467Y-11635222D02*
X3943991Y-11654269D01*
X3943991Y-11654269D02*
X3943991Y-11701888D01*
X3943991Y-11701888D02*
X3934467Y-11720936D01*
X3934467Y-11720936D02*
X3924944Y-11730460D01*
X3924944Y-11730460D02*
X3905896Y-11739984D01*
X3905896Y-11739984D02*
X3858277Y-11739984D01*
X3858277Y-11739984D02*
X3839229Y-11730460D01*
X3839229Y-11730460D02*
X3829706Y-11720936D01*
X4134467Y-11739984D02*
X4020182Y-11739984D01*
X4077325Y-11739984D02*
X4077325Y-11539984D01*
X4077325Y-11539984D02*
X4058277Y-11568555D01*
X4058277Y-11568555D02*
X4039229Y-11587603D01*
X4039229Y-11587603D02*
X4020182Y-11597127D01*
X4210658Y-11559031D02*
X4220182Y-11549508D01*
X4220182Y-11549508D02*
X4239229Y-11539984D01*
X4239229Y-11539984D02*
X4286849Y-11539984D01*
X4286849Y-11539984D02*
X4305896Y-11549508D01*
X4305896Y-11549508D02*
X4315420Y-11559031D01*
X4315420Y-11559031D02*
X4324944Y-11578079D01*
X4324944Y-11578079D02*
X4324944Y-11597127D01*
X4324944Y-11597127D02*
X4315420Y-11625698D01*
X4315420Y-11625698D02*
X4201134Y-11739984D01*
X4201134Y-11739984D02*
X4324944Y-11739984D01*
X4401134Y-11539984D02*
X4401134Y-11578079D01*
X4477325Y-11539984D02*
X4477325Y-11578079D01*
X4772563Y-11816174D02*
X4763039Y-11806650D01*
X4763039Y-11806650D02*
X4743991Y-11778079D01*
X4743991Y-11778079D02*
X4734468Y-11759031D01*
X4734468Y-11759031D02*
X4724944Y-11730460D01*
X4724944Y-11730460D02*
X4715420Y-11682841D01*
X4715420Y-11682841D02*
X4715420Y-11644746D01*
X4715420Y-11644746D02*
X4724944Y-11597127D01*
X4724944Y-11597127D02*
X4734468Y-11568555D01*
X4734468Y-11568555D02*
X4743991Y-11549508D01*
X4743991Y-11549508D02*
X4763039Y-11520936D01*
X4763039Y-11520936D02*
X4772563Y-11511412D01*
X4953515Y-11739984D02*
X4839230Y-11739984D01*
X4896372Y-11739984D02*
X4896372Y-11539984D01*
X4896372Y-11539984D02*
X4877325Y-11568555D01*
X4877325Y-11568555D02*
X4858277Y-11587603D01*
X4858277Y-11587603D02*
X4839230Y-11597127D01*
X5124944Y-11539984D02*
X5086849Y-11539984D01*
X5086849Y-11539984D02*
X5067801Y-11549508D01*
X5067801Y-11549508D02*
X5058277Y-11559031D01*
X5058277Y-11559031D02*
X5039230Y-11587603D01*
X5039230Y-11587603D02*
X5029706Y-11625698D01*
X5029706Y-11625698D02*
X5029706Y-11701888D01*
X5029706Y-11701888D02*
X5039230Y-11720936D01*
X5039230Y-11720936D02*
X5048753Y-11730460D01*
X5048753Y-11730460D02*
X5067801Y-11739984D01*
X5067801Y-11739984D02*
X5105896Y-11739984D01*
X5105896Y-11739984D02*
X5124944Y-11730460D01*
X5124944Y-11730460D02*
X5134468Y-11720936D01*
X5134468Y-11720936D02*
X5143991Y-11701888D01*
X5143991Y-11701888D02*
X5143991Y-11654269D01*
X5143991Y-11654269D02*
X5134468Y-11635222D01*
X5134468Y-11635222D02*
X5124944Y-11625698D01*
X5124944Y-11625698D02*
X5105896Y-11616174D01*
X5105896Y-11616174D02*
X5067801Y-11616174D01*
X5067801Y-11616174D02*
X5048753Y-11625698D01*
X5048753Y-11625698D02*
X5039230Y-11635222D01*
X5039230Y-11635222D02*
X5029706Y-11654269D01*
X5382087Y-11739984D02*
X5382087Y-11539984D01*
X5467801Y-11739984D02*
X5467801Y-11635222D01*
X5467801Y-11635222D02*
X5458277Y-11616174D01*
X5458277Y-11616174D02*
X5439230Y-11606650D01*
X5439230Y-11606650D02*
X5410658Y-11606650D01*
X5410658Y-11606650D02*
X5391611Y-11616174D01*
X5391611Y-11616174D02*
X5382087Y-11625698D01*
X5591611Y-11739984D02*
X5572563Y-11730460D01*
X5572563Y-11730460D02*
X5563039Y-11720936D01*
X5563039Y-11720936D02*
X5553515Y-11701888D01*
X5553515Y-11701888D02*
X5553515Y-11644746D01*
X5553515Y-11644746D02*
X5563039Y-11625698D01*
X5563039Y-11625698D02*
X5572563Y-11616174D01*
X5572563Y-11616174D02*
X5591611Y-11606650D01*
X5591611Y-11606650D02*
X5620182Y-11606650D01*
X5620182Y-11606650D02*
X5639230Y-11616174D01*
X5639230Y-11616174D02*
X5648753Y-11625698D01*
X5648753Y-11625698D02*
X5658277Y-11644746D01*
X5658277Y-11644746D02*
X5658277Y-11701888D01*
X5658277Y-11701888D02*
X5648753Y-11720936D01*
X5648753Y-11720936D02*
X5639230Y-11730460D01*
X5639230Y-11730460D02*
X5620182Y-11739984D01*
X5620182Y-11739984D02*
X5591611Y-11739984D01*
X5772563Y-11739984D02*
X5753515Y-11730460D01*
X5753515Y-11730460D02*
X5743991Y-11711412D01*
X5743991Y-11711412D02*
X5743991Y-11539984D01*
X5924944Y-11730460D02*
X5905896Y-11739984D01*
X5905896Y-11739984D02*
X5867801Y-11739984D01*
X5867801Y-11739984D02*
X5848753Y-11730460D01*
X5848753Y-11730460D02*
X5839230Y-11711412D01*
X5839230Y-11711412D02*
X5839230Y-11635222D01*
X5839230Y-11635222D02*
X5848753Y-11616174D01*
X5848753Y-11616174D02*
X5867801Y-11606650D01*
X5867801Y-11606650D02*
X5905896Y-11606650D01*
X5905896Y-11606650D02*
X5924944Y-11616174D01*
X5924944Y-11616174D02*
X5934468Y-11635222D01*
X5934468Y-11635222D02*
X5934468Y-11654269D01*
X5934468Y-11654269D02*
X5839230Y-11673317D01*
X6010658Y-11730460D02*
X6029706Y-11739984D01*
X6029706Y-11739984D02*
X6067801Y-11739984D01*
X6067801Y-11739984D02*
X6086849Y-11730460D01*
X6086849Y-11730460D02*
X6096372Y-11711412D01*
X6096372Y-11711412D02*
X6096372Y-11701888D01*
X6096372Y-11701888D02*
X6086849Y-11682841D01*
X6086849Y-11682841D02*
X6067801Y-11673317D01*
X6067801Y-11673317D02*
X6039230Y-11673317D01*
X6039230Y-11673317D02*
X6020182Y-11663793D01*
X6020182Y-11663793D02*
X6010658Y-11644746D01*
X6010658Y-11644746D02*
X6010658Y-11635222D01*
X6010658Y-11635222D02*
X6020182Y-11616174D01*
X6020182Y-11616174D02*
X6039230Y-11606650D01*
X6039230Y-11606650D02*
X6067801Y-11606650D01*
X6067801Y-11606650D02*
X6086849Y-11616174D01*
X6163039Y-11816174D02*
X6172563Y-11806650D01*
X6172563Y-11806650D02*
X6191611Y-11778079D01*
X6191611Y-11778079D02*
X6201134Y-11759031D01*
X6201134Y-11759031D02*
X6210658Y-11730460D01*
X6210658Y-11730460D02*
X6220182Y-11682841D01*
X6220182Y-11682841D02*
X6220182Y-11644746D01*
X6220182Y-11644746D02*
X6210658Y-11597127D01*
X6210658Y-11597127D02*
X6201134Y-11568555D01*
X6201134Y-11568555D02*
X6191611Y-11549508D01*
X6191611Y-11549508D02*
X6172563Y-11520936D01*
X6172563Y-11520936D02*
X6163039Y-11511412D01*
D16*
X1057500Y-11842500D02*
X1197500Y-11982500D01*
X1197500Y-11842500D02*
X1057500Y-11982500D01*
X1197500Y-11912500D02*
G75*
G02*
X1057500Y-11912500I-70000J0D01*
G01*
X1057500Y-11912500D02*
G75*
G02*
X1197500Y-11912500I70000J0D01*
G01*
D11*
X1563039Y-12003984D02*
X1448753Y-12003984D01*
X1505896Y-12003984D02*
X1505896Y-11803984D01*
X1505896Y-11803984D02*
X1486848Y-11832555D01*
X1486848Y-11832555D02*
X1467801Y-11851603D01*
X1467801Y-11851603D02*
X1448753Y-11861127D01*
X1648753Y-11984936D02*
X1658277Y-11994460D01*
X1658277Y-11994460D02*
X1648753Y-12003984D01*
X1648753Y-12003984D02*
X1639229Y-11994460D01*
X1639229Y-11994460D02*
X1648753Y-11984936D01*
X1648753Y-11984936D02*
X1648753Y-12003984D01*
X1829705Y-11870650D02*
X1829705Y-12003984D01*
X1782086Y-11794460D02*
X1734467Y-11937317D01*
X1734467Y-11937317D02*
X1858277Y-11937317D01*
X1972562Y-11803984D02*
X1991610Y-11803984D01*
X1991610Y-11803984D02*
X2010658Y-11813508D01*
X2010658Y-11813508D02*
X2020182Y-11823031D01*
X2020182Y-11823031D02*
X2029705Y-11842079D01*
X2029705Y-11842079D02*
X2039229Y-11880174D01*
X2039229Y-11880174D02*
X2039229Y-11927793D01*
X2039229Y-11927793D02*
X2029705Y-11965888D01*
X2029705Y-11965888D02*
X2020182Y-11984936D01*
X2020182Y-11984936D02*
X2010658Y-11994460D01*
X2010658Y-11994460D02*
X1991610Y-12003984D01*
X1991610Y-12003984D02*
X1972562Y-12003984D01*
X1972562Y-12003984D02*
X1953515Y-11994460D01*
X1953515Y-11994460D02*
X1943991Y-11984936D01*
X1943991Y-11984936D02*
X1934467Y-11965888D01*
X1934467Y-11965888D02*
X1924943Y-11927793D01*
X1924943Y-11927793D02*
X1924943Y-11880174D01*
X1924943Y-11880174D02*
X1934467Y-11842079D01*
X1934467Y-11842079D02*
X1943991Y-11823031D01*
X1943991Y-11823031D02*
X1953515Y-11813508D01*
X1953515Y-11813508D02*
X1972562Y-11803984D01*
X2163039Y-11803984D02*
X2182086Y-11803984D01*
X2182086Y-11803984D02*
X2201134Y-11813508D01*
X2201134Y-11813508D02*
X2210658Y-11823031D01*
X2210658Y-11823031D02*
X2220182Y-11842079D01*
X2220182Y-11842079D02*
X2229705Y-11880174D01*
X2229705Y-11880174D02*
X2229705Y-11927793D01*
X2229705Y-11927793D02*
X2220182Y-11965888D01*
X2220182Y-11965888D02*
X2210658Y-11984936D01*
X2210658Y-11984936D02*
X2201134Y-11994460D01*
X2201134Y-11994460D02*
X2182086Y-12003984D01*
X2182086Y-12003984D02*
X2163039Y-12003984D01*
X2163039Y-12003984D02*
X2143991Y-11994460D01*
X2143991Y-11994460D02*
X2134467Y-11984936D01*
X2134467Y-11984936D02*
X2124944Y-11965888D01*
X2124944Y-11965888D02*
X2115420Y-11927793D01*
X2115420Y-11927793D02*
X2115420Y-11880174D01*
X2115420Y-11880174D02*
X2124944Y-11842079D01*
X2124944Y-11842079D02*
X2134467Y-11823031D01*
X2134467Y-11823031D02*
X2143991Y-11813508D01*
X2143991Y-11813508D02*
X2163039Y-11803984D01*
X2315420Y-12003984D02*
X2315420Y-11870650D01*
X2315420Y-11889698D02*
X2324944Y-11880174D01*
X2324944Y-11880174D02*
X2343991Y-11870650D01*
X2343991Y-11870650D02*
X2372563Y-11870650D01*
X2372563Y-11870650D02*
X2391610Y-11880174D01*
X2391610Y-11880174D02*
X2401134Y-11899222D01*
X2401134Y-11899222D02*
X2401134Y-12003984D01*
X2401134Y-11899222D02*
X2410658Y-11880174D01*
X2410658Y-11880174D02*
X2429705Y-11870650D01*
X2429705Y-11870650D02*
X2458277Y-11870650D01*
X2458277Y-11870650D02*
X2477325Y-11880174D01*
X2477325Y-11880174D02*
X2486848Y-11899222D01*
X2486848Y-11899222D02*
X2486848Y-12003984D01*
X2582086Y-12003984D02*
X2582086Y-11870650D01*
X2582086Y-11889698D02*
X2591610Y-11880174D01*
X2591610Y-11880174D02*
X2610658Y-11870650D01*
X2610658Y-11870650D02*
X2639229Y-11870650D01*
X2639229Y-11870650D02*
X2658277Y-11880174D01*
X2658277Y-11880174D02*
X2667801Y-11899222D01*
X2667801Y-11899222D02*
X2667801Y-12003984D01*
X2667801Y-11899222D02*
X2677325Y-11880174D01*
X2677325Y-11880174D02*
X2696372Y-11870650D01*
X2696372Y-11870650D02*
X2724944Y-11870650D01*
X2724944Y-11870650D02*
X2743991Y-11880174D01*
X2743991Y-11880174D02*
X2753515Y-11899222D01*
X2753515Y-11899222D02*
X2753515Y-12003984D01*
X3143991Y-11794460D02*
X2972563Y-12051603D01*
X3401134Y-11803984D02*
X3420182Y-11803984D01*
X3420182Y-11803984D02*
X3439229Y-11813508D01*
X3439229Y-11813508D02*
X3448753Y-11823031D01*
X3448753Y-11823031D02*
X3458277Y-11842079D01*
X3458277Y-11842079D02*
X3467801Y-11880174D01*
X3467801Y-11880174D02*
X3467801Y-11927793D01*
X3467801Y-11927793D02*
X3458277Y-11965888D01*
X3458277Y-11965888D02*
X3448753Y-11984936D01*
X3448753Y-11984936D02*
X3439229Y-11994460D01*
X3439229Y-11994460D02*
X3420182Y-12003984D01*
X3420182Y-12003984D02*
X3401134Y-12003984D01*
X3401134Y-12003984D02*
X3382086Y-11994460D01*
X3382086Y-11994460D02*
X3372563Y-11984936D01*
X3372563Y-11984936D02*
X3363039Y-11965888D01*
X3363039Y-11965888D02*
X3353515Y-11927793D01*
X3353515Y-11927793D02*
X3353515Y-11880174D01*
X3353515Y-11880174D02*
X3363039Y-11842079D01*
X3363039Y-11842079D02*
X3372563Y-11823031D01*
X3372563Y-11823031D02*
X3382086Y-11813508D01*
X3382086Y-11813508D02*
X3401134Y-11803984D01*
X3553515Y-11984936D02*
X3563039Y-11994460D01*
X3563039Y-11994460D02*
X3553515Y-12003984D01*
X3553515Y-12003984D02*
X3543991Y-11994460D01*
X3543991Y-11994460D02*
X3553515Y-11984936D01*
X3553515Y-11984936D02*
X3553515Y-12003984D01*
X3686848Y-11803984D02*
X3705896Y-11803984D01*
X3705896Y-11803984D02*
X3724944Y-11813508D01*
X3724944Y-11813508D02*
X3734467Y-11823031D01*
X3734467Y-11823031D02*
X3743991Y-11842079D01*
X3743991Y-11842079D02*
X3753515Y-11880174D01*
X3753515Y-11880174D02*
X3753515Y-11927793D01*
X3753515Y-11927793D02*
X3743991Y-11965888D01*
X3743991Y-11965888D02*
X3734467Y-11984936D01*
X3734467Y-11984936D02*
X3724944Y-11994460D01*
X3724944Y-11994460D02*
X3705896Y-12003984D01*
X3705896Y-12003984D02*
X3686848Y-12003984D01*
X3686848Y-12003984D02*
X3667801Y-11994460D01*
X3667801Y-11994460D02*
X3658277Y-11984936D01*
X3658277Y-11984936D02*
X3648753Y-11965888D01*
X3648753Y-11965888D02*
X3639229Y-11927793D01*
X3639229Y-11927793D02*
X3639229Y-11880174D01*
X3639229Y-11880174D02*
X3648753Y-11842079D01*
X3648753Y-11842079D02*
X3658277Y-11823031D01*
X3658277Y-11823031D02*
X3667801Y-11813508D01*
X3667801Y-11813508D02*
X3686848Y-11803984D01*
X3934467Y-11803984D02*
X3839229Y-11803984D01*
X3839229Y-11803984D02*
X3829706Y-11899222D01*
X3829706Y-11899222D02*
X3839229Y-11889698D01*
X3839229Y-11889698D02*
X3858277Y-11880174D01*
X3858277Y-11880174D02*
X3905896Y-11880174D01*
X3905896Y-11880174D02*
X3924944Y-11889698D01*
X3924944Y-11889698D02*
X3934467Y-11899222D01*
X3934467Y-11899222D02*
X3943991Y-11918269D01*
X3943991Y-11918269D02*
X3943991Y-11965888D01*
X3943991Y-11965888D02*
X3934467Y-11984936D01*
X3934467Y-11984936D02*
X3924944Y-11994460D01*
X3924944Y-11994460D02*
X3905896Y-12003984D01*
X3905896Y-12003984D02*
X3858277Y-12003984D01*
X3858277Y-12003984D02*
X3839229Y-11994460D01*
X3839229Y-11994460D02*
X3829706Y-11984936D01*
X4124944Y-11803984D02*
X4029706Y-11803984D01*
X4029706Y-11803984D02*
X4020182Y-11899222D01*
X4020182Y-11899222D02*
X4029706Y-11889698D01*
X4029706Y-11889698D02*
X4048753Y-11880174D01*
X4048753Y-11880174D02*
X4096372Y-11880174D01*
X4096372Y-11880174D02*
X4115420Y-11889698D01*
X4115420Y-11889698D02*
X4124944Y-11899222D01*
X4124944Y-11899222D02*
X4134467Y-11918269D01*
X4134467Y-11918269D02*
X4134467Y-11965888D01*
X4134467Y-11965888D02*
X4124944Y-11984936D01*
X4124944Y-11984936D02*
X4115420Y-11994460D01*
X4115420Y-11994460D02*
X4096372Y-12003984D01*
X4096372Y-12003984D02*
X4048753Y-12003984D01*
X4048753Y-12003984D02*
X4029706Y-11994460D01*
X4029706Y-11994460D02*
X4020182Y-11984936D01*
X4324944Y-12003984D02*
X4210658Y-12003984D01*
X4267801Y-12003984D02*
X4267801Y-11803984D01*
X4267801Y-11803984D02*
X4248753Y-11832555D01*
X4248753Y-11832555D02*
X4229706Y-11851603D01*
X4229706Y-11851603D02*
X4210658Y-11861127D01*
X4401134Y-11803984D02*
X4401134Y-11842079D01*
X4477325Y-11803984D02*
X4477325Y-11842079D01*
X4772563Y-12080174D02*
X4763039Y-12070650D01*
X4763039Y-12070650D02*
X4743991Y-12042079D01*
X4743991Y-12042079D02*
X4734468Y-12023031D01*
X4734468Y-12023031D02*
X4724944Y-11994460D01*
X4724944Y-11994460D02*
X4715420Y-11946841D01*
X4715420Y-11946841D02*
X4715420Y-11908746D01*
X4715420Y-11908746D02*
X4724944Y-11861127D01*
X4724944Y-11861127D02*
X4734468Y-11832555D01*
X4734468Y-11832555D02*
X4743991Y-11813508D01*
X4743991Y-11813508D02*
X4763039Y-11784936D01*
X4763039Y-11784936D02*
X4772563Y-11775412D01*
X4839230Y-11823031D02*
X4848753Y-11813508D01*
X4848753Y-11813508D02*
X4867801Y-11803984D01*
X4867801Y-11803984D02*
X4915420Y-11803984D01*
X4915420Y-11803984D02*
X4934468Y-11813508D01*
X4934468Y-11813508D02*
X4943991Y-11823031D01*
X4943991Y-11823031D02*
X4953515Y-11842079D01*
X4953515Y-11842079D02*
X4953515Y-11861127D01*
X4953515Y-11861127D02*
X4943991Y-11889698D01*
X4943991Y-11889698D02*
X4829706Y-12003984D01*
X4829706Y-12003984D02*
X4953515Y-12003984D01*
X5191611Y-12003984D02*
X5191611Y-11803984D01*
X5277325Y-12003984D02*
X5277325Y-11899222D01*
X5277325Y-11899222D02*
X5267801Y-11880174D01*
X5267801Y-11880174D02*
X5248753Y-11870650D01*
X5248753Y-11870650D02*
X5220182Y-11870650D01*
X5220182Y-11870650D02*
X5201134Y-11880174D01*
X5201134Y-11880174D02*
X5191611Y-11889698D01*
X5401134Y-12003984D02*
X5382087Y-11994460D01*
X5382087Y-11994460D02*
X5372563Y-11984936D01*
X5372563Y-11984936D02*
X5363039Y-11965888D01*
X5363039Y-11965888D02*
X5363039Y-11908746D01*
X5363039Y-11908746D02*
X5372563Y-11889698D01*
X5372563Y-11889698D02*
X5382087Y-11880174D01*
X5382087Y-11880174D02*
X5401134Y-11870650D01*
X5401134Y-11870650D02*
X5429706Y-11870650D01*
X5429706Y-11870650D02*
X5448753Y-11880174D01*
X5448753Y-11880174D02*
X5458277Y-11889698D01*
X5458277Y-11889698D02*
X5467801Y-11908746D01*
X5467801Y-11908746D02*
X5467801Y-11965888D01*
X5467801Y-11965888D02*
X5458277Y-11984936D01*
X5458277Y-11984936D02*
X5448753Y-11994460D01*
X5448753Y-11994460D02*
X5429706Y-12003984D01*
X5429706Y-12003984D02*
X5401134Y-12003984D01*
X5582087Y-12003984D02*
X5563039Y-11994460D01*
X5563039Y-11994460D02*
X5553515Y-11975412D01*
X5553515Y-11975412D02*
X5553515Y-11803984D01*
X5734468Y-11994460D02*
X5715420Y-12003984D01*
X5715420Y-12003984D02*
X5677325Y-12003984D01*
X5677325Y-12003984D02*
X5658277Y-11994460D01*
X5658277Y-11994460D02*
X5648753Y-11975412D01*
X5648753Y-11975412D02*
X5648753Y-11899222D01*
X5648753Y-11899222D02*
X5658277Y-11880174D01*
X5658277Y-11880174D02*
X5677325Y-11870650D01*
X5677325Y-11870650D02*
X5715420Y-11870650D01*
X5715420Y-11870650D02*
X5734468Y-11880174D01*
X5734468Y-11880174D02*
X5743991Y-11899222D01*
X5743991Y-11899222D02*
X5743991Y-11918269D01*
X5743991Y-11918269D02*
X5648753Y-11937317D01*
X5820182Y-11994460D02*
X5839230Y-12003984D01*
X5839230Y-12003984D02*
X5877325Y-12003984D01*
X5877325Y-12003984D02*
X5896372Y-11994460D01*
X5896372Y-11994460D02*
X5905896Y-11975412D01*
X5905896Y-11975412D02*
X5905896Y-11965888D01*
X5905896Y-11965888D02*
X5896372Y-11946841D01*
X5896372Y-11946841D02*
X5877325Y-11937317D01*
X5877325Y-11937317D02*
X5848753Y-11937317D01*
X5848753Y-11937317D02*
X5829706Y-11927793D01*
X5829706Y-11927793D02*
X5820182Y-11908746D01*
X5820182Y-11908746D02*
X5820182Y-11899222D01*
X5820182Y-11899222D02*
X5829706Y-11880174D01*
X5829706Y-11880174D02*
X5848753Y-11870650D01*
X5848753Y-11870650D02*
X5877325Y-11870650D01*
X5877325Y-11870650D02*
X5896372Y-11880174D01*
X5972563Y-12080174D02*
X5982087Y-12070650D01*
X5982087Y-12070650D02*
X6001134Y-12042079D01*
X6001134Y-12042079D02*
X6010658Y-12023031D01*
X6010658Y-12023031D02*
X6020182Y-11994460D01*
X6020182Y-11994460D02*
X6029706Y-11946841D01*
X6029706Y-11946841D02*
X6029706Y-11908746D01*
X6029706Y-11908746D02*
X6020182Y-11861127D01*
X6020182Y-11861127D02*
X6010658Y-11832555D01*
X6010658Y-11832555D02*
X6001134Y-11813508D01*
X6001134Y-11813508D02*
X5982087Y-11784936D01*
X5982087Y-11784936D02*
X5972563Y-11775412D01*
D17*
X1047500Y-12101500D02*
X1197500Y-12251500D01*
X1197500Y-12101500D02*
X1047500Y-12251500D01*
X1122500Y-12101500D02*
X1122500Y-12251500D01*
X1047500Y-12176500D02*
X1197500Y-12176500D01*
D11*
X1563039Y-12267984D02*
X1448753Y-12267984D01*
X1505896Y-12267984D02*
X1505896Y-12067984D01*
X1505896Y-12067984D02*
X1486848Y-12096555D01*
X1486848Y-12096555D02*
X1467801Y-12115603D01*
X1467801Y-12115603D02*
X1448753Y-12125127D01*
X1648753Y-12248936D02*
X1658277Y-12258460D01*
X1658277Y-12258460D02*
X1648753Y-12267984D01*
X1648753Y-12267984D02*
X1639229Y-12258460D01*
X1639229Y-12258460D02*
X1648753Y-12248936D01*
X1648753Y-12248936D02*
X1648753Y-12267984D01*
X1839229Y-12067984D02*
X1743991Y-12067984D01*
X1743991Y-12067984D02*
X1734467Y-12163222D01*
X1734467Y-12163222D02*
X1743991Y-12153698D01*
X1743991Y-12153698D02*
X1763039Y-12144174D01*
X1763039Y-12144174D02*
X1810658Y-12144174D01*
X1810658Y-12144174D02*
X1829705Y-12153698D01*
X1829705Y-12153698D02*
X1839229Y-12163222D01*
X1839229Y-12163222D02*
X1848753Y-12182269D01*
X1848753Y-12182269D02*
X1848753Y-12229888D01*
X1848753Y-12229888D02*
X1839229Y-12248936D01*
X1839229Y-12248936D02*
X1829705Y-12258460D01*
X1829705Y-12258460D02*
X1810658Y-12267984D01*
X1810658Y-12267984D02*
X1763039Y-12267984D01*
X1763039Y-12267984D02*
X1743991Y-12258460D01*
X1743991Y-12258460D02*
X1734467Y-12248936D01*
X1972562Y-12067984D02*
X1991610Y-12067984D01*
X1991610Y-12067984D02*
X2010658Y-12077508D01*
X2010658Y-12077508D02*
X2020182Y-12087031D01*
X2020182Y-12087031D02*
X2029705Y-12106079D01*
X2029705Y-12106079D02*
X2039229Y-12144174D01*
X2039229Y-12144174D02*
X2039229Y-12191793D01*
X2039229Y-12191793D02*
X2029705Y-12229888D01*
X2029705Y-12229888D02*
X2020182Y-12248936D01*
X2020182Y-12248936D02*
X2010658Y-12258460D01*
X2010658Y-12258460D02*
X1991610Y-12267984D01*
X1991610Y-12267984D02*
X1972562Y-12267984D01*
X1972562Y-12267984D02*
X1953515Y-12258460D01*
X1953515Y-12258460D02*
X1943991Y-12248936D01*
X1943991Y-12248936D02*
X1934467Y-12229888D01*
X1934467Y-12229888D02*
X1924943Y-12191793D01*
X1924943Y-12191793D02*
X1924943Y-12144174D01*
X1924943Y-12144174D02*
X1934467Y-12106079D01*
X1934467Y-12106079D02*
X1943991Y-12087031D01*
X1943991Y-12087031D02*
X1953515Y-12077508D01*
X1953515Y-12077508D02*
X1972562Y-12067984D01*
X2163039Y-12067984D02*
X2182086Y-12067984D01*
X2182086Y-12067984D02*
X2201134Y-12077508D01*
X2201134Y-12077508D02*
X2210658Y-12087031D01*
X2210658Y-12087031D02*
X2220182Y-12106079D01*
X2220182Y-12106079D02*
X2229705Y-12144174D01*
X2229705Y-12144174D02*
X2229705Y-12191793D01*
X2229705Y-12191793D02*
X2220182Y-12229888D01*
X2220182Y-12229888D02*
X2210658Y-12248936D01*
X2210658Y-12248936D02*
X2201134Y-12258460D01*
X2201134Y-12258460D02*
X2182086Y-12267984D01*
X2182086Y-12267984D02*
X2163039Y-12267984D01*
X2163039Y-12267984D02*
X2143991Y-12258460D01*
X2143991Y-12258460D02*
X2134467Y-12248936D01*
X2134467Y-12248936D02*
X2124944Y-12229888D01*
X2124944Y-12229888D02*
X2115420Y-12191793D01*
X2115420Y-12191793D02*
X2115420Y-12144174D01*
X2115420Y-12144174D02*
X2124944Y-12106079D01*
X2124944Y-12106079D02*
X2134467Y-12087031D01*
X2134467Y-12087031D02*
X2143991Y-12077508D01*
X2143991Y-12077508D02*
X2163039Y-12067984D01*
X2315420Y-12267984D02*
X2315420Y-12134650D01*
X2315420Y-12153698D02*
X2324944Y-12144174D01*
X2324944Y-12144174D02*
X2343991Y-12134650D01*
X2343991Y-12134650D02*
X2372563Y-12134650D01*
X2372563Y-12134650D02*
X2391610Y-12144174D01*
X2391610Y-12144174D02*
X2401134Y-12163222D01*
X2401134Y-12163222D02*
X2401134Y-12267984D01*
X2401134Y-12163222D02*
X2410658Y-12144174D01*
X2410658Y-12144174D02*
X2429705Y-12134650D01*
X2429705Y-12134650D02*
X2458277Y-12134650D01*
X2458277Y-12134650D02*
X2477325Y-12144174D01*
X2477325Y-12144174D02*
X2486848Y-12163222D01*
X2486848Y-12163222D02*
X2486848Y-12267984D01*
X2582086Y-12267984D02*
X2582086Y-12134650D01*
X2582086Y-12153698D02*
X2591610Y-12144174D01*
X2591610Y-12144174D02*
X2610658Y-12134650D01*
X2610658Y-12134650D02*
X2639229Y-12134650D01*
X2639229Y-12134650D02*
X2658277Y-12144174D01*
X2658277Y-12144174D02*
X2667801Y-12163222D01*
X2667801Y-12163222D02*
X2667801Y-12267984D01*
X2667801Y-12163222D02*
X2677325Y-12144174D01*
X2677325Y-12144174D02*
X2696372Y-12134650D01*
X2696372Y-12134650D02*
X2724944Y-12134650D01*
X2724944Y-12134650D02*
X2743991Y-12144174D01*
X2743991Y-12144174D02*
X2753515Y-12163222D01*
X2753515Y-12163222D02*
X2753515Y-12267984D01*
X3143991Y-12058460D02*
X2972563Y-12315603D01*
X3401134Y-12067984D02*
X3420182Y-12067984D01*
X3420182Y-12067984D02*
X3439229Y-12077508D01*
X3439229Y-12077508D02*
X3448753Y-12087031D01*
X3448753Y-12087031D02*
X3458277Y-12106079D01*
X3458277Y-12106079D02*
X3467801Y-12144174D01*
X3467801Y-12144174D02*
X3467801Y-12191793D01*
X3467801Y-12191793D02*
X3458277Y-12229888D01*
X3458277Y-12229888D02*
X3448753Y-12248936D01*
X3448753Y-12248936D02*
X3439229Y-12258460D01*
X3439229Y-12258460D02*
X3420182Y-12267984D01*
X3420182Y-12267984D02*
X3401134Y-12267984D01*
X3401134Y-12267984D02*
X3382086Y-12258460D01*
X3382086Y-12258460D02*
X3372563Y-12248936D01*
X3372563Y-12248936D02*
X3363039Y-12229888D01*
X3363039Y-12229888D02*
X3353515Y-12191793D01*
X3353515Y-12191793D02*
X3353515Y-12144174D01*
X3353515Y-12144174D02*
X3363039Y-12106079D01*
X3363039Y-12106079D02*
X3372563Y-12087031D01*
X3372563Y-12087031D02*
X3382086Y-12077508D01*
X3382086Y-12077508D02*
X3401134Y-12067984D01*
X3553515Y-12248936D02*
X3563039Y-12258460D01*
X3563039Y-12258460D02*
X3553515Y-12267984D01*
X3553515Y-12267984D02*
X3543991Y-12258460D01*
X3543991Y-12258460D02*
X3553515Y-12248936D01*
X3553515Y-12248936D02*
X3553515Y-12267984D01*
X3686848Y-12067984D02*
X3705896Y-12067984D01*
X3705896Y-12067984D02*
X3724944Y-12077508D01*
X3724944Y-12077508D02*
X3734467Y-12087031D01*
X3734467Y-12087031D02*
X3743991Y-12106079D01*
X3743991Y-12106079D02*
X3753515Y-12144174D01*
X3753515Y-12144174D02*
X3753515Y-12191793D01*
X3753515Y-12191793D02*
X3743991Y-12229888D01*
X3743991Y-12229888D02*
X3734467Y-12248936D01*
X3734467Y-12248936D02*
X3724944Y-12258460D01*
X3724944Y-12258460D02*
X3705896Y-12267984D01*
X3705896Y-12267984D02*
X3686848Y-12267984D01*
X3686848Y-12267984D02*
X3667801Y-12258460D01*
X3667801Y-12258460D02*
X3658277Y-12248936D01*
X3658277Y-12248936D02*
X3648753Y-12229888D01*
X3648753Y-12229888D02*
X3639229Y-12191793D01*
X3639229Y-12191793D02*
X3639229Y-12144174D01*
X3639229Y-12144174D02*
X3648753Y-12106079D01*
X3648753Y-12106079D02*
X3658277Y-12087031D01*
X3658277Y-12087031D02*
X3667801Y-12077508D01*
X3667801Y-12077508D02*
X3686848Y-12067984D01*
X3934467Y-12067984D02*
X3839229Y-12067984D01*
X3839229Y-12067984D02*
X3829706Y-12163222D01*
X3829706Y-12163222D02*
X3839229Y-12153698D01*
X3839229Y-12153698D02*
X3858277Y-12144174D01*
X3858277Y-12144174D02*
X3905896Y-12144174D01*
X3905896Y-12144174D02*
X3924944Y-12153698D01*
X3924944Y-12153698D02*
X3934467Y-12163222D01*
X3934467Y-12163222D02*
X3943991Y-12182269D01*
X3943991Y-12182269D02*
X3943991Y-12229888D01*
X3943991Y-12229888D02*
X3934467Y-12248936D01*
X3934467Y-12248936D02*
X3924944Y-12258460D01*
X3924944Y-12258460D02*
X3905896Y-12267984D01*
X3905896Y-12267984D02*
X3858277Y-12267984D01*
X3858277Y-12267984D02*
X3839229Y-12258460D01*
X3839229Y-12258460D02*
X3829706Y-12248936D01*
X4039229Y-12267984D02*
X4077325Y-12267984D01*
X4077325Y-12267984D02*
X4096372Y-12258460D01*
X4096372Y-12258460D02*
X4105896Y-12248936D01*
X4105896Y-12248936D02*
X4124944Y-12220365D01*
X4124944Y-12220365D02*
X4134467Y-12182269D01*
X4134467Y-12182269D02*
X4134467Y-12106079D01*
X4134467Y-12106079D02*
X4124944Y-12087031D01*
X4124944Y-12087031D02*
X4115420Y-12077508D01*
X4115420Y-12077508D02*
X4096372Y-12067984D01*
X4096372Y-12067984D02*
X4058277Y-12067984D01*
X4058277Y-12067984D02*
X4039229Y-12077508D01*
X4039229Y-12077508D02*
X4029706Y-12087031D01*
X4029706Y-12087031D02*
X4020182Y-12106079D01*
X4020182Y-12106079D02*
X4020182Y-12153698D01*
X4020182Y-12153698D02*
X4029706Y-12172746D01*
X4029706Y-12172746D02*
X4039229Y-12182269D01*
X4039229Y-12182269D02*
X4058277Y-12191793D01*
X4058277Y-12191793D02*
X4096372Y-12191793D01*
X4096372Y-12191793D02*
X4115420Y-12182269D01*
X4115420Y-12182269D02*
X4124944Y-12172746D01*
X4124944Y-12172746D02*
X4134467Y-12153698D01*
X4324944Y-12267984D02*
X4210658Y-12267984D01*
X4267801Y-12267984D02*
X4267801Y-12067984D01*
X4267801Y-12067984D02*
X4248753Y-12096555D01*
X4248753Y-12096555D02*
X4229706Y-12115603D01*
X4229706Y-12115603D02*
X4210658Y-12125127D01*
X4401134Y-12067984D02*
X4401134Y-12106079D01*
X4477325Y-12067984D02*
X4477325Y-12106079D01*
X4772563Y-12344174D02*
X4763039Y-12334650D01*
X4763039Y-12334650D02*
X4743991Y-12306079D01*
X4743991Y-12306079D02*
X4734468Y-12287031D01*
X4734468Y-12287031D02*
X4724944Y-12258460D01*
X4724944Y-12258460D02*
X4715420Y-12210841D01*
X4715420Y-12210841D02*
X4715420Y-12172746D01*
X4715420Y-12172746D02*
X4724944Y-12125127D01*
X4724944Y-12125127D02*
X4734468Y-12096555D01*
X4734468Y-12096555D02*
X4743991Y-12077508D01*
X4743991Y-12077508D02*
X4763039Y-12048936D01*
X4763039Y-12048936D02*
X4772563Y-12039412D01*
X4839230Y-12087031D02*
X4848753Y-12077508D01*
X4848753Y-12077508D02*
X4867801Y-12067984D01*
X4867801Y-12067984D02*
X4915420Y-12067984D01*
X4915420Y-12067984D02*
X4934468Y-12077508D01*
X4934468Y-12077508D02*
X4943991Y-12087031D01*
X4943991Y-12087031D02*
X4953515Y-12106079D01*
X4953515Y-12106079D02*
X4953515Y-12125127D01*
X4953515Y-12125127D02*
X4943991Y-12153698D01*
X4943991Y-12153698D02*
X4829706Y-12267984D01*
X4829706Y-12267984D02*
X4953515Y-12267984D01*
X5124944Y-12134650D02*
X5124944Y-12267984D01*
X5077325Y-12058460D02*
X5029706Y-12201317D01*
X5029706Y-12201317D02*
X5153515Y-12201317D01*
X5382087Y-12267984D02*
X5382087Y-12067984D01*
X5467801Y-12267984D02*
X5467801Y-12163222D01*
X5467801Y-12163222D02*
X5458277Y-12144174D01*
X5458277Y-12144174D02*
X5439230Y-12134650D01*
X5439230Y-12134650D02*
X5410658Y-12134650D01*
X5410658Y-12134650D02*
X5391611Y-12144174D01*
X5391611Y-12144174D02*
X5382087Y-12153698D01*
X5591611Y-12267984D02*
X5572563Y-12258460D01*
X5572563Y-12258460D02*
X5563039Y-12248936D01*
X5563039Y-12248936D02*
X5553515Y-12229888D01*
X5553515Y-12229888D02*
X5553515Y-12172746D01*
X5553515Y-12172746D02*
X5563039Y-12153698D01*
X5563039Y-12153698D02*
X5572563Y-12144174D01*
X5572563Y-12144174D02*
X5591611Y-12134650D01*
X5591611Y-12134650D02*
X5620182Y-12134650D01*
X5620182Y-12134650D02*
X5639230Y-12144174D01*
X5639230Y-12144174D02*
X5648753Y-12153698D01*
X5648753Y-12153698D02*
X5658277Y-12172746D01*
X5658277Y-12172746D02*
X5658277Y-12229888D01*
X5658277Y-12229888D02*
X5648753Y-12248936D01*
X5648753Y-12248936D02*
X5639230Y-12258460D01*
X5639230Y-12258460D02*
X5620182Y-12267984D01*
X5620182Y-12267984D02*
X5591611Y-12267984D01*
X5772563Y-12267984D02*
X5753515Y-12258460D01*
X5753515Y-12258460D02*
X5743991Y-12239412D01*
X5743991Y-12239412D02*
X5743991Y-12067984D01*
X5924944Y-12258460D02*
X5905896Y-12267984D01*
X5905896Y-12267984D02*
X5867801Y-12267984D01*
X5867801Y-12267984D02*
X5848753Y-12258460D01*
X5848753Y-12258460D02*
X5839230Y-12239412D01*
X5839230Y-12239412D02*
X5839230Y-12163222D01*
X5839230Y-12163222D02*
X5848753Y-12144174D01*
X5848753Y-12144174D02*
X5867801Y-12134650D01*
X5867801Y-12134650D02*
X5905896Y-12134650D01*
X5905896Y-12134650D02*
X5924944Y-12144174D01*
X5924944Y-12144174D02*
X5934468Y-12163222D01*
X5934468Y-12163222D02*
X5934468Y-12182269D01*
X5934468Y-12182269D02*
X5839230Y-12201317D01*
X6010658Y-12258460D02*
X6029706Y-12267984D01*
X6029706Y-12267984D02*
X6067801Y-12267984D01*
X6067801Y-12267984D02*
X6086849Y-12258460D01*
X6086849Y-12258460D02*
X6096372Y-12239412D01*
X6096372Y-12239412D02*
X6096372Y-12229888D01*
X6096372Y-12229888D02*
X6086849Y-12210841D01*
X6086849Y-12210841D02*
X6067801Y-12201317D01*
X6067801Y-12201317D02*
X6039230Y-12201317D01*
X6039230Y-12201317D02*
X6020182Y-12191793D01*
X6020182Y-12191793D02*
X6010658Y-12172746D01*
X6010658Y-12172746D02*
X6010658Y-12163222D01*
X6010658Y-12163222D02*
X6020182Y-12144174D01*
X6020182Y-12144174D02*
X6039230Y-12134650D01*
X6039230Y-12134650D02*
X6067801Y-12134650D01*
X6067801Y-12134650D02*
X6086849Y-12144174D01*
X6163039Y-12344174D02*
X6172563Y-12334650D01*
X6172563Y-12334650D02*
X6191611Y-12306079D01*
X6191611Y-12306079D02*
X6201134Y-12287031D01*
X6201134Y-12287031D02*
X6210658Y-12258460D01*
X6210658Y-12258460D02*
X6220182Y-12210841D01*
X6220182Y-12210841D02*
X6220182Y-12172746D01*
X6220182Y-12172746D02*
X6210658Y-12125127D01*
X6210658Y-12125127D02*
X6201134Y-12096555D01*
X6201134Y-12096555D02*
X6191611Y-12077508D01*
X6191611Y-12077508D02*
X6172563Y-12048936D01*
X6172563Y-12048936D02*
X6163039Y-12039412D01*
D18*
X1045500Y-12370500D02*
X1197500Y-12522500D01*
X1197500Y-12370500D02*
X1045500Y-12522500D01*
X1175241Y-12500241D02*
X1175241Y-12392759D01*
X1067759Y-12392759D01*
X1067759Y-12500241D01*
X1175241Y-12500241D01*
D11*
X1563039Y-12537984D02*
X1448753Y-12537984D01*
X1505896Y-12537984D02*
X1505896Y-12337984D01*
X1505896Y-12337984D02*
X1486848Y-12366555D01*
X1486848Y-12366555D02*
X1467801Y-12385603D01*
X1467801Y-12385603D02*
X1448753Y-12395127D01*
X1648753Y-12518936D02*
X1658277Y-12528460D01*
X1658277Y-12528460D02*
X1648753Y-12537984D01*
X1648753Y-12537984D02*
X1639229Y-12528460D01*
X1639229Y-12528460D02*
X1648753Y-12518936D01*
X1648753Y-12518936D02*
X1648753Y-12537984D01*
X1839229Y-12337984D02*
X1743991Y-12337984D01*
X1743991Y-12337984D02*
X1734467Y-12433222D01*
X1734467Y-12433222D02*
X1743991Y-12423698D01*
X1743991Y-12423698D02*
X1763039Y-12414174D01*
X1763039Y-12414174D02*
X1810658Y-12414174D01*
X1810658Y-12414174D02*
X1829705Y-12423698D01*
X1829705Y-12423698D02*
X1839229Y-12433222D01*
X1839229Y-12433222D02*
X1848753Y-12452269D01*
X1848753Y-12452269D02*
X1848753Y-12499888D01*
X1848753Y-12499888D02*
X1839229Y-12518936D01*
X1839229Y-12518936D02*
X1829705Y-12528460D01*
X1829705Y-12528460D02*
X1810658Y-12537984D01*
X1810658Y-12537984D02*
X1763039Y-12537984D01*
X1763039Y-12537984D02*
X1743991Y-12528460D01*
X1743991Y-12528460D02*
X1734467Y-12518936D01*
X1924943Y-12357031D02*
X1934467Y-12347508D01*
X1934467Y-12347508D02*
X1953515Y-12337984D01*
X1953515Y-12337984D02*
X2001134Y-12337984D01*
X2001134Y-12337984D02*
X2020182Y-12347508D01*
X2020182Y-12347508D02*
X2029705Y-12357031D01*
X2029705Y-12357031D02*
X2039229Y-12376079D01*
X2039229Y-12376079D02*
X2039229Y-12395127D01*
X2039229Y-12395127D02*
X2029705Y-12423698D01*
X2029705Y-12423698D02*
X1915420Y-12537984D01*
X1915420Y-12537984D02*
X2039229Y-12537984D01*
X2163039Y-12337984D02*
X2182086Y-12337984D01*
X2182086Y-12337984D02*
X2201134Y-12347508D01*
X2201134Y-12347508D02*
X2210658Y-12357031D01*
X2210658Y-12357031D02*
X2220182Y-12376079D01*
X2220182Y-12376079D02*
X2229705Y-12414174D01*
X2229705Y-12414174D02*
X2229705Y-12461793D01*
X2229705Y-12461793D02*
X2220182Y-12499888D01*
X2220182Y-12499888D02*
X2210658Y-12518936D01*
X2210658Y-12518936D02*
X2201134Y-12528460D01*
X2201134Y-12528460D02*
X2182086Y-12537984D01*
X2182086Y-12537984D02*
X2163039Y-12537984D01*
X2163039Y-12537984D02*
X2143991Y-12528460D01*
X2143991Y-12528460D02*
X2134467Y-12518936D01*
X2134467Y-12518936D02*
X2124944Y-12499888D01*
X2124944Y-12499888D02*
X2115420Y-12461793D01*
X2115420Y-12461793D02*
X2115420Y-12414174D01*
X2115420Y-12414174D02*
X2124944Y-12376079D01*
X2124944Y-12376079D02*
X2134467Y-12357031D01*
X2134467Y-12357031D02*
X2143991Y-12347508D01*
X2143991Y-12347508D02*
X2163039Y-12337984D01*
X2315420Y-12537984D02*
X2315420Y-12404650D01*
X2315420Y-12423698D02*
X2324944Y-12414174D01*
X2324944Y-12414174D02*
X2343991Y-12404650D01*
X2343991Y-12404650D02*
X2372563Y-12404650D01*
X2372563Y-12404650D02*
X2391610Y-12414174D01*
X2391610Y-12414174D02*
X2401134Y-12433222D01*
X2401134Y-12433222D02*
X2401134Y-12537984D01*
X2401134Y-12433222D02*
X2410658Y-12414174D01*
X2410658Y-12414174D02*
X2429705Y-12404650D01*
X2429705Y-12404650D02*
X2458277Y-12404650D01*
X2458277Y-12404650D02*
X2477325Y-12414174D01*
X2477325Y-12414174D02*
X2486848Y-12433222D01*
X2486848Y-12433222D02*
X2486848Y-12537984D01*
X2582086Y-12537984D02*
X2582086Y-12404650D01*
X2582086Y-12423698D02*
X2591610Y-12414174D01*
X2591610Y-12414174D02*
X2610658Y-12404650D01*
X2610658Y-12404650D02*
X2639229Y-12404650D01*
X2639229Y-12404650D02*
X2658277Y-12414174D01*
X2658277Y-12414174D02*
X2667801Y-12433222D01*
X2667801Y-12433222D02*
X2667801Y-12537984D01*
X2667801Y-12433222D02*
X2677325Y-12414174D01*
X2677325Y-12414174D02*
X2696372Y-12404650D01*
X2696372Y-12404650D02*
X2724944Y-12404650D01*
X2724944Y-12404650D02*
X2743991Y-12414174D01*
X2743991Y-12414174D02*
X2753515Y-12433222D01*
X2753515Y-12433222D02*
X2753515Y-12537984D01*
X3143991Y-12328460D02*
X2972563Y-12585603D01*
X3401134Y-12337984D02*
X3420182Y-12337984D01*
X3420182Y-12337984D02*
X3439229Y-12347508D01*
X3439229Y-12347508D02*
X3448753Y-12357031D01*
X3448753Y-12357031D02*
X3458277Y-12376079D01*
X3458277Y-12376079D02*
X3467801Y-12414174D01*
X3467801Y-12414174D02*
X3467801Y-12461793D01*
X3467801Y-12461793D02*
X3458277Y-12499888D01*
X3458277Y-12499888D02*
X3448753Y-12518936D01*
X3448753Y-12518936D02*
X3439229Y-12528460D01*
X3439229Y-12528460D02*
X3420182Y-12537984D01*
X3420182Y-12537984D02*
X3401134Y-12537984D01*
X3401134Y-12537984D02*
X3382086Y-12528460D01*
X3382086Y-12528460D02*
X3372563Y-12518936D01*
X3372563Y-12518936D02*
X3363039Y-12499888D01*
X3363039Y-12499888D02*
X3353515Y-12461793D01*
X3353515Y-12461793D02*
X3353515Y-12414174D01*
X3353515Y-12414174D02*
X3363039Y-12376079D01*
X3363039Y-12376079D02*
X3372563Y-12357031D01*
X3372563Y-12357031D02*
X3382086Y-12347508D01*
X3382086Y-12347508D02*
X3401134Y-12337984D01*
X3553515Y-12518936D02*
X3563039Y-12528460D01*
X3563039Y-12528460D02*
X3553515Y-12537984D01*
X3553515Y-12537984D02*
X3543991Y-12528460D01*
X3543991Y-12528460D02*
X3553515Y-12518936D01*
X3553515Y-12518936D02*
X3553515Y-12537984D01*
X3686848Y-12337984D02*
X3705896Y-12337984D01*
X3705896Y-12337984D02*
X3724944Y-12347508D01*
X3724944Y-12347508D02*
X3734467Y-12357031D01*
X3734467Y-12357031D02*
X3743991Y-12376079D01*
X3743991Y-12376079D02*
X3753515Y-12414174D01*
X3753515Y-12414174D02*
X3753515Y-12461793D01*
X3753515Y-12461793D02*
X3743991Y-12499888D01*
X3743991Y-12499888D02*
X3734467Y-12518936D01*
X3734467Y-12518936D02*
X3724944Y-12528460D01*
X3724944Y-12528460D02*
X3705896Y-12537984D01*
X3705896Y-12537984D02*
X3686848Y-12537984D01*
X3686848Y-12537984D02*
X3667801Y-12528460D01*
X3667801Y-12528460D02*
X3658277Y-12518936D01*
X3658277Y-12518936D02*
X3648753Y-12499888D01*
X3648753Y-12499888D02*
X3639229Y-12461793D01*
X3639229Y-12461793D02*
X3639229Y-12414174D01*
X3639229Y-12414174D02*
X3648753Y-12376079D01*
X3648753Y-12376079D02*
X3658277Y-12357031D01*
X3658277Y-12357031D02*
X3667801Y-12347508D01*
X3667801Y-12347508D02*
X3686848Y-12337984D01*
X3934467Y-12337984D02*
X3839229Y-12337984D01*
X3839229Y-12337984D02*
X3829706Y-12433222D01*
X3829706Y-12433222D02*
X3839229Y-12423698D01*
X3839229Y-12423698D02*
X3858277Y-12414174D01*
X3858277Y-12414174D02*
X3905896Y-12414174D01*
X3905896Y-12414174D02*
X3924944Y-12423698D01*
X3924944Y-12423698D02*
X3934467Y-12433222D01*
X3934467Y-12433222D02*
X3943991Y-12452269D01*
X3943991Y-12452269D02*
X3943991Y-12499888D01*
X3943991Y-12499888D02*
X3934467Y-12518936D01*
X3934467Y-12518936D02*
X3924944Y-12528460D01*
X3924944Y-12528460D02*
X3905896Y-12537984D01*
X3905896Y-12537984D02*
X3858277Y-12537984D01*
X3858277Y-12537984D02*
X3839229Y-12528460D01*
X3839229Y-12528460D02*
X3829706Y-12518936D01*
X4039229Y-12537984D02*
X4077325Y-12537984D01*
X4077325Y-12537984D02*
X4096372Y-12528460D01*
X4096372Y-12528460D02*
X4105896Y-12518936D01*
X4105896Y-12518936D02*
X4124944Y-12490365D01*
X4124944Y-12490365D02*
X4134467Y-12452269D01*
X4134467Y-12452269D02*
X4134467Y-12376079D01*
X4134467Y-12376079D02*
X4124944Y-12357031D01*
X4124944Y-12357031D02*
X4115420Y-12347508D01*
X4115420Y-12347508D02*
X4096372Y-12337984D01*
X4096372Y-12337984D02*
X4058277Y-12337984D01*
X4058277Y-12337984D02*
X4039229Y-12347508D01*
X4039229Y-12347508D02*
X4029706Y-12357031D01*
X4029706Y-12357031D02*
X4020182Y-12376079D01*
X4020182Y-12376079D02*
X4020182Y-12423698D01*
X4020182Y-12423698D02*
X4029706Y-12442746D01*
X4029706Y-12442746D02*
X4039229Y-12452269D01*
X4039229Y-12452269D02*
X4058277Y-12461793D01*
X4058277Y-12461793D02*
X4096372Y-12461793D01*
X4096372Y-12461793D02*
X4115420Y-12452269D01*
X4115420Y-12452269D02*
X4124944Y-12442746D01*
X4124944Y-12442746D02*
X4134467Y-12423698D01*
X4248753Y-12423698D02*
X4229706Y-12414174D01*
X4229706Y-12414174D02*
X4220182Y-12404650D01*
X4220182Y-12404650D02*
X4210658Y-12385603D01*
X4210658Y-12385603D02*
X4210658Y-12376079D01*
X4210658Y-12376079D02*
X4220182Y-12357031D01*
X4220182Y-12357031D02*
X4229706Y-12347508D01*
X4229706Y-12347508D02*
X4248753Y-12337984D01*
X4248753Y-12337984D02*
X4286849Y-12337984D01*
X4286849Y-12337984D02*
X4305896Y-12347508D01*
X4305896Y-12347508D02*
X4315420Y-12357031D01*
X4315420Y-12357031D02*
X4324944Y-12376079D01*
X4324944Y-12376079D02*
X4324944Y-12385603D01*
X4324944Y-12385603D02*
X4315420Y-12404650D01*
X4315420Y-12404650D02*
X4305896Y-12414174D01*
X4305896Y-12414174D02*
X4286849Y-12423698D01*
X4286849Y-12423698D02*
X4248753Y-12423698D01*
X4248753Y-12423698D02*
X4229706Y-12433222D01*
X4229706Y-12433222D02*
X4220182Y-12442746D01*
X4220182Y-12442746D02*
X4210658Y-12461793D01*
X4210658Y-12461793D02*
X4210658Y-12499888D01*
X4210658Y-12499888D02*
X4220182Y-12518936D01*
X4220182Y-12518936D02*
X4229706Y-12528460D01*
X4229706Y-12528460D02*
X4248753Y-12537984D01*
X4248753Y-12537984D02*
X4286849Y-12537984D01*
X4286849Y-12537984D02*
X4305896Y-12528460D01*
X4305896Y-12528460D02*
X4315420Y-12518936D01*
X4315420Y-12518936D02*
X4324944Y-12499888D01*
X4324944Y-12499888D02*
X4324944Y-12461793D01*
X4324944Y-12461793D02*
X4315420Y-12442746D01*
X4315420Y-12442746D02*
X4305896Y-12433222D01*
X4305896Y-12433222D02*
X4286849Y-12423698D01*
X4401134Y-12337984D02*
X4401134Y-12376079D01*
X4477325Y-12337984D02*
X4477325Y-12376079D01*
X4772563Y-12614174D02*
X4763039Y-12604650D01*
X4763039Y-12604650D02*
X4743991Y-12576079D01*
X4743991Y-12576079D02*
X4734468Y-12557031D01*
X4734468Y-12557031D02*
X4724944Y-12528460D01*
X4724944Y-12528460D02*
X4715420Y-12480841D01*
X4715420Y-12480841D02*
X4715420Y-12442746D01*
X4715420Y-12442746D02*
X4724944Y-12395127D01*
X4724944Y-12395127D02*
X4734468Y-12366555D01*
X4734468Y-12366555D02*
X4743991Y-12347508D01*
X4743991Y-12347508D02*
X4763039Y-12318936D01*
X4763039Y-12318936D02*
X4772563Y-12309412D01*
X4934468Y-12404650D02*
X4934468Y-12537984D01*
X4886849Y-12328460D02*
X4839230Y-12471317D01*
X4839230Y-12471317D02*
X4963039Y-12471317D01*
X5191611Y-12537984D02*
X5191611Y-12337984D01*
X5277325Y-12537984D02*
X5277325Y-12433222D01*
X5277325Y-12433222D02*
X5267801Y-12414174D01*
X5267801Y-12414174D02*
X5248753Y-12404650D01*
X5248753Y-12404650D02*
X5220182Y-12404650D01*
X5220182Y-12404650D02*
X5201134Y-12414174D01*
X5201134Y-12414174D02*
X5191611Y-12423698D01*
X5401134Y-12537984D02*
X5382087Y-12528460D01*
X5382087Y-12528460D02*
X5372563Y-12518936D01*
X5372563Y-12518936D02*
X5363039Y-12499888D01*
X5363039Y-12499888D02*
X5363039Y-12442746D01*
X5363039Y-12442746D02*
X5372563Y-12423698D01*
X5372563Y-12423698D02*
X5382087Y-12414174D01*
X5382087Y-12414174D02*
X5401134Y-12404650D01*
X5401134Y-12404650D02*
X5429706Y-12404650D01*
X5429706Y-12404650D02*
X5448753Y-12414174D01*
X5448753Y-12414174D02*
X5458277Y-12423698D01*
X5458277Y-12423698D02*
X5467801Y-12442746D01*
X5467801Y-12442746D02*
X5467801Y-12499888D01*
X5467801Y-12499888D02*
X5458277Y-12518936D01*
X5458277Y-12518936D02*
X5448753Y-12528460D01*
X5448753Y-12528460D02*
X5429706Y-12537984D01*
X5429706Y-12537984D02*
X5401134Y-12537984D01*
X5582087Y-12537984D02*
X5563039Y-12528460D01*
X5563039Y-12528460D02*
X5553515Y-12509412D01*
X5553515Y-12509412D02*
X5553515Y-12337984D01*
X5734468Y-12528460D02*
X5715420Y-12537984D01*
X5715420Y-12537984D02*
X5677325Y-12537984D01*
X5677325Y-12537984D02*
X5658277Y-12528460D01*
X5658277Y-12528460D02*
X5648753Y-12509412D01*
X5648753Y-12509412D02*
X5648753Y-12433222D01*
X5648753Y-12433222D02*
X5658277Y-12414174D01*
X5658277Y-12414174D02*
X5677325Y-12404650D01*
X5677325Y-12404650D02*
X5715420Y-12404650D01*
X5715420Y-12404650D02*
X5734468Y-12414174D01*
X5734468Y-12414174D02*
X5743991Y-12433222D01*
X5743991Y-12433222D02*
X5743991Y-12452269D01*
X5743991Y-12452269D02*
X5648753Y-12471317D01*
X5820182Y-12528460D02*
X5839230Y-12537984D01*
X5839230Y-12537984D02*
X5877325Y-12537984D01*
X5877325Y-12537984D02*
X5896372Y-12528460D01*
X5896372Y-12528460D02*
X5905896Y-12509412D01*
X5905896Y-12509412D02*
X5905896Y-12499888D01*
X5905896Y-12499888D02*
X5896372Y-12480841D01*
X5896372Y-12480841D02*
X5877325Y-12471317D01*
X5877325Y-12471317D02*
X5848753Y-12471317D01*
X5848753Y-12471317D02*
X5829706Y-12461793D01*
X5829706Y-12461793D02*
X5820182Y-12442746D01*
X5820182Y-12442746D02*
X5820182Y-12433222D01*
X5820182Y-12433222D02*
X5829706Y-12414174D01*
X5829706Y-12414174D02*
X5848753Y-12404650D01*
X5848753Y-12404650D02*
X5877325Y-12404650D01*
X5877325Y-12404650D02*
X5896372Y-12414174D01*
X5972563Y-12614174D02*
X5982087Y-12604650D01*
X5982087Y-12604650D02*
X6001134Y-12576079D01*
X6001134Y-12576079D02*
X6010658Y-12557031D01*
X6010658Y-12557031D02*
X6020182Y-12528460D01*
X6020182Y-12528460D02*
X6029706Y-12480841D01*
X6029706Y-12480841D02*
X6029706Y-12442746D01*
X6029706Y-12442746D02*
X6020182Y-12395127D01*
X6020182Y-12395127D02*
X6010658Y-12366555D01*
X6010658Y-12366555D02*
X6001134Y-12347508D01*
X6001134Y-12347508D02*
X5982087Y-12318936D01*
X5982087Y-12318936D02*
X5972563Y-12309412D01*
X997500Y-12618500D02*
X1197500Y-12818500D01*
X1197500Y-12618500D02*
X997500Y-12818500D01*
X1097500Y-12818500D02*
X1197500Y-12718500D01*
X1097500Y-12618500D01*
X997500Y-12718500D01*
X1097500Y-12818500D01*
X1439229Y-12609984D02*
X1563039Y-12609984D01*
X1563039Y-12609984D02*
X1496372Y-12686174D01*
X1496372Y-12686174D02*
X1524943Y-12686174D01*
X1524943Y-12686174D02*
X1543991Y-12695698D01*
X1543991Y-12695698D02*
X1553515Y-12705222D01*
X1553515Y-12705222D02*
X1563039Y-12724269D01*
X1563039Y-12724269D02*
X1563039Y-12771888D01*
X1563039Y-12771888D02*
X1553515Y-12790936D01*
X1553515Y-12790936D02*
X1543991Y-12800460D01*
X1543991Y-12800460D02*
X1524943Y-12809984D01*
X1524943Y-12809984D02*
X1467801Y-12809984D01*
X1467801Y-12809984D02*
X1448753Y-12800460D01*
X1448753Y-12800460D02*
X1439229Y-12790936D01*
X1648753Y-12790936D02*
X1658277Y-12800460D01*
X1658277Y-12800460D02*
X1648753Y-12809984D01*
X1648753Y-12809984D02*
X1639229Y-12800460D01*
X1639229Y-12800460D02*
X1648753Y-12790936D01*
X1648753Y-12790936D02*
X1648753Y-12809984D01*
X1734467Y-12629031D02*
X1743991Y-12619508D01*
X1743991Y-12619508D02*
X1763039Y-12609984D01*
X1763039Y-12609984D02*
X1810658Y-12609984D01*
X1810658Y-12609984D02*
X1829705Y-12619508D01*
X1829705Y-12619508D02*
X1839229Y-12629031D01*
X1839229Y-12629031D02*
X1848753Y-12648079D01*
X1848753Y-12648079D02*
X1848753Y-12667127D01*
X1848753Y-12667127D02*
X1839229Y-12695698D01*
X1839229Y-12695698D02*
X1724943Y-12809984D01*
X1724943Y-12809984D02*
X1848753Y-12809984D01*
X1972562Y-12609984D02*
X1991610Y-12609984D01*
X1991610Y-12609984D02*
X2010658Y-12619508D01*
X2010658Y-12619508D02*
X2020182Y-12629031D01*
X2020182Y-12629031D02*
X2029705Y-12648079D01*
X2029705Y-12648079D02*
X2039229Y-12686174D01*
X2039229Y-12686174D02*
X2039229Y-12733793D01*
X2039229Y-12733793D02*
X2029705Y-12771888D01*
X2029705Y-12771888D02*
X2020182Y-12790936D01*
X2020182Y-12790936D02*
X2010658Y-12800460D01*
X2010658Y-12800460D02*
X1991610Y-12809984D01*
X1991610Y-12809984D02*
X1972562Y-12809984D01*
X1972562Y-12809984D02*
X1953515Y-12800460D01*
X1953515Y-12800460D02*
X1943991Y-12790936D01*
X1943991Y-12790936D02*
X1934467Y-12771888D01*
X1934467Y-12771888D02*
X1924943Y-12733793D01*
X1924943Y-12733793D02*
X1924943Y-12686174D01*
X1924943Y-12686174D02*
X1934467Y-12648079D01*
X1934467Y-12648079D02*
X1943991Y-12629031D01*
X1943991Y-12629031D02*
X1953515Y-12619508D01*
X1953515Y-12619508D02*
X1972562Y-12609984D01*
X2163039Y-12609984D02*
X2182086Y-12609984D01*
X2182086Y-12609984D02*
X2201134Y-12619508D01*
X2201134Y-12619508D02*
X2210658Y-12629031D01*
X2210658Y-12629031D02*
X2220182Y-12648079D01*
X2220182Y-12648079D02*
X2229705Y-12686174D01*
X2229705Y-12686174D02*
X2229705Y-12733793D01*
X2229705Y-12733793D02*
X2220182Y-12771888D01*
X2220182Y-12771888D02*
X2210658Y-12790936D01*
X2210658Y-12790936D02*
X2201134Y-12800460D01*
X2201134Y-12800460D02*
X2182086Y-12809984D01*
X2182086Y-12809984D02*
X2163039Y-12809984D01*
X2163039Y-12809984D02*
X2143991Y-12800460D01*
X2143991Y-12800460D02*
X2134467Y-12790936D01*
X2134467Y-12790936D02*
X2124944Y-12771888D01*
X2124944Y-12771888D02*
X2115420Y-12733793D01*
X2115420Y-12733793D02*
X2115420Y-12686174D01*
X2115420Y-12686174D02*
X2124944Y-12648079D01*
X2124944Y-12648079D02*
X2134467Y-12629031D01*
X2134467Y-12629031D02*
X2143991Y-12619508D01*
X2143991Y-12619508D02*
X2163039Y-12609984D01*
X2315420Y-12809984D02*
X2315420Y-12676650D01*
X2315420Y-12695698D02*
X2324944Y-12686174D01*
X2324944Y-12686174D02*
X2343991Y-12676650D01*
X2343991Y-12676650D02*
X2372563Y-12676650D01*
X2372563Y-12676650D02*
X2391610Y-12686174D01*
X2391610Y-12686174D02*
X2401134Y-12705222D01*
X2401134Y-12705222D02*
X2401134Y-12809984D01*
X2401134Y-12705222D02*
X2410658Y-12686174D01*
X2410658Y-12686174D02*
X2429705Y-12676650D01*
X2429705Y-12676650D02*
X2458277Y-12676650D01*
X2458277Y-12676650D02*
X2477325Y-12686174D01*
X2477325Y-12686174D02*
X2486848Y-12705222D01*
X2486848Y-12705222D02*
X2486848Y-12809984D01*
X2582086Y-12809984D02*
X2582086Y-12676650D01*
X2582086Y-12695698D02*
X2591610Y-12686174D01*
X2591610Y-12686174D02*
X2610658Y-12676650D01*
X2610658Y-12676650D02*
X2639229Y-12676650D01*
X2639229Y-12676650D02*
X2658277Y-12686174D01*
X2658277Y-12686174D02*
X2667801Y-12705222D01*
X2667801Y-12705222D02*
X2667801Y-12809984D01*
X2667801Y-12705222D02*
X2677325Y-12686174D01*
X2677325Y-12686174D02*
X2696372Y-12676650D01*
X2696372Y-12676650D02*
X2724944Y-12676650D01*
X2724944Y-12676650D02*
X2743991Y-12686174D01*
X2743991Y-12686174D02*
X2753515Y-12705222D01*
X2753515Y-12705222D02*
X2753515Y-12809984D01*
X3143991Y-12600460D02*
X2972563Y-12857603D01*
X3401134Y-12609984D02*
X3420182Y-12609984D01*
X3420182Y-12609984D02*
X3439229Y-12619508D01*
X3439229Y-12619508D02*
X3448753Y-12629031D01*
X3448753Y-12629031D02*
X3458277Y-12648079D01*
X3458277Y-12648079D02*
X3467801Y-12686174D01*
X3467801Y-12686174D02*
X3467801Y-12733793D01*
X3467801Y-12733793D02*
X3458277Y-12771888D01*
X3458277Y-12771888D02*
X3448753Y-12790936D01*
X3448753Y-12790936D02*
X3439229Y-12800460D01*
X3439229Y-12800460D02*
X3420182Y-12809984D01*
X3420182Y-12809984D02*
X3401134Y-12809984D01*
X3401134Y-12809984D02*
X3382086Y-12800460D01*
X3382086Y-12800460D02*
X3372563Y-12790936D01*
X3372563Y-12790936D02*
X3363039Y-12771888D01*
X3363039Y-12771888D02*
X3353515Y-12733793D01*
X3353515Y-12733793D02*
X3353515Y-12686174D01*
X3353515Y-12686174D02*
X3363039Y-12648079D01*
X3363039Y-12648079D02*
X3372563Y-12629031D01*
X3372563Y-12629031D02*
X3382086Y-12619508D01*
X3382086Y-12619508D02*
X3401134Y-12609984D01*
X3553515Y-12790936D02*
X3563039Y-12800460D01*
X3563039Y-12800460D02*
X3553515Y-12809984D01*
X3553515Y-12809984D02*
X3543991Y-12800460D01*
X3543991Y-12800460D02*
X3553515Y-12790936D01*
X3553515Y-12790936D02*
X3553515Y-12809984D01*
X3753515Y-12809984D02*
X3639229Y-12809984D01*
X3696372Y-12809984D02*
X3696372Y-12609984D01*
X3696372Y-12609984D02*
X3677325Y-12638555D01*
X3677325Y-12638555D02*
X3658277Y-12657603D01*
X3658277Y-12657603D02*
X3639229Y-12667127D01*
X3829706Y-12629031D02*
X3839229Y-12619508D01*
X3839229Y-12619508D02*
X3858277Y-12609984D01*
X3858277Y-12609984D02*
X3905896Y-12609984D01*
X3905896Y-12609984D02*
X3924944Y-12619508D01*
X3924944Y-12619508D02*
X3934467Y-12629031D01*
X3934467Y-12629031D02*
X3943991Y-12648079D01*
X3943991Y-12648079D02*
X3943991Y-12667127D01*
X3943991Y-12667127D02*
X3934467Y-12695698D01*
X3934467Y-12695698D02*
X3820182Y-12809984D01*
X3820182Y-12809984D02*
X3943991Y-12809984D01*
X4115420Y-12609984D02*
X4077325Y-12609984D01*
X4077325Y-12609984D02*
X4058277Y-12619508D01*
X4058277Y-12619508D02*
X4048753Y-12629031D01*
X4048753Y-12629031D02*
X4029706Y-12657603D01*
X4029706Y-12657603D02*
X4020182Y-12695698D01*
X4020182Y-12695698D02*
X4020182Y-12771888D01*
X4020182Y-12771888D02*
X4029706Y-12790936D01*
X4029706Y-12790936D02*
X4039229Y-12800460D01*
X4039229Y-12800460D02*
X4058277Y-12809984D01*
X4058277Y-12809984D02*
X4096372Y-12809984D01*
X4096372Y-12809984D02*
X4115420Y-12800460D01*
X4115420Y-12800460D02*
X4124944Y-12790936D01*
X4124944Y-12790936D02*
X4134467Y-12771888D01*
X4134467Y-12771888D02*
X4134467Y-12724269D01*
X4134467Y-12724269D02*
X4124944Y-12705222D01*
X4124944Y-12705222D02*
X4115420Y-12695698D01*
X4115420Y-12695698D02*
X4096372Y-12686174D01*
X4096372Y-12686174D02*
X4058277Y-12686174D01*
X4058277Y-12686174D02*
X4039229Y-12695698D01*
X4039229Y-12695698D02*
X4029706Y-12705222D01*
X4029706Y-12705222D02*
X4020182Y-12724269D01*
X4258277Y-12609984D02*
X4277325Y-12609984D01*
X4277325Y-12609984D02*
X4296372Y-12619508D01*
X4296372Y-12619508D02*
X4305896Y-12629031D01*
X4305896Y-12629031D02*
X4315420Y-12648079D01*
X4315420Y-12648079D02*
X4324944Y-12686174D01*
X4324944Y-12686174D02*
X4324944Y-12733793D01*
X4324944Y-12733793D02*
X4315420Y-12771888D01*
X4315420Y-12771888D02*
X4305896Y-12790936D01*
X4305896Y-12790936D02*
X4296372Y-12800460D01*
X4296372Y-12800460D02*
X4277325Y-12809984D01*
X4277325Y-12809984D02*
X4258277Y-12809984D01*
X4258277Y-12809984D02*
X4239229Y-12800460D01*
X4239229Y-12800460D02*
X4229706Y-12790936D01*
X4229706Y-12790936D02*
X4220182Y-12771888D01*
X4220182Y-12771888D02*
X4210658Y-12733793D01*
X4210658Y-12733793D02*
X4210658Y-12686174D01*
X4210658Y-12686174D02*
X4220182Y-12648079D01*
X4220182Y-12648079D02*
X4229706Y-12629031D01*
X4229706Y-12629031D02*
X4239229Y-12619508D01*
X4239229Y-12619508D02*
X4258277Y-12609984D01*
X4401134Y-12609984D02*
X4401134Y-12648079D01*
X4477325Y-12609984D02*
X4477325Y-12648079D01*
X4772563Y-12886174D02*
X4763039Y-12876650D01*
X4763039Y-12876650D02*
X4743991Y-12848079D01*
X4743991Y-12848079D02*
X4734468Y-12829031D01*
X4734468Y-12829031D02*
X4724944Y-12800460D01*
X4724944Y-12800460D02*
X4715420Y-12752841D01*
X4715420Y-12752841D02*
X4715420Y-12714746D01*
X4715420Y-12714746D02*
X4724944Y-12667127D01*
X4724944Y-12667127D02*
X4734468Y-12638555D01*
X4734468Y-12638555D02*
X4743991Y-12619508D01*
X4743991Y-12619508D02*
X4763039Y-12590936D01*
X4763039Y-12590936D02*
X4772563Y-12581412D01*
X4953515Y-12809984D02*
X4839230Y-12809984D01*
X4896372Y-12809984D02*
X4896372Y-12609984D01*
X4896372Y-12609984D02*
X4877325Y-12638555D01*
X4877325Y-12638555D02*
X4858277Y-12657603D01*
X4858277Y-12657603D02*
X4839230Y-12667127D01*
X5191611Y-12809984D02*
X5191611Y-12609984D01*
X5277325Y-12809984D02*
X5277325Y-12705222D01*
X5277325Y-12705222D02*
X5267801Y-12686174D01*
X5267801Y-12686174D02*
X5248753Y-12676650D01*
X5248753Y-12676650D02*
X5220182Y-12676650D01*
X5220182Y-12676650D02*
X5201134Y-12686174D01*
X5201134Y-12686174D02*
X5191611Y-12695698D01*
X5401134Y-12809984D02*
X5382087Y-12800460D01*
X5382087Y-12800460D02*
X5372563Y-12790936D01*
X5372563Y-12790936D02*
X5363039Y-12771888D01*
X5363039Y-12771888D02*
X5363039Y-12714746D01*
X5363039Y-12714746D02*
X5372563Y-12695698D01*
X5372563Y-12695698D02*
X5382087Y-12686174D01*
X5382087Y-12686174D02*
X5401134Y-12676650D01*
X5401134Y-12676650D02*
X5429706Y-12676650D01*
X5429706Y-12676650D02*
X5448753Y-12686174D01*
X5448753Y-12686174D02*
X5458277Y-12695698D01*
X5458277Y-12695698D02*
X5467801Y-12714746D01*
X5467801Y-12714746D02*
X5467801Y-12771888D01*
X5467801Y-12771888D02*
X5458277Y-12790936D01*
X5458277Y-12790936D02*
X5448753Y-12800460D01*
X5448753Y-12800460D02*
X5429706Y-12809984D01*
X5429706Y-12809984D02*
X5401134Y-12809984D01*
X5582087Y-12809984D02*
X5563039Y-12800460D01*
X5563039Y-12800460D02*
X5553515Y-12781412D01*
X5553515Y-12781412D02*
X5553515Y-12609984D01*
X5734468Y-12800460D02*
X5715420Y-12809984D01*
X5715420Y-12809984D02*
X5677325Y-12809984D01*
X5677325Y-12809984D02*
X5658277Y-12800460D01*
X5658277Y-12800460D02*
X5648753Y-12781412D01*
X5648753Y-12781412D02*
X5648753Y-12705222D01*
X5648753Y-12705222D02*
X5658277Y-12686174D01*
X5658277Y-12686174D02*
X5677325Y-12676650D01*
X5677325Y-12676650D02*
X5715420Y-12676650D01*
X5715420Y-12676650D02*
X5734468Y-12686174D01*
X5734468Y-12686174D02*
X5743991Y-12705222D01*
X5743991Y-12705222D02*
X5743991Y-12724269D01*
X5743991Y-12724269D02*
X5648753Y-12743317D01*
X5810658Y-12886174D02*
X5820182Y-12876650D01*
X5820182Y-12876650D02*
X5839230Y-12848079D01*
X5839230Y-12848079D02*
X5848753Y-12829031D01*
X5848753Y-12829031D02*
X5858277Y-12800460D01*
X5858277Y-12800460D02*
X5867801Y-12752841D01*
X5867801Y-12752841D02*
X5867801Y-12714746D01*
X5867801Y-12714746D02*
X5858277Y-12667127D01*
X5858277Y-12667127D02*
X5848753Y-12638555D01*
X5848753Y-12638555D02*
X5839230Y-12619508D01*
X5839230Y-12619508D02*
X5820182Y-12590936D01*
X5820182Y-12590936D02*
X5810658Y-12581412D01*
M02*
