%TF.GenerationSoftware,KiCad,Pcbnew,9.0.2*%
%TF.CreationDate,2025-07-13T13:24:00+03:30*%
%TF.ProjectId,paralleled-full-bridge,70617261-6c6c-4656-9c65-642d66756c6c,rev?*%
%TF.SameCoordinates,Original*%
%TF.FileFunction,Legend,Bot*%
%TF.FilePolarity,Positive*%
%FSLAX46Y46*%
G04 Gerber Fmt 4.6, Leading zero omitted, Abs format (unit mm)*
G04 Created by KiCad (PCBNEW 9.0.2) date 2025-07-13 13:24:00*
%MOMM*%
%LPD*%
G01*
G04 APERTURE LIST*
%ADD10C,0.150000*%
%ADD11C,0.120000*%
G04 APERTURE END LIST*
D10*
X60666666Y-54954819D02*
X60999999Y-54478628D01*
X61238094Y-54954819D02*
X61238094Y-53954819D01*
X61238094Y-53954819D02*
X60857142Y-53954819D01*
X60857142Y-53954819D02*
X60761904Y-54002438D01*
X60761904Y-54002438D02*
X60714285Y-54050057D01*
X60714285Y-54050057D02*
X60666666Y-54145295D01*
X60666666Y-54145295D02*
X60666666Y-54288152D01*
X60666666Y-54288152D02*
X60714285Y-54383390D01*
X60714285Y-54383390D02*
X60761904Y-54431009D01*
X60761904Y-54431009D02*
X60857142Y-54478628D01*
X60857142Y-54478628D02*
X61238094Y-54478628D01*
X60190475Y-54954819D02*
X59999999Y-54954819D01*
X59999999Y-54954819D02*
X59904761Y-54907200D01*
X59904761Y-54907200D02*
X59857142Y-54859580D01*
X59857142Y-54859580D02*
X59761904Y-54716723D01*
X59761904Y-54716723D02*
X59714285Y-54526247D01*
X59714285Y-54526247D02*
X59714285Y-54145295D01*
X59714285Y-54145295D02*
X59761904Y-54050057D01*
X59761904Y-54050057D02*
X59809523Y-54002438D01*
X59809523Y-54002438D02*
X59904761Y-53954819D01*
X59904761Y-53954819D02*
X60095237Y-53954819D01*
X60095237Y-53954819D02*
X60190475Y-54002438D01*
X60190475Y-54002438D02*
X60238094Y-54050057D01*
X60238094Y-54050057D02*
X60285713Y-54145295D01*
X60285713Y-54145295D02*
X60285713Y-54383390D01*
X60285713Y-54383390D02*
X60238094Y-54478628D01*
X60238094Y-54478628D02*
X60190475Y-54526247D01*
X60190475Y-54526247D02*
X60095237Y-54573866D01*
X60095237Y-54573866D02*
X59904761Y-54573866D01*
X59904761Y-54573866D02*
X59809523Y-54526247D01*
X59809523Y-54526247D02*
X59761904Y-54478628D01*
X59761904Y-54478628D02*
X59714285Y-54383390D01*
D11*
%TO.C,R9*%
X51780000Y-54500000D02*
X52630000Y-54500000D01*
X69220000Y-54500000D02*
X68370000Y-54500000D01*
X52630000Y-57120000D02*
X68370000Y-57120000D01*
X68370000Y-51880000D01*
X52630000Y-51880000D01*
X52630000Y-57120000D01*
%TD*%
M02*
