%TF.GenerationSoftware,KiCad,Pcbnew,9.0.2*%
%TF.CreationDate,2025-07-13T13:24:00+03:30*%
%TF.ProjectId,paralleled-full-bridge,70617261-6c6c-4656-9c65-642d66756c6c,rev?*%
%TF.SameCoordinates,Original*%
%TF.FileFunction,Copper,L2,Bot*%
%TF.FilePolarity,Positive*%
%FSLAX46Y46*%
G04 Gerber Fmt 4.6, Leading zero omitted, Abs format (unit mm)*
G04 Created by KiCad (PCBNEW 9.0.2) date 2025-07-13 13:24:00*
%MOMM*%
%LPD*%
G01*
G04 APERTURE LIST*
G04 Aperture macros list*
%AMRoundRect*
0 Rectangle with rounded corners*
0 $1 Rounding radius*
0 $2 $3 $4 $5 $6 $7 $8 $9 X,Y pos of 4 corners*
0 Add a 4 corners polygon primitive as box body*
4,1,4,$2,$3,$4,$5,$6,$7,$8,$9,$2,$3,0*
0 Add four circle primitives for the rounded corners*
1,1,$1+$1,$2,$3*
1,1,$1+$1,$4,$5*
1,1,$1+$1,$6,$7*
1,1,$1+$1,$8,$9*
0 Add four rect primitives between the rounded corners*
20,1,$1+$1,$2,$3,$4,$5,0*
20,1,$1+$1,$4,$5,$6,$7,0*
20,1,$1+$1,$6,$7,$8,$9,0*
20,1,$1+$1,$8,$9,$2,$3,0*%
G04 Aperture macros list end*
%TA.AperFunction,Conductor*%
%ADD10C,0.200000*%
%TD*%
%TA.AperFunction,ComponentPad*%
%ADD11RoundRect,0.250000X1.050000X1.050000X-1.050000X1.050000X-1.050000X-1.050000X1.050000X-1.050000X0*%
%TD*%
%TA.AperFunction,ComponentPad*%
%ADD12C,2.600000*%
%TD*%
%TA.AperFunction,ComponentPad*%
%ADD13RoundRect,0.249999X-0.850001X0.850001X-0.850001X-0.850001X0.850001X-0.850001X0.850001X0.850001X0*%
%TD*%
%TA.AperFunction,ComponentPad*%
%ADD14C,2.200000*%
%TD*%
%TA.AperFunction,ComponentPad*%
%ADD15R,2.500000X4.500000*%
%TD*%
%TA.AperFunction,ComponentPad*%
%ADD16O,2.500000X4.500000*%
%TD*%
%TA.AperFunction,ComponentPad*%
%ADD17RoundRect,0.250001X0.949999X-0.949999X0.949999X0.949999X-0.949999X0.949999X-0.949999X-0.949999X0*%
%TD*%
%TA.AperFunction,ComponentPad*%
%ADD18C,2.400000*%
%TD*%
%TA.AperFunction,ComponentPad*%
%ADD19R,2.000000X2.000000*%
%TD*%
%TA.AperFunction,ComponentPad*%
%ADD20C,2.000000*%
%TD*%
%TA.AperFunction,ComponentPad*%
%ADD21C,1.600000*%
%TD*%
%TA.AperFunction,ComponentPad*%
%ADD22RoundRect,0.249999X0.850001X-0.850001X0.850001X0.850001X-0.850001X0.850001X-0.850001X-0.850001X0*%
%TD*%
%TA.AperFunction,ComponentPad*%
%ADD23RoundRect,0.250000X0.600000X0.750000X-0.600000X0.750000X-0.600000X-0.750000X0.600000X-0.750000X0*%
%TD*%
%TA.AperFunction,ComponentPad*%
%ADD24O,1.700000X2.000000*%
%TD*%
%TA.AperFunction,ComponentPad*%
%ADD25RoundRect,0.250000X-1.050000X-1.050000X1.050000X-1.050000X1.050000X1.050000X-1.050000X1.050000X0*%
%TD*%
%TA.AperFunction,ComponentPad*%
%ADD26RoundRect,0.250000X-0.600000X-0.750000X0.600000X-0.750000X0.600000X0.750000X-0.600000X0.750000X0*%
%TD*%
%TA.AperFunction,ComponentPad*%
%ADD27RoundRect,0.250001X-0.949999X0.949999X-0.949999X-0.949999X0.949999X-0.949999X0.949999X0.949999X0*%
%TD*%
%TA.AperFunction,ComponentPad*%
%ADD28C,2.800000*%
%TD*%
%TA.AperFunction,ComponentPad*%
%ADD29R,3.000000X3.000000*%
%TD*%
%TA.AperFunction,ComponentPad*%
%ADD30C,3.000000*%
%TD*%
%TA.AperFunction,ComponentPad*%
%ADD31C,3.600000*%
%TD*%
%TA.AperFunction,ConnectorPad*%
%ADD32C,5.600000*%
%TD*%
%TA.AperFunction,Conductor*%
%ADD33C,1.000000*%
%TD*%
%TA.AperFunction,Conductor*%
%ADD34C,0.400000*%
%TD*%
%TA.AperFunction,Conductor*%
%ADD35C,4.000000*%
%TD*%
%TA.AperFunction,Conductor*%
%ADD36C,2.000000*%
%TD*%
G04 APERTURE END LIST*
D10*
%TO.N,GNDREF*%
X83000000Y-36000000D02*
X76000000Y-36000000D01*
X79000000Y-33500000D01*
X81000000Y-33000000D01*
X83000000Y-36000000D01*
%TA.AperFunction,Conductor*%
G36*
X83000000Y-36000000D02*
G01*
X76000000Y-36000000D01*
X79000000Y-33500000D01*
X81000000Y-33000000D01*
X83000000Y-36000000D01*
G37*
%TD.AperFunction*%
%TO.N,VDC*%
X32000000Y-76500000D02*
X30000000Y-76500000D01*
X28000000Y-72500000D01*
X34000000Y-72500000D01*
X32000000Y-76500000D01*
%TA.AperFunction,Conductor*%
G36*
X32000000Y-76500000D02*
G01*
X30000000Y-76500000D01*
X28000000Y-72500000D01*
X34000000Y-72500000D01*
X32000000Y-76500000D01*
G37*
%TD.AperFunction*%
%TO.N,GNDREF*%
X70500000Y-75000000D02*
X70000000Y-76000000D01*
X68500000Y-76000000D01*
X68000000Y-75000000D01*
X66500000Y-73500000D01*
X72000000Y-73500000D01*
X70500000Y-75000000D01*
%TA.AperFunction,Conductor*%
G36*
X70500000Y-75000000D02*
G01*
X70000000Y-76000000D01*
X68500000Y-76000000D01*
X68000000Y-75000000D01*
X66500000Y-73500000D01*
X72000000Y-73500000D01*
X70500000Y-75000000D01*
G37*
%TD.AperFunction*%
%TO.N,VDC*%
X50000000Y-33000000D02*
X52000000Y-36000000D01*
X46000000Y-36000000D01*
X48000000Y-32500000D01*
X50000000Y-33000000D01*
%TA.AperFunction,Conductor*%
G36*
X50000000Y-33000000D02*
G01*
X52000000Y-36000000D01*
X46000000Y-36000000D01*
X48000000Y-32500000D01*
X50000000Y-33000000D01*
G37*
%TD.AperFunction*%
%TO.N,GNDREF*%
X101000000Y-36000000D02*
X95000000Y-36000000D01*
X97000000Y-33000000D01*
X99000000Y-33000000D01*
X101000000Y-36000000D01*
%TA.AperFunction,Conductor*%
G36*
X101000000Y-36000000D02*
G01*
X95000000Y-36000000D01*
X97000000Y-33000000D01*
X99000000Y-33000000D01*
X101000000Y-36000000D01*
G37*
%TD.AperFunction*%
%TO.N,VDC*%
X34500000Y-36500000D02*
X27500000Y-36500000D01*
X30000000Y-32500000D01*
X32000000Y-32500000D01*
X34500000Y-36500000D01*
%TA.AperFunction,Conductor*%
G36*
X34500000Y-36500000D02*
G01*
X27500000Y-36500000D01*
X30000000Y-32500000D01*
X32000000Y-32500000D01*
X34500000Y-36500000D01*
G37*
%TD.AperFunction*%
X50000000Y-76000000D02*
X48000000Y-76000000D01*
X46000000Y-72500000D01*
X52500000Y-72500000D01*
X50000000Y-76000000D01*
%TA.AperFunction,Conductor*%
G36*
X50000000Y-76000000D02*
G01*
X48000000Y-76000000D01*
X46000000Y-72500000D01*
X52500000Y-72500000D01*
X50000000Y-76000000D01*
G37*
%TD.AperFunction*%
%TO.N,GNDREF*%
X88500000Y-75500000D02*
X86000000Y-75500000D01*
X84500000Y-73500000D01*
X90000000Y-73500000D01*
X88500000Y-75500000D01*
%TA.AperFunction,Conductor*%
G36*
X88500000Y-75500000D02*
G01*
X86000000Y-75500000D01*
X84500000Y-73500000D01*
X90000000Y-73500000D01*
X88500000Y-75500000D01*
G37*
%TD.AperFunction*%
%TD*%
D11*
%TO.P,D16,1,A1*%
%TO.N,/Net-(D15-A1)*%
X47420000Y-83000000D03*
D12*
%TO.P,D16,2,A2*%
%TO.N,/BridgeRight*%
X43610000Y-83000000D03*
%TD*%
D13*
%TO.P,D2,1,K*%
%TO.N,/Gate Left High*%
X28000000Y-19890000D03*
D14*
%TO.P,D2,2,A*%
%TO.N,/Net-(D1-A)*%
X28000000Y-27510000D03*
%TD*%
D15*
%TO.P,Q6,1,G*%
%TO.N,/Net-(D15-A1)*%
X54400000Y-76640000D03*
D16*
%TO.P,Q6,2,C*%
%TO.N,VDC*%
X48950000Y-76640000D03*
%TO.P,Q6,3,E*%
%TO.N,/BridgeRight*%
X43500000Y-76640000D03*
%TD*%
D17*
%TO.P,D9,1,A1*%
%TO.N,VDC*%
X37450000Y-52500000D03*
D18*
%TO.P,D9,2,A2*%
%TO.N,/BridgeLeft*%
X37450000Y-42340000D03*
%TD*%
D19*
%TO.P,D13,1,K*%
%TO.N,/BridgeLeft*%
X80000000Y-40500000D03*
D20*
%TO.P,D13,2,A*%
%TO.N,GNDREF*%
X74920000Y-40500000D03*
%TD*%
D21*
%TO.P,R6,1*%
%TO.N,/Gate Right Low*%
X99000000Y-88810000D03*
%TO.P,R6,2*%
%TO.N,/Net-(D19-A)*%
X99000000Y-81190000D03*
%TD*%
%TO.P,R8,1*%
%TO.N,/Gate Right High*%
X55500000Y-89010000D03*
%TO.P,R8,2*%
%TO.N,/Net-(D15-A1)*%
X55500000Y-81390000D03*
%TD*%
D17*
%TO.P,D19,1,A1*%
%TO.N,/BridgeRight*%
X87500000Y-66160000D03*
D18*
%TO.P,D19,2,A2*%
%TO.N,GNDREF*%
X87500000Y-56000000D03*
%TD*%
D11*
%TO.P,D18,1,A1*%
%TO.N,/Net-(D17-A)*%
X73195000Y-83000000D03*
D12*
%TO.P,D18,2,A2*%
%TO.N,GNDREF*%
X69385000Y-83000000D03*
%TD*%
D19*
%TO.P,D11,1,K*%
%TO.N,VDC*%
X48540000Y-40500000D03*
D20*
%TO.P,D11,2,A*%
%TO.N,/BridgeLeft*%
X43460000Y-40500000D03*
%TD*%
D11*
%TO.P,D20,1,A1*%
%TO.N,/Net-(D19-A)*%
X91195000Y-83000000D03*
D12*
%TO.P,D20,2,A2*%
%TO.N,GNDREF*%
X87385000Y-83000000D03*
%TD*%
D22*
%TO.P,D24,1,K*%
%TO.N,/Gate Right Low*%
X95000000Y-89110000D03*
D14*
%TO.P,D24,2,A*%
%TO.N,/Net-(D19-A)*%
X95000000Y-81490000D03*
%TD*%
D23*
%TO.P,J2,1,Pin_1*%
%TO.N,/Gate Left Low*%
X80000000Y-19500000D03*
D24*
%TO.P,J2,2,Pin_2*%
%TO.N,GNDREF*%
X77500000Y-19500000D03*
%TD*%
D22*
%TO.P,D23,1,K*%
%TO.N,/Gate Right Low*%
X77000000Y-89120000D03*
D14*
%TO.P,D23,2,A*%
%TO.N,/Net-(D17-A)*%
X77000000Y-81500000D03*
%TD*%
D15*
%TO.P,Q3,1,G*%
%TO.N,/Net-(D5-A1)*%
X87275000Y-32500000D03*
D16*
%TO.P,Q3,2,C*%
%TO.N,/BridgeLeft*%
X92725000Y-32500000D03*
%TO.P,Q3,3,E*%
%TO.N,GNDREF*%
X98175000Y-32500000D03*
%TD*%
D25*
%TO.P,D1,1,A1*%
%TO.N,/Net-(D1-A)*%
X32190000Y-26000000D03*
D12*
%TO.P,D1,2,A2*%
%TO.N,/BridgeLeft*%
X36000000Y-26000000D03*
%TD*%
D21*
%TO.P,R2,1*%
%TO.N,/Gate Left High*%
X42000000Y-20190000D03*
%TO.P,R2,2*%
%TO.N,Net-(D3-A)*%
X42000000Y-27810000D03*
%TD*%
%TO.P,R3,1*%
%TO.N,/Gate Left Low*%
X72000000Y-20190000D03*
%TO.P,R3,2*%
%TO.N,/Net-(D6-A1)*%
X72000000Y-27810000D03*
%TD*%
D26*
%TO.P,J6,1,Pin_1*%
%TO.N,/Gate Right Low*%
X86000000Y-90000000D03*
D24*
%TO.P,J6,2,Pin_2*%
%TO.N,GNDREF*%
X88500000Y-90000000D03*
%TD*%
D27*
%TO.P,D12,1,A1*%
%TO.N,/BridgeLeft*%
X87500000Y-42340000D03*
D18*
%TO.P,D12,2,A2*%
%TO.N,GNDREF*%
X87500000Y-52500000D03*
%TD*%
D28*
%TO.P,Snubber1,1*%
%TO.N,GNDREF*%
X80575000Y-54610000D03*
%TO.P,Snubber1,2*%
%TO.N,VDC*%
X43075000Y-54610000D03*
%TD*%
D25*
%TO.P,D4,1,A1*%
%TO.N,Net-(D3-A)*%
X50190000Y-26000000D03*
D12*
%TO.P,D4,2,A2*%
%TO.N,/BridgeLeft*%
X54000000Y-26000000D03*
%TD*%
D21*
%TO.P,R1,1*%
%TO.N,/Gate Left High*%
X24000000Y-20190000D03*
%TO.P,R1,2*%
%TO.N,/Net-(D1-A)*%
X24000000Y-27810000D03*
%TD*%
D15*
%TO.P,Q7,1,G*%
%TO.N,/Net-(D17-A)*%
X80175000Y-76750000D03*
D16*
%TO.P,Q7,2,C*%
%TO.N,/BridgeRight*%
X74725000Y-76750000D03*
%TO.P,Q7,3,E*%
%TO.N,GNDREF*%
X69275000Y-76750000D03*
%TD*%
D19*
%TO.P,D15,1,K*%
%TO.N,VDC*%
X43500000Y-69000000D03*
D20*
%TO.P,D15,2,A*%
%TO.N,/BridgeRight*%
X48580000Y-69000000D03*
%TD*%
D15*
%TO.P,Q8,1,G*%
%TO.N,/Net-(D19-A)*%
X98175000Y-76750000D03*
D16*
%TO.P,Q8,2,C*%
%TO.N,/BridgeRight*%
X92725000Y-76750000D03*
%TO.P,Q8,3,E*%
%TO.N,GNDREF*%
X87275000Y-76750000D03*
%TD*%
D21*
%TO.P,R7,1*%
%TO.N,/Gate Right High*%
X37550000Y-89010000D03*
%TO.P,R7,2*%
%TO.N,/Net-(D13-A)*%
X37550000Y-81390000D03*
%TD*%
D19*
%TO.P,D17,1,K*%
%TO.N,/BridgeRight*%
X75000000Y-69000000D03*
D20*
%TO.P,D17,2,A*%
%TO.N,GNDREF*%
X80080000Y-69000000D03*
%TD*%
D13*
%TO.P,D7,1,K*%
%TO.N,/Gate Left Low*%
X86500000Y-19890000D03*
D14*
%TO.P,D7,2,A*%
%TO.N,/Net-(D5-A1)*%
X86500000Y-27510000D03*
%TD*%
D15*
%TO.P,Q2,1,G*%
%TO.N,Net-(D3-A)*%
X43500000Y-32500000D03*
D16*
%TO.P,Q2,2,C*%
%TO.N,VDC*%
X48950000Y-32500000D03*
%TO.P,Q2,3,E*%
%TO.N,/BridgeLeft*%
X54400000Y-32500000D03*
%TD*%
D25*
%TO.P,D6,1,A1*%
%TO.N,/Net-(D6-A1)*%
X76190000Y-26000000D03*
D12*
%TO.P,D6,2,A2*%
%TO.N,GNDREF*%
X80000000Y-26000000D03*
%TD*%
D22*
%TO.P,D22,1,K*%
%TO.N,/Gate Right High*%
X51500000Y-89310000D03*
D14*
%TO.P,D22,2,A*%
%TO.N,/Net-(D15-A1)*%
X51500000Y-81690000D03*
%TD*%
D26*
%TO.P,J4,1,Pin_1*%
%TO.N,/Gate Right High*%
X43000000Y-90000000D03*
D24*
%TO.P,J4,2,Pin_2*%
%TO.N,/BridgeRight*%
X45500000Y-90000000D03*
%TD*%
D29*
%TO.P,J5,1,Pin_1*%
%TO.N,GNDREF*%
X65040000Y-94000000D03*
D30*
%TO.P,J5,2,Pin_2*%
%TO.N,VDC*%
X59960000Y-94000000D03*
%TD*%
D23*
%TO.P,J1,1,Pin_1*%
%TO.N,/Gate Left High*%
X36500000Y-19500000D03*
D24*
%TO.P,J1,2,Pin_2*%
%TO.N,/BridgeLeft*%
X34000000Y-19500000D03*
%TD*%
D11*
%TO.P,D14,1,A1*%
%TO.N,/Net-(D13-A)*%
X29560000Y-83000000D03*
D12*
%TO.P,D14,2,A2*%
%TO.N,/BridgeRight*%
X25750000Y-83000000D03*
%TD*%
D25*
%TO.P,D8,1,A1*%
%TO.N,/Net-(D5-A1)*%
X94190000Y-26000000D03*
D12*
%TO.P,D8,2,A2*%
%TO.N,GNDREF*%
X98000000Y-26000000D03*
%TD*%
D21*
%TO.P,R4,1*%
%TO.N,/Gate Left Low*%
X90500000Y-20190000D03*
%TO.P,R4,2*%
%TO.N,/Net-(D5-A1)*%
X90500000Y-27810000D03*
%TD*%
D22*
%TO.P,D21,1,K*%
%TO.N,/Gate Right High*%
X33500000Y-89310000D03*
D14*
%TO.P,D21,2,A*%
%TO.N,/Net-(D13-A)*%
X33500000Y-81690000D03*
%TD*%
D13*
%TO.P,D3,1,K*%
%TO.N,/Gate Left High*%
X46000000Y-19890000D03*
D14*
%TO.P,D3,2,A*%
%TO.N,Net-(D3-A)*%
X46000000Y-27510000D03*
%TD*%
D31*
%TO.P,H4,1,1*%
%TO.N,GND*%
X106000000Y-93400000D03*
D32*
X106000000Y-93400000D03*
%TD*%
D18*
%TO.P,C1,1*%
%TO.N,GNDREF*%
X106000000Y-64250000D03*
%TO.P,C1,2*%
%TO.N,GND*%
X106000000Y-86750000D03*
%TD*%
D27*
%TO.P,D10,1,A1*%
%TO.N,VDC*%
X37450000Y-56000000D03*
D18*
%TO.P,D10,2,A2*%
%TO.N,/BridgeRight*%
X37450000Y-66160000D03*
%TD*%
D15*
%TO.P,Q5,1,G*%
%TO.N,/Net-(D13-A)*%
X36400000Y-76640000D03*
D16*
%TO.P,Q5,2,C*%
%TO.N,VDC*%
X30950000Y-76640000D03*
%TO.P,Q5,3,E*%
%TO.N,/BridgeRight*%
X25500000Y-76640000D03*
%TD*%
D13*
%TO.P,D5,1,K*%
%TO.N,/Gate Left Low*%
X68000000Y-19890000D03*
D14*
%TO.P,D5,2,A*%
%TO.N,/Net-(D6-A1)*%
X68000000Y-27510000D03*
%TD*%
D15*
%TO.P,Q1,1,G*%
%TO.N,/Net-(D1-A)*%
X25500000Y-32500000D03*
D16*
%TO.P,Q1,2,C*%
%TO.N,VDC*%
X30950000Y-32500000D03*
%TO.P,Q1,3,E*%
%TO.N,/BridgeLeft*%
X36400000Y-32500000D03*
%TD*%
D29*
%TO.P,J3,1,Pin_1*%
%TO.N,/BridgeLeft*%
X105000000Y-51920000D03*
D30*
%TO.P,J3,2,Pin_2*%
%TO.N,/BridgeRight*%
X105000000Y-57000000D03*
%TD*%
D21*
%TO.P,R5,1*%
%TO.N,/Gate Right Low*%
X81000000Y-88820000D03*
%TO.P,R5,2*%
%TO.N,/Net-(D17-A)*%
X81000000Y-81200000D03*
%TD*%
D15*
%TO.P,Q4,1,G*%
%TO.N,/Net-(D6-A1)*%
X69275000Y-32500000D03*
D16*
%TO.P,Q4,2,C*%
%TO.N,/BridgeLeft*%
X74725000Y-32500000D03*
%TO.P,Q4,3,E*%
%TO.N,GNDREF*%
X80175000Y-32500000D03*
%TD*%
D18*
%TO.P,R9,1*%
%TO.N,VDC*%
X50340000Y-54500000D03*
%TO.P,R9,2*%
%TO.N,GNDREF*%
X70660000Y-54500000D03*
%TD*%
D33*
%TO.N,GNDREF*%
X69847523Y-85301000D02*
X69385000Y-84838477D01*
D34*
X64500000Y-72500000D02*
X67000000Y-72500000D01*
D33*
X98000000Y-24161523D02*
X98000000Y-26000000D01*
X87385000Y-83000000D02*
X87385000Y-76860000D01*
X69385000Y-83000000D02*
X69385000Y-76860000D01*
X88500000Y-88000000D02*
X85801000Y-85301000D01*
D35*
X65040000Y-94000000D02*
X65040000Y-71960000D01*
D33*
X81072892Y-23699000D02*
X97537477Y-23699000D01*
X77500000Y-19500000D02*
X77500000Y-20126108D01*
X77500000Y-19500000D02*
X77500000Y-23433892D01*
X88500000Y-84115000D02*
X87385000Y-83000000D01*
X80175000Y-26108892D02*
X80175000Y-32500000D01*
X88500000Y-90000000D02*
X88500000Y-88000000D01*
D36*
X103250000Y-67000000D02*
X95500000Y-67000000D01*
D33*
X69385000Y-84838477D02*
X69385000Y-83000000D01*
X77500000Y-23433892D02*
X80175000Y-26108892D01*
X77500000Y-20126108D02*
X81072892Y-23699000D01*
X100640000Y-67360000D02*
X100500000Y-67500000D01*
D34*
X64000000Y-73000000D02*
X64500000Y-72500000D01*
D33*
X65040000Y-71960000D02*
X65500000Y-71500000D01*
X97537477Y-23699000D02*
X98000000Y-24161523D01*
D36*
X106000000Y-64250000D02*
X103250000Y-67000000D01*
D33*
X88500000Y-90000000D02*
X88500000Y-84115000D01*
X85801000Y-85301000D02*
X69847523Y-85301000D01*
D36*
%TO.N,GND*%
X106000000Y-86750000D02*
X106000000Y-93400000D01*
D35*
%TO.N,VDC*%
X59960000Y-94000000D02*
X59000000Y-93040000D01*
X59000000Y-93040000D02*
X59000000Y-64500000D01*
D33*
%TO.N,/Gate Left High*%
X24300000Y-19890000D02*
X24000000Y-20190000D01*
X29611000Y-21501000D02*
X28000000Y-19890000D01*
X28000000Y-19890000D02*
X24300000Y-19890000D01*
X36500000Y-19767709D02*
X34766709Y-21501000D01*
X34766709Y-21501000D02*
X29611000Y-21501000D01*
X36500000Y-19500000D02*
X45610000Y-19500000D01*
%TO.N,Net-(D3-A)*%
X48380000Y-27810000D02*
X50190000Y-26000000D01*
X42000000Y-27810000D02*
X48380000Y-27810000D01*
X46000000Y-29000000D02*
X46000000Y-27510000D01*
X43500000Y-31500000D02*
X46000000Y-29000000D01*
%TO.N,/Gate Right High*%
X43000000Y-89732291D02*
X44733291Y-87999000D01*
X55200000Y-89310000D02*
X55500000Y-89010000D01*
X33500000Y-89310000D02*
X42310000Y-89310000D01*
X51500000Y-89310000D02*
X55200000Y-89310000D01*
X44733291Y-87999000D02*
X50189000Y-87999000D01*
X42310000Y-89310000D02*
X43000000Y-90000000D01*
X50189000Y-87999000D02*
X51500000Y-89310000D01*
%TO.N,/Net-(D1-A)*%
X29510000Y-26000000D02*
X28000000Y-27510000D01*
X32190000Y-26000000D02*
X29510000Y-26000000D01*
X28000000Y-28500000D02*
X28000000Y-27510000D01*
X25500000Y-31000000D02*
X28000000Y-28500000D01*
X24000000Y-27810000D02*
X27700000Y-27810000D01*
%TO.N,/Net-(D13-A)*%
X36400000Y-80240000D02*
X37550000Y-81390000D01*
X29560000Y-83000000D02*
X32400000Y-83000000D01*
X36400000Y-76640000D02*
X36400000Y-79000000D01*
X32400000Y-83000000D02*
X36400000Y-79000000D01*
X36400000Y-79000000D02*
X36400000Y-80240000D01*
%TO.N,/Net-(D15-A1)*%
X50400000Y-83000000D02*
X54400000Y-79000000D01*
X54400000Y-80290000D02*
X55500000Y-81390000D01*
X47420000Y-83000000D02*
X50400000Y-83000000D01*
X54400000Y-76640000D02*
X54400000Y-79000000D01*
X54400000Y-79000000D02*
X54400000Y-80290000D01*
%TD*%
%TA.AperFunction,Conductor*%
%TO.N,GNDREF*%
G36*
X67384479Y-35519685D02*
G01*
X67395800Y-35527898D01*
X67471587Y-35589694D01*
X67471590Y-35589695D01*
X67471593Y-35589698D01*
X67651951Y-35683909D01*
X67847582Y-35739886D01*
X67966963Y-35750500D01*
X70583036Y-35750499D01*
X70702418Y-35739886D01*
X70898049Y-35683909D01*
X71078407Y-35589698D01*
X71094072Y-35576925D01*
X71154200Y-35527898D01*
X71218596Y-35500789D01*
X71232560Y-35500000D01*
X73654875Y-35500000D01*
X73716877Y-35516614D01*
X73727493Y-35522743D01*
X74000048Y-35635639D01*
X74285007Y-35711993D01*
X74563415Y-35748646D01*
X74577478Y-35750498D01*
X74577494Y-35750500D01*
X74577501Y-35750500D01*
X74872499Y-35750500D01*
X74872506Y-35750500D01*
X75164993Y-35711993D01*
X75449952Y-35635639D01*
X75722507Y-35522743D01*
X75733123Y-35516614D01*
X75795125Y-35500000D01*
X85317440Y-35500000D01*
X85384479Y-35519685D01*
X85395800Y-35527898D01*
X85471587Y-35589694D01*
X85471590Y-35589695D01*
X85471593Y-35589698D01*
X85651951Y-35683909D01*
X85847582Y-35739886D01*
X85966963Y-35750500D01*
X88583036Y-35750499D01*
X88702418Y-35739886D01*
X88898049Y-35683909D01*
X89078407Y-35589698D01*
X89094072Y-35576925D01*
X89154200Y-35527898D01*
X89218596Y-35500789D01*
X89232560Y-35500000D01*
X91654875Y-35500000D01*
X91716877Y-35516614D01*
X91727493Y-35522743D01*
X92000048Y-35635639D01*
X92285007Y-35711993D01*
X92563415Y-35748646D01*
X92577478Y-35750498D01*
X92577494Y-35750500D01*
X92577501Y-35750500D01*
X92872499Y-35750500D01*
X92872506Y-35750500D01*
X93164993Y-35711993D01*
X93449952Y-35635639D01*
X93722507Y-35522743D01*
X93733123Y-35516614D01*
X93795125Y-35500000D01*
X101491874Y-35500000D01*
X101508059Y-35501061D01*
X101613223Y-35514906D01*
X101644491Y-35523284D01*
X101734918Y-35560740D01*
X101762952Y-35576925D01*
X101840602Y-35636509D01*
X101863491Y-35659398D01*
X101923074Y-35737048D01*
X101939259Y-35765081D01*
X101976715Y-35855508D01*
X101985093Y-35886775D01*
X101998939Y-35991939D01*
X102000000Y-36008125D01*
X102000000Y-72991874D01*
X101998939Y-73008059D01*
X101998939Y-73008060D01*
X101985093Y-73113224D01*
X101976715Y-73144491D01*
X101939259Y-73234918D01*
X101923074Y-73262951D01*
X101863491Y-73340601D01*
X101840601Y-73363491D01*
X101762951Y-73423074D01*
X101734918Y-73439259D01*
X101644491Y-73476715D01*
X101613224Y-73485093D01*
X101519398Y-73497446D01*
X101508058Y-73498939D01*
X101491874Y-73500000D01*
X99494160Y-73500000D01*
X99483185Y-73499513D01*
X99483038Y-73499500D01*
X96866971Y-73499500D01*
X96866950Y-73499501D01*
X96866826Y-73499513D01*
X96855852Y-73500000D01*
X93500000Y-73500000D01*
X92884193Y-73500000D01*
X92876082Y-73499734D01*
X92872512Y-73499500D01*
X92872506Y-73499500D01*
X92577494Y-73499500D01*
X92577488Y-73499500D01*
X92573918Y-73499734D01*
X92565807Y-73500000D01*
X81494160Y-73500000D01*
X81483185Y-73499513D01*
X81483038Y-73499500D01*
X78866971Y-73499500D01*
X78866950Y-73499501D01*
X78866826Y-73499513D01*
X78855852Y-73500000D01*
X74884193Y-73500000D01*
X74876082Y-73499734D01*
X74872512Y-73499500D01*
X74872506Y-73499500D01*
X74577494Y-73499500D01*
X74577488Y-73499500D01*
X74573918Y-73499734D01*
X74565807Y-73500000D01*
X63508126Y-73500000D01*
X63491941Y-73498939D01*
X63478917Y-73497224D01*
X63386775Y-73485093D01*
X63355508Y-73476715D01*
X63265081Y-73439259D01*
X63237048Y-73423074D01*
X63159398Y-73363491D01*
X63136508Y-73340601D01*
X63076925Y-73262951D01*
X63060740Y-73234918D01*
X63023284Y-73144491D01*
X63014906Y-73113223D01*
X63001061Y-73008059D01*
X63000000Y-72991874D01*
X63000000Y-67941966D01*
X72999500Y-67941966D01*
X72999500Y-70058028D01*
X72999501Y-70058034D01*
X73010113Y-70177415D01*
X73066089Y-70373045D01*
X73066090Y-70373048D01*
X73066091Y-70373049D01*
X73160302Y-70553407D01*
X73160304Y-70553409D01*
X73288890Y-70711109D01*
X73382803Y-70787684D01*
X73446593Y-70839698D01*
X73626951Y-70933909D01*
X73822582Y-70989886D01*
X73941963Y-71000500D01*
X76058036Y-71000499D01*
X76177418Y-70989886D01*
X76373049Y-70933909D01*
X76553407Y-70839698D01*
X76711109Y-70711109D01*
X76839698Y-70553407D01*
X76933909Y-70373049D01*
X76989886Y-70177418D01*
X77000500Y-70058037D01*
X77000499Y-67941964D01*
X76989886Y-67822582D01*
X76933909Y-67626951D01*
X76839698Y-67446593D01*
X76787684Y-67382803D01*
X76711109Y-67288890D01*
X76553409Y-67160304D01*
X76553410Y-67160304D01*
X76553407Y-67160302D01*
X76373049Y-67066091D01*
X76373048Y-67066090D01*
X76373045Y-67066089D01*
X76255829Y-67032550D01*
X76177418Y-67010114D01*
X76177415Y-67010113D01*
X76177413Y-67010113D01*
X76111102Y-67004217D01*
X76058037Y-66999500D01*
X76058032Y-66999500D01*
X73941971Y-66999500D01*
X73941965Y-66999500D01*
X73941964Y-66999501D01*
X73930316Y-67000536D01*
X73822584Y-67010113D01*
X73626954Y-67066089D01*
X73536772Y-67113196D01*
X73446593Y-67160302D01*
X73446591Y-67160303D01*
X73446590Y-67160304D01*
X73288890Y-67288890D01*
X73160304Y-67446590D01*
X73066089Y-67626954D01*
X73010114Y-67822583D01*
X73010113Y-67822586D01*
X72999500Y-67941966D01*
X63000000Y-67941966D01*
X63000000Y-65145778D01*
X85299500Y-65145778D01*
X85299500Y-67174221D01*
X85309904Y-67306412D01*
X85309905Y-67306419D01*
X85364902Y-67524678D01*
X85364903Y-67524681D01*
X85457991Y-67729622D01*
X85457997Y-67729632D01*
X85586174Y-67914645D01*
X85586178Y-67914650D01*
X85586181Y-67914654D01*
X85745346Y-68073819D01*
X85745350Y-68073822D01*
X85745354Y-68073825D01*
X85884603Y-68170297D01*
X85930374Y-68202007D01*
X86135317Y-68295096D01*
X86135321Y-68295097D01*
X86353580Y-68350094D01*
X86353582Y-68350094D01*
X86353589Y-68350096D01*
X86485784Y-68360500D01*
X86485792Y-68360500D01*
X88514208Y-68360500D01*
X88514216Y-68360500D01*
X88646411Y-68350096D01*
X88864683Y-68295096D01*
X89069626Y-68202007D01*
X89254654Y-68073819D01*
X89413819Y-67914654D01*
X89542007Y-67729626D01*
X89635096Y-67524683D01*
X89690096Y-67306411D01*
X89700500Y-67174216D01*
X89700500Y-65145784D01*
X89690096Y-65013589D01*
X89635096Y-64795317D01*
X89542007Y-64590374D01*
X89413819Y-64405346D01*
X89254654Y-64246181D01*
X89254650Y-64246178D01*
X89254645Y-64246174D01*
X89069632Y-64117997D01*
X89069630Y-64117995D01*
X89069626Y-64117993D01*
X88864683Y-64024904D01*
X88864681Y-64024903D01*
X88864678Y-64024902D01*
X88646419Y-63969905D01*
X88646412Y-63969904D01*
X88514221Y-63959500D01*
X88514216Y-63959500D01*
X86485784Y-63959500D01*
X86485778Y-63959500D01*
X86353587Y-63969904D01*
X86353580Y-63969905D01*
X86135321Y-64024902D01*
X86135318Y-64024903D01*
X85930377Y-64117991D01*
X85930367Y-64117997D01*
X85745354Y-64246174D01*
X85745342Y-64246184D01*
X85586184Y-64405342D01*
X85586174Y-64405354D01*
X85457997Y-64590367D01*
X85457991Y-64590377D01*
X85364903Y-64795318D01*
X85364902Y-64795321D01*
X85309905Y-65013580D01*
X85309904Y-65013587D01*
X85299500Y-65145778D01*
X63000000Y-65145778D01*
X63000000Y-39441966D01*
X77999500Y-39441966D01*
X77999500Y-41558028D01*
X77999501Y-41558034D01*
X78010113Y-41677415D01*
X78066089Y-41873045D01*
X78066090Y-41873048D01*
X78066091Y-41873049D01*
X78160302Y-42053407D01*
X78160304Y-42053409D01*
X78288890Y-42211109D01*
X78382803Y-42287684D01*
X78446593Y-42339698D01*
X78626951Y-42433909D01*
X78822582Y-42489886D01*
X78941963Y-42500500D01*
X81058036Y-42500499D01*
X81177418Y-42489886D01*
X81373049Y-42433909D01*
X81553407Y-42339698D01*
X81711109Y-42211109D01*
X81839698Y-42053407D01*
X81933909Y-41873049D01*
X81989886Y-41677418D01*
X82000500Y-41558037D01*
X82000500Y-41325778D01*
X85299500Y-41325778D01*
X85299500Y-43354221D01*
X85309904Y-43486412D01*
X85309905Y-43486419D01*
X85364902Y-43704678D01*
X85364903Y-43704681D01*
X85457991Y-43909622D01*
X85457997Y-43909632D01*
X85586174Y-44094645D01*
X85586178Y-44094650D01*
X85586181Y-44094654D01*
X85745346Y-44253819D01*
X85745350Y-44253822D01*
X85745354Y-44253825D01*
X85884603Y-44350297D01*
X85930374Y-44382007D01*
X86135317Y-44475096D01*
X86135321Y-44475097D01*
X86353580Y-44530094D01*
X86353582Y-44530094D01*
X86353589Y-44530096D01*
X86485784Y-44540500D01*
X86485792Y-44540500D01*
X88514208Y-44540500D01*
X88514216Y-44540500D01*
X88646411Y-44530096D01*
X88864683Y-44475096D01*
X89069626Y-44382007D01*
X89254654Y-44253819D01*
X89413819Y-44094654D01*
X89542007Y-43909626D01*
X89635096Y-43704683D01*
X89690096Y-43486411D01*
X89700500Y-43354216D01*
X89700500Y-41325784D01*
X89690096Y-41193589D01*
X89635096Y-40975317D01*
X89542007Y-40770374D01*
X89413819Y-40585346D01*
X89254654Y-40426181D01*
X89254650Y-40426178D01*
X89254645Y-40426174D01*
X89069632Y-40297997D01*
X89069630Y-40297995D01*
X89069626Y-40297993D01*
X88864683Y-40204904D01*
X88864681Y-40204903D01*
X88864678Y-40204902D01*
X88646419Y-40149905D01*
X88646412Y-40149904D01*
X88514221Y-40139500D01*
X88514216Y-40139500D01*
X86485784Y-40139500D01*
X86485778Y-40139500D01*
X86353587Y-40149904D01*
X86353580Y-40149905D01*
X86135321Y-40204902D01*
X86135318Y-40204903D01*
X85930377Y-40297991D01*
X85930367Y-40297997D01*
X85745354Y-40426174D01*
X85745342Y-40426184D01*
X85586184Y-40585342D01*
X85586174Y-40585354D01*
X85457997Y-40770367D01*
X85457991Y-40770377D01*
X85364903Y-40975318D01*
X85364902Y-40975321D01*
X85309905Y-41193580D01*
X85309904Y-41193587D01*
X85299500Y-41325778D01*
X82000500Y-41325778D01*
X82000499Y-40426184D01*
X82000499Y-39441971D01*
X82000499Y-39441964D01*
X81989886Y-39322582D01*
X81933909Y-39126951D01*
X81839698Y-38946593D01*
X81787684Y-38882803D01*
X81711109Y-38788890D01*
X81553409Y-38660304D01*
X81553410Y-38660304D01*
X81553407Y-38660302D01*
X81373049Y-38566091D01*
X81373048Y-38566090D01*
X81373045Y-38566089D01*
X81255829Y-38532550D01*
X81177418Y-38510114D01*
X81177415Y-38510113D01*
X81177413Y-38510113D01*
X81111102Y-38504217D01*
X81058037Y-38499500D01*
X81058032Y-38499500D01*
X78941971Y-38499500D01*
X78941965Y-38499500D01*
X78941964Y-38499501D01*
X78930316Y-38500536D01*
X78822584Y-38510113D01*
X78626954Y-38566089D01*
X78536772Y-38613196D01*
X78446593Y-38660302D01*
X78446591Y-38660303D01*
X78446590Y-38660304D01*
X78288890Y-38788890D01*
X78160304Y-38946590D01*
X78066089Y-39126954D01*
X78010114Y-39322583D01*
X78010113Y-39322586D01*
X77999500Y-39441966D01*
X63000000Y-39441966D01*
X63000000Y-36008125D01*
X63001061Y-35991940D01*
X63014906Y-35886776D01*
X63014906Y-35886775D01*
X63023284Y-35855508D01*
X63060740Y-35765081D01*
X63076923Y-35737050D01*
X63136513Y-35659392D01*
X63159392Y-35636513D01*
X63237050Y-35576923D01*
X63265079Y-35560740D01*
X63355509Y-35523283D01*
X63386775Y-35514906D01*
X63491941Y-35501061D01*
X63508126Y-35500000D01*
X67317440Y-35500000D01*
X67384479Y-35519685D01*
G37*
%TD.AperFunction*%
%TD*%
%TA.AperFunction,Conductor*%
%TO.N,VDC*%
G36*
X23609479Y-35519685D02*
G01*
X23620800Y-35527898D01*
X23696587Y-35589694D01*
X23696590Y-35589695D01*
X23696593Y-35589698D01*
X23876951Y-35683909D01*
X24072582Y-35739886D01*
X24191963Y-35750500D01*
X26808036Y-35750499D01*
X26927418Y-35739886D01*
X27123049Y-35683909D01*
X27303407Y-35589698D01*
X27319072Y-35576925D01*
X27379200Y-35527898D01*
X27443596Y-35500789D01*
X27457560Y-35500000D01*
X35329875Y-35500000D01*
X35391877Y-35516614D01*
X35402493Y-35522743D01*
X35675048Y-35635639D01*
X35960007Y-35711993D01*
X36238415Y-35748646D01*
X36252478Y-35750498D01*
X36252494Y-35750500D01*
X36252501Y-35750500D01*
X36547499Y-35750500D01*
X36547506Y-35750500D01*
X36839993Y-35711993D01*
X37124952Y-35635639D01*
X37397507Y-35522743D01*
X37408123Y-35516614D01*
X37470125Y-35500000D01*
X41542440Y-35500000D01*
X41609479Y-35519685D01*
X41620800Y-35527898D01*
X41696587Y-35589694D01*
X41696590Y-35589695D01*
X41696593Y-35589698D01*
X41876951Y-35683909D01*
X42072582Y-35739886D01*
X42191963Y-35750500D01*
X44808036Y-35750499D01*
X44927418Y-35739886D01*
X45123049Y-35683909D01*
X45303407Y-35589698D01*
X45319072Y-35576925D01*
X45379200Y-35527898D01*
X45443596Y-35500789D01*
X45457560Y-35500000D01*
X53329875Y-35500000D01*
X53391877Y-35516614D01*
X53402493Y-35522743D01*
X53675048Y-35635639D01*
X53960007Y-35711993D01*
X54238415Y-35748646D01*
X54252478Y-35750498D01*
X54252494Y-35750500D01*
X54252501Y-35750500D01*
X54547499Y-35750500D01*
X54547506Y-35750500D01*
X54839993Y-35711993D01*
X55124952Y-35635639D01*
X55397507Y-35522743D01*
X55408123Y-35516614D01*
X55470125Y-35500000D01*
X60491874Y-35500000D01*
X60508059Y-35501061D01*
X60613223Y-35514906D01*
X60644491Y-35523284D01*
X60734918Y-35560740D01*
X60762952Y-35576925D01*
X60840602Y-35636509D01*
X60863491Y-35659398D01*
X60923074Y-35737048D01*
X60939259Y-35765081D01*
X60976715Y-35855508D01*
X60985093Y-35886775D01*
X60998939Y-35991939D01*
X61000000Y-36008125D01*
X61000000Y-72991874D01*
X60998939Y-73008059D01*
X60998939Y-73008060D01*
X60985093Y-73113224D01*
X60976715Y-73144491D01*
X60939259Y-73234918D01*
X60923074Y-73262951D01*
X60863491Y-73340601D01*
X60840601Y-73363491D01*
X60762951Y-73423074D01*
X60734918Y-73439259D01*
X60644491Y-73476715D01*
X60613224Y-73485093D01*
X60519398Y-73497446D01*
X60508058Y-73498939D01*
X60491874Y-73500000D01*
X56137544Y-73500000D01*
X56080134Y-73485909D01*
X56023047Y-73456090D01*
X55924903Y-73428008D01*
X55827418Y-73400114D01*
X55827415Y-73400113D01*
X55827413Y-73400113D01*
X55761102Y-73394217D01*
X55708037Y-73389500D01*
X55708032Y-73389500D01*
X53091971Y-73389500D01*
X53091965Y-73389500D01*
X53091964Y-73389501D01*
X53080316Y-73390536D01*
X52972584Y-73400113D01*
X52776953Y-73456090D01*
X52776951Y-73456090D01*
X52719866Y-73485909D01*
X52662456Y-73500000D01*
X44225001Y-73500000D01*
X44192908Y-73495775D01*
X43939993Y-73428007D01*
X43891113Y-73421571D01*
X43647513Y-73389500D01*
X43647506Y-73389500D01*
X43352494Y-73389500D01*
X43352486Y-73389500D01*
X43074085Y-73426153D01*
X43060007Y-73428007D01*
X42807092Y-73495775D01*
X42774999Y-73500000D01*
X38137544Y-73500000D01*
X38080134Y-73485909D01*
X38023047Y-73456090D01*
X37924903Y-73428008D01*
X37827418Y-73400114D01*
X37827415Y-73400113D01*
X37827413Y-73400113D01*
X37761102Y-73394217D01*
X37708037Y-73389500D01*
X37708032Y-73389500D01*
X35091971Y-73389500D01*
X35091965Y-73389500D01*
X35091964Y-73389501D01*
X35080316Y-73390536D01*
X34972584Y-73400113D01*
X34776953Y-73456090D01*
X34776951Y-73456090D01*
X34719866Y-73485909D01*
X34662456Y-73500000D01*
X26225001Y-73500000D01*
X26192908Y-73495775D01*
X25939993Y-73428007D01*
X25891113Y-73421571D01*
X25647513Y-73389500D01*
X25647506Y-73389500D01*
X25352494Y-73389500D01*
X25352486Y-73389500D01*
X25074085Y-73426153D01*
X25060007Y-73428007D01*
X24807092Y-73495775D01*
X24774999Y-73500000D01*
X23008126Y-73500000D01*
X22991941Y-73498939D01*
X22967908Y-73495775D01*
X22886775Y-73485093D01*
X22855508Y-73476715D01*
X22765081Y-73439259D01*
X22737048Y-73423074D01*
X22659398Y-73363491D01*
X22636508Y-73340601D01*
X22576925Y-73262951D01*
X22560740Y-73234918D01*
X22523284Y-73144491D01*
X22514906Y-73113223D01*
X22501061Y-73008059D01*
X22500000Y-72991874D01*
X22500000Y-68868872D01*
X46579500Y-68868872D01*
X46579500Y-69131127D01*
X46606123Y-69333339D01*
X46613730Y-69391116D01*
X46681602Y-69644418D01*
X46681605Y-69644428D01*
X46781953Y-69886690D01*
X46781958Y-69886700D01*
X46913075Y-70113803D01*
X47072718Y-70321851D01*
X47072726Y-70321860D01*
X47258140Y-70507274D01*
X47258148Y-70507281D01*
X47466196Y-70666924D01*
X47693299Y-70798041D01*
X47693309Y-70798046D01*
X47935571Y-70898394D01*
X47935581Y-70898398D01*
X48188884Y-70966270D01*
X48448880Y-71000500D01*
X48448887Y-71000500D01*
X48711113Y-71000500D01*
X48711120Y-71000500D01*
X48971116Y-70966270D01*
X49224419Y-70898398D01*
X49466697Y-70798043D01*
X49693803Y-70666924D01*
X49901851Y-70507282D01*
X49901855Y-70507277D01*
X49901860Y-70507274D01*
X50087274Y-70321860D01*
X50087277Y-70321855D01*
X50087282Y-70321851D01*
X50246924Y-70113803D01*
X50378043Y-69886697D01*
X50478398Y-69644419D01*
X50546270Y-69391116D01*
X50580500Y-69131120D01*
X50580500Y-68868880D01*
X50546270Y-68608884D01*
X50478398Y-68355581D01*
X50478394Y-68355571D01*
X50378046Y-68113309D01*
X50378041Y-68113299D01*
X50246924Y-67886196D01*
X50087281Y-67678148D01*
X50087274Y-67678140D01*
X49901860Y-67492726D01*
X49901851Y-67492718D01*
X49693803Y-67333075D01*
X49466700Y-67201958D01*
X49466690Y-67201953D01*
X49224428Y-67101605D01*
X49224421Y-67101603D01*
X49224419Y-67101602D01*
X48971116Y-67033730D01*
X48913339Y-67026123D01*
X48711127Y-66999500D01*
X48711120Y-66999500D01*
X48448880Y-66999500D01*
X48448872Y-66999500D01*
X48217772Y-67029926D01*
X48188884Y-67033730D01*
X47935581Y-67101602D01*
X47935571Y-67101605D01*
X47693309Y-67201953D01*
X47693299Y-67201958D01*
X47466196Y-67333075D01*
X47258148Y-67492718D01*
X47072718Y-67678148D01*
X46913075Y-67886196D01*
X46781958Y-68113299D01*
X46781953Y-68113309D01*
X46681605Y-68355571D01*
X46681602Y-68355581D01*
X46613730Y-68608885D01*
X46579500Y-68868872D01*
X22500000Y-68868872D01*
X22500000Y-66015778D01*
X35249500Y-66015778D01*
X35249500Y-66304221D01*
X35249501Y-66304238D01*
X35287149Y-66590206D01*
X35287150Y-66590211D01*
X35287151Y-66590217D01*
X35287152Y-66590219D01*
X35361809Y-66868844D01*
X35361814Y-66868860D01*
X35472191Y-67135336D01*
X35472199Y-67135352D01*
X35616420Y-67385148D01*
X35616431Y-67385164D01*
X35792024Y-67614002D01*
X35792030Y-67614009D01*
X35995990Y-67817969D01*
X35995996Y-67817974D01*
X36224844Y-67993575D01*
X36224851Y-67993579D01*
X36474647Y-68137800D01*
X36474663Y-68137808D01*
X36741139Y-68248185D01*
X36741145Y-68248186D01*
X36741155Y-68248191D01*
X37019783Y-68322849D01*
X37305772Y-68360500D01*
X37305779Y-68360500D01*
X37594221Y-68360500D01*
X37594228Y-68360500D01*
X37880217Y-68322849D01*
X38158845Y-68248191D01*
X38158857Y-68248185D01*
X38158860Y-68248185D01*
X38425336Y-68137808D01*
X38425339Y-68137806D01*
X38425345Y-68137804D01*
X38675156Y-67993575D01*
X38904004Y-67817974D01*
X39107974Y-67614004D01*
X39283575Y-67385156D01*
X39427804Y-67135345D01*
X39441780Y-67101605D01*
X39538185Y-66868860D01*
X39538185Y-66868857D01*
X39538191Y-66868845D01*
X39612849Y-66590217D01*
X39650500Y-66304228D01*
X39650500Y-66015772D01*
X39612849Y-65729783D01*
X39538191Y-65451155D01*
X39538186Y-65451145D01*
X39538185Y-65451139D01*
X39427808Y-65184663D01*
X39427800Y-65184647D01*
X39283579Y-64934851D01*
X39283575Y-64934844D01*
X39107974Y-64705996D01*
X39107969Y-64705990D01*
X38904009Y-64502030D01*
X38904002Y-64502024D01*
X38675164Y-64326431D01*
X38675162Y-64326429D01*
X38675156Y-64326425D01*
X38675151Y-64326422D01*
X38675148Y-64326420D01*
X38425352Y-64182199D01*
X38425336Y-64182191D01*
X38158860Y-64071814D01*
X38158848Y-64071810D01*
X38158845Y-64071809D01*
X37880217Y-63997151D01*
X37880211Y-63997150D01*
X37880206Y-63997149D01*
X37594238Y-63959501D01*
X37594233Y-63959500D01*
X37594228Y-63959500D01*
X37305772Y-63959500D01*
X37305766Y-63959500D01*
X37305761Y-63959501D01*
X37019793Y-63997149D01*
X37019786Y-63997150D01*
X37019783Y-63997151D01*
X36741155Y-64071809D01*
X36741139Y-64071814D01*
X36474663Y-64182191D01*
X36474647Y-64182199D01*
X36224851Y-64326420D01*
X36224835Y-64326431D01*
X35995997Y-64502024D01*
X35995990Y-64502030D01*
X35792030Y-64705990D01*
X35792024Y-64705997D01*
X35616431Y-64934835D01*
X35616420Y-64934851D01*
X35472199Y-65184647D01*
X35472191Y-65184663D01*
X35361814Y-65451139D01*
X35361809Y-65451155D01*
X35287152Y-65729780D01*
X35287149Y-65729793D01*
X35249501Y-66015761D01*
X35249500Y-66015778D01*
X22500000Y-66015778D01*
X22500000Y-42195778D01*
X35249500Y-42195778D01*
X35249500Y-42484221D01*
X35249501Y-42484238D01*
X35287149Y-42770206D01*
X35287150Y-42770211D01*
X35287151Y-42770217D01*
X35287152Y-42770219D01*
X35361809Y-43048844D01*
X35361814Y-43048860D01*
X35472191Y-43315336D01*
X35472199Y-43315352D01*
X35616420Y-43565148D01*
X35616431Y-43565164D01*
X35792024Y-43794002D01*
X35792030Y-43794009D01*
X35995990Y-43997969D01*
X35995996Y-43997974D01*
X36224844Y-44173575D01*
X36224851Y-44173579D01*
X36474647Y-44317800D01*
X36474663Y-44317808D01*
X36741139Y-44428185D01*
X36741145Y-44428186D01*
X36741155Y-44428191D01*
X37019783Y-44502849D01*
X37305772Y-44540500D01*
X37305779Y-44540500D01*
X37594221Y-44540500D01*
X37594228Y-44540500D01*
X37880217Y-44502849D01*
X38158845Y-44428191D01*
X38158857Y-44428185D01*
X38158860Y-44428185D01*
X38425336Y-44317808D01*
X38425339Y-44317806D01*
X38425345Y-44317804D01*
X38675156Y-44173575D01*
X38904004Y-43997974D01*
X39107974Y-43794004D01*
X39283575Y-43565156D01*
X39427804Y-43315345D01*
X39538191Y-43048845D01*
X39612849Y-42770217D01*
X39650500Y-42484228D01*
X39650500Y-42195772D01*
X39612849Y-41909783D01*
X39538191Y-41631155D01*
X39538186Y-41631145D01*
X39538185Y-41631139D01*
X39427808Y-41364663D01*
X39427800Y-41364647D01*
X39283579Y-41114851D01*
X39283575Y-41114844D01*
X39107974Y-40885996D01*
X39107969Y-40885990D01*
X38904009Y-40682030D01*
X38904002Y-40682024D01*
X38675164Y-40506431D01*
X38675162Y-40506429D01*
X38675156Y-40506425D01*
X38675151Y-40506422D01*
X38675148Y-40506420D01*
X38615891Y-40472208D01*
X38436910Y-40368872D01*
X41459500Y-40368872D01*
X41459500Y-40631127D01*
X41486123Y-40833339D01*
X41493730Y-40891116D01*
X41561602Y-41144418D01*
X41561605Y-41144428D01*
X41661953Y-41386690D01*
X41661958Y-41386700D01*
X41793075Y-41613803D01*
X41952718Y-41821851D01*
X41952726Y-41821860D01*
X42138140Y-42007274D01*
X42138148Y-42007281D01*
X42346196Y-42166924D01*
X42573299Y-42298041D01*
X42573309Y-42298046D01*
X42815571Y-42398394D01*
X42815581Y-42398398D01*
X43068884Y-42466270D01*
X43328880Y-42500500D01*
X43328887Y-42500500D01*
X43591113Y-42500500D01*
X43591120Y-42500500D01*
X43851116Y-42466270D01*
X44104419Y-42398398D01*
X44346697Y-42298043D01*
X44573803Y-42166924D01*
X44781851Y-42007282D01*
X44781855Y-42007277D01*
X44781860Y-42007274D01*
X44967274Y-41821860D01*
X44967277Y-41821855D01*
X44967282Y-41821851D01*
X45126924Y-41613803D01*
X45258043Y-41386697D01*
X45358398Y-41144419D01*
X45426270Y-40891116D01*
X45460500Y-40631120D01*
X45460500Y-40368880D01*
X45426270Y-40108884D01*
X45358398Y-39855581D01*
X45358394Y-39855571D01*
X45258046Y-39613309D01*
X45258041Y-39613299D01*
X45126924Y-39386196D01*
X44967281Y-39178148D01*
X44967274Y-39178140D01*
X44781860Y-38992726D01*
X44781851Y-38992718D01*
X44573803Y-38833075D01*
X44346700Y-38701958D01*
X44346690Y-38701953D01*
X44104428Y-38601605D01*
X44104421Y-38601603D01*
X44104419Y-38601602D01*
X43851116Y-38533730D01*
X43793339Y-38526123D01*
X43591127Y-38499500D01*
X43591120Y-38499500D01*
X43328880Y-38499500D01*
X43328872Y-38499500D01*
X43097772Y-38529926D01*
X43068884Y-38533730D01*
X42815581Y-38601602D01*
X42815571Y-38601605D01*
X42573309Y-38701953D01*
X42573299Y-38701958D01*
X42346196Y-38833075D01*
X42138148Y-38992718D01*
X41952718Y-39178148D01*
X41793075Y-39386196D01*
X41661958Y-39613299D01*
X41661953Y-39613309D01*
X41561605Y-39855571D01*
X41561602Y-39855581D01*
X41493730Y-40108885D01*
X41459500Y-40368872D01*
X38436910Y-40368872D01*
X38425352Y-40362199D01*
X38425336Y-40362191D01*
X38158860Y-40251814D01*
X38158848Y-40251810D01*
X38158845Y-40251809D01*
X37880217Y-40177151D01*
X37880211Y-40177150D01*
X37880206Y-40177149D01*
X37594238Y-40139501D01*
X37594233Y-40139500D01*
X37594228Y-40139500D01*
X37305772Y-40139500D01*
X37305766Y-40139500D01*
X37305761Y-40139501D01*
X37019793Y-40177149D01*
X37019786Y-40177150D01*
X37019783Y-40177151D01*
X36741155Y-40251809D01*
X36741139Y-40251814D01*
X36474663Y-40362191D01*
X36474647Y-40362199D01*
X36224851Y-40506420D01*
X36224835Y-40506431D01*
X35995997Y-40682024D01*
X35995990Y-40682030D01*
X35792030Y-40885990D01*
X35792024Y-40885997D01*
X35616431Y-41114835D01*
X35616420Y-41114851D01*
X35472199Y-41364647D01*
X35472191Y-41364663D01*
X35361814Y-41631139D01*
X35361809Y-41631155D01*
X35287152Y-41909780D01*
X35287149Y-41909793D01*
X35249501Y-42195761D01*
X35249500Y-42195778D01*
X22500000Y-42195778D01*
X22500000Y-36008125D01*
X22501061Y-35991940D01*
X22514906Y-35886776D01*
X22514906Y-35886775D01*
X22523284Y-35855508D01*
X22560740Y-35765081D01*
X22576923Y-35737050D01*
X22636513Y-35659392D01*
X22659392Y-35636513D01*
X22737050Y-35576923D01*
X22765079Y-35560740D01*
X22855509Y-35523283D01*
X22886775Y-35514906D01*
X22991941Y-35501061D01*
X23008126Y-35500000D01*
X23542440Y-35500000D01*
X23609479Y-35519685D01*
G37*
%TD.AperFunction*%
%TD*%
M02*
