%TF.GenerationSoftware,KiCad,Pcbnew,9.0.2*%
%TF.CreationDate,2025-07-13T13:24:00+03:30*%
%TF.ProjectId,paralleled-full-bridge,70617261-6c6c-4656-9c65-642d66756c6c,rev?*%
%TF.SameCoordinates,Original*%
%TF.FileFunction,Copper,L1,Top*%
%TF.FilePolarity,Positive*%
%FSLAX46Y46*%
G04 Gerber Fmt 4.6, Leading zero omitted, Abs format (unit mm)*
G04 Created by KiCad (PCBNEW 9.0.2) date 2025-07-13 13:24:00*
%MOMM*%
%LPD*%
G01*
G04 APERTURE LIST*
G04 Aperture macros list*
%AMRoundRect*
0 Rectangle with rounded corners*
0 $1 Rounding radius*
0 $2 $3 $4 $5 $6 $7 $8 $9 X,Y pos of 4 corners*
0 Add a 4 corners polygon primitive as box body*
4,1,4,$2,$3,$4,$5,$6,$7,$8,$9,$2,$3,0*
0 Add four circle primitives for the rounded corners*
1,1,$1+$1,$2,$3*
1,1,$1+$1,$4,$5*
1,1,$1+$1,$6,$7*
1,1,$1+$1,$8,$9*
0 Add four rect primitives between the rounded corners*
20,1,$1+$1,$2,$3,$4,$5,0*
20,1,$1+$1,$4,$5,$6,$7,0*
20,1,$1+$1,$6,$7,$8,$9,0*
20,1,$1+$1,$8,$9,$2,$3,0*%
G04 Aperture macros list end*
%TA.AperFunction,ComponentPad*%
%ADD10RoundRect,0.250000X1.050000X1.050000X-1.050000X1.050000X-1.050000X-1.050000X1.050000X-1.050000X0*%
%TD*%
%TA.AperFunction,ComponentPad*%
%ADD11C,2.600000*%
%TD*%
%TA.AperFunction,ComponentPad*%
%ADD12RoundRect,0.249999X-0.850001X0.850001X-0.850001X-0.850001X0.850001X-0.850001X0.850001X0.850001X0*%
%TD*%
%TA.AperFunction,ComponentPad*%
%ADD13C,2.200000*%
%TD*%
%TA.AperFunction,ComponentPad*%
%ADD14R,2.500000X4.500000*%
%TD*%
%TA.AperFunction,ComponentPad*%
%ADD15O,2.500000X4.500000*%
%TD*%
%TA.AperFunction,ComponentPad*%
%ADD16RoundRect,0.250001X0.949999X-0.949999X0.949999X0.949999X-0.949999X0.949999X-0.949999X-0.949999X0*%
%TD*%
%TA.AperFunction,ComponentPad*%
%ADD17C,2.400000*%
%TD*%
%TA.AperFunction,ComponentPad*%
%ADD18R,2.000000X2.000000*%
%TD*%
%TA.AperFunction,ComponentPad*%
%ADD19C,2.000000*%
%TD*%
%TA.AperFunction,ComponentPad*%
%ADD20C,1.600000*%
%TD*%
%TA.AperFunction,ComponentPad*%
%ADD21RoundRect,0.249999X0.850001X-0.850001X0.850001X0.850001X-0.850001X0.850001X-0.850001X-0.850001X0*%
%TD*%
%TA.AperFunction,ComponentPad*%
%ADD22RoundRect,0.250000X0.600000X0.750000X-0.600000X0.750000X-0.600000X-0.750000X0.600000X-0.750000X0*%
%TD*%
%TA.AperFunction,ComponentPad*%
%ADD23O,1.700000X2.000000*%
%TD*%
%TA.AperFunction,ComponentPad*%
%ADD24RoundRect,0.250000X-1.050000X-1.050000X1.050000X-1.050000X1.050000X1.050000X-1.050000X1.050000X0*%
%TD*%
%TA.AperFunction,ComponentPad*%
%ADD25RoundRect,0.250000X-0.600000X-0.750000X0.600000X-0.750000X0.600000X0.750000X-0.600000X0.750000X0*%
%TD*%
%TA.AperFunction,ComponentPad*%
%ADD26RoundRect,0.250001X-0.949999X0.949999X-0.949999X-0.949999X0.949999X-0.949999X0.949999X0.949999X0*%
%TD*%
%TA.AperFunction,ComponentPad*%
%ADD27C,2.800000*%
%TD*%
%TA.AperFunction,ComponentPad*%
%ADD28R,3.000000X3.000000*%
%TD*%
%TA.AperFunction,ComponentPad*%
%ADD29C,3.000000*%
%TD*%
%TA.AperFunction,ComponentPad*%
%ADD30C,3.600000*%
%TD*%
%TA.AperFunction,ConnectorPad*%
%ADD31C,5.600000*%
%TD*%
%TA.AperFunction,Conductor*%
%ADD32C,1.000000*%
%TD*%
G04 APERTURE END LIST*
D10*
%TO.P,D16,1,A1*%
%TO.N,/Net-(D15-A1)*%
X47420000Y-83000000D03*
D11*
%TO.P,D16,2,A2*%
%TO.N,/BridgeRight*%
X43610000Y-83000000D03*
%TD*%
D12*
%TO.P,D2,1,K*%
%TO.N,/Gate Left High*%
X28000000Y-19890000D03*
D13*
%TO.P,D2,2,A*%
%TO.N,/Net-(D1-A)*%
X28000000Y-27510000D03*
%TD*%
D14*
%TO.P,Q6,1,G*%
%TO.N,/Net-(D15-A1)*%
X54400000Y-76640000D03*
D15*
%TO.P,Q6,2,C*%
%TO.N,VDC*%
X48950000Y-76640000D03*
%TO.P,Q6,3,E*%
%TO.N,/BridgeRight*%
X43500000Y-76640000D03*
%TD*%
D16*
%TO.P,D9,1,A1*%
%TO.N,VDC*%
X37450000Y-52500000D03*
D17*
%TO.P,D9,2,A2*%
%TO.N,/BridgeLeft*%
X37450000Y-42340000D03*
%TD*%
D18*
%TO.P,D13,1,K*%
%TO.N,/BridgeLeft*%
X80000000Y-40500000D03*
D19*
%TO.P,D13,2,A*%
%TO.N,GNDREF*%
X74920000Y-40500000D03*
%TD*%
D20*
%TO.P,R6,1*%
%TO.N,/Gate Right Low*%
X99000000Y-88810000D03*
%TO.P,R6,2*%
%TO.N,/Net-(D19-A)*%
X99000000Y-81190000D03*
%TD*%
%TO.P,R8,1*%
%TO.N,/Gate Right High*%
X55500000Y-89010000D03*
%TO.P,R8,2*%
%TO.N,/Net-(D15-A1)*%
X55500000Y-81390000D03*
%TD*%
D16*
%TO.P,D19,1,A1*%
%TO.N,/BridgeRight*%
X87500000Y-66160000D03*
D17*
%TO.P,D19,2,A2*%
%TO.N,GNDREF*%
X87500000Y-56000000D03*
%TD*%
D10*
%TO.P,D18,1,A1*%
%TO.N,/Net-(D17-A)*%
X73195000Y-83000000D03*
D11*
%TO.P,D18,2,A2*%
%TO.N,GNDREF*%
X69385000Y-83000000D03*
%TD*%
D18*
%TO.P,D11,1,K*%
%TO.N,VDC*%
X48540000Y-40500000D03*
D19*
%TO.P,D11,2,A*%
%TO.N,/BridgeLeft*%
X43460000Y-40500000D03*
%TD*%
D10*
%TO.P,D20,1,A1*%
%TO.N,/Net-(D19-A)*%
X91195000Y-83000000D03*
D11*
%TO.P,D20,2,A2*%
%TO.N,GNDREF*%
X87385000Y-83000000D03*
%TD*%
D21*
%TO.P,D24,1,K*%
%TO.N,/Gate Right Low*%
X95000000Y-89110000D03*
D13*
%TO.P,D24,2,A*%
%TO.N,/Net-(D19-A)*%
X95000000Y-81490000D03*
%TD*%
D22*
%TO.P,J2,1,Pin_1*%
%TO.N,/Gate Left Low*%
X80000000Y-19500000D03*
D23*
%TO.P,J2,2,Pin_2*%
%TO.N,GNDREF*%
X77500000Y-19500000D03*
%TD*%
D21*
%TO.P,D23,1,K*%
%TO.N,/Gate Right Low*%
X77000000Y-89120000D03*
D13*
%TO.P,D23,2,A*%
%TO.N,/Net-(D17-A)*%
X77000000Y-81500000D03*
%TD*%
D14*
%TO.P,Q3,1,G*%
%TO.N,/Net-(D5-A1)*%
X87275000Y-32500000D03*
D15*
%TO.P,Q3,2,C*%
%TO.N,/BridgeLeft*%
X92725000Y-32500000D03*
%TO.P,Q3,3,E*%
%TO.N,GNDREF*%
X98175000Y-32500000D03*
%TD*%
D24*
%TO.P,D1,1,A1*%
%TO.N,/Net-(D1-A)*%
X32190000Y-26000000D03*
D11*
%TO.P,D1,2,A2*%
%TO.N,/BridgeLeft*%
X36000000Y-26000000D03*
%TD*%
D20*
%TO.P,R2,1*%
%TO.N,/Gate Left High*%
X42000000Y-20190000D03*
%TO.P,R2,2*%
%TO.N,Net-(D3-A)*%
X42000000Y-27810000D03*
%TD*%
%TO.P,R3,1*%
%TO.N,/Gate Left Low*%
X72000000Y-20190000D03*
%TO.P,R3,2*%
%TO.N,/Net-(D6-A1)*%
X72000000Y-27810000D03*
%TD*%
D25*
%TO.P,J6,1,Pin_1*%
%TO.N,/Gate Right Low*%
X86000000Y-90000000D03*
D23*
%TO.P,J6,2,Pin_2*%
%TO.N,GNDREF*%
X88500000Y-90000000D03*
%TD*%
D26*
%TO.P,D12,1,A1*%
%TO.N,/BridgeLeft*%
X87500000Y-42340000D03*
D17*
%TO.P,D12,2,A2*%
%TO.N,GNDREF*%
X87500000Y-52500000D03*
%TD*%
D27*
%TO.P,Snubber1,1*%
%TO.N,GNDREF*%
X80575000Y-54610000D03*
%TO.P,Snubber1,2*%
%TO.N,VDC*%
X43075000Y-54610000D03*
%TD*%
D24*
%TO.P,D4,1,A1*%
%TO.N,Net-(D3-A)*%
X50190000Y-26000000D03*
D11*
%TO.P,D4,2,A2*%
%TO.N,/BridgeLeft*%
X54000000Y-26000000D03*
%TD*%
D20*
%TO.P,R1,1*%
%TO.N,/Gate Left High*%
X24000000Y-20190000D03*
%TO.P,R1,2*%
%TO.N,/Net-(D1-A)*%
X24000000Y-27810000D03*
%TD*%
D14*
%TO.P,Q7,1,G*%
%TO.N,/Net-(D17-A)*%
X80175000Y-76750000D03*
D15*
%TO.P,Q7,2,C*%
%TO.N,/BridgeRight*%
X74725000Y-76750000D03*
%TO.P,Q7,3,E*%
%TO.N,GNDREF*%
X69275000Y-76750000D03*
%TD*%
D18*
%TO.P,D15,1,K*%
%TO.N,VDC*%
X43500000Y-69000000D03*
D19*
%TO.P,D15,2,A*%
%TO.N,/BridgeRight*%
X48580000Y-69000000D03*
%TD*%
D14*
%TO.P,Q8,1,G*%
%TO.N,/Net-(D19-A)*%
X98175000Y-76750000D03*
D15*
%TO.P,Q8,2,C*%
%TO.N,/BridgeRight*%
X92725000Y-76750000D03*
%TO.P,Q8,3,E*%
%TO.N,GNDREF*%
X87275000Y-76750000D03*
%TD*%
D20*
%TO.P,R7,1*%
%TO.N,/Gate Right High*%
X37550000Y-89010000D03*
%TO.P,R7,2*%
%TO.N,/Net-(D13-A)*%
X37550000Y-81390000D03*
%TD*%
D18*
%TO.P,D17,1,K*%
%TO.N,/BridgeRight*%
X75000000Y-69000000D03*
D19*
%TO.P,D17,2,A*%
%TO.N,GNDREF*%
X80080000Y-69000000D03*
%TD*%
D12*
%TO.P,D7,1,K*%
%TO.N,/Gate Left Low*%
X86500000Y-19890000D03*
D13*
%TO.P,D7,2,A*%
%TO.N,/Net-(D5-A1)*%
X86500000Y-27510000D03*
%TD*%
D14*
%TO.P,Q2,1,G*%
%TO.N,Net-(D3-A)*%
X43500000Y-32500000D03*
D15*
%TO.P,Q2,2,C*%
%TO.N,VDC*%
X48950000Y-32500000D03*
%TO.P,Q2,3,E*%
%TO.N,/BridgeLeft*%
X54400000Y-32500000D03*
%TD*%
D24*
%TO.P,D6,1,A1*%
%TO.N,/Net-(D6-A1)*%
X76190000Y-26000000D03*
D11*
%TO.P,D6,2,A2*%
%TO.N,GNDREF*%
X80000000Y-26000000D03*
%TD*%
D21*
%TO.P,D22,1,K*%
%TO.N,/Gate Right High*%
X51500000Y-89310000D03*
D13*
%TO.P,D22,2,A*%
%TO.N,/Net-(D15-A1)*%
X51500000Y-81690000D03*
%TD*%
D25*
%TO.P,J4,1,Pin_1*%
%TO.N,/Gate Right High*%
X43000000Y-90000000D03*
D23*
%TO.P,J4,2,Pin_2*%
%TO.N,/BridgeRight*%
X45500000Y-90000000D03*
%TD*%
D28*
%TO.P,J5,1,Pin_1*%
%TO.N,GNDREF*%
X65040000Y-94000000D03*
D29*
%TO.P,J5,2,Pin_2*%
%TO.N,VDC*%
X59960000Y-94000000D03*
%TD*%
D22*
%TO.P,J1,1,Pin_1*%
%TO.N,/Gate Left High*%
X36500000Y-19500000D03*
D23*
%TO.P,J1,2,Pin_2*%
%TO.N,/BridgeLeft*%
X34000000Y-19500000D03*
%TD*%
D10*
%TO.P,D14,1,A1*%
%TO.N,/Net-(D13-A)*%
X29560000Y-83000000D03*
D11*
%TO.P,D14,2,A2*%
%TO.N,/BridgeRight*%
X25750000Y-83000000D03*
%TD*%
D24*
%TO.P,D8,1,A1*%
%TO.N,/Net-(D5-A1)*%
X94190000Y-26000000D03*
D11*
%TO.P,D8,2,A2*%
%TO.N,GNDREF*%
X98000000Y-26000000D03*
%TD*%
D20*
%TO.P,R4,1*%
%TO.N,/Gate Left Low*%
X90500000Y-20190000D03*
%TO.P,R4,2*%
%TO.N,/Net-(D5-A1)*%
X90500000Y-27810000D03*
%TD*%
D21*
%TO.P,D21,1,K*%
%TO.N,/Gate Right High*%
X33500000Y-89310000D03*
D13*
%TO.P,D21,2,A*%
%TO.N,/Net-(D13-A)*%
X33500000Y-81690000D03*
%TD*%
D12*
%TO.P,D3,1,K*%
%TO.N,/Gate Left High*%
X46000000Y-19890000D03*
D13*
%TO.P,D3,2,A*%
%TO.N,Net-(D3-A)*%
X46000000Y-27510000D03*
%TD*%
D30*
%TO.P,H4,1,1*%
%TO.N,GND*%
X106000000Y-93400000D03*
D31*
X106000000Y-93400000D03*
%TD*%
D17*
%TO.P,C1,1*%
%TO.N,GNDREF*%
X106000000Y-64250000D03*
%TO.P,C1,2*%
%TO.N,GND*%
X106000000Y-86750000D03*
%TD*%
D26*
%TO.P,D10,1,A1*%
%TO.N,VDC*%
X37450000Y-56000000D03*
D17*
%TO.P,D10,2,A2*%
%TO.N,/BridgeRight*%
X37450000Y-66160000D03*
%TD*%
D14*
%TO.P,Q5,1,G*%
%TO.N,/Net-(D13-A)*%
X36400000Y-76640000D03*
D15*
%TO.P,Q5,2,C*%
%TO.N,VDC*%
X30950000Y-76640000D03*
%TO.P,Q5,3,E*%
%TO.N,/BridgeRight*%
X25500000Y-76640000D03*
%TD*%
D12*
%TO.P,D5,1,K*%
%TO.N,/Gate Left Low*%
X68000000Y-19890000D03*
D13*
%TO.P,D5,2,A*%
%TO.N,/Net-(D6-A1)*%
X68000000Y-27510000D03*
%TD*%
D14*
%TO.P,Q1,1,G*%
%TO.N,/Net-(D1-A)*%
X25500000Y-32500000D03*
D15*
%TO.P,Q1,2,C*%
%TO.N,VDC*%
X30950000Y-32500000D03*
%TO.P,Q1,3,E*%
%TO.N,/BridgeLeft*%
X36400000Y-32500000D03*
%TD*%
D28*
%TO.P,J3,1,Pin_1*%
%TO.N,/BridgeLeft*%
X105000000Y-51920000D03*
D29*
%TO.P,J3,2,Pin_2*%
%TO.N,/BridgeRight*%
X105000000Y-57000000D03*
%TD*%
D20*
%TO.P,R5,1*%
%TO.N,/Gate Right Low*%
X81000000Y-88820000D03*
%TO.P,R5,2*%
%TO.N,/Net-(D17-A)*%
X81000000Y-81200000D03*
%TD*%
D14*
%TO.P,Q4,1,G*%
%TO.N,/Net-(D6-A1)*%
X69275000Y-32500000D03*
D15*
%TO.P,Q4,2,C*%
%TO.N,/BridgeLeft*%
X74725000Y-32500000D03*
%TO.P,Q4,3,E*%
%TO.N,GNDREF*%
X80175000Y-32500000D03*
%TD*%
D17*
%TO.P,R9,1*%
%TO.N,VDC*%
X50340000Y-54500000D03*
%TO.P,R9,2*%
%TO.N,GNDREF*%
X70660000Y-54500000D03*
%TD*%
D32*
%TO.N,/BridgeLeft*%
X52338477Y-22500000D02*
X54400000Y-24561523D01*
X36373892Y-22500000D02*
X52338477Y-22500000D01*
X34000000Y-19500000D02*
X34000000Y-20126108D01*
X34000000Y-21200000D02*
X36400000Y-23600000D01*
X34000000Y-19500000D02*
X34000000Y-21200000D01*
X54400000Y-24561523D02*
X54400000Y-32500000D01*
X36400000Y-23600000D02*
X36400000Y-32500000D01*
X34000000Y-20126108D02*
X36373892Y-22500000D01*
%TO.N,/Gate Left Low*%
X78999000Y-21501000D02*
X73311000Y-21501000D01*
X72000000Y-20190000D02*
X68300000Y-20190000D01*
X81000000Y-19500000D02*
X78999000Y-21501000D01*
X81000000Y-19500000D02*
X89810000Y-19500000D01*
X80000000Y-19500000D02*
X81000000Y-19500000D01*
X89810000Y-19500000D02*
X90500000Y-20190000D01*
X73311000Y-21501000D02*
X72000000Y-20190000D01*
%TO.N,/Gate Right Low*%
X86000000Y-89732291D02*
X87733291Y-87999000D01*
X87733291Y-87999000D02*
X93889000Y-87999000D01*
X98700000Y-89110000D02*
X99000000Y-88810000D01*
X85120000Y-89120000D02*
X86000000Y-90000000D01*
X77000000Y-89120000D02*
X85120000Y-89120000D01*
X93889000Y-87999000D02*
X95000000Y-89110000D01*
X95000000Y-89110000D02*
X98700000Y-89110000D01*
%TO.N,/BridgeRight*%
X25500000Y-84602000D02*
X25500000Y-76640000D01*
X45500000Y-88000000D02*
X42801000Y-85301000D01*
X43500000Y-86000000D02*
X43500000Y-76640000D01*
X45500000Y-90000000D02*
X45500000Y-88000000D01*
X45500000Y-88000000D02*
X43500000Y-86000000D01*
X26199000Y-85301000D02*
X25500000Y-84602000D01*
X42801000Y-85301000D02*
X26199000Y-85301000D01*
%TO.N,/Net-(D6-A1)*%
X72000000Y-27810000D02*
X68300000Y-27810000D01*
X76190000Y-26000000D02*
X73810000Y-26000000D01*
X72000000Y-27810000D02*
X72000000Y-29775000D01*
X73810000Y-26000000D02*
X72000000Y-27810000D01*
X72000000Y-29775000D02*
X69275000Y-32500000D01*
%TO.N,/Net-(D5-A1)*%
X86500000Y-27510000D02*
X90200000Y-27510000D01*
X90200000Y-27510000D02*
X90500000Y-27810000D01*
X94190000Y-26000000D02*
X92310000Y-26000000D01*
X92310000Y-26000000D02*
X90500000Y-27810000D01*
X87275000Y-31035000D02*
X90500000Y-27810000D01*
%TO.N,/Net-(D17-A)*%
X73195000Y-83000000D02*
X76175000Y-83000000D01*
X80175000Y-80375000D02*
X81000000Y-81200000D01*
X76175000Y-83000000D02*
X80175000Y-79000000D01*
X80175000Y-79000000D02*
X80175000Y-80375000D01*
X80175000Y-76750000D02*
X80175000Y-79000000D01*
%TO.N,/Net-(D19-A)*%
X98175000Y-80365000D02*
X99000000Y-81190000D01*
X98175000Y-76750000D02*
X98175000Y-79500000D01*
X91195000Y-83000000D02*
X94675000Y-83000000D01*
X94675000Y-83000000D02*
X98175000Y-79500000D01*
X98175000Y-79500000D02*
X98175000Y-80365000D01*
%TD*%
%TA.AperFunction,Conductor*%
%TO.N,/BridgeLeft*%
G36*
X37300952Y-33501061D02*
G01*
X37406116Y-33514906D01*
X37437383Y-33523284D01*
X37527808Y-33560739D01*
X37555842Y-33576924D01*
X37640003Y-33641503D01*
X37652198Y-33652198D01*
X39500000Y-35500000D01*
X41542440Y-35500000D01*
X41609479Y-35519685D01*
X41620800Y-35527898D01*
X41696587Y-35589694D01*
X41696590Y-35589695D01*
X41696593Y-35589698D01*
X41876951Y-35683909D01*
X42072582Y-35739886D01*
X42191963Y-35750500D01*
X44808036Y-35750499D01*
X44927418Y-35739886D01*
X45123049Y-35683909D01*
X45303407Y-35589698D01*
X45319072Y-35576925D01*
X45379200Y-35527898D01*
X45443596Y-35500789D01*
X45457560Y-35500000D01*
X47879875Y-35500000D01*
X47941877Y-35516614D01*
X47952493Y-35522743D01*
X48225048Y-35635639D01*
X48510007Y-35711993D01*
X48788415Y-35748646D01*
X48802478Y-35750498D01*
X48802494Y-35750500D01*
X48802501Y-35750500D01*
X49097499Y-35750500D01*
X49097506Y-35750500D01*
X49389993Y-35711993D01*
X49674952Y-35635639D01*
X49947507Y-35522743D01*
X49958123Y-35516614D01*
X50020125Y-35500000D01*
X51000000Y-35500000D01*
X53296630Y-33662696D01*
X53354860Y-33616112D01*
X53372206Y-33604487D01*
X53491420Y-33538420D01*
X53530701Y-33524641D01*
X53626207Y-33508376D01*
X53665058Y-33501760D01*
X53685875Y-33500000D01*
X54784767Y-33500000D01*
X54800952Y-33501061D01*
X54906116Y-33514906D01*
X54937383Y-33523284D01*
X55027808Y-33560739D01*
X55055842Y-33576924D01*
X55140003Y-33641503D01*
X55152198Y-33652198D01*
X57000000Y-35500000D01*
X67317440Y-35500000D01*
X67384479Y-35519685D01*
X67395800Y-35527898D01*
X67471587Y-35589694D01*
X67471590Y-35589695D01*
X67471593Y-35589698D01*
X67651951Y-35683909D01*
X67847582Y-35739886D01*
X67966963Y-35750500D01*
X70583036Y-35750499D01*
X70702418Y-35739886D01*
X70898049Y-35683909D01*
X71078407Y-35589698D01*
X71094072Y-35576925D01*
X71154200Y-35527898D01*
X71218596Y-35500789D01*
X71232560Y-35500000D01*
X72499999Y-35500000D01*
X72500000Y-35500000D01*
X72633724Y-35232549D01*
X72633730Y-35232541D01*
X73250000Y-34000000D01*
X73357965Y-33784066D01*
X73366666Y-33769314D01*
X73430148Y-33676929D01*
X73453226Y-33651678D01*
X73532853Y-33585694D01*
X73561947Y-33567711D01*
X73656587Y-33525994D01*
X73689487Y-33516648D01*
X73800502Y-33501185D01*
X73817608Y-33500000D01*
X75740399Y-33500000D01*
X75759486Y-33501477D01*
X75883011Y-33520722D01*
X75919377Y-33532335D01*
X76022503Y-33583898D01*
X76053612Y-33606022D01*
X76076116Y-33627963D01*
X76143127Y-33693299D01*
X76155762Y-33707683D01*
X77499999Y-35500000D01*
X79104875Y-35500000D01*
X79166877Y-35516614D01*
X79177493Y-35522743D01*
X79450048Y-35635639D01*
X79735007Y-35711993D01*
X80013415Y-35748646D01*
X80027478Y-35750498D01*
X80027494Y-35750500D01*
X80027501Y-35750500D01*
X80322499Y-35750500D01*
X80322506Y-35750500D01*
X80614993Y-35711993D01*
X80899952Y-35635639D01*
X81172507Y-35522743D01*
X81183123Y-35516614D01*
X81245125Y-35500000D01*
X85317440Y-35500000D01*
X85384479Y-35519685D01*
X85395800Y-35527898D01*
X85471587Y-35589694D01*
X85471590Y-35589695D01*
X85471593Y-35589698D01*
X85651951Y-35683909D01*
X85847582Y-35739886D01*
X85966963Y-35750500D01*
X88583036Y-35750499D01*
X88702418Y-35739886D01*
X88898049Y-35683909D01*
X89078407Y-35589698D01*
X89094072Y-35576925D01*
X89154200Y-35527898D01*
X89218596Y-35500789D01*
X89232560Y-35500000D01*
X90499999Y-35500000D01*
X90500000Y-35500000D01*
X90633724Y-35232549D01*
X90633730Y-35232541D01*
X91250000Y-34000000D01*
X91357965Y-33784066D01*
X91366666Y-33769314D01*
X91430148Y-33676929D01*
X91453226Y-33651678D01*
X91532853Y-33585694D01*
X91561947Y-33567711D01*
X91656587Y-33525994D01*
X91689487Y-33516648D01*
X91800502Y-33501185D01*
X91817608Y-33500000D01*
X93784767Y-33500000D01*
X93800952Y-33501061D01*
X93906116Y-33514906D01*
X93937383Y-33523284D01*
X94027808Y-33560739D01*
X94055842Y-33576924D01*
X94140003Y-33641503D01*
X94152198Y-33652198D01*
X96000000Y-35500000D01*
X97104875Y-35500000D01*
X97166877Y-35516614D01*
X97177493Y-35522743D01*
X97450048Y-35635639D01*
X97735007Y-35711993D01*
X98013415Y-35748646D01*
X98027478Y-35750498D01*
X98027494Y-35750500D01*
X98027501Y-35750500D01*
X98322499Y-35750500D01*
X98322506Y-35750500D01*
X98614993Y-35711993D01*
X98899952Y-35635639D01*
X99172507Y-35522743D01*
X99183123Y-35516614D01*
X99245125Y-35500000D01*
X101491874Y-35500000D01*
X101508059Y-35501061D01*
X101613223Y-35514906D01*
X101644491Y-35523284D01*
X101734918Y-35560740D01*
X101762952Y-35576925D01*
X101840602Y-35636509D01*
X101863491Y-35659398D01*
X101923074Y-35737048D01*
X101939259Y-35765081D01*
X101976715Y-35855508D01*
X101985093Y-35886775D01*
X101998939Y-35991939D01*
X102000000Y-36008125D01*
X102000000Y-47000000D01*
X102869090Y-47521454D01*
X106750389Y-49850234D01*
X106763518Y-49859309D01*
X106845388Y-49924066D01*
X106867626Y-49946872D01*
X106925458Y-50023903D01*
X106941152Y-50051622D01*
X106977450Y-50140841D01*
X106985565Y-50171643D01*
X106998973Y-50275165D01*
X107000000Y-50291092D01*
X107000000Y-52991874D01*
X106998939Y-53008060D01*
X106985093Y-53113224D01*
X106976715Y-53144491D01*
X106939259Y-53234918D01*
X106923074Y-53262951D01*
X106863491Y-53340601D01*
X106840601Y-53363491D01*
X106762951Y-53423074D01*
X106734918Y-53439259D01*
X106644491Y-53476715D01*
X106613224Y-53485093D01*
X106519398Y-53497446D01*
X106508058Y-53498939D01*
X106491874Y-53500000D01*
X89653171Y-53500000D01*
X89586132Y-53480315D01*
X89540377Y-53427511D01*
X89530433Y-53358353D01*
X89538610Y-53328548D01*
X89588185Y-53208860D01*
X89588185Y-53208857D01*
X89588191Y-53208845D01*
X89662849Y-52930217D01*
X89700500Y-52644228D01*
X89700500Y-52355772D01*
X89662849Y-52069783D01*
X89588191Y-51791155D01*
X89588186Y-51791145D01*
X89588185Y-51791139D01*
X89477808Y-51524663D01*
X89477800Y-51524647D01*
X89333579Y-51274851D01*
X89333575Y-51274844D01*
X89157974Y-51045996D01*
X89157969Y-51045990D01*
X88954009Y-50842030D01*
X88954002Y-50842024D01*
X88725164Y-50666431D01*
X88725162Y-50666429D01*
X88725156Y-50666425D01*
X88725151Y-50666422D01*
X88725148Y-50666420D01*
X88475352Y-50522199D01*
X88475336Y-50522191D01*
X88208860Y-50411814D01*
X88208848Y-50411810D01*
X88208845Y-50411809D01*
X87930217Y-50337151D01*
X87930211Y-50337150D01*
X87930206Y-50337149D01*
X87644238Y-50299501D01*
X87644233Y-50299500D01*
X87644228Y-50299500D01*
X87355772Y-50299500D01*
X87355766Y-50299500D01*
X87355761Y-50299501D01*
X87069793Y-50337149D01*
X87069786Y-50337150D01*
X87069783Y-50337151D01*
X86898631Y-50383011D01*
X86791155Y-50411809D01*
X86791139Y-50411814D01*
X86524663Y-50522191D01*
X86524647Y-50522199D01*
X86274851Y-50666420D01*
X86274835Y-50666431D01*
X86045997Y-50842024D01*
X86045990Y-50842030D01*
X85842030Y-51045990D01*
X85842024Y-51045997D01*
X85666431Y-51274835D01*
X85666420Y-51274851D01*
X85522199Y-51524647D01*
X85522191Y-51524663D01*
X85411814Y-51791139D01*
X85411809Y-51791155D01*
X85359644Y-51985840D01*
X85337152Y-52069780D01*
X85337149Y-52069793D01*
X85299501Y-52355761D01*
X85299500Y-52355778D01*
X85299500Y-52644221D01*
X85299501Y-52644238D01*
X85337149Y-52930206D01*
X85337150Y-52930211D01*
X85337151Y-52930217D01*
X85411809Y-53208844D01*
X85411814Y-53208860D01*
X85461390Y-53328548D01*
X85468859Y-53398017D01*
X85437583Y-53460496D01*
X85377494Y-53496148D01*
X85346829Y-53500000D01*
X84176663Y-53500000D01*
X84156802Y-53498399D01*
X84045361Y-53480315D01*
X84028415Y-53477565D01*
X83990728Y-53465002D01*
X83875519Y-53404637D01*
X83858669Y-53394001D01*
X82204832Y-52153624D01*
X82204830Y-52153622D01*
X82000001Y-52000000D01*
X82000000Y-52000000D01*
X81833333Y-52000000D01*
X42676663Y-52000000D01*
X42656802Y-51998399D01*
X42579412Y-51985840D01*
X42528415Y-51977565D01*
X42490728Y-51965002D01*
X42375519Y-51904637D01*
X42358669Y-51894001D01*
X40707683Y-50655762D01*
X40693299Y-50643127D01*
X40606023Y-50553614D01*
X40604894Y-50552026D01*
X40604014Y-50551504D01*
X40583898Y-50522503D01*
X40532335Y-50419377D01*
X40520722Y-50383011D01*
X40501478Y-50259486D01*
X40500000Y-50240398D01*
X40500000Y-48499999D01*
X39000000Y-47500000D01*
X38848612Y-47500000D01*
X23008126Y-47500000D01*
X22991941Y-47498939D01*
X22978917Y-47497224D01*
X22886775Y-47485093D01*
X22855508Y-47476715D01*
X22765081Y-47439259D01*
X22737048Y-47423074D01*
X22659398Y-47363491D01*
X22636508Y-47340601D01*
X22576925Y-47262951D01*
X22560740Y-47234918D01*
X22523284Y-47144491D01*
X22514906Y-47113223D01*
X22501061Y-47008059D01*
X22500000Y-46991874D01*
X22500000Y-39441966D01*
X46539500Y-39441966D01*
X46539500Y-41558028D01*
X46539501Y-41558034D01*
X46550113Y-41677415D01*
X46606089Y-41873045D01*
X46606090Y-41873048D01*
X46606091Y-41873049D01*
X46700302Y-42053407D01*
X46700304Y-42053409D01*
X46828890Y-42211109D01*
X46922803Y-42287684D01*
X46986593Y-42339698D01*
X47166951Y-42433909D01*
X47362582Y-42489886D01*
X47481963Y-42500500D01*
X49598036Y-42500499D01*
X49717418Y-42489886D01*
X49913049Y-42433909D01*
X50093407Y-42339698D01*
X50251109Y-42211109D01*
X50379698Y-42053407D01*
X50473909Y-41873049D01*
X50529886Y-41677418D01*
X50540500Y-41558037D01*
X50540499Y-40368872D01*
X72919500Y-40368872D01*
X72919500Y-40631127D01*
X72946123Y-40833339D01*
X72953730Y-40891116D01*
X73021602Y-41144418D01*
X73021605Y-41144428D01*
X73121953Y-41386690D01*
X73121958Y-41386700D01*
X73253075Y-41613803D01*
X73412718Y-41821851D01*
X73412726Y-41821860D01*
X73598140Y-42007274D01*
X73598148Y-42007281D01*
X73806196Y-42166924D01*
X74033299Y-42298041D01*
X74033309Y-42298046D01*
X74275571Y-42398394D01*
X74275581Y-42398398D01*
X74528884Y-42466270D01*
X74777188Y-42498960D01*
X74788864Y-42500498D01*
X74788880Y-42500500D01*
X74788887Y-42500500D01*
X75051113Y-42500500D01*
X75051120Y-42500500D01*
X75311116Y-42466270D01*
X75564419Y-42398398D01*
X75806697Y-42298043D01*
X76033803Y-42166924D01*
X76241851Y-42007282D01*
X76241855Y-42007277D01*
X76241860Y-42007274D01*
X76427274Y-41821860D01*
X76427277Y-41821855D01*
X76427282Y-41821851D01*
X76586924Y-41613803D01*
X76718043Y-41386697D01*
X76818398Y-41144419D01*
X76886270Y-40891116D01*
X76920500Y-40631120D01*
X76920500Y-40368880D01*
X76886270Y-40108884D01*
X76818398Y-39855581D01*
X76818394Y-39855571D01*
X76718046Y-39613309D01*
X76718041Y-39613299D01*
X76586924Y-39386196D01*
X76427281Y-39178148D01*
X76427274Y-39178140D01*
X76241860Y-38992726D01*
X76241851Y-38992718D01*
X76033803Y-38833075D01*
X75806700Y-38701958D01*
X75806690Y-38701953D01*
X75564428Y-38601605D01*
X75564421Y-38601603D01*
X75564419Y-38601602D01*
X75311116Y-38533730D01*
X75253339Y-38526123D01*
X75051127Y-38499500D01*
X75051120Y-38499500D01*
X74788880Y-38499500D01*
X74788872Y-38499500D01*
X74557772Y-38529926D01*
X74528884Y-38533730D01*
X74408118Y-38566089D01*
X74275581Y-38601602D01*
X74275571Y-38601605D01*
X74033309Y-38701953D01*
X74033299Y-38701958D01*
X73806196Y-38833075D01*
X73598148Y-38992718D01*
X73412718Y-39178148D01*
X73253075Y-39386196D01*
X73121958Y-39613299D01*
X73121953Y-39613309D01*
X73021605Y-39855571D01*
X73021602Y-39855581D01*
X72953730Y-40108885D01*
X72919500Y-40368872D01*
X50540499Y-40368872D01*
X50540499Y-39441964D01*
X50529886Y-39322582D01*
X50473909Y-39126951D01*
X50379698Y-38946593D01*
X50327684Y-38882803D01*
X50251109Y-38788890D01*
X50093409Y-38660304D01*
X50093410Y-38660304D01*
X50093407Y-38660302D01*
X49913049Y-38566091D01*
X49913048Y-38566090D01*
X49913045Y-38566089D01*
X49795829Y-38532550D01*
X49717418Y-38510114D01*
X49717415Y-38510113D01*
X49717413Y-38510113D01*
X49651102Y-38504217D01*
X49598037Y-38499500D01*
X49598032Y-38499500D01*
X47481971Y-38499500D01*
X47481965Y-38499500D01*
X47481964Y-38499501D01*
X47470316Y-38500536D01*
X47362584Y-38510113D01*
X47166954Y-38566089D01*
X47098963Y-38601605D01*
X46986593Y-38660302D01*
X46986591Y-38660303D01*
X46986590Y-38660304D01*
X46828890Y-38788890D01*
X46700304Y-38946590D01*
X46700302Y-38946593D01*
X46676204Y-38992726D01*
X46606089Y-39126954D01*
X46550114Y-39322583D01*
X46550113Y-39322586D01*
X46539500Y-39441966D01*
X22500000Y-39441966D01*
X22500000Y-36008125D01*
X22501061Y-35991940D01*
X22514906Y-35886776D01*
X22514906Y-35886775D01*
X22523284Y-35855508D01*
X22560740Y-35765081D01*
X22576923Y-35737050D01*
X22636513Y-35659392D01*
X22659392Y-35636513D01*
X22737050Y-35576923D01*
X22765079Y-35560740D01*
X22855509Y-35523283D01*
X22886775Y-35514906D01*
X22991941Y-35501061D01*
X23008126Y-35500000D01*
X23542440Y-35500000D01*
X23609479Y-35519685D01*
X23620800Y-35527898D01*
X23696587Y-35589694D01*
X23696590Y-35589695D01*
X23696593Y-35589698D01*
X23876951Y-35683909D01*
X24072582Y-35739886D01*
X24191963Y-35750500D01*
X26808036Y-35750499D01*
X26927418Y-35739886D01*
X27123049Y-35683909D01*
X27303407Y-35589698D01*
X27319072Y-35576925D01*
X27379200Y-35527898D01*
X27443596Y-35500789D01*
X27457560Y-35500000D01*
X29879875Y-35500000D01*
X29941877Y-35516614D01*
X29952493Y-35522743D01*
X30225048Y-35635639D01*
X30510007Y-35711993D01*
X30788415Y-35748646D01*
X30802478Y-35750498D01*
X30802494Y-35750500D01*
X30802501Y-35750500D01*
X31097499Y-35750500D01*
X31097506Y-35750500D01*
X31389993Y-35711993D01*
X31674952Y-35635639D01*
X31947507Y-35522743D01*
X31958123Y-35516614D01*
X32020125Y-35500000D01*
X34499998Y-35500000D01*
X34500000Y-35500000D01*
X35437500Y-34000000D01*
X35598971Y-33741646D01*
X35608082Y-33728934D01*
X35672998Y-33649494D01*
X35695685Y-33627968D01*
X35772020Y-33572004D01*
X35799389Y-33556835D01*
X35887298Y-33521765D01*
X35917590Y-33513932D01*
X36015505Y-33501478D01*
X36019334Y-33500991D01*
X36034980Y-33500000D01*
X37284767Y-33500000D01*
X37300952Y-33501061D01*
G37*
%TD.AperFunction*%
%TD*%
%TA.AperFunction,Conductor*%
%TO.N,/BridgeRight*%
G36*
X85271982Y-55519685D02*
G01*
X85317737Y-55572489D01*
X85327882Y-55640185D01*
X85299501Y-55855761D01*
X85299500Y-55855778D01*
X85299500Y-56144221D01*
X85299501Y-56144238D01*
X85337149Y-56430206D01*
X85337150Y-56430211D01*
X85337151Y-56430217D01*
X85409573Y-56700500D01*
X85411809Y-56708844D01*
X85411814Y-56708860D01*
X85522191Y-56975336D01*
X85522199Y-56975352D01*
X85666420Y-57225148D01*
X85666431Y-57225164D01*
X85842024Y-57454002D01*
X85842030Y-57454009D01*
X86045990Y-57657969D01*
X86045996Y-57657974D01*
X86274844Y-57833575D01*
X86274851Y-57833579D01*
X86524647Y-57977800D01*
X86524663Y-57977808D01*
X86791139Y-58088185D01*
X86791145Y-58088186D01*
X86791155Y-58088191D01*
X87069783Y-58162849D01*
X87355772Y-58200500D01*
X87355779Y-58200500D01*
X87644221Y-58200500D01*
X87644228Y-58200500D01*
X87930217Y-58162849D01*
X88208845Y-58088191D01*
X88208857Y-58088185D01*
X88208860Y-58088185D01*
X88475336Y-57977808D01*
X88475339Y-57977806D01*
X88475345Y-57977804D01*
X88725156Y-57833575D01*
X88954004Y-57657974D01*
X89157974Y-57454004D01*
X89333575Y-57225156D01*
X89477804Y-56975345D01*
X89588191Y-56708845D01*
X89662849Y-56430217D01*
X89700500Y-56144228D01*
X89700500Y-55855772D01*
X89672118Y-55640185D01*
X89682884Y-55571150D01*
X89729264Y-55518894D01*
X89795057Y-55500000D01*
X106491874Y-55500000D01*
X106508059Y-55501061D01*
X106613223Y-55514906D01*
X106644491Y-55523284D01*
X106734918Y-55560740D01*
X106762952Y-55576925D01*
X106840602Y-55636509D01*
X106863491Y-55659398D01*
X106923074Y-55737048D01*
X106939259Y-55765081D01*
X106976715Y-55855508D01*
X106985093Y-55886775D01*
X106998939Y-55991939D01*
X107000000Y-56008125D01*
X107000000Y-58708907D01*
X106998973Y-58724834D01*
X106985565Y-58828356D01*
X106977450Y-58859158D01*
X106941152Y-58948377D01*
X106925458Y-58976096D01*
X106867627Y-59053126D01*
X106845388Y-59075933D01*
X106763515Y-59140692D01*
X106750387Y-59149766D01*
X102000000Y-61999999D01*
X102000000Y-72991874D01*
X101998939Y-73008059D01*
X101998939Y-73008060D01*
X101985093Y-73113224D01*
X101976715Y-73144491D01*
X101939259Y-73234918D01*
X101923074Y-73262951D01*
X101863491Y-73340601D01*
X101840601Y-73363491D01*
X101762951Y-73423074D01*
X101734918Y-73439259D01*
X101644491Y-73476715D01*
X101613224Y-73485093D01*
X101519398Y-73497446D01*
X101508058Y-73498939D01*
X101491874Y-73500000D01*
X99494160Y-73500000D01*
X99483185Y-73499513D01*
X99483038Y-73499500D01*
X96866971Y-73499500D01*
X96866950Y-73499501D01*
X96866826Y-73499513D01*
X96855852Y-73500000D01*
X95999999Y-73500000D01*
X95853553Y-73646447D01*
X94152198Y-75347801D01*
X94140003Y-75358496D01*
X94055842Y-75423075D01*
X94027808Y-75439260D01*
X93937383Y-75476715D01*
X93906117Y-75485093D01*
X93812291Y-75497446D01*
X93800951Y-75498939D01*
X93784767Y-75500000D01*
X91817608Y-75500000D01*
X91800503Y-75498814D01*
X91773284Y-75495022D01*
X91689489Y-75483351D01*
X91656581Y-75474003D01*
X91651615Y-75471814D01*
X91561953Y-75432290D01*
X91532853Y-75414305D01*
X91453226Y-75348321D01*
X91430147Y-75323068D01*
X91366670Y-75230691D01*
X91357962Y-75215925D01*
X91000000Y-74500000D01*
X90638197Y-73776393D01*
X90638195Y-73776390D01*
X90636472Y-73772943D01*
X90636468Y-73772936D01*
X90500001Y-73500001D01*
X90500000Y-73500000D01*
X90499999Y-73500000D01*
X87434193Y-73500000D01*
X87426082Y-73499734D01*
X87422512Y-73499500D01*
X87422506Y-73499500D01*
X87127494Y-73499500D01*
X87127488Y-73499500D01*
X87123918Y-73499734D01*
X87115807Y-73500000D01*
X81494160Y-73500000D01*
X81483185Y-73499513D01*
X81483038Y-73499500D01*
X78866971Y-73499500D01*
X78866950Y-73499501D01*
X78866826Y-73499513D01*
X78855852Y-73500000D01*
X77500000Y-73500000D01*
X77350000Y-73700000D01*
X76155762Y-75292316D01*
X76143127Y-75306700D01*
X76053614Y-75393976D01*
X76022503Y-75416101D01*
X75919377Y-75467664D01*
X75883012Y-75479277D01*
X75780560Y-75495238D01*
X75759485Y-75498522D01*
X75740399Y-75500000D01*
X73817608Y-75500000D01*
X73800503Y-75498814D01*
X73773284Y-75495022D01*
X73689489Y-75483351D01*
X73656581Y-75474003D01*
X73651615Y-75471814D01*
X73561953Y-75432290D01*
X73532853Y-75414305D01*
X73453226Y-75348321D01*
X73430147Y-75323068D01*
X73366670Y-75230691D01*
X73357962Y-75215925D01*
X73000000Y-74500000D01*
X72638197Y-73776393D01*
X72638195Y-73776390D01*
X72636472Y-73772943D01*
X72636468Y-73772936D01*
X72500001Y-73500001D01*
X72500000Y-73500000D01*
X72499999Y-73500000D01*
X69434193Y-73500000D01*
X69426082Y-73499734D01*
X69422512Y-73499500D01*
X69422506Y-73499500D01*
X69127494Y-73499500D01*
X69127488Y-73499500D01*
X69123918Y-73499734D01*
X69115807Y-73500000D01*
X56137544Y-73500000D01*
X56080134Y-73485909D01*
X56023047Y-73456090D01*
X55924903Y-73428008D01*
X55827418Y-73400114D01*
X55827415Y-73400113D01*
X55827413Y-73400113D01*
X55761102Y-73394217D01*
X55708037Y-73389500D01*
X55708032Y-73389500D01*
X53091971Y-73389500D01*
X53091965Y-73389500D01*
X53091964Y-73389501D01*
X53080316Y-73390536D01*
X52972584Y-73400113D01*
X52776953Y-73456090D01*
X52776951Y-73456090D01*
X52719866Y-73485909D01*
X52662456Y-73500000D01*
X49675001Y-73500000D01*
X49642908Y-73495775D01*
X49389993Y-73428007D01*
X49341113Y-73421571D01*
X49097513Y-73389500D01*
X49097506Y-73389500D01*
X48802494Y-73389500D01*
X48802486Y-73389500D01*
X48524085Y-73426153D01*
X48510007Y-73428007D01*
X48257092Y-73495775D01*
X48224999Y-73500000D01*
X46000000Y-73500000D01*
X45848626Y-73697027D01*
X45848617Y-73697039D01*
X45112003Y-74655818D01*
X44379887Y-75608740D01*
X44367259Y-75622811D01*
X44278025Y-75708147D01*
X44247135Y-75729758D01*
X44144989Y-75780094D01*
X44109028Y-75791425D01*
X43986989Y-75810196D01*
X43968138Y-75811637D01*
X42737450Y-75811637D01*
X42719787Y-75810373D01*
X42605243Y-75793889D01*
X42571352Y-75783928D01*
X42474267Y-75739547D01*
X42444559Y-75720433D01*
X42357151Y-75644596D01*
X42344639Y-75632067D01*
X40739132Y-73776393D01*
X40500000Y-73500000D01*
X40271430Y-73500000D01*
X38137544Y-73500000D01*
X38080134Y-73485909D01*
X38023047Y-73456090D01*
X37924903Y-73428008D01*
X37827418Y-73400114D01*
X37827415Y-73400113D01*
X37827413Y-73400113D01*
X37761102Y-73394217D01*
X37708037Y-73389500D01*
X37708032Y-73389500D01*
X35091971Y-73389500D01*
X35091965Y-73389500D01*
X35091964Y-73389501D01*
X35080316Y-73390536D01*
X34972584Y-73400113D01*
X34776953Y-73456090D01*
X34776951Y-73456090D01*
X34719866Y-73485909D01*
X34662456Y-73500000D01*
X31675001Y-73500000D01*
X31642908Y-73495775D01*
X31389993Y-73428007D01*
X31341113Y-73421571D01*
X31097513Y-73389500D01*
X31097506Y-73389500D01*
X30802494Y-73389500D01*
X30802486Y-73389500D01*
X30524085Y-73426153D01*
X30510007Y-73428007D01*
X30257092Y-73495775D01*
X30224999Y-73500000D01*
X29000000Y-73500000D01*
X28755775Y-73695380D01*
X26645142Y-75383885D01*
X26627787Y-75395515D01*
X26508584Y-75461577D01*
X26469295Y-75475359D01*
X26334943Y-75498240D01*
X26314125Y-75500000D01*
X24817608Y-75500000D01*
X24800503Y-75498814D01*
X24773284Y-75495022D01*
X24689489Y-75483351D01*
X24656581Y-75474003D01*
X24651615Y-75471814D01*
X24561953Y-75432290D01*
X24532853Y-75414305D01*
X24453226Y-75348321D01*
X24430147Y-75323068D01*
X24366670Y-75230691D01*
X24357962Y-75215925D01*
X24000000Y-74500000D01*
X23638197Y-73776393D01*
X23638195Y-73776390D01*
X23636472Y-73772943D01*
X23636468Y-73772936D01*
X23500001Y-73500001D01*
X23500000Y-73500000D01*
X23499999Y-73500000D01*
X23008126Y-73500000D01*
X22991941Y-73498939D01*
X22967908Y-73495775D01*
X22886775Y-73485093D01*
X22855508Y-73476715D01*
X22765081Y-73439259D01*
X22737048Y-73423074D01*
X22659398Y-73363491D01*
X22636508Y-73340601D01*
X22576925Y-73262951D01*
X22560740Y-73234918D01*
X22523284Y-73144491D01*
X22514906Y-73113223D01*
X22501061Y-73008059D01*
X22500000Y-72991874D01*
X22500000Y-67941966D01*
X41499500Y-67941966D01*
X41499500Y-70058028D01*
X41499501Y-70058034D01*
X41510113Y-70177415D01*
X41566089Y-70373045D01*
X41566090Y-70373048D01*
X41566091Y-70373049D01*
X41660302Y-70553407D01*
X41660304Y-70553409D01*
X41788890Y-70711109D01*
X41882803Y-70787684D01*
X41946593Y-70839698D01*
X42126951Y-70933909D01*
X42322582Y-70989886D01*
X42441963Y-71000500D01*
X44558036Y-71000499D01*
X44677418Y-70989886D01*
X44873049Y-70933909D01*
X45053407Y-70839698D01*
X45211109Y-70711109D01*
X45339698Y-70553407D01*
X45433909Y-70373049D01*
X45489886Y-70177418D01*
X45500500Y-70058037D01*
X45500499Y-68868872D01*
X78079500Y-68868872D01*
X78079500Y-69131127D01*
X78106123Y-69333339D01*
X78113730Y-69391116D01*
X78181602Y-69644418D01*
X78181605Y-69644428D01*
X78281953Y-69886690D01*
X78281958Y-69886700D01*
X78413075Y-70113803D01*
X78572718Y-70321851D01*
X78572726Y-70321860D01*
X78758140Y-70507274D01*
X78758148Y-70507281D01*
X78966196Y-70666924D01*
X79193299Y-70798041D01*
X79193309Y-70798046D01*
X79435571Y-70898394D01*
X79435581Y-70898398D01*
X79688884Y-70966270D01*
X79937188Y-70998960D01*
X79948864Y-71000498D01*
X79948880Y-71000500D01*
X79948887Y-71000500D01*
X80211113Y-71000500D01*
X80211120Y-71000500D01*
X80471116Y-70966270D01*
X80724419Y-70898398D01*
X80966697Y-70798043D01*
X81193803Y-70666924D01*
X81401851Y-70507282D01*
X81401855Y-70507277D01*
X81401860Y-70507274D01*
X81587274Y-70321860D01*
X81587277Y-70321855D01*
X81587282Y-70321851D01*
X81746924Y-70113803D01*
X81878043Y-69886697D01*
X81978398Y-69644419D01*
X82046270Y-69391116D01*
X82080500Y-69131120D01*
X82080500Y-68868880D01*
X82046270Y-68608884D01*
X81978398Y-68355581D01*
X81978394Y-68355571D01*
X81878046Y-68113309D01*
X81878041Y-68113299D01*
X81746924Y-67886196D01*
X81587281Y-67678148D01*
X81587274Y-67678140D01*
X81401860Y-67492726D01*
X81401851Y-67492718D01*
X81193803Y-67333075D01*
X80966700Y-67201958D01*
X80966690Y-67201953D01*
X80724428Y-67101605D01*
X80724421Y-67101603D01*
X80724419Y-67101602D01*
X80471116Y-67033730D01*
X80413339Y-67026123D01*
X80211127Y-66999500D01*
X80211120Y-66999500D01*
X79948880Y-66999500D01*
X79948872Y-66999500D01*
X79717772Y-67029926D01*
X79688884Y-67033730D01*
X79568118Y-67066089D01*
X79435581Y-67101602D01*
X79435571Y-67101605D01*
X79193309Y-67201953D01*
X79193299Y-67201958D01*
X78966196Y-67333075D01*
X78758148Y-67492718D01*
X78572718Y-67678148D01*
X78413075Y-67886196D01*
X78281958Y-68113299D01*
X78281953Y-68113309D01*
X78181605Y-68355571D01*
X78181602Y-68355581D01*
X78113730Y-68608885D01*
X78079500Y-68868872D01*
X45500499Y-68868872D01*
X45500499Y-67941964D01*
X45489886Y-67822582D01*
X45433909Y-67626951D01*
X45339698Y-67446593D01*
X45287684Y-67382803D01*
X45211109Y-67288890D01*
X45053409Y-67160304D01*
X45053410Y-67160304D01*
X45053407Y-67160302D01*
X44873049Y-67066091D01*
X44873048Y-67066090D01*
X44873045Y-67066089D01*
X44755829Y-67032550D01*
X44677418Y-67010114D01*
X44677415Y-67010113D01*
X44677413Y-67010113D01*
X44611102Y-67004217D01*
X44558037Y-66999500D01*
X44558032Y-66999500D01*
X42441971Y-66999500D01*
X42441965Y-66999500D01*
X42441964Y-66999501D01*
X42430316Y-67000536D01*
X42322584Y-67010113D01*
X42126954Y-67066089D01*
X42058963Y-67101605D01*
X41946593Y-67160302D01*
X41946591Y-67160303D01*
X41946590Y-67160304D01*
X41788890Y-67288890D01*
X41660304Y-67446590D01*
X41660302Y-67446593D01*
X41636204Y-67492726D01*
X41566089Y-67626954D01*
X41510114Y-67822583D01*
X41510113Y-67822586D01*
X41499500Y-67941966D01*
X22500000Y-67941966D01*
X22500000Y-62008125D01*
X22501061Y-61991940D01*
X22514906Y-61886776D01*
X22523284Y-61855508D01*
X22560740Y-61765081D01*
X22576923Y-61737050D01*
X22636513Y-61659392D01*
X22659392Y-61636513D01*
X22737050Y-61576923D01*
X22765079Y-61560740D01*
X22855509Y-61523283D01*
X22886775Y-61514906D01*
X22991941Y-61501061D01*
X23008126Y-61500000D01*
X39000000Y-61500000D01*
X40500000Y-60500000D01*
X40500000Y-58759601D01*
X40501478Y-58740513D01*
X40520722Y-58616988D01*
X40532335Y-58580622D01*
X40583898Y-58477496D01*
X40606019Y-58446389D01*
X40693304Y-58356867D01*
X40707677Y-58344242D01*
X42358673Y-57105995D01*
X42375519Y-57095362D01*
X42387075Y-57089306D01*
X42490730Y-57034996D01*
X42528411Y-57022435D01*
X42656801Y-57001600D01*
X42676663Y-57000000D01*
X42840040Y-57000000D01*
X42853924Y-57000780D01*
X42861202Y-57001600D01*
X42940187Y-57010499D01*
X42940188Y-57010500D01*
X42940191Y-57010500D01*
X43209812Y-57010500D01*
X43209812Y-57010499D01*
X43288798Y-57001600D01*
X43296076Y-57000780D01*
X43309960Y-57000000D01*
X80340040Y-57000000D01*
X80353924Y-57000780D01*
X80361202Y-57001600D01*
X80440187Y-57010499D01*
X80440188Y-57010500D01*
X80440191Y-57010500D01*
X80709812Y-57010500D01*
X80709812Y-57010499D01*
X80788798Y-57001600D01*
X80796076Y-57000780D01*
X80809960Y-57000000D01*
X81999999Y-57000000D01*
X82000000Y-57000000D01*
X83666667Y-55750000D01*
X83858673Y-55605995D01*
X83875519Y-55595362D01*
X83929674Y-55566987D01*
X83990730Y-55534996D01*
X84028411Y-55522435D01*
X84156801Y-55501600D01*
X84176663Y-55500000D01*
X85204943Y-55500000D01*
X85271982Y-55519685D01*
G37*
%TD.AperFunction*%
%TD*%
M02*
