%TF.GenerationSoftware,KiCad,Pcbnew,9.0.2*%
%TF.CreationDate,2025-07-13T13:24:00+03:30*%
%TF.ProjectId,paralleled-full-bridge,70617261-6c6c-4656-9c65-642d66756c6c,rev?*%
%TF.SameCoordinates,Original*%
%TF.FileFunction,Legend,Top*%
%TF.FilePolarity,Positive*%
%FSLAX46Y46*%
G04 Gerber Fmt 4.6, Leading zero omitted, Abs format (unit mm)*
G04 Created by KiCad (PCBNEW 9.0.2) date 2025-07-13 13:24:00*
%MOMM*%
%LPD*%
G01*
G04 APERTURE LIST*
%ADD10C,0.100000*%
%ADD11C,0.600000*%
%ADD12C,0.300000*%
%ADD13C,0.150000*%
%ADD14C,0.120000*%
%ADD15C,0.000000*%
G04 APERTURE END LIST*
D10*
X108372419Y-43696115D02*
X107372419Y-43696115D01*
X107372419Y-43696115D02*
X107372419Y-43458020D01*
X107372419Y-43458020D02*
X107420038Y-43315163D01*
X107420038Y-43315163D02*
X107515276Y-43219925D01*
X107515276Y-43219925D02*
X107610514Y-43172306D01*
X107610514Y-43172306D02*
X107800990Y-43124687D01*
X107800990Y-43124687D02*
X107943847Y-43124687D01*
X107943847Y-43124687D02*
X108134323Y-43172306D01*
X108134323Y-43172306D02*
X108229561Y-43219925D01*
X108229561Y-43219925D02*
X108324800Y-43315163D01*
X108324800Y-43315163D02*
X108372419Y-43458020D01*
X108372419Y-43458020D02*
X108372419Y-43696115D01*
X107705752Y-42267544D02*
X108372419Y-42267544D01*
X107705752Y-42696115D02*
X108229561Y-42696115D01*
X108229561Y-42696115D02*
X108324800Y-42648496D01*
X108324800Y-42648496D02*
X108372419Y-42553258D01*
X108372419Y-42553258D02*
X108372419Y-42410401D01*
X108372419Y-42410401D02*
X108324800Y-42315163D01*
X108324800Y-42315163D02*
X108277180Y-42267544D01*
X108372419Y-41362782D02*
X107848609Y-41362782D01*
X107848609Y-41362782D02*
X107753371Y-41410401D01*
X107753371Y-41410401D02*
X107705752Y-41505639D01*
X107705752Y-41505639D02*
X107705752Y-41696115D01*
X107705752Y-41696115D02*
X107753371Y-41791353D01*
X108324800Y-41362782D02*
X108372419Y-41458020D01*
X108372419Y-41458020D02*
X108372419Y-41696115D01*
X108372419Y-41696115D02*
X108324800Y-41791353D01*
X108324800Y-41791353D02*
X108229561Y-41838972D01*
X108229561Y-41838972D02*
X108134323Y-41838972D01*
X108134323Y-41838972D02*
X108039085Y-41791353D01*
X108039085Y-41791353D02*
X107991466Y-41696115D01*
X107991466Y-41696115D02*
X107991466Y-41458020D01*
X107991466Y-41458020D02*
X107943847Y-41362782D01*
X108372419Y-40743734D02*
X108324800Y-40838972D01*
X108324800Y-40838972D02*
X108229561Y-40886591D01*
X108229561Y-40886591D02*
X107372419Y-40886591D01*
X107705752Y-39743733D02*
X107705752Y-39362781D01*
X108372419Y-39600876D02*
X107515276Y-39600876D01*
X107515276Y-39600876D02*
X107420038Y-39553257D01*
X107420038Y-39553257D02*
X107372419Y-39458019D01*
X107372419Y-39458019D02*
X107372419Y-39362781D01*
X107705752Y-38600876D02*
X108372419Y-38600876D01*
X107705752Y-39029447D02*
X108229561Y-39029447D01*
X108229561Y-39029447D02*
X108324800Y-38981828D01*
X108324800Y-38981828D02*
X108372419Y-38886590D01*
X108372419Y-38886590D02*
X108372419Y-38743733D01*
X108372419Y-38743733D02*
X108324800Y-38648495D01*
X108324800Y-38648495D02*
X108277180Y-38600876D01*
X108372419Y-37981828D02*
X108324800Y-38077066D01*
X108324800Y-38077066D02*
X108229561Y-38124685D01*
X108229561Y-38124685D02*
X107372419Y-38124685D01*
X108372419Y-37458018D02*
X108324800Y-37553256D01*
X108324800Y-37553256D02*
X108229561Y-37600875D01*
X108229561Y-37600875D02*
X107372419Y-37600875D01*
X107991466Y-37077065D02*
X107991466Y-36315161D01*
X108372419Y-35838970D02*
X107372419Y-35838970D01*
X107753371Y-35838970D02*
X107705752Y-35743732D01*
X107705752Y-35743732D02*
X107705752Y-35553256D01*
X107705752Y-35553256D02*
X107753371Y-35458018D01*
X107753371Y-35458018D02*
X107800990Y-35410399D01*
X107800990Y-35410399D02*
X107896228Y-35362780D01*
X107896228Y-35362780D02*
X108181942Y-35362780D01*
X108181942Y-35362780D02*
X108277180Y-35410399D01*
X108277180Y-35410399D02*
X108324800Y-35458018D01*
X108324800Y-35458018D02*
X108372419Y-35553256D01*
X108372419Y-35553256D02*
X108372419Y-35743732D01*
X108372419Y-35743732D02*
X108324800Y-35838970D01*
X108372419Y-34934208D02*
X107705752Y-34934208D01*
X107896228Y-34934208D02*
X107800990Y-34886589D01*
X107800990Y-34886589D02*
X107753371Y-34838970D01*
X107753371Y-34838970D02*
X107705752Y-34743732D01*
X107705752Y-34743732D02*
X107705752Y-34648494D01*
X108372419Y-34315160D02*
X107705752Y-34315160D01*
X107372419Y-34315160D02*
X107420038Y-34362779D01*
X107420038Y-34362779D02*
X107467657Y-34315160D01*
X107467657Y-34315160D02*
X107420038Y-34267541D01*
X107420038Y-34267541D02*
X107372419Y-34315160D01*
X107372419Y-34315160D02*
X107467657Y-34315160D01*
X108372419Y-33410399D02*
X107372419Y-33410399D01*
X108324800Y-33410399D02*
X108372419Y-33505637D01*
X108372419Y-33505637D02*
X108372419Y-33696113D01*
X108372419Y-33696113D02*
X108324800Y-33791351D01*
X108324800Y-33791351D02*
X108277180Y-33838970D01*
X108277180Y-33838970D02*
X108181942Y-33886589D01*
X108181942Y-33886589D02*
X107896228Y-33886589D01*
X107896228Y-33886589D02*
X107800990Y-33838970D01*
X107800990Y-33838970D02*
X107753371Y-33791351D01*
X107753371Y-33791351D02*
X107705752Y-33696113D01*
X107705752Y-33696113D02*
X107705752Y-33505637D01*
X107705752Y-33505637D02*
X107753371Y-33410399D01*
X107705752Y-32505637D02*
X108515276Y-32505637D01*
X108515276Y-32505637D02*
X108610514Y-32553256D01*
X108610514Y-32553256D02*
X108658133Y-32600875D01*
X108658133Y-32600875D02*
X108705752Y-32696113D01*
X108705752Y-32696113D02*
X108705752Y-32838970D01*
X108705752Y-32838970D02*
X108658133Y-32934208D01*
X108324800Y-32505637D02*
X108372419Y-32600875D01*
X108372419Y-32600875D02*
X108372419Y-32791351D01*
X108372419Y-32791351D02*
X108324800Y-32886589D01*
X108324800Y-32886589D02*
X108277180Y-32934208D01*
X108277180Y-32934208D02*
X108181942Y-32981827D01*
X108181942Y-32981827D02*
X107896228Y-32981827D01*
X107896228Y-32981827D02*
X107800990Y-32934208D01*
X107800990Y-32934208D02*
X107753371Y-32886589D01*
X107753371Y-32886589D02*
X107705752Y-32791351D01*
X107705752Y-32791351D02*
X107705752Y-32600875D01*
X107705752Y-32600875D02*
X107753371Y-32505637D01*
X108324800Y-31648494D02*
X108372419Y-31743732D01*
X108372419Y-31743732D02*
X108372419Y-31934208D01*
X108372419Y-31934208D02*
X108324800Y-32029446D01*
X108324800Y-32029446D02*
X108229561Y-32077065D01*
X108229561Y-32077065D02*
X107848609Y-32077065D01*
X107848609Y-32077065D02*
X107753371Y-32029446D01*
X107753371Y-32029446D02*
X107705752Y-31934208D01*
X107705752Y-31934208D02*
X107705752Y-31743732D01*
X107705752Y-31743732D02*
X107753371Y-31648494D01*
X107753371Y-31648494D02*
X107848609Y-31600875D01*
X107848609Y-31600875D02*
X107943847Y-31600875D01*
X107943847Y-31600875D02*
X108039085Y-32077065D01*
D11*
X64609021Y-87958800D02*
X66894736Y-87958800D01*
D12*
X98800828Y-57159774D02*
X98800828Y-56874060D01*
X98800828Y-56874060D02*
X98872257Y-56731203D01*
X98872257Y-56731203D02*
X99015114Y-56588346D01*
X99015114Y-56588346D02*
X99300828Y-56516917D01*
X99300828Y-56516917D02*
X99800828Y-56516917D01*
X99800828Y-56516917D02*
X100086542Y-56588346D01*
X100086542Y-56588346D02*
X100229400Y-56731203D01*
X100229400Y-56731203D02*
X100300828Y-56874060D01*
X100300828Y-56874060D02*
X100300828Y-57159774D01*
X100300828Y-57159774D02*
X100229400Y-57302632D01*
X100229400Y-57302632D02*
X100086542Y-57445489D01*
X100086542Y-57445489D02*
X99800828Y-57516917D01*
X99800828Y-57516917D02*
X99300828Y-57516917D01*
X99300828Y-57516917D02*
X99015114Y-57445489D01*
X99015114Y-57445489D02*
X98872257Y-57302632D01*
X98872257Y-57302632D02*
X98800828Y-57159774D01*
X99300828Y-55231203D02*
X100300828Y-55231203D01*
X99300828Y-55874060D02*
X100086542Y-55874060D01*
X100086542Y-55874060D02*
X100229400Y-55802631D01*
X100229400Y-55802631D02*
X100300828Y-55659774D01*
X100300828Y-55659774D02*
X100300828Y-55445488D01*
X100300828Y-55445488D02*
X100229400Y-55302631D01*
X100229400Y-55302631D02*
X100157971Y-55231203D01*
X99300828Y-54731202D02*
X99300828Y-54159774D01*
X98800828Y-54516917D02*
X100086542Y-54516917D01*
X100086542Y-54516917D02*
X100229400Y-54445488D01*
X100229400Y-54445488D02*
X100300828Y-54302631D01*
X100300828Y-54302631D02*
X100300828Y-54159774D01*
X99300828Y-53659774D02*
X100800828Y-53659774D01*
X99372257Y-53659774D02*
X99300828Y-53516917D01*
X99300828Y-53516917D02*
X99300828Y-53231202D01*
X99300828Y-53231202D02*
X99372257Y-53088345D01*
X99372257Y-53088345D02*
X99443685Y-53016917D01*
X99443685Y-53016917D02*
X99586542Y-52945488D01*
X99586542Y-52945488D02*
X100015114Y-52945488D01*
X100015114Y-52945488D02*
X100157971Y-53016917D01*
X100157971Y-53016917D02*
X100229400Y-53088345D01*
X100229400Y-53088345D02*
X100300828Y-53231202D01*
X100300828Y-53231202D02*
X100300828Y-53516917D01*
X100300828Y-53516917D02*
X100229400Y-53659774D01*
X99300828Y-51659774D02*
X100300828Y-51659774D01*
X99300828Y-52302631D02*
X100086542Y-52302631D01*
X100086542Y-52302631D02*
X100229400Y-52231202D01*
X100229400Y-52231202D02*
X100300828Y-52088345D01*
X100300828Y-52088345D02*
X100300828Y-51874059D01*
X100300828Y-51874059D02*
X100229400Y-51731202D01*
X100229400Y-51731202D02*
X100157971Y-51659774D01*
X99300828Y-51159773D02*
X99300828Y-50588345D01*
X98800828Y-50945488D02*
X100086542Y-50945488D01*
X100086542Y-50945488D02*
X100229400Y-50874059D01*
X100229400Y-50874059D02*
X100300828Y-50731202D01*
X100300828Y-50731202D02*
X100300828Y-50588345D01*
D10*
X106372419Y-43696115D02*
X105372419Y-43696115D01*
X106372419Y-43267544D02*
X105848609Y-43267544D01*
X105848609Y-43267544D02*
X105753371Y-43315163D01*
X105753371Y-43315163D02*
X105705752Y-43410401D01*
X105705752Y-43410401D02*
X105705752Y-43553258D01*
X105705752Y-43553258D02*
X105753371Y-43648496D01*
X105753371Y-43648496D02*
X105800990Y-43696115D01*
X105705752Y-42791353D02*
X106372419Y-42791353D01*
X105800990Y-42791353D02*
X105753371Y-42743734D01*
X105753371Y-42743734D02*
X105705752Y-42648496D01*
X105705752Y-42648496D02*
X105705752Y-42505639D01*
X105705752Y-42505639D02*
X105753371Y-42410401D01*
X105753371Y-42410401D02*
X105848609Y-42362782D01*
X105848609Y-42362782D02*
X106372419Y-42362782D01*
X106372419Y-41458020D02*
X105848609Y-41458020D01*
X105848609Y-41458020D02*
X105753371Y-41505639D01*
X105753371Y-41505639D02*
X105705752Y-41600877D01*
X105705752Y-41600877D02*
X105705752Y-41791353D01*
X105705752Y-41791353D02*
X105753371Y-41886591D01*
X106324800Y-41458020D02*
X106372419Y-41553258D01*
X106372419Y-41553258D02*
X106372419Y-41791353D01*
X106372419Y-41791353D02*
X106324800Y-41886591D01*
X106324800Y-41886591D02*
X106229561Y-41934210D01*
X106229561Y-41934210D02*
X106134323Y-41934210D01*
X106134323Y-41934210D02*
X106039085Y-41886591D01*
X106039085Y-41886591D02*
X105991466Y-41791353D01*
X105991466Y-41791353D02*
X105991466Y-41553258D01*
X105991466Y-41553258D02*
X105943847Y-41458020D01*
X106372419Y-40553258D02*
X105372419Y-40553258D01*
X106324800Y-40553258D02*
X106372419Y-40648496D01*
X106372419Y-40648496D02*
X106372419Y-40838972D01*
X106372419Y-40838972D02*
X106324800Y-40934210D01*
X106324800Y-40934210D02*
X106277180Y-40981829D01*
X106277180Y-40981829D02*
X106181942Y-41029448D01*
X106181942Y-41029448D02*
X105896228Y-41029448D01*
X105896228Y-41029448D02*
X105800990Y-40981829D01*
X105800990Y-40981829D02*
X105753371Y-40934210D01*
X105753371Y-40934210D02*
X105705752Y-40838972D01*
X105705752Y-40838972D02*
X105705752Y-40648496D01*
X105705752Y-40648496D02*
X105753371Y-40553258D01*
X106324800Y-39696115D02*
X106372419Y-39791353D01*
X106372419Y-39791353D02*
X106372419Y-39981829D01*
X106372419Y-39981829D02*
X106324800Y-40077067D01*
X106324800Y-40077067D02*
X106229561Y-40124686D01*
X106229561Y-40124686D02*
X105848609Y-40124686D01*
X105848609Y-40124686D02*
X105753371Y-40077067D01*
X105753371Y-40077067D02*
X105705752Y-39981829D01*
X105705752Y-39981829D02*
X105705752Y-39791353D01*
X105705752Y-39791353D02*
X105753371Y-39696115D01*
X105753371Y-39696115D02*
X105848609Y-39648496D01*
X105848609Y-39648496D02*
X105943847Y-39648496D01*
X105943847Y-39648496D02*
X106039085Y-40124686D01*
X106372419Y-39219924D02*
X105705752Y-39219924D01*
X105896228Y-39219924D02*
X105800990Y-39172305D01*
X105800990Y-39172305D02*
X105753371Y-39124686D01*
X105753371Y-39124686D02*
X105705752Y-39029448D01*
X105705752Y-39029448D02*
X105705752Y-38934210D01*
X106372419Y-38600876D02*
X105705752Y-38600876D01*
X105372419Y-38600876D02*
X105420038Y-38648495D01*
X105420038Y-38648495D02*
X105467657Y-38600876D01*
X105467657Y-38600876D02*
X105420038Y-38553257D01*
X105420038Y-38553257D02*
X105372419Y-38600876D01*
X105372419Y-38600876D02*
X105467657Y-38600876D01*
X106277180Y-38124686D02*
X106324800Y-38077067D01*
X106324800Y-38077067D02*
X106372419Y-38124686D01*
X106372419Y-38124686D02*
X106324800Y-38172305D01*
X106324800Y-38172305D02*
X106277180Y-38124686D01*
X106277180Y-38124686D02*
X106372419Y-38124686D01*
X106372419Y-37219925D02*
X105372419Y-37219925D01*
X106324800Y-37219925D02*
X106372419Y-37315163D01*
X106372419Y-37315163D02*
X106372419Y-37505639D01*
X106372419Y-37505639D02*
X106324800Y-37600877D01*
X106324800Y-37600877D02*
X106277180Y-37648496D01*
X106277180Y-37648496D02*
X106181942Y-37696115D01*
X106181942Y-37696115D02*
X105896228Y-37696115D01*
X105896228Y-37696115D02*
X105800990Y-37648496D01*
X105800990Y-37648496D02*
X105753371Y-37600877D01*
X105753371Y-37600877D02*
X105705752Y-37505639D01*
X105705752Y-37505639D02*
X105705752Y-37315163D01*
X105705752Y-37315163D02*
X105753371Y-37219925D01*
X106324800Y-36362782D02*
X106372419Y-36458020D01*
X106372419Y-36458020D02*
X106372419Y-36648496D01*
X106372419Y-36648496D02*
X106324800Y-36743734D01*
X106324800Y-36743734D02*
X106229561Y-36791353D01*
X106229561Y-36791353D02*
X105848609Y-36791353D01*
X105848609Y-36791353D02*
X105753371Y-36743734D01*
X105753371Y-36743734D02*
X105705752Y-36648496D01*
X105705752Y-36648496D02*
X105705752Y-36458020D01*
X105705752Y-36458020D02*
X105753371Y-36362782D01*
X105753371Y-36362782D02*
X105848609Y-36315163D01*
X105848609Y-36315163D02*
X105943847Y-36315163D01*
X105943847Y-36315163D02*
X106039085Y-36791353D01*
X105705752Y-35981829D02*
X106372419Y-35743734D01*
X106372419Y-35743734D02*
X105705752Y-35505639D01*
D11*
X58109021Y-87958800D02*
X60394736Y-87958800D01*
X59251878Y-89101657D02*
X59251878Y-86815942D01*
D13*
X46145714Y-85954819D02*
X46145714Y-84954819D01*
X46145714Y-84954819D02*
X46383809Y-84954819D01*
X46383809Y-84954819D02*
X46526666Y-85002438D01*
X46526666Y-85002438D02*
X46621904Y-85097676D01*
X46621904Y-85097676D02*
X46669523Y-85192914D01*
X46669523Y-85192914D02*
X46717142Y-85383390D01*
X46717142Y-85383390D02*
X46717142Y-85526247D01*
X46717142Y-85526247D02*
X46669523Y-85716723D01*
X46669523Y-85716723D02*
X46621904Y-85811961D01*
X46621904Y-85811961D02*
X46526666Y-85907200D01*
X46526666Y-85907200D02*
X46383809Y-85954819D01*
X46383809Y-85954819D02*
X46145714Y-85954819D01*
X47669523Y-85954819D02*
X47098095Y-85954819D01*
X47383809Y-85954819D02*
X47383809Y-84954819D01*
X47383809Y-84954819D02*
X47288571Y-85097676D01*
X47288571Y-85097676D02*
X47193333Y-85192914D01*
X47193333Y-85192914D02*
X47098095Y-85240533D01*
X48526666Y-84954819D02*
X48336190Y-84954819D01*
X48336190Y-84954819D02*
X48240952Y-85002438D01*
X48240952Y-85002438D02*
X48193333Y-85050057D01*
X48193333Y-85050057D02*
X48098095Y-85192914D01*
X48098095Y-85192914D02*
X48050476Y-85383390D01*
X48050476Y-85383390D02*
X48050476Y-85764342D01*
X48050476Y-85764342D02*
X48098095Y-85859580D01*
X48098095Y-85859580D02*
X48145714Y-85907200D01*
X48145714Y-85907200D02*
X48240952Y-85954819D01*
X48240952Y-85954819D02*
X48431428Y-85954819D01*
X48431428Y-85954819D02*
X48526666Y-85907200D01*
X48526666Y-85907200D02*
X48574285Y-85859580D01*
X48574285Y-85859580D02*
X48621904Y-85764342D01*
X48621904Y-85764342D02*
X48621904Y-85526247D01*
X48621904Y-85526247D02*
X48574285Y-85431009D01*
X48574285Y-85431009D02*
X48526666Y-85383390D01*
X48526666Y-85383390D02*
X48431428Y-85335771D01*
X48431428Y-85335771D02*
X48240952Y-85335771D01*
X48240952Y-85335771D02*
X48145714Y-85383390D01*
X48145714Y-85383390D02*
X48098095Y-85431009D01*
X48098095Y-85431009D02*
X48050476Y-85526247D01*
X47158095Y-81154819D02*
X47158095Y-80154819D01*
X47729523Y-81154819D02*
X47300952Y-80583390D01*
X47729523Y-80154819D02*
X47158095Y-80726247D01*
X28454819Y-24748094D02*
X27454819Y-24748094D01*
X27454819Y-24748094D02*
X27454819Y-24509999D01*
X27454819Y-24509999D02*
X27502438Y-24367142D01*
X27502438Y-24367142D02*
X27597676Y-24271904D01*
X27597676Y-24271904D02*
X27692914Y-24224285D01*
X27692914Y-24224285D02*
X27883390Y-24176666D01*
X27883390Y-24176666D02*
X28026247Y-24176666D01*
X28026247Y-24176666D02*
X28216723Y-24224285D01*
X28216723Y-24224285D02*
X28311961Y-24271904D01*
X28311961Y-24271904D02*
X28407200Y-24367142D01*
X28407200Y-24367142D02*
X28454819Y-24509999D01*
X28454819Y-24509999D02*
X28454819Y-24748094D01*
X27550057Y-23795713D02*
X27502438Y-23748094D01*
X27502438Y-23748094D02*
X27454819Y-23652856D01*
X27454819Y-23652856D02*
X27454819Y-23414761D01*
X27454819Y-23414761D02*
X27502438Y-23319523D01*
X27502438Y-23319523D02*
X27550057Y-23271904D01*
X27550057Y-23271904D02*
X27645295Y-23224285D01*
X27645295Y-23224285D02*
X27740533Y-23224285D01*
X27740533Y-23224285D02*
X27883390Y-23271904D01*
X27883390Y-23271904D02*
X28454819Y-23843332D01*
X28454819Y-23843332D02*
X28454819Y-23224285D01*
X30554819Y-20151904D02*
X29554819Y-20151904D01*
X30554819Y-19580476D02*
X29983390Y-20009047D01*
X29554819Y-19580476D02*
X30126247Y-20151904D01*
X48854761Y-80470057D02*
X48759523Y-80422438D01*
X48759523Y-80422438D02*
X48664285Y-80327200D01*
X48664285Y-80327200D02*
X48521428Y-80184342D01*
X48521428Y-80184342D02*
X48426190Y-80136723D01*
X48426190Y-80136723D02*
X48330952Y-80136723D01*
X48378571Y-80374819D02*
X48283333Y-80327200D01*
X48283333Y-80327200D02*
X48188095Y-80231961D01*
X48188095Y-80231961D02*
X48140476Y-80041485D01*
X48140476Y-80041485D02*
X48140476Y-79708152D01*
X48140476Y-79708152D02*
X48188095Y-79517676D01*
X48188095Y-79517676D02*
X48283333Y-79422438D01*
X48283333Y-79422438D02*
X48378571Y-79374819D01*
X48378571Y-79374819D02*
X48569047Y-79374819D01*
X48569047Y-79374819D02*
X48664285Y-79422438D01*
X48664285Y-79422438D02*
X48759523Y-79517676D01*
X48759523Y-79517676D02*
X48807142Y-79708152D01*
X48807142Y-79708152D02*
X48807142Y-80041485D01*
X48807142Y-80041485D02*
X48759523Y-80231961D01*
X48759523Y-80231961D02*
X48664285Y-80327200D01*
X48664285Y-80327200D02*
X48569047Y-80374819D01*
X48569047Y-80374819D02*
X48378571Y-80374819D01*
X49664285Y-79374819D02*
X49473809Y-79374819D01*
X49473809Y-79374819D02*
X49378571Y-79422438D01*
X49378571Y-79422438D02*
X49330952Y-79470057D01*
X49330952Y-79470057D02*
X49235714Y-79612914D01*
X49235714Y-79612914D02*
X49188095Y-79803390D01*
X49188095Y-79803390D02*
X49188095Y-80184342D01*
X49188095Y-80184342D02*
X49235714Y-80279580D01*
X49235714Y-80279580D02*
X49283333Y-80327200D01*
X49283333Y-80327200D02*
X49378571Y-80374819D01*
X49378571Y-80374819D02*
X49569047Y-80374819D01*
X49569047Y-80374819D02*
X49664285Y-80327200D01*
X49664285Y-80327200D02*
X49711904Y-80279580D01*
X49711904Y-80279580D02*
X49759523Y-80184342D01*
X49759523Y-80184342D02*
X49759523Y-79946247D01*
X49759523Y-79946247D02*
X49711904Y-79851009D01*
X49711904Y-79851009D02*
X49664285Y-79803390D01*
X49664285Y-79803390D02*
X49569047Y-79755771D01*
X49569047Y-79755771D02*
X49378571Y-79755771D01*
X49378571Y-79755771D02*
X49283333Y-79803390D01*
X49283333Y-79803390D02*
X49235714Y-79851009D01*
X49235714Y-79851009D02*
X49188095Y-79946247D01*
X37904819Y-47658094D02*
X36904819Y-47658094D01*
X36904819Y-47658094D02*
X36904819Y-47419999D01*
X36904819Y-47419999D02*
X36952438Y-47277142D01*
X36952438Y-47277142D02*
X37047676Y-47181904D01*
X37047676Y-47181904D02*
X37142914Y-47134285D01*
X37142914Y-47134285D02*
X37333390Y-47086666D01*
X37333390Y-47086666D02*
X37476247Y-47086666D01*
X37476247Y-47086666D02*
X37666723Y-47134285D01*
X37666723Y-47134285D02*
X37761961Y-47181904D01*
X37761961Y-47181904D02*
X37857200Y-47277142D01*
X37857200Y-47277142D02*
X37904819Y-47419999D01*
X37904819Y-47419999D02*
X37904819Y-47658094D01*
X37904819Y-46610475D02*
X37904819Y-46419999D01*
X37904819Y-46419999D02*
X37857200Y-46324761D01*
X37857200Y-46324761D02*
X37809580Y-46277142D01*
X37809580Y-46277142D02*
X37666723Y-46181904D01*
X37666723Y-46181904D02*
X37476247Y-46134285D01*
X37476247Y-46134285D02*
X37095295Y-46134285D01*
X37095295Y-46134285D02*
X37000057Y-46181904D01*
X37000057Y-46181904D02*
X36952438Y-46229523D01*
X36952438Y-46229523D02*
X36904819Y-46324761D01*
X36904819Y-46324761D02*
X36904819Y-46515237D01*
X36904819Y-46515237D02*
X36952438Y-46610475D01*
X36952438Y-46610475D02*
X37000057Y-46658094D01*
X37000057Y-46658094D02*
X37095295Y-46705713D01*
X37095295Y-46705713D02*
X37333390Y-46705713D01*
X37333390Y-46705713D02*
X37428628Y-46658094D01*
X37428628Y-46658094D02*
X37476247Y-46610475D01*
X37476247Y-46610475D02*
X37523866Y-46515237D01*
X37523866Y-46515237D02*
X37523866Y-46324761D01*
X37523866Y-46324761D02*
X37476247Y-46229523D01*
X37476247Y-46229523D02*
X37428628Y-46181904D01*
X37428628Y-46181904D02*
X37333390Y-46134285D01*
X35704819Y-52761904D02*
X34704819Y-52761904D01*
X35704819Y-52190476D02*
X35133390Y-52619047D01*
X34704819Y-52190476D02*
X35276247Y-52761904D01*
X76205714Y-40954819D02*
X76205714Y-39954819D01*
X76205714Y-39954819D02*
X76443809Y-39954819D01*
X76443809Y-39954819D02*
X76586666Y-40002438D01*
X76586666Y-40002438D02*
X76681904Y-40097676D01*
X76681904Y-40097676D02*
X76729523Y-40192914D01*
X76729523Y-40192914D02*
X76777142Y-40383390D01*
X76777142Y-40383390D02*
X76777142Y-40526247D01*
X76777142Y-40526247D02*
X76729523Y-40716723D01*
X76729523Y-40716723D02*
X76681904Y-40811961D01*
X76681904Y-40811961D02*
X76586666Y-40907200D01*
X76586666Y-40907200D02*
X76443809Y-40954819D01*
X76443809Y-40954819D02*
X76205714Y-40954819D01*
X77729523Y-40954819D02*
X77158095Y-40954819D01*
X77443809Y-40954819D02*
X77443809Y-39954819D01*
X77443809Y-39954819D02*
X77348571Y-40097676D01*
X77348571Y-40097676D02*
X77253333Y-40192914D01*
X77253333Y-40192914D02*
X77158095Y-40240533D01*
X78062857Y-39954819D02*
X78681904Y-39954819D01*
X78681904Y-39954819D02*
X78348571Y-40335771D01*
X78348571Y-40335771D02*
X78491428Y-40335771D01*
X78491428Y-40335771D02*
X78586666Y-40383390D01*
X78586666Y-40383390D02*
X78634285Y-40431009D01*
X78634285Y-40431009D02*
X78681904Y-40526247D01*
X78681904Y-40526247D02*
X78681904Y-40764342D01*
X78681904Y-40764342D02*
X78634285Y-40859580D01*
X78634285Y-40859580D02*
X78586666Y-40907200D01*
X78586666Y-40907200D02*
X78491428Y-40954819D01*
X78491428Y-40954819D02*
X78205714Y-40954819D01*
X78205714Y-40954819D02*
X78110476Y-40907200D01*
X78110476Y-40907200D02*
X78062857Y-40859580D01*
X99454819Y-85166666D02*
X98978628Y-85499999D01*
X99454819Y-85738094D02*
X98454819Y-85738094D01*
X98454819Y-85738094D02*
X98454819Y-85357142D01*
X98454819Y-85357142D02*
X98502438Y-85261904D01*
X98502438Y-85261904D02*
X98550057Y-85214285D01*
X98550057Y-85214285D02*
X98645295Y-85166666D01*
X98645295Y-85166666D02*
X98788152Y-85166666D01*
X98788152Y-85166666D02*
X98883390Y-85214285D01*
X98883390Y-85214285D02*
X98931009Y-85261904D01*
X98931009Y-85261904D02*
X98978628Y-85357142D01*
X98978628Y-85357142D02*
X98978628Y-85738094D01*
X98454819Y-84309523D02*
X98454819Y-84499999D01*
X98454819Y-84499999D02*
X98502438Y-84595237D01*
X98502438Y-84595237D02*
X98550057Y-84642856D01*
X98550057Y-84642856D02*
X98692914Y-84738094D01*
X98692914Y-84738094D02*
X98883390Y-84785713D01*
X98883390Y-84785713D02*
X99264342Y-84785713D01*
X99264342Y-84785713D02*
X99359580Y-84738094D01*
X99359580Y-84738094D02*
X99407200Y-84690475D01*
X99407200Y-84690475D02*
X99454819Y-84595237D01*
X99454819Y-84595237D02*
X99454819Y-84404761D01*
X99454819Y-84404761D02*
X99407200Y-84309523D01*
X99407200Y-84309523D02*
X99359580Y-84261904D01*
X99359580Y-84261904D02*
X99264342Y-84214285D01*
X99264342Y-84214285D02*
X99026247Y-84214285D01*
X99026247Y-84214285D02*
X98931009Y-84261904D01*
X98931009Y-84261904D02*
X98883390Y-84309523D01*
X98883390Y-84309523D02*
X98835771Y-84404761D01*
X98835771Y-84404761D02*
X98835771Y-84595237D01*
X98835771Y-84595237D02*
X98883390Y-84690475D01*
X98883390Y-84690475D02*
X98931009Y-84738094D01*
X98931009Y-84738094D02*
X99026247Y-84785713D01*
X55954819Y-85676666D02*
X55478628Y-86009999D01*
X55954819Y-86248094D02*
X54954819Y-86248094D01*
X54954819Y-86248094D02*
X54954819Y-85867142D01*
X54954819Y-85867142D02*
X55002438Y-85771904D01*
X55002438Y-85771904D02*
X55050057Y-85724285D01*
X55050057Y-85724285D02*
X55145295Y-85676666D01*
X55145295Y-85676666D02*
X55288152Y-85676666D01*
X55288152Y-85676666D02*
X55383390Y-85724285D01*
X55383390Y-85724285D02*
X55431009Y-85771904D01*
X55431009Y-85771904D02*
X55478628Y-85867142D01*
X55478628Y-85867142D02*
X55478628Y-86248094D01*
X55383390Y-85105237D02*
X55335771Y-85200475D01*
X55335771Y-85200475D02*
X55288152Y-85248094D01*
X55288152Y-85248094D02*
X55192914Y-85295713D01*
X55192914Y-85295713D02*
X55145295Y-85295713D01*
X55145295Y-85295713D02*
X55050057Y-85248094D01*
X55050057Y-85248094D02*
X55002438Y-85200475D01*
X55002438Y-85200475D02*
X54954819Y-85105237D01*
X54954819Y-85105237D02*
X54954819Y-84914761D01*
X54954819Y-84914761D02*
X55002438Y-84819523D01*
X55002438Y-84819523D02*
X55050057Y-84771904D01*
X55050057Y-84771904D02*
X55145295Y-84724285D01*
X55145295Y-84724285D02*
X55192914Y-84724285D01*
X55192914Y-84724285D02*
X55288152Y-84771904D01*
X55288152Y-84771904D02*
X55335771Y-84819523D01*
X55335771Y-84819523D02*
X55383390Y-84914761D01*
X55383390Y-84914761D02*
X55383390Y-85105237D01*
X55383390Y-85105237D02*
X55431009Y-85200475D01*
X55431009Y-85200475D02*
X55478628Y-85248094D01*
X55478628Y-85248094D02*
X55573866Y-85295713D01*
X55573866Y-85295713D02*
X55764342Y-85295713D01*
X55764342Y-85295713D02*
X55859580Y-85248094D01*
X55859580Y-85248094D02*
X55907200Y-85200475D01*
X55907200Y-85200475D02*
X55954819Y-85105237D01*
X55954819Y-85105237D02*
X55954819Y-84914761D01*
X55954819Y-84914761D02*
X55907200Y-84819523D01*
X55907200Y-84819523D02*
X55859580Y-84771904D01*
X55859580Y-84771904D02*
X55764342Y-84724285D01*
X55764342Y-84724285D02*
X55573866Y-84724285D01*
X55573866Y-84724285D02*
X55478628Y-84771904D01*
X55478628Y-84771904D02*
X55431009Y-84819523D01*
X55431009Y-84819523D02*
X55383390Y-84914761D01*
X87954819Y-61794285D02*
X86954819Y-61794285D01*
X86954819Y-61794285D02*
X86954819Y-61556190D01*
X86954819Y-61556190D02*
X87002438Y-61413333D01*
X87002438Y-61413333D02*
X87097676Y-61318095D01*
X87097676Y-61318095D02*
X87192914Y-61270476D01*
X87192914Y-61270476D02*
X87383390Y-61222857D01*
X87383390Y-61222857D02*
X87526247Y-61222857D01*
X87526247Y-61222857D02*
X87716723Y-61270476D01*
X87716723Y-61270476D02*
X87811961Y-61318095D01*
X87811961Y-61318095D02*
X87907200Y-61413333D01*
X87907200Y-61413333D02*
X87954819Y-61556190D01*
X87954819Y-61556190D02*
X87954819Y-61794285D01*
X87954819Y-60270476D02*
X87954819Y-60841904D01*
X87954819Y-60556190D02*
X86954819Y-60556190D01*
X86954819Y-60556190D02*
X87097676Y-60651428D01*
X87097676Y-60651428D02*
X87192914Y-60746666D01*
X87192914Y-60746666D02*
X87240533Y-60841904D01*
X87954819Y-59794285D02*
X87954819Y-59603809D01*
X87954819Y-59603809D02*
X87907200Y-59508571D01*
X87907200Y-59508571D02*
X87859580Y-59460952D01*
X87859580Y-59460952D02*
X87716723Y-59365714D01*
X87716723Y-59365714D02*
X87526247Y-59318095D01*
X87526247Y-59318095D02*
X87145295Y-59318095D01*
X87145295Y-59318095D02*
X87050057Y-59365714D01*
X87050057Y-59365714D02*
X87002438Y-59413333D01*
X87002438Y-59413333D02*
X86954819Y-59508571D01*
X86954819Y-59508571D02*
X86954819Y-59699047D01*
X86954819Y-59699047D02*
X87002438Y-59794285D01*
X87002438Y-59794285D02*
X87050057Y-59841904D01*
X87050057Y-59841904D02*
X87145295Y-59889523D01*
X87145295Y-59889523D02*
X87383390Y-59889523D01*
X87383390Y-59889523D02*
X87478628Y-59841904D01*
X87478628Y-59841904D02*
X87526247Y-59794285D01*
X87526247Y-59794285D02*
X87573866Y-59699047D01*
X87573866Y-59699047D02*
X87573866Y-59508571D01*
X87573866Y-59508571D02*
X87526247Y-59413333D01*
X87526247Y-59413333D02*
X87478628Y-59365714D01*
X87478628Y-59365714D02*
X87383390Y-59318095D01*
X85754819Y-66421904D02*
X84754819Y-66421904D01*
X85754819Y-65850476D02*
X85183390Y-66279047D01*
X84754819Y-65850476D02*
X85326247Y-66421904D01*
X71670714Y-85954819D02*
X71670714Y-84954819D01*
X71670714Y-84954819D02*
X71908809Y-84954819D01*
X71908809Y-84954819D02*
X72051666Y-85002438D01*
X72051666Y-85002438D02*
X72146904Y-85097676D01*
X72146904Y-85097676D02*
X72194523Y-85192914D01*
X72194523Y-85192914D02*
X72242142Y-85383390D01*
X72242142Y-85383390D02*
X72242142Y-85526247D01*
X72242142Y-85526247D02*
X72194523Y-85716723D01*
X72194523Y-85716723D02*
X72146904Y-85811961D01*
X72146904Y-85811961D02*
X72051666Y-85907200D01*
X72051666Y-85907200D02*
X71908809Y-85954819D01*
X71908809Y-85954819D02*
X71670714Y-85954819D01*
X73194523Y-85954819D02*
X72623095Y-85954819D01*
X72908809Y-85954819D02*
X72908809Y-84954819D01*
X72908809Y-84954819D02*
X72813571Y-85097676D01*
X72813571Y-85097676D02*
X72718333Y-85192914D01*
X72718333Y-85192914D02*
X72623095Y-85240533D01*
X73765952Y-85383390D02*
X73670714Y-85335771D01*
X73670714Y-85335771D02*
X73623095Y-85288152D01*
X73623095Y-85288152D02*
X73575476Y-85192914D01*
X73575476Y-85192914D02*
X73575476Y-85145295D01*
X73575476Y-85145295D02*
X73623095Y-85050057D01*
X73623095Y-85050057D02*
X73670714Y-85002438D01*
X73670714Y-85002438D02*
X73765952Y-84954819D01*
X73765952Y-84954819D02*
X73956428Y-84954819D01*
X73956428Y-84954819D02*
X74051666Y-85002438D01*
X74051666Y-85002438D02*
X74099285Y-85050057D01*
X74099285Y-85050057D02*
X74146904Y-85145295D01*
X74146904Y-85145295D02*
X74146904Y-85192914D01*
X74146904Y-85192914D02*
X74099285Y-85288152D01*
X74099285Y-85288152D02*
X74051666Y-85335771D01*
X74051666Y-85335771D02*
X73956428Y-85383390D01*
X73956428Y-85383390D02*
X73765952Y-85383390D01*
X73765952Y-85383390D02*
X73670714Y-85431009D01*
X73670714Y-85431009D02*
X73623095Y-85478628D01*
X73623095Y-85478628D02*
X73575476Y-85573866D01*
X73575476Y-85573866D02*
X73575476Y-85764342D01*
X73575476Y-85764342D02*
X73623095Y-85859580D01*
X73623095Y-85859580D02*
X73670714Y-85907200D01*
X73670714Y-85907200D02*
X73765952Y-85954819D01*
X73765952Y-85954819D02*
X73956428Y-85954819D01*
X73956428Y-85954819D02*
X74051666Y-85907200D01*
X74051666Y-85907200D02*
X74099285Y-85859580D01*
X74099285Y-85859580D02*
X74146904Y-85764342D01*
X74146904Y-85764342D02*
X74146904Y-85573866D01*
X74146904Y-85573866D02*
X74099285Y-85478628D01*
X74099285Y-85478628D02*
X74051666Y-85431009D01*
X74051666Y-85431009D02*
X73956428Y-85383390D01*
X72933095Y-81154819D02*
X72933095Y-80154819D01*
X73504523Y-81154819D02*
X73075952Y-80583390D01*
X73504523Y-80154819D02*
X72933095Y-80726247D01*
X44785714Y-40954819D02*
X44785714Y-39954819D01*
X44785714Y-39954819D02*
X45023809Y-39954819D01*
X45023809Y-39954819D02*
X45166666Y-40002438D01*
X45166666Y-40002438D02*
X45261904Y-40097676D01*
X45261904Y-40097676D02*
X45309523Y-40192914D01*
X45309523Y-40192914D02*
X45357142Y-40383390D01*
X45357142Y-40383390D02*
X45357142Y-40526247D01*
X45357142Y-40526247D02*
X45309523Y-40716723D01*
X45309523Y-40716723D02*
X45261904Y-40811961D01*
X45261904Y-40811961D02*
X45166666Y-40907200D01*
X45166666Y-40907200D02*
X45023809Y-40954819D01*
X45023809Y-40954819D02*
X44785714Y-40954819D01*
X46309523Y-40954819D02*
X45738095Y-40954819D01*
X46023809Y-40954819D02*
X46023809Y-39954819D01*
X46023809Y-39954819D02*
X45928571Y-40097676D01*
X45928571Y-40097676D02*
X45833333Y-40192914D01*
X45833333Y-40192914D02*
X45738095Y-40240533D01*
X47261904Y-40954819D02*
X46690476Y-40954819D01*
X46976190Y-40954819D02*
X46976190Y-39954819D01*
X46976190Y-39954819D02*
X46880952Y-40097676D01*
X46880952Y-40097676D02*
X46785714Y-40192914D01*
X46785714Y-40192914D02*
X46690476Y-40240533D01*
X89670714Y-85954819D02*
X89670714Y-84954819D01*
X89670714Y-84954819D02*
X89908809Y-84954819D01*
X89908809Y-84954819D02*
X90051666Y-85002438D01*
X90051666Y-85002438D02*
X90146904Y-85097676D01*
X90146904Y-85097676D02*
X90194523Y-85192914D01*
X90194523Y-85192914D02*
X90242142Y-85383390D01*
X90242142Y-85383390D02*
X90242142Y-85526247D01*
X90242142Y-85526247D02*
X90194523Y-85716723D01*
X90194523Y-85716723D02*
X90146904Y-85811961D01*
X90146904Y-85811961D02*
X90051666Y-85907200D01*
X90051666Y-85907200D02*
X89908809Y-85954819D01*
X89908809Y-85954819D02*
X89670714Y-85954819D01*
X90623095Y-85050057D02*
X90670714Y-85002438D01*
X90670714Y-85002438D02*
X90765952Y-84954819D01*
X90765952Y-84954819D02*
X91004047Y-84954819D01*
X91004047Y-84954819D02*
X91099285Y-85002438D01*
X91099285Y-85002438D02*
X91146904Y-85050057D01*
X91146904Y-85050057D02*
X91194523Y-85145295D01*
X91194523Y-85145295D02*
X91194523Y-85240533D01*
X91194523Y-85240533D02*
X91146904Y-85383390D01*
X91146904Y-85383390D02*
X90575476Y-85954819D01*
X90575476Y-85954819D02*
X91194523Y-85954819D01*
X91813571Y-84954819D02*
X91908809Y-84954819D01*
X91908809Y-84954819D02*
X92004047Y-85002438D01*
X92004047Y-85002438D02*
X92051666Y-85050057D01*
X92051666Y-85050057D02*
X92099285Y-85145295D01*
X92099285Y-85145295D02*
X92146904Y-85335771D01*
X92146904Y-85335771D02*
X92146904Y-85573866D01*
X92146904Y-85573866D02*
X92099285Y-85764342D01*
X92099285Y-85764342D02*
X92051666Y-85859580D01*
X92051666Y-85859580D02*
X92004047Y-85907200D01*
X92004047Y-85907200D02*
X91908809Y-85954819D01*
X91908809Y-85954819D02*
X91813571Y-85954819D01*
X91813571Y-85954819D02*
X91718333Y-85907200D01*
X91718333Y-85907200D02*
X91670714Y-85859580D01*
X91670714Y-85859580D02*
X91623095Y-85764342D01*
X91623095Y-85764342D02*
X91575476Y-85573866D01*
X91575476Y-85573866D02*
X91575476Y-85335771D01*
X91575476Y-85335771D02*
X91623095Y-85145295D01*
X91623095Y-85145295D02*
X91670714Y-85050057D01*
X91670714Y-85050057D02*
X91718333Y-85002438D01*
X91718333Y-85002438D02*
X91813571Y-84954819D01*
X90933095Y-81154819D02*
X90933095Y-80154819D01*
X91504523Y-81154819D02*
X91075952Y-80583390D01*
X91504523Y-80154819D02*
X90933095Y-80726247D01*
X95454819Y-86214285D02*
X94454819Y-86214285D01*
X94454819Y-86214285D02*
X94454819Y-85976190D01*
X94454819Y-85976190D02*
X94502438Y-85833333D01*
X94502438Y-85833333D02*
X94597676Y-85738095D01*
X94597676Y-85738095D02*
X94692914Y-85690476D01*
X94692914Y-85690476D02*
X94883390Y-85642857D01*
X94883390Y-85642857D02*
X95026247Y-85642857D01*
X95026247Y-85642857D02*
X95216723Y-85690476D01*
X95216723Y-85690476D02*
X95311961Y-85738095D01*
X95311961Y-85738095D02*
X95407200Y-85833333D01*
X95407200Y-85833333D02*
X95454819Y-85976190D01*
X95454819Y-85976190D02*
X95454819Y-86214285D01*
X94550057Y-85261904D02*
X94502438Y-85214285D01*
X94502438Y-85214285D02*
X94454819Y-85119047D01*
X94454819Y-85119047D02*
X94454819Y-84880952D01*
X94454819Y-84880952D02*
X94502438Y-84785714D01*
X94502438Y-84785714D02*
X94550057Y-84738095D01*
X94550057Y-84738095D02*
X94645295Y-84690476D01*
X94645295Y-84690476D02*
X94740533Y-84690476D01*
X94740533Y-84690476D02*
X94883390Y-84738095D01*
X94883390Y-84738095D02*
X95454819Y-85309523D01*
X95454819Y-85309523D02*
X95454819Y-84690476D01*
X94788152Y-83833333D02*
X95454819Y-83833333D01*
X94407200Y-84071428D02*
X95121485Y-84309523D01*
X95121485Y-84309523D02*
X95121485Y-83690476D01*
X93354819Y-89371904D02*
X92354819Y-89371904D01*
X93354819Y-88800476D02*
X92783390Y-89229047D01*
X92354819Y-88800476D02*
X92926247Y-89371904D01*
X78416666Y-16954819D02*
X78416666Y-17669104D01*
X78416666Y-17669104D02*
X78369047Y-17811961D01*
X78369047Y-17811961D02*
X78273809Y-17907200D01*
X78273809Y-17907200D02*
X78130952Y-17954819D01*
X78130952Y-17954819D02*
X78035714Y-17954819D01*
X78845238Y-17050057D02*
X78892857Y-17002438D01*
X78892857Y-17002438D02*
X78988095Y-16954819D01*
X78988095Y-16954819D02*
X79226190Y-16954819D01*
X79226190Y-16954819D02*
X79321428Y-17002438D01*
X79321428Y-17002438D02*
X79369047Y-17050057D01*
X79369047Y-17050057D02*
X79416666Y-17145295D01*
X79416666Y-17145295D02*
X79416666Y-17240533D01*
X79416666Y-17240533D02*
X79369047Y-17383390D01*
X79369047Y-17383390D02*
X78797619Y-17954819D01*
X78797619Y-17954819D02*
X79416666Y-17954819D01*
X77454819Y-86224285D02*
X76454819Y-86224285D01*
X76454819Y-86224285D02*
X76454819Y-85986190D01*
X76454819Y-85986190D02*
X76502438Y-85843333D01*
X76502438Y-85843333D02*
X76597676Y-85748095D01*
X76597676Y-85748095D02*
X76692914Y-85700476D01*
X76692914Y-85700476D02*
X76883390Y-85652857D01*
X76883390Y-85652857D02*
X77026247Y-85652857D01*
X77026247Y-85652857D02*
X77216723Y-85700476D01*
X77216723Y-85700476D02*
X77311961Y-85748095D01*
X77311961Y-85748095D02*
X77407200Y-85843333D01*
X77407200Y-85843333D02*
X77454819Y-85986190D01*
X77454819Y-85986190D02*
X77454819Y-86224285D01*
X76550057Y-85271904D02*
X76502438Y-85224285D01*
X76502438Y-85224285D02*
X76454819Y-85129047D01*
X76454819Y-85129047D02*
X76454819Y-84890952D01*
X76454819Y-84890952D02*
X76502438Y-84795714D01*
X76502438Y-84795714D02*
X76550057Y-84748095D01*
X76550057Y-84748095D02*
X76645295Y-84700476D01*
X76645295Y-84700476D02*
X76740533Y-84700476D01*
X76740533Y-84700476D02*
X76883390Y-84748095D01*
X76883390Y-84748095D02*
X77454819Y-85319523D01*
X77454819Y-85319523D02*
X77454819Y-84700476D01*
X76454819Y-84367142D02*
X76454819Y-83748095D01*
X76454819Y-83748095D02*
X76835771Y-84081428D01*
X76835771Y-84081428D02*
X76835771Y-83938571D01*
X76835771Y-83938571D02*
X76883390Y-83843333D01*
X76883390Y-83843333D02*
X76931009Y-83795714D01*
X76931009Y-83795714D02*
X77026247Y-83748095D01*
X77026247Y-83748095D02*
X77264342Y-83748095D01*
X77264342Y-83748095D02*
X77359580Y-83795714D01*
X77359580Y-83795714D02*
X77407200Y-83843333D01*
X77407200Y-83843333D02*
X77454819Y-83938571D01*
X77454819Y-83938571D02*
X77454819Y-84224285D01*
X77454819Y-84224285D02*
X77407200Y-84319523D01*
X77407200Y-84319523D02*
X77359580Y-84367142D01*
X75354819Y-89381904D02*
X74354819Y-89381904D01*
X75354819Y-88810476D02*
X74783390Y-89239047D01*
X74354819Y-88810476D02*
X74926247Y-89381904D01*
X92629761Y-29770057D02*
X92534523Y-29722438D01*
X92534523Y-29722438D02*
X92439285Y-29627200D01*
X92439285Y-29627200D02*
X92296428Y-29484342D01*
X92296428Y-29484342D02*
X92201190Y-29436723D01*
X92201190Y-29436723D02*
X92105952Y-29436723D01*
X92153571Y-29674819D02*
X92058333Y-29627200D01*
X92058333Y-29627200D02*
X91963095Y-29531961D01*
X91963095Y-29531961D02*
X91915476Y-29341485D01*
X91915476Y-29341485D02*
X91915476Y-29008152D01*
X91915476Y-29008152D02*
X91963095Y-28817676D01*
X91963095Y-28817676D02*
X92058333Y-28722438D01*
X92058333Y-28722438D02*
X92153571Y-28674819D01*
X92153571Y-28674819D02*
X92344047Y-28674819D01*
X92344047Y-28674819D02*
X92439285Y-28722438D01*
X92439285Y-28722438D02*
X92534523Y-28817676D01*
X92534523Y-28817676D02*
X92582142Y-29008152D01*
X92582142Y-29008152D02*
X92582142Y-29341485D01*
X92582142Y-29341485D02*
X92534523Y-29531961D01*
X92534523Y-29531961D02*
X92439285Y-29627200D01*
X92439285Y-29627200D02*
X92344047Y-29674819D01*
X92344047Y-29674819D02*
X92153571Y-29674819D01*
X92915476Y-28674819D02*
X93534523Y-28674819D01*
X93534523Y-28674819D02*
X93201190Y-29055771D01*
X93201190Y-29055771D02*
X93344047Y-29055771D01*
X93344047Y-29055771D02*
X93439285Y-29103390D01*
X93439285Y-29103390D02*
X93486904Y-29151009D01*
X93486904Y-29151009D02*
X93534523Y-29246247D01*
X93534523Y-29246247D02*
X93534523Y-29484342D01*
X93534523Y-29484342D02*
X93486904Y-29579580D01*
X93486904Y-29579580D02*
X93439285Y-29627200D01*
X93439285Y-29627200D02*
X93344047Y-29674819D01*
X93344047Y-29674819D02*
X93058333Y-29674819D01*
X93058333Y-29674819D02*
X92963095Y-29627200D01*
X92963095Y-29627200D02*
X92915476Y-29579580D01*
X39954819Y-26738094D02*
X38954819Y-26738094D01*
X38954819Y-26738094D02*
X38954819Y-26499999D01*
X38954819Y-26499999D02*
X39002438Y-26357142D01*
X39002438Y-26357142D02*
X39097676Y-26261904D01*
X39097676Y-26261904D02*
X39192914Y-26214285D01*
X39192914Y-26214285D02*
X39383390Y-26166666D01*
X39383390Y-26166666D02*
X39526247Y-26166666D01*
X39526247Y-26166666D02*
X39716723Y-26214285D01*
X39716723Y-26214285D02*
X39811961Y-26261904D01*
X39811961Y-26261904D02*
X39907200Y-26357142D01*
X39907200Y-26357142D02*
X39954819Y-26499999D01*
X39954819Y-26499999D02*
X39954819Y-26738094D01*
X39954819Y-25214285D02*
X39954819Y-25785713D01*
X39954819Y-25499999D02*
X38954819Y-25499999D01*
X38954819Y-25499999D02*
X39097676Y-25595237D01*
X39097676Y-25595237D02*
X39192914Y-25690475D01*
X39192914Y-25690475D02*
X39240533Y-25785713D01*
X31928095Y-28754819D02*
X31928095Y-27754819D01*
X32499523Y-28754819D02*
X32070952Y-28183390D01*
X32499523Y-27754819D02*
X31928095Y-28326247D01*
X42454819Y-24166666D02*
X41978628Y-24499999D01*
X42454819Y-24738094D02*
X41454819Y-24738094D01*
X41454819Y-24738094D02*
X41454819Y-24357142D01*
X41454819Y-24357142D02*
X41502438Y-24261904D01*
X41502438Y-24261904D02*
X41550057Y-24214285D01*
X41550057Y-24214285D02*
X41645295Y-24166666D01*
X41645295Y-24166666D02*
X41788152Y-24166666D01*
X41788152Y-24166666D02*
X41883390Y-24214285D01*
X41883390Y-24214285D02*
X41931009Y-24261904D01*
X41931009Y-24261904D02*
X41978628Y-24357142D01*
X41978628Y-24357142D02*
X41978628Y-24738094D01*
X41550057Y-23785713D02*
X41502438Y-23738094D01*
X41502438Y-23738094D02*
X41454819Y-23642856D01*
X41454819Y-23642856D02*
X41454819Y-23404761D01*
X41454819Y-23404761D02*
X41502438Y-23309523D01*
X41502438Y-23309523D02*
X41550057Y-23261904D01*
X41550057Y-23261904D02*
X41645295Y-23214285D01*
X41645295Y-23214285D02*
X41740533Y-23214285D01*
X41740533Y-23214285D02*
X41883390Y-23261904D01*
X41883390Y-23261904D02*
X42454819Y-23833332D01*
X42454819Y-23833332D02*
X42454819Y-23214285D01*
X72454819Y-24166666D02*
X71978628Y-24499999D01*
X72454819Y-24738094D02*
X71454819Y-24738094D01*
X71454819Y-24738094D02*
X71454819Y-24357142D01*
X71454819Y-24357142D02*
X71502438Y-24261904D01*
X71502438Y-24261904D02*
X71550057Y-24214285D01*
X71550057Y-24214285D02*
X71645295Y-24166666D01*
X71645295Y-24166666D02*
X71788152Y-24166666D01*
X71788152Y-24166666D02*
X71883390Y-24214285D01*
X71883390Y-24214285D02*
X71931009Y-24261904D01*
X71931009Y-24261904D02*
X71978628Y-24357142D01*
X71978628Y-24357142D02*
X71978628Y-24738094D01*
X71454819Y-23833332D02*
X71454819Y-23214285D01*
X71454819Y-23214285D02*
X71835771Y-23547618D01*
X71835771Y-23547618D02*
X71835771Y-23404761D01*
X71835771Y-23404761D02*
X71883390Y-23309523D01*
X71883390Y-23309523D02*
X71931009Y-23261904D01*
X71931009Y-23261904D02*
X72026247Y-23214285D01*
X72026247Y-23214285D02*
X72264342Y-23214285D01*
X72264342Y-23214285D02*
X72359580Y-23261904D01*
X72359580Y-23261904D02*
X72407200Y-23309523D01*
X72407200Y-23309523D02*
X72454819Y-23404761D01*
X72454819Y-23404761D02*
X72454819Y-23690475D01*
X72454819Y-23690475D02*
X72407200Y-23785713D01*
X72407200Y-23785713D02*
X72359580Y-23833332D01*
X86916666Y-90954819D02*
X86916666Y-91669104D01*
X86916666Y-91669104D02*
X86869047Y-91811961D01*
X86869047Y-91811961D02*
X86773809Y-91907200D01*
X86773809Y-91907200D02*
X86630952Y-91954819D01*
X86630952Y-91954819D02*
X86535714Y-91954819D01*
X87821428Y-90954819D02*
X87630952Y-90954819D01*
X87630952Y-90954819D02*
X87535714Y-91002438D01*
X87535714Y-91002438D02*
X87488095Y-91050057D01*
X87488095Y-91050057D02*
X87392857Y-91192914D01*
X87392857Y-91192914D02*
X87345238Y-91383390D01*
X87345238Y-91383390D02*
X87345238Y-91764342D01*
X87345238Y-91764342D02*
X87392857Y-91859580D01*
X87392857Y-91859580D02*
X87440476Y-91907200D01*
X87440476Y-91907200D02*
X87535714Y-91954819D01*
X87535714Y-91954819D02*
X87726190Y-91954819D01*
X87726190Y-91954819D02*
X87821428Y-91907200D01*
X87821428Y-91907200D02*
X87869047Y-91859580D01*
X87869047Y-91859580D02*
X87916666Y-91764342D01*
X87916666Y-91764342D02*
X87916666Y-91526247D01*
X87916666Y-91526247D02*
X87869047Y-91431009D01*
X87869047Y-91431009D02*
X87821428Y-91383390D01*
X87821428Y-91383390D02*
X87726190Y-91335771D01*
X87726190Y-91335771D02*
X87535714Y-91335771D01*
X87535714Y-91335771D02*
X87440476Y-91383390D01*
X87440476Y-91383390D02*
X87392857Y-91431009D01*
X87392857Y-91431009D02*
X87345238Y-91526247D01*
X87954819Y-49134285D02*
X86954819Y-49134285D01*
X86954819Y-49134285D02*
X86954819Y-48896190D01*
X86954819Y-48896190D02*
X87002438Y-48753333D01*
X87002438Y-48753333D02*
X87097676Y-48658095D01*
X87097676Y-48658095D02*
X87192914Y-48610476D01*
X87192914Y-48610476D02*
X87383390Y-48562857D01*
X87383390Y-48562857D02*
X87526247Y-48562857D01*
X87526247Y-48562857D02*
X87716723Y-48610476D01*
X87716723Y-48610476D02*
X87811961Y-48658095D01*
X87811961Y-48658095D02*
X87907200Y-48753333D01*
X87907200Y-48753333D02*
X87954819Y-48896190D01*
X87954819Y-48896190D02*
X87954819Y-49134285D01*
X87954819Y-47610476D02*
X87954819Y-48181904D01*
X87954819Y-47896190D02*
X86954819Y-47896190D01*
X86954819Y-47896190D02*
X87097676Y-47991428D01*
X87097676Y-47991428D02*
X87192914Y-48086666D01*
X87192914Y-48086666D02*
X87240533Y-48181904D01*
X87050057Y-47229523D02*
X87002438Y-47181904D01*
X87002438Y-47181904D02*
X86954819Y-47086666D01*
X86954819Y-47086666D02*
X86954819Y-46848571D01*
X86954819Y-46848571D02*
X87002438Y-46753333D01*
X87002438Y-46753333D02*
X87050057Y-46705714D01*
X87050057Y-46705714D02*
X87145295Y-46658095D01*
X87145295Y-46658095D02*
X87240533Y-46658095D01*
X87240533Y-46658095D02*
X87383390Y-46705714D01*
X87383390Y-46705714D02*
X87954819Y-47277142D01*
X87954819Y-47277142D02*
X87954819Y-46658095D01*
X90154819Y-42601904D02*
X89154819Y-42601904D01*
X90154819Y-42030476D02*
X89583390Y-42459047D01*
X89154819Y-42030476D02*
X89726247Y-42601904D01*
X58515476Y-55017200D02*
X58658333Y-55064819D01*
X58658333Y-55064819D02*
X58896428Y-55064819D01*
X58896428Y-55064819D02*
X58991666Y-55017200D01*
X58991666Y-55017200D02*
X59039285Y-54969580D01*
X59039285Y-54969580D02*
X59086904Y-54874342D01*
X59086904Y-54874342D02*
X59086904Y-54779104D01*
X59086904Y-54779104D02*
X59039285Y-54683866D01*
X59039285Y-54683866D02*
X58991666Y-54636247D01*
X58991666Y-54636247D02*
X58896428Y-54588628D01*
X58896428Y-54588628D02*
X58705952Y-54541009D01*
X58705952Y-54541009D02*
X58610714Y-54493390D01*
X58610714Y-54493390D02*
X58563095Y-54445771D01*
X58563095Y-54445771D02*
X58515476Y-54350533D01*
X58515476Y-54350533D02*
X58515476Y-54255295D01*
X58515476Y-54255295D02*
X58563095Y-54160057D01*
X58563095Y-54160057D02*
X58610714Y-54112438D01*
X58610714Y-54112438D02*
X58705952Y-54064819D01*
X58705952Y-54064819D02*
X58944047Y-54064819D01*
X58944047Y-54064819D02*
X59086904Y-54112438D01*
X59515476Y-54398152D02*
X59515476Y-55064819D01*
X59515476Y-54493390D02*
X59563095Y-54445771D01*
X59563095Y-54445771D02*
X59658333Y-54398152D01*
X59658333Y-54398152D02*
X59801190Y-54398152D01*
X59801190Y-54398152D02*
X59896428Y-54445771D01*
X59896428Y-54445771D02*
X59944047Y-54541009D01*
X59944047Y-54541009D02*
X59944047Y-55064819D01*
X60848809Y-54398152D02*
X60848809Y-55064819D01*
X60420238Y-54398152D02*
X60420238Y-54921961D01*
X60420238Y-54921961D02*
X60467857Y-55017200D01*
X60467857Y-55017200D02*
X60563095Y-55064819D01*
X60563095Y-55064819D02*
X60705952Y-55064819D01*
X60705952Y-55064819D02*
X60801190Y-55017200D01*
X60801190Y-55017200D02*
X60848809Y-54969580D01*
X61325000Y-55064819D02*
X61325000Y-54064819D01*
X61325000Y-54445771D02*
X61420238Y-54398152D01*
X61420238Y-54398152D02*
X61610714Y-54398152D01*
X61610714Y-54398152D02*
X61705952Y-54445771D01*
X61705952Y-54445771D02*
X61753571Y-54493390D01*
X61753571Y-54493390D02*
X61801190Y-54588628D01*
X61801190Y-54588628D02*
X61801190Y-54874342D01*
X61801190Y-54874342D02*
X61753571Y-54969580D01*
X61753571Y-54969580D02*
X61705952Y-55017200D01*
X61705952Y-55017200D02*
X61610714Y-55064819D01*
X61610714Y-55064819D02*
X61420238Y-55064819D01*
X61420238Y-55064819D02*
X61325000Y-55017200D01*
X62229762Y-55064819D02*
X62229762Y-54064819D01*
X62229762Y-54445771D02*
X62325000Y-54398152D01*
X62325000Y-54398152D02*
X62515476Y-54398152D01*
X62515476Y-54398152D02*
X62610714Y-54445771D01*
X62610714Y-54445771D02*
X62658333Y-54493390D01*
X62658333Y-54493390D02*
X62705952Y-54588628D01*
X62705952Y-54588628D02*
X62705952Y-54874342D01*
X62705952Y-54874342D02*
X62658333Y-54969580D01*
X62658333Y-54969580D02*
X62610714Y-55017200D01*
X62610714Y-55017200D02*
X62515476Y-55064819D01*
X62515476Y-55064819D02*
X62325000Y-55064819D01*
X62325000Y-55064819D02*
X62229762Y-55017200D01*
X63515476Y-55017200D02*
X63420238Y-55064819D01*
X63420238Y-55064819D02*
X63229762Y-55064819D01*
X63229762Y-55064819D02*
X63134524Y-55017200D01*
X63134524Y-55017200D02*
X63086905Y-54921961D01*
X63086905Y-54921961D02*
X63086905Y-54541009D01*
X63086905Y-54541009D02*
X63134524Y-54445771D01*
X63134524Y-54445771D02*
X63229762Y-54398152D01*
X63229762Y-54398152D02*
X63420238Y-54398152D01*
X63420238Y-54398152D02*
X63515476Y-54445771D01*
X63515476Y-54445771D02*
X63563095Y-54541009D01*
X63563095Y-54541009D02*
X63563095Y-54636247D01*
X63563095Y-54636247D02*
X63086905Y-54731485D01*
X63991667Y-55064819D02*
X63991667Y-54398152D01*
X63991667Y-54588628D02*
X64039286Y-54493390D01*
X64039286Y-54493390D02*
X64086905Y-54445771D01*
X64086905Y-54445771D02*
X64182143Y-54398152D01*
X64182143Y-54398152D02*
X64277381Y-54398152D01*
X65134524Y-55064819D02*
X64563096Y-55064819D01*
X64848810Y-55064819D02*
X64848810Y-54064819D01*
X64848810Y-54064819D02*
X64753572Y-54207676D01*
X64753572Y-54207676D02*
X64658334Y-54302914D01*
X64658334Y-54302914D02*
X64563096Y-54350533D01*
X58144819Y-26738094D02*
X57144819Y-26738094D01*
X57144819Y-26738094D02*
X57144819Y-26499999D01*
X57144819Y-26499999D02*
X57192438Y-26357142D01*
X57192438Y-26357142D02*
X57287676Y-26261904D01*
X57287676Y-26261904D02*
X57382914Y-26214285D01*
X57382914Y-26214285D02*
X57573390Y-26166666D01*
X57573390Y-26166666D02*
X57716247Y-26166666D01*
X57716247Y-26166666D02*
X57906723Y-26214285D01*
X57906723Y-26214285D02*
X58001961Y-26261904D01*
X58001961Y-26261904D02*
X58097200Y-26357142D01*
X58097200Y-26357142D02*
X58144819Y-26499999D01*
X58144819Y-26499999D02*
X58144819Y-26738094D01*
X57478152Y-25309523D02*
X58144819Y-25309523D01*
X57097200Y-25547618D02*
X57811485Y-25785713D01*
X57811485Y-25785713D02*
X57811485Y-25166666D01*
X49928095Y-28754819D02*
X49928095Y-27754819D01*
X50499523Y-28754819D02*
X50070952Y-28183390D01*
X50499523Y-27754819D02*
X49928095Y-28326247D01*
X24454819Y-24166666D02*
X23978628Y-24499999D01*
X24454819Y-24738094D02*
X23454819Y-24738094D01*
X23454819Y-24738094D02*
X23454819Y-24357142D01*
X23454819Y-24357142D02*
X23502438Y-24261904D01*
X23502438Y-24261904D02*
X23550057Y-24214285D01*
X23550057Y-24214285D02*
X23645295Y-24166666D01*
X23645295Y-24166666D02*
X23788152Y-24166666D01*
X23788152Y-24166666D02*
X23883390Y-24214285D01*
X23883390Y-24214285D02*
X23931009Y-24261904D01*
X23931009Y-24261904D02*
X23978628Y-24357142D01*
X23978628Y-24357142D02*
X23978628Y-24738094D01*
X24454819Y-23214285D02*
X24454819Y-23785713D01*
X24454819Y-23499999D02*
X23454819Y-23499999D01*
X23454819Y-23499999D02*
X23597676Y-23595237D01*
X23597676Y-23595237D02*
X23692914Y-23690475D01*
X23692914Y-23690475D02*
X23740533Y-23785713D01*
X77404761Y-75550057D02*
X77309523Y-75502438D01*
X77309523Y-75502438D02*
X77214285Y-75407200D01*
X77214285Y-75407200D02*
X77071428Y-75264342D01*
X77071428Y-75264342D02*
X76976190Y-75216723D01*
X76976190Y-75216723D02*
X76880952Y-75216723D01*
X76928571Y-75454819D02*
X76833333Y-75407200D01*
X76833333Y-75407200D02*
X76738095Y-75311961D01*
X76738095Y-75311961D02*
X76690476Y-75121485D01*
X76690476Y-75121485D02*
X76690476Y-74788152D01*
X76690476Y-74788152D02*
X76738095Y-74597676D01*
X76738095Y-74597676D02*
X76833333Y-74502438D01*
X76833333Y-74502438D02*
X76928571Y-74454819D01*
X76928571Y-74454819D02*
X77119047Y-74454819D01*
X77119047Y-74454819D02*
X77214285Y-74502438D01*
X77214285Y-74502438D02*
X77309523Y-74597676D01*
X77309523Y-74597676D02*
X77357142Y-74788152D01*
X77357142Y-74788152D02*
X77357142Y-75121485D01*
X77357142Y-75121485D02*
X77309523Y-75311961D01*
X77309523Y-75311961D02*
X77214285Y-75407200D01*
X77214285Y-75407200D02*
X77119047Y-75454819D01*
X77119047Y-75454819D02*
X76928571Y-75454819D01*
X77690476Y-74454819D02*
X78357142Y-74454819D01*
X78357142Y-74454819D02*
X77928571Y-75454819D01*
X44825714Y-69454819D02*
X44825714Y-68454819D01*
X44825714Y-68454819D02*
X45063809Y-68454819D01*
X45063809Y-68454819D02*
X45206666Y-68502438D01*
X45206666Y-68502438D02*
X45301904Y-68597676D01*
X45301904Y-68597676D02*
X45349523Y-68692914D01*
X45349523Y-68692914D02*
X45397142Y-68883390D01*
X45397142Y-68883390D02*
X45397142Y-69026247D01*
X45397142Y-69026247D02*
X45349523Y-69216723D01*
X45349523Y-69216723D02*
X45301904Y-69311961D01*
X45301904Y-69311961D02*
X45206666Y-69407200D01*
X45206666Y-69407200D02*
X45063809Y-69454819D01*
X45063809Y-69454819D02*
X44825714Y-69454819D01*
X46349523Y-69454819D02*
X45778095Y-69454819D01*
X46063809Y-69454819D02*
X46063809Y-68454819D01*
X46063809Y-68454819D02*
X45968571Y-68597676D01*
X45968571Y-68597676D02*
X45873333Y-68692914D01*
X45873333Y-68692914D02*
X45778095Y-68740533D01*
X47254285Y-68454819D02*
X46778095Y-68454819D01*
X46778095Y-68454819D02*
X46730476Y-68931009D01*
X46730476Y-68931009D02*
X46778095Y-68883390D01*
X46778095Y-68883390D02*
X46873333Y-68835771D01*
X46873333Y-68835771D02*
X47111428Y-68835771D01*
X47111428Y-68835771D02*
X47206666Y-68883390D01*
X47206666Y-68883390D02*
X47254285Y-68931009D01*
X47254285Y-68931009D02*
X47301904Y-69026247D01*
X47301904Y-69026247D02*
X47301904Y-69264342D01*
X47301904Y-69264342D02*
X47254285Y-69359580D01*
X47254285Y-69359580D02*
X47206666Y-69407200D01*
X47206666Y-69407200D02*
X47111428Y-69454819D01*
X47111428Y-69454819D02*
X46873333Y-69454819D01*
X46873333Y-69454819D02*
X46778095Y-69407200D01*
X46778095Y-69407200D02*
X46730476Y-69359580D01*
X95404761Y-75550057D02*
X95309523Y-75502438D01*
X95309523Y-75502438D02*
X95214285Y-75407200D01*
X95214285Y-75407200D02*
X95071428Y-75264342D01*
X95071428Y-75264342D02*
X94976190Y-75216723D01*
X94976190Y-75216723D02*
X94880952Y-75216723D01*
X94928571Y-75454819D02*
X94833333Y-75407200D01*
X94833333Y-75407200D02*
X94738095Y-75311961D01*
X94738095Y-75311961D02*
X94690476Y-75121485D01*
X94690476Y-75121485D02*
X94690476Y-74788152D01*
X94690476Y-74788152D02*
X94738095Y-74597676D01*
X94738095Y-74597676D02*
X94833333Y-74502438D01*
X94833333Y-74502438D02*
X94928571Y-74454819D01*
X94928571Y-74454819D02*
X95119047Y-74454819D01*
X95119047Y-74454819D02*
X95214285Y-74502438D01*
X95214285Y-74502438D02*
X95309523Y-74597676D01*
X95309523Y-74597676D02*
X95357142Y-74788152D01*
X95357142Y-74788152D02*
X95357142Y-75121485D01*
X95357142Y-75121485D02*
X95309523Y-75311961D01*
X95309523Y-75311961D02*
X95214285Y-75407200D01*
X95214285Y-75407200D02*
X95119047Y-75454819D01*
X95119047Y-75454819D02*
X94928571Y-75454819D01*
X95928571Y-74883390D02*
X95833333Y-74835771D01*
X95833333Y-74835771D02*
X95785714Y-74788152D01*
X95785714Y-74788152D02*
X95738095Y-74692914D01*
X95738095Y-74692914D02*
X95738095Y-74645295D01*
X95738095Y-74645295D02*
X95785714Y-74550057D01*
X95785714Y-74550057D02*
X95833333Y-74502438D01*
X95833333Y-74502438D02*
X95928571Y-74454819D01*
X95928571Y-74454819D02*
X96119047Y-74454819D01*
X96119047Y-74454819D02*
X96214285Y-74502438D01*
X96214285Y-74502438D02*
X96261904Y-74550057D01*
X96261904Y-74550057D02*
X96309523Y-74645295D01*
X96309523Y-74645295D02*
X96309523Y-74692914D01*
X96309523Y-74692914D02*
X96261904Y-74788152D01*
X96261904Y-74788152D02*
X96214285Y-74835771D01*
X96214285Y-74835771D02*
X96119047Y-74883390D01*
X96119047Y-74883390D02*
X95928571Y-74883390D01*
X95928571Y-74883390D02*
X95833333Y-74931009D01*
X95833333Y-74931009D02*
X95785714Y-74978628D01*
X95785714Y-74978628D02*
X95738095Y-75073866D01*
X95738095Y-75073866D02*
X95738095Y-75264342D01*
X95738095Y-75264342D02*
X95785714Y-75359580D01*
X95785714Y-75359580D02*
X95833333Y-75407200D01*
X95833333Y-75407200D02*
X95928571Y-75454819D01*
X95928571Y-75454819D02*
X96119047Y-75454819D01*
X96119047Y-75454819D02*
X96214285Y-75407200D01*
X96214285Y-75407200D02*
X96261904Y-75359580D01*
X96261904Y-75359580D02*
X96309523Y-75264342D01*
X96309523Y-75264342D02*
X96309523Y-75073866D01*
X96309523Y-75073866D02*
X96261904Y-74978628D01*
X96261904Y-74978628D02*
X96214285Y-74931009D01*
X96214285Y-74931009D02*
X96119047Y-74883390D01*
X38004819Y-85376666D02*
X37528628Y-85709999D01*
X38004819Y-85948094D02*
X37004819Y-85948094D01*
X37004819Y-85948094D02*
X37004819Y-85567142D01*
X37004819Y-85567142D02*
X37052438Y-85471904D01*
X37052438Y-85471904D02*
X37100057Y-85424285D01*
X37100057Y-85424285D02*
X37195295Y-85376666D01*
X37195295Y-85376666D02*
X37338152Y-85376666D01*
X37338152Y-85376666D02*
X37433390Y-85424285D01*
X37433390Y-85424285D02*
X37481009Y-85471904D01*
X37481009Y-85471904D02*
X37528628Y-85567142D01*
X37528628Y-85567142D02*
X37528628Y-85948094D01*
X37004819Y-85043332D02*
X37004819Y-84376666D01*
X37004819Y-84376666D02*
X38004819Y-84805237D01*
X76325714Y-69454819D02*
X76325714Y-68454819D01*
X76325714Y-68454819D02*
X76563809Y-68454819D01*
X76563809Y-68454819D02*
X76706666Y-68502438D01*
X76706666Y-68502438D02*
X76801904Y-68597676D01*
X76801904Y-68597676D02*
X76849523Y-68692914D01*
X76849523Y-68692914D02*
X76897142Y-68883390D01*
X76897142Y-68883390D02*
X76897142Y-69026247D01*
X76897142Y-69026247D02*
X76849523Y-69216723D01*
X76849523Y-69216723D02*
X76801904Y-69311961D01*
X76801904Y-69311961D02*
X76706666Y-69407200D01*
X76706666Y-69407200D02*
X76563809Y-69454819D01*
X76563809Y-69454819D02*
X76325714Y-69454819D01*
X77849523Y-69454819D02*
X77278095Y-69454819D01*
X77563809Y-69454819D02*
X77563809Y-68454819D01*
X77563809Y-68454819D02*
X77468571Y-68597676D01*
X77468571Y-68597676D02*
X77373333Y-68692914D01*
X77373333Y-68692914D02*
X77278095Y-68740533D01*
X78182857Y-68454819D02*
X78849523Y-68454819D01*
X78849523Y-68454819D02*
X78420952Y-69454819D01*
X86954819Y-24748094D02*
X85954819Y-24748094D01*
X85954819Y-24748094D02*
X85954819Y-24509999D01*
X85954819Y-24509999D02*
X86002438Y-24367142D01*
X86002438Y-24367142D02*
X86097676Y-24271904D01*
X86097676Y-24271904D02*
X86192914Y-24224285D01*
X86192914Y-24224285D02*
X86383390Y-24176666D01*
X86383390Y-24176666D02*
X86526247Y-24176666D01*
X86526247Y-24176666D02*
X86716723Y-24224285D01*
X86716723Y-24224285D02*
X86811961Y-24271904D01*
X86811961Y-24271904D02*
X86907200Y-24367142D01*
X86907200Y-24367142D02*
X86954819Y-24509999D01*
X86954819Y-24509999D02*
X86954819Y-24748094D01*
X85954819Y-23843332D02*
X85954819Y-23176666D01*
X85954819Y-23176666D02*
X86954819Y-23605237D01*
X84954819Y-20271904D02*
X83954819Y-20271904D01*
X84954819Y-19700476D02*
X84383390Y-20129047D01*
X83954819Y-19700476D02*
X84526247Y-20271904D01*
X48854761Y-29770057D02*
X48759523Y-29722438D01*
X48759523Y-29722438D02*
X48664285Y-29627200D01*
X48664285Y-29627200D02*
X48521428Y-29484342D01*
X48521428Y-29484342D02*
X48426190Y-29436723D01*
X48426190Y-29436723D02*
X48330952Y-29436723D01*
X48378571Y-29674819D02*
X48283333Y-29627200D01*
X48283333Y-29627200D02*
X48188095Y-29531961D01*
X48188095Y-29531961D02*
X48140476Y-29341485D01*
X48140476Y-29341485D02*
X48140476Y-29008152D01*
X48140476Y-29008152D02*
X48188095Y-28817676D01*
X48188095Y-28817676D02*
X48283333Y-28722438D01*
X48283333Y-28722438D02*
X48378571Y-28674819D01*
X48378571Y-28674819D02*
X48569047Y-28674819D01*
X48569047Y-28674819D02*
X48664285Y-28722438D01*
X48664285Y-28722438D02*
X48759523Y-28817676D01*
X48759523Y-28817676D02*
X48807142Y-29008152D01*
X48807142Y-29008152D02*
X48807142Y-29341485D01*
X48807142Y-29341485D02*
X48759523Y-29531961D01*
X48759523Y-29531961D02*
X48664285Y-29627200D01*
X48664285Y-29627200D02*
X48569047Y-29674819D01*
X48569047Y-29674819D02*
X48378571Y-29674819D01*
X49188095Y-28770057D02*
X49235714Y-28722438D01*
X49235714Y-28722438D02*
X49330952Y-28674819D01*
X49330952Y-28674819D02*
X49569047Y-28674819D01*
X49569047Y-28674819D02*
X49664285Y-28722438D01*
X49664285Y-28722438D02*
X49711904Y-28770057D01*
X49711904Y-28770057D02*
X49759523Y-28865295D01*
X49759523Y-28865295D02*
X49759523Y-28960533D01*
X49759523Y-28960533D02*
X49711904Y-29103390D01*
X49711904Y-29103390D02*
X49140476Y-29674819D01*
X49140476Y-29674819D02*
X49759523Y-29674819D01*
X84144819Y-26738094D02*
X83144819Y-26738094D01*
X83144819Y-26738094D02*
X83144819Y-26499999D01*
X83144819Y-26499999D02*
X83192438Y-26357142D01*
X83192438Y-26357142D02*
X83287676Y-26261904D01*
X83287676Y-26261904D02*
X83382914Y-26214285D01*
X83382914Y-26214285D02*
X83573390Y-26166666D01*
X83573390Y-26166666D02*
X83716247Y-26166666D01*
X83716247Y-26166666D02*
X83906723Y-26214285D01*
X83906723Y-26214285D02*
X84001961Y-26261904D01*
X84001961Y-26261904D02*
X84097200Y-26357142D01*
X84097200Y-26357142D02*
X84144819Y-26499999D01*
X84144819Y-26499999D02*
X84144819Y-26738094D01*
X83144819Y-25309523D02*
X83144819Y-25499999D01*
X83144819Y-25499999D02*
X83192438Y-25595237D01*
X83192438Y-25595237D02*
X83240057Y-25642856D01*
X83240057Y-25642856D02*
X83382914Y-25738094D01*
X83382914Y-25738094D02*
X83573390Y-25785713D01*
X83573390Y-25785713D02*
X83954342Y-25785713D01*
X83954342Y-25785713D02*
X84049580Y-25738094D01*
X84049580Y-25738094D02*
X84097200Y-25690475D01*
X84097200Y-25690475D02*
X84144819Y-25595237D01*
X84144819Y-25595237D02*
X84144819Y-25404761D01*
X84144819Y-25404761D02*
X84097200Y-25309523D01*
X84097200Y-25309523D02*
X84049580Y-25261904D01*
X84049580Y-25261904D02*
X83954342Y-25214285D01*
X83954342Y-25214285D02*
X83716247Y-25214285D01*
X83716247Y-25214285D02*
X83621009Y-25261904D01*
X83621009Y-25261904D02*
X83573390Y-25309523D01*
X83573390Y-25309523D02*
X83525771Y-25404761D01*
X83525771Y-25404761D02*
X83525771Y-25595237D01*
X83525771Y-25595237D02*
X83573390Y-25690475D01*
X83573390Y-25690475D02*
X83621009Y-25738094D01*
X83621009Y-25738094D02*
X83716247Y-25785713D01*
X75928095Y-28754819D02*
X75928095Y-27754819D01*
X76499523Y-28754819D02*
X76070952Y-28183390D01*
X76499523Y-27754819D02*
X75928095Y-28326247D01*
X51954819Y-86224285D02*
X50954819Y-86224285D01*
X50954819Y-86224285D02*
X50954819Y-85986190D01*
X50954819Y-85986190D02*
X51002438Y-85843333D01*
X51002438Y-85843333D02*
X51097676Y-85748095D01*
X51097676Y-85748095D02*
X51192914Y-85700476D01*
X51192914Y-85700476D02*
X51383390Y-85652857D01*
X51383390Y-85652857D02*
X51526247Y-85652857D01*
X51526247Y-85652857D02*
X51716723Y-85700476D01*
X51716723Y-85700476D02*
X51811961Y-85748095D01*
X51811961Y-85748095D02*
X51907200Y-85843333D01*
X51907200Y-85843333D02*
X51954819Y-85986190D01*
X51954819Y-85986190D02*
X51954819Y-86224285D01*
X51050057Y-85271904D02*
X51002438Y-85224285D01*
X51002438Y-85224285D02*
X50954819Y-85129047D01*
X50954819Y-85129047D02*
X50954819Y-84890952D01*
X50954819Y-84890952D02*
X51002438Y-84795714D01*
X51002438Y-84795714D02*
X51050057Y-84748095D01*
X51050057Y-84748095D02*
X51145295Y-84700476D01*
X51145295Y-84700476D02*
X51240533Y-84700476D01*
X51240533Y-84700476D02*
X51383390Y-84748095D01*
X51383390Y-84748095D02*
X51954819Y-85319523D01*
X51954819Y-85319523D02*
X51954819Y-84700476D01*
X51050057Y-84319523D02*
X51002438Y-84271904D01*
X51002438Y-84271904D02*
X50954819Y-84176666D01*
X50954819Y-84176666D02*
X50954819Y-83938571D01*
X50954819Y-83938571D02*
X51002438Y-83843333D01*
X51002438Y-83843333D02*
X51050057Y-83795714D01*
X51050057Y-83795714D02*
X51145295Y-83748095D01*
X51145295Y-83748095D02*
X51240533Y-83748095D01*
X51240533Y-83748095D02*
X51383390Y-83795714D01*
X51383390Y-83795714D02*
X51954819Y-84367142D01*
X51954819Y-84367142D02*
X51954819Y-83748095D01*
X49854819Y-89571904D02*
X48854819Y-89571904D01*
X49854819Y-89000476D02*
X49283390Y-89429047D01*
X48854819Y-89000476D02*
X49426247Y-89571904D01*
X43916666Y-91504819D02*
X43916666Y-92219104D01*
X43916666Y-92219104D02*
X43869047Y-92361961D01*
X43869047Y-92361961D02*
X43773809Y-92457200D01*
X43773809Y-92457200D02*
X43630952Y-92504819D01*
X43630952Y-92504819D02*
X43535714Y-92504819D01*
X44821428Y-91838152D02*
X44821428Y-92504819D01*
X44583333Y-91457200D02*
X44345238Y-92171485D01*
X44345238Y-92171485D02*
X44964285Y-92171485D01*
X62166666Y-93454819D02*
X62166666Y-94169104D01*
X62166666Y-94169104D02*
X62119047Y-94311961D01*
X62119047Y-94311961D02*
X62023809Y-94407200D01*
X62023809Y-94407200D02*
X61880952Y-94454819D01*
X61880952Y-94454819D02*
X61785714Y-94454819D01*
X63119047Y-93454819D02*
X62642857Y-93454819D01*
X62642857Y-93454819D02*
X62595238Y-93931009D01*
X62595238Y-93931009D02*
X62642857Y-93883390D01*
X62642857Y-93883390D02*
X62738095Y-93835771D01*
X62738095Y-93835771D02*
X62976190Y-93835771D01*
X62976190Y-93835771D02*
X63071428Y-93883390D01*
X63071428Y-93883390D02*
X63119047Y-93931009D01*
X63119047Y-93931009D02*
X63166666Y-94026247D01*
X63166666Y-94026247D02*
X63166666Y-94264342D01*
X63166666Y-94264342D02*
X63119047Y-94359580D01*
X63119047Y-94359580D02*
X63071428Y-94407200D01*
X63071428Y-94407200D02*
X62976190Y-94454819D01*
X62976190Y-94454819D02*
X62738095Y-94454819D01*
X62738095Y-94454819D02*
X62642857Y-94407200D01*
X62642857Y-94407200D02*
X62595238Y-94359580D01*
X34916666Y-16954819D02*
X34916666Y-17669104D01*
X34916666Y-17669104D02*
X34869047Y-17811961D01*
X34869047Y-17811961D02*
X34773809Y-17907200D01*
X34773809Y-17907200D02*
X34630952Y-17954819D01*
X34630952Y-17954819D02*
X34535714Y-17954819D01*
X35916666Y-17954819D02*
X35345238Y-17954819D01*
X35630952Y-17954819D02*
X35630952Y-16954819D01*
X35630952Y-16954819D02*
X35535714Y-17097676D01*
X35535714Y-17097676D02*
X35440476Y-17192914D01*
X35440476Y-17192914D02*
X35345238Y-17240533D01*
X28285714Y-85954819D02*
X28285714Y-84954819D01*
X28285714Y-84954819D02*
X28523809Y-84954819D01*
X28523809Y-84954819D02*
X28666666Y-85002438D01*
X28666666Y-85002438D02*
X28761904Y-85097676D01*
X28761904Y-85097676D02*
X28809523Y-85192914D01*
X28809523Y-85192914D02*
X28857142Y-85383390D01*
X28857142Y-85383390D02*
X28857142Y-85526247D01*
X28857142Y-85526247D02*
X28809523Y-85716723D01*
X28809523Y-85716723D02*
X28761904Y-85811961D01*
X28761904Y-85811961D02*
X28666666Y-85907200D01*
X28666666Y-85907200D02*
X28523809Y-85954819D01*
X28523809Y-85954819D02*
X28285714Y-85954819D01*
X29809523Y-85954819D02*
X29238095Y-85954819D01*
X29523809Y-85954819D02*
X29523809Y-84954819D01*
X29523809Y-84954819D02*
X29428571Y-85097676D01*
X29428571Y-85097676D02*
X29333333Y-85192914D01*
X29333333Y-85192914D02*
X29238095Y-85240533D01*
X30666666Y-85288152D02*
X30666666Y-85954819D01*
X30428571Y-84907200D02*
X30190476Y-85621485D01*
X30190476Y-85621485D02*
X30809523Y-85621485D01*
X29298095Y-81154819D02*
X29298095Y-80154819D01*
X29869523Y-81154819D02*
X29440952Y-80583390D01*
X29869523Y-80154819D02*
X29298095Y-80726247D01*
X102204819Y-26738094D02*
X101204819Y-26738094D01*
X101204819Y-26738094D02*
X101204819Y-26499999D01*
X101204819Y-26499999D02*
X101252438Y-26357142D01*
X101252438Y-26357142D02*
X101347676Y-26261904D01*
X101347676Y-26261904D02*
X101442914Y-26214285D01*
X101442914Y-26214285D02*
X101633390Y-26166666D01*
X101633390Y-26166666D02*
X101776247Y-26166666D01*
X101776247Y-26166666D02*
X101966723Y-26214285D01*
X101966723Y-26214285D02*
X102061961Y-26261904D01*
X102061961Y-26261904D02*
X102157200Y-26357142D01*
X102157200Y-26357142D02*
X102204819Y-26499999D01*
X102204819Y-26499999D02*
X102204819Y-26738094D01*
X101633390Y-25595237D02*
X101585771Y-25690475D01*
X101585771Y-25690475D02*
X101538152Y-25738094D01*
X101538152Y-25738094D02*
X101442914Y-25785713D01*
X101442914Y-25785713D02*
X101395295Y-25785713D01*
X101395295Y-25785713D02*
X101300057Y-25738094D01*
X101300057Y-25738094D02*
X101252438Y-25690475D01*
X101252438Y-25690475D02*
X101204819Y-25595237D01*
X101204819Y-25595237D02*
X101204819Y-25404761D01*
X101204819Y-25404761D02*
X101252438Y-25309523D01*
X101252438Y-25309523D02*
X101300057Y-25261904D01*
X101300057Y-25261904D02*
X101395295Y-25214285D01*
X101395295Y-25214285D02*
X101442914Y-25214285D01*
X101442914Y-25214285D02*
X101538152Y-25261904D01*
X101538152Y-25261904D02*
X101585771Y-25309523D01*
X101585771Y-25309523D02*
X101633390Y-25404761D01*
X101633390Y-25404761D02*
X101633390Y-25595237D01*
X101633390Y-25595237D02*
X101681009Y-25690475D01*
X101681009Y-25690475D02*
X101728628Y-25738094D01*
X101728628Y-25738094D02*
X101823866Y-25785713D01*
X101823866Y-25785713D02*
X102014342Y-25785713D01*
X102014342Y-25785713D02*
X102109580Y-25738094D01*
X102109580Y-25738094D02*
X102157200Y-25690475D01*
X102157200Y-25690475D02*
X102204819Y-25595237D01*
X102204819Y-25595237D02*
X102204819Y-25404761D01*
X102204819Y-25404761D02*
X102157200Y-25309523D01*
X102157200Y-25309523D02*
X102109580Y-25261904D01*
X102109580Y-25261904D02*
X102014342Y-25214285D01*
X102014342Y-25214285D02*
X101823866Y-25214285D01*
X101823866Y-25214285D02*
X101728628Y-25261904D01*
X101728628Y-25261904D02*
X101681009Y-25309523D01*
X101681009Y-25309523D02*
X101633390Y-25404761D01*
X93928095Y-28754819D02*
X93928095Y-27754819D01*
X94499523Y-28754819D02*
X94070952Y-28183390D01*
X94499523Y-27754819D02*
X93928095Y-28326247D01*
X90954819Y-24166666D02*
X90478628Y-24499999D01*
X90954819Y-24738094D02*
X89954819Y-24738094D01*
X89954819Y-24738094D02*
X89954819Y-24357142D01*
X89954819Y-24357142D02*
X90002438Y-24261904D01*
X90002438Y-24261904D02*
X90050057Y-24214285D01*
X90050057Y-24214285D02*
X90145295Y-24166666D01*
X90145295Y-24166666D02*
X90288152Y-24166666D01*
X90288152Y-24166666D02*
X90383390Y-24214285D01*
X90383390Y-24214285D02*
X90431009Y-24261904D01*
X90431009Y-24261904D02*
X90478628Y-24357142D01*
X90478628Y-24357142D02*
X90478628Y-24738094D01*
X90288152Y-23309523D02*
X90954819Y-23309523D01*
X89907200Y-23547618D02*
X90621485Y-23785713D01*
X90621485Y-23785713D02*
X90621485Y-23166666D01*
X33954819Y-86404285D02*
X32954819Y-86404285D01*
X32954819Y-86404285D02*
X32954819Y-86166190D01*
X32954819Y-86166190D02*
X33002438Y-86023333D01*
X33002438Y-86023333D02*
X33097676Y-85928095D01*
X33097676Y-85928095D02*
X33192914Y-85880476D01*
X33192914Y-85880476D02*
X33383390Y-85832857D01*
X33383390Y-85832857D02*
X33526247Y-85832857D01*
X33526247Y-85832857D02*
X33716723Y-85880476D01*
X33716723Y-85880476D02*
X33811961Y-85928095D01*
X33811961Y-85928095D02*
X33907200Y-86023333D01*
X33907200Y-86023333D02*
X33954819Y-86166190D01*
X33954819Y-86166190D02*
X33954819Y-86404285D01*
X33050057Y-85451904D02*
X33002438Y-85404285D01*
X33002438Y-85404285D02*
X32954819Y-85309047D01*
X32954819Y-85309047D02*
X32954819Y-85070952D01*
X32954819Y-85070952D02*
X33002438Y-84975714D01*
X33002438Y-84975714D02*
X33050057Y-84928095D01*
X33050057Y-84928095D02*
X33145295Y-84880476D01*
X33145295Y-84880476D02*
X33240533Y-84880476D01*
X33240533Y-84880476D02*
X33383390Y-84928095D01*
X33383390Y-84928095D02*
X33954819Y-85499523D01*
X33954819Y-85499523D02*
X33954819Y-84880476D01*
X33954819Y-83928095D02*
X33954819Y-84499523D01*
X33954819Y-84213809D02*
X32954819Y-84213809D01*
X32954819Y-84213809D02*
X33097676Y-84309047D01*
X33097676Y-84309047D02*
X33192914Y-84404285D01*
X33192914Y-84404285D02*
X33240533Y-84499523D01*
X31854819Y-89571904D02*
X30854819Y-89571904D01*
X31854819Y-89000476D02*
X31283390Y-89429047D01*
X30854819Y-89000476D02*
X31426247Y-89571904D01*
X46454819Y-24938094D02*
X45454819Y-24938094D01*
X45454819Y-24938094D02*
X45454819Y-24699999D01*
X45454819Y-24699999D02*
X45502438Y-24557142D01*
X45502438Y-24557142D02*
X45597676Y-24461904D01*
X45597676Y-24461904D02*
X45692914Y-24414285D01*
X45692914Y-24414285D02*
X45883390Y-24366666D01*
X45883390Y-24366666D02*
X46026247Y-24366666D01*
X46026247Y-24366666D02*
X46216723Y-24414285D01*
X46216723Y-24414285D02*
X46311961Y-24461904D01*
X46311961Y-24461904D02*
X46407200Y-24557142D01*
X46407200Y-24557142D02*
X46454819Y-24699999D01*
X46454819Y-24699999D02*
X46454819Y-24938094D01*
X45454819Y-24033332D02*
X45454819Y-23414285D01*
X45454819Y-23414285D02*
X45835771Y-23747618D01*
X45835771Y-23747618D02*
X45835771Y-23604761D01*
X45835771Y-23604761D02*
X45883390Y-23509523D01*
X45883390Y-23509523D02*
X45931009Y-23461904D01*
X45931009Y-23461904D02*
X46026247Y-23414285D01*
X46026247Y-23414285D02*
X46264342Y-23414285D01*
X46264342Y-23414285D02*
X46359580Y-23461904D01*
X46359580Y-23461904D02*
X46407200Y-23509523D01*
X46407200Y-23509523D02*
X46454819Y-23604761D01*
X46454819Y-23604761D02*
X46454819Y-23890475D01*
X46454819Y-23890475D02*
X46407200Y-23985713D01*
X46407200Y-23985713D02*
X46359580Y-24033332D01*
X48554819Y-20151904D02*
X47554819Y-20151904D01*
X48554819Y-19580476D02*
X47983390Y-20009047D01*
X47554819Y-19580476D02*
X48126247Y-20151904D01*
X106359580Y-75666666D02*
X106407200Y-75714285D01*
X106407200Y-75714285D02*
X106454819Y-75857142D01*
X106454819Y-75857142D02*
X106454819Y-75952380D01*
X106454819Y-75952380D02*
X106407200Y-76095237D01*
X106407200Y-76095237D02*
X106311961Y-76190475D01*
X106311961Y-76190475D02*
X106216723Y-76238094D01*
X106216723Y-76238094D02*
X106026247Y-76285713D01*
X106026247Y-76285713D02*
X105883390Y-76285713D01*
X105883390Y-76285713D02*
X105692914Y-76238094D01*
X105692914Y-76238094D02*
X105597676Y-76190475D01*
X105597676Y-76190475D02*
X105502438Y-76095237D01*
X105502438Y-76095237D02*
X105454819Y-75952380D01*
X105454819Y-75952380D02*
X105454819Y-75857142D01*
X105454819Y-75857142D02*
X105502438Y-75714285D01*
X105502438Y-75714285D02*
X105550057Y-75666666D01*
X106454819Y-74714285D02*
X106454819Y-75285713D01*
X106454819Y-74999999D02*
X105454819Y-74999999D01*
X105454819Y-74999999D02*
X105597676Y-75095237D01*
X105597676Y-75095237D02*
X105692914Y-75190475D01*
X105692914Y-75190475D02*
X105740533Y-75285713D01*
X37904819Y-62714285D02*
X36904819Y-62714285D01*
X36904819Y-62714285D02*
X36904819Y-62476190D01*
X36904819Y-62476190D02*
X36952438Y-62333333D01*
X36952438Y-62333333D02*
X37047676Y-62238095D01*
X37047676Y-62238095D02*
X37142914Y-62190476D01*
X37142914Y-62190476D02*
X37333390Y-62142857D01*
X37333390Y-62142857D02*
X37476247Y-62142857D01*
X37476247Y-62142857D02*
X37666723Y-62190476D01*
X37666723Y-62190476D02*
X37761961Y-62238095D01*
X37761961Y-62238095D02*
X37857200Y-62333333D01*
X37857200Y-62333333D02*
X37904819Y-62476190D01*
X37904819Y-62476190D02*
X37904819Y-62714285D01*
X37904819Y-61190476D02*
X37904819Y-61761904D01*
X37904819Y-61476190D02*
X36904819Y-61476190D01*
X36904819Y-61476190D02*
X37047676Y-61571428D01*
X37047676Y-61571428D02*
X37142914Y-61666666D01*
X37142914Y-61666666D02*
X37190533Y-61761904D01*
X36904819Y-60571428D02*
X36904819Y-60476190D01*
X36904819Y-60476190D02*
X36952438Y-60380952D01*
X36952438Y-60380952D02*
X37000057Y-60333333D01*
X37000057Y-60333333D02*
X37095295Y-60285714D01*
X37095295Y-60285714D02*
X37285771Y-60238095D01*
X37285771Y-60238095D02*
X37523866Y-60238095D01*
X37523866Y-60238095D02*
X37714342Y-60285714D01*
X37714342Y-60285714D02*
X37809580Y-60333333D01*
X37809580Y-60333333D02*
X37857200Y-60380952D01*
X37857200Y-60380952D02*
X37904819Y-60476190D01*
X37904819Y-60476190D02*
X37904819Y-60571428D01*
X37904819Y-60571428D02*
X37857200Y-60666666D01*
X37857200Y-60666666D02*
X37809580Y-60714285D01*
X37809580Y-60714285D02*
X37714342Y-60761904D01*
X37714342Y-60761904D02*
X37523866Y-60809523D01*
X37523866Y-60809523D02*
X37285771Y-60809523D01*
X37285771Y-60809523D02*
X37095295Y-60761904D01*
X37095295Y-60761904D02*
X37000057Y-60714285D01*
X37000057Y-60714285D02*
X36952438Y-60666666D01*
X36952438Y-60666666D02*
X36904819Y-60571428D01*
X40104819Y-56261904D02*
X39104819Y-56261904D01*
X40104819Y-55690476D02*
X39533390Y-56119047D01*
X39104819Y-55690476D02*
X39676247Y-56261904D01*
X30854761Y-80470057D02*
X30759523Y-80422438D01*
X30759523Y-80422438D02*
X30664285Y-80327200D01*
X30664285Y-80327200D02*
X30521428Y-80184342D01*
X30521428Y-80184342D02*
X30426190Y-80136723D01*
X30426190Y-80136723D02*
X30330952Y-80136723D01*
X30378571Y-80374819D02*
X30283333Y-80327200D01*
X30283333Y-80327200D02*
X30188095Y-80231961D01*
X30188095Y-80231961D02*
X30140476Y-80041485D01*
X30140476Y-80041485D02*
X30140476Y-79708152D01*
X30140476Y-79708152D02*
X30188095Y-79517676D01*
X30188095Y-79517676D02*
X30283333Y-79422438D01*
X30283333Y-79422438D02*
X30378571Y-79374819D01*
X30378571Y-79374819D02*
X30569047Y-79374819D01*
X30569047Y-79374819D02*
X30664285Y-79422438D01*
X30664285Y-79422438D02*
X30759523Y-79517676D01*
X30759523Y-79517676D02*
X30807142Y-79708152D01*
X30807142Y-79708152D02*
X30807142Y-80041485D01*
X30807142Y-80041485D02*
X30759523Y-80231961D01*
X30759523Y-80231961D02*
X30664285Y-80327200D01*
X30664285Y-80327200D02*
X30569047Y-80374819D01*
X30569047Y-80374819D02*
X30378571Y-80374819D01*
X31711904Y-79374819D02*
X31235714Y-79374819D01*
X31235714Y-79374819D02*
X31188095Y-79851009D01*
X31188095Y-79851009D02*
X31235714Y-79803390D01*
X31235714Y-79803390D02*
X31330952Y-79755771D01*
X31330952Y-79755771D02*
X31569047Y-79755771D01*
X31569047Y-79755771D02*
X31664285Y-79803390D01*
X31664285Y-79803390D02*
X31711904Y-79851009D01*
X31711904Y-79851009D02*
X31759523Y-79946247D01*
X31759523Y-79946247D02*
X31759523Y-80184342D01*
X31759523Y-80184342D02*
X31711904Y-80279580D01*
X31711904Y-80279580D02*
X31664285Y-80327200D01*
X31664285Y-80327200D02*
X31569047Y-80374819D01*
X31569047Y-80374819D02*
X31330952Y-80374819D01*
X31330952Y-80374819D02*
X31235714Y-80327200D01*
X31235714Y-80327200D02*
X31188095Y-80279580D01*
X68454819Y-24748094D02*
X67454819Y-24748094D01*
X67454819Y-24748094D02*
X67454819Y-24509999D01*
X67454819Y-24509999D02*
X67502438Y-24367142D01*
X67502438Y-24367142D02*
X67597676Y-24271904D01*
X67597676Y-24271904D02*
X67692914Y-24224285D01*
X67692914Y-24224285D02*
X67883390Y-24176666D01*
X67883390Y-24176666D02*
X68026247Y-24176666D01*
X68026247Y-24176666D02*
X68216723Y-24224285D01*
X68216723Y-24224285D02*
X68311961Y-24271904D01*
X68311961Y-24271904D02*
X68407200Y-24367142D01*
X68407200Y-24367142D02*
X68454819Y-24509999D01*
X68454819Y-24509999D02*
X68454819Y-24748094D01*
X67454819Y-23271904D02*
X67454819Y-23748094D01*
X67454819Y-23748094D02*
X67931009Y-23795713D01*
X67931009Y-23795713D02*
X67883390Y-23748094D01*
X67883390Y-23748094D02*
X67835771Y-23652856D01*
X67835771Y-23652856D02*
X67835771Y-23414761D01*
X67835771Y-23414761D02*
X67883390Y-23319523D01*
X67883390Y-23319523D02*
X67931009Y-23271904D01*
X67931009Y-23271904D02*
X68026247Y-23224285D01*
X68026247Y-23224285D02*
X68264342Y-23224285D01*
X68264342Y-23224285D02*
X68359580Y-23271904D01*
X68359580Y-23271904D02*
X68407200Y-23319523D01*
X68407200Y-23319523D02*
X68454819Y-23414761D01*
X68454819Y-23414761D02*
X68454819Y-23652856D01*
X68454819Y-23652856D02*
X68407200Y-23748094D01*
X68407200Y-23748094D02*
X68359580Y-23795713D01*
X66454819Y-20151904D02*
X65454819Y-20151904D01*
X66454819Y-19580476D02*
X65883390Y-20009047D01*
X65454819Y-19580476D02*
X66026247Y-20151904D01*
X30854761Y-29770057D02*
X30759523Y-29722438D01*
X30759523Y-29722438D02*
X30664285Y-29627200D01*
X30664285Y-29627200D02*
X30521428Y-29484342D01*
X30521428Y-29484342D02*
X30426190Y-29436723D01*
X30426190Y-29436723D02*
X30330952Y-29436723D01*
X30378571Y-29674819D02*
X30283333Y-29627200D01*
X30283333Y-29627200D02*
X30188095Y-29531961D01*
X30188095Y-29531961D02*
X30140476Y-29341485D01*
X30140476Y-29341485D02*
X30140476Y-29008152D01*
X30140476Y-29008152D02*
X30188095Y-28817676D01*
X30188095Y-28817676D02*
X30283333Y-28722438D01*
X30283333Y-28722438D02*
X30378571Y-28674819D01*
X30378571Y-28674819D02*
X30569047Y-28674819D01*
X30569047Y-28674819D02*
X30664285Y-28722438D01*
X30664285Y-28722438D02*
X30759523Y-28817676D01*
X30759523Y-28817676D02*
X30807142Y-29008152D01*
X30807142Y-29008152D02*
X30807142Y-29341485D01*
X30807142Y-29341485D02*
X30759523Y-29531961D01*
X30759523Y-29531961D02*
X30664285Y-29627200D01*
X30664285Y-29627200D02*
X30569047Y-29674819D01*
X30569047Y-29674819D02*
X30378571Y-29674819D01*
X31759523Y-29674819D02*
X31188095Y-29674819D01*
X31473809Y-29674819D02*
X31473809Y-28674819D01*
X31473809Y-28674819D02*
X31378571Y-28817676D01*
X31378571Y-28817676D02*
X31283333Y-28912914D01*
X31283333Y-28912914D02*
X31188095Y-28960533D01*
X104454819Y-54793333D02*
X105169104Y-54793333D01*
X105169104Y-54793333D02*
X105311961Y-54840952D01*
X105311961Y-54840952D02*
X105407200Y-54936190D01*
X105407200Y-54936190D02*
X105454819Y-55079047D01*
X105454819Y-55079047D02*
X105454819Y-55174285D01*
X104454819Y-54412380D02*
X104454819Y-53793333D01*
X104454819Y-53793333D02*
X104835771Y-54126666D01*
X104835771Y-54126666D02*
X104835771Y-53983809D01*
X104835771Y-53983809D02*
X104883390Y-53888571D01*
X104883390Y-53888571D02*
X104931009Y-53840952D01*
X104931009Y-53840952D02*
X105026247Y-53793333D01*
X105026247Y-53793333D02*
X105264342Y-53793333D01*
X105264342Y-53793333D02*
X105359580Y-53840952D01*
X105359580Y-53840952D02*
X105407200Y-53888571D01*
X105407200Y-53888571D02*
X105454819Y-53983809D01*
X105454819Y-53983809D02*
X105454819Y-54269523D01*
X105454819Y-54269523D02*
X105407200Y-54364761D01*
X105407200Y-54364761D02*
X105359580Y-54412380D01*
X81454819Y-85176666D02*
X80978628Y-85509999D01*
X81454819Y-85748094D02*
X80454819Y-85748094D01*
X80454819Y-85748094D02*
X80454819Y-85367142D01*
X80454819Y-85367142D02*
X80502438Y-85271904D01*
X80502438Y-85271904D02*
X80550057Y-85224285D01*
X80550057Y-85224285D02*
X80645295Y-85176666D01*
X80645295Y-85176666D02*
X80788152Y-85176666D01*
X80788152Y-85176666D02*
X80883390Y-85224285D01*
X80883390Y-85224285D02*
X80931009Y-85271904D01*
X80931009Y-85271904D02*
X80978628Y-85367142D01*
X80978628Y-85367142D02*
X80978628Y-85748094D01*
X80454819Y-84271904D02*
X80454819Y-84748094D01*
X80454819Y-84748094D02*
X80931009Y-84795713D01*
X80931009Y-84795713D02*
X80883390Y-84748094D01*
X80883390Y-84748094D02*
X80835771Y-84652856D01*
X80835771Y-84652856D02*
X80835771Y-84414761D01*
X80835771Y-84414761D02*
X80883390Y-84319523D01*
X80883390Y-84319523D02*
X80931009Y-84271904D01*
X80931009Y-84271904D02*
X81026247Y-84224285D01*
X81026247Y-84224285D02*
X81264342Y-84224285D01*
X81264342Y-84224285D02*
X81359580Y-84271904D01*
X81359580Y-84271904D02*
X81407200Y-84319523D01*
X81407200Y-84319523D02*
X81454819Y-84414761D01*
X81454819Y-84414761D02*
X81454819Y-84652856D01*
X81454819Y-84652856D02*
X81407200Y-84748094D01*
X81407200Y-84748094D02*
X81359580Y-84795713D01*
X74629761Y-29770057D02*
X74534523Y-29722438D01*
X74534523Y-29722438D02*
X74439285Y-29627200D01*
X74439285Y-29627200D02*
X74296428Y-29484342D01*
X74296428Y-29484342D02*
X74201190Y-29436723D01*
X74201190Y-29436723D02*
X74105952Y-29436723D01*
X74153571Y-29674819D02*
X74058333Y-29627200D01*
X74058333Y-29627200D02*
X73963095Y-29531961D01*
X73963095Y-29531961D02*
X73915476Y-29341485D01*
X73915476Y-29341485D02*
X73915476Y-29008152D01*
X73915476Y-29008152D02*
X73963095Y-28817676D01*
X73963095Y-28817676D02*
X74058333Y-28722438D01*
X74058333Y-28722438D02*
X74153571Y-28674819D01*
X74153571Y-28674819D02*
X74344047Y-28674819D01*
X74344047Y-28674819D02*
X74439285Y-28722438D01*
X74439285Y-28722438D02*
X74534523Y-28817676D01*
X74534523Y-28817676D02*
X74582142Y-29008152D01*
X74582142Y-29008152D02*
X74582142Y-29341485D01*
X74582142Y-29341485D02*
X74534523Y-29531961D01*
X74534523Y-29531961D02*
X74439285Y-29627200D01*
X74439285Y-29627200D02*
X74344047Y-29674819D01*
X74344047Y-29674819D02*
X74153571Y-29674819D01*
X75439285Y-29008152D02*
X75439285Y-29674819D01*
X75201190Y-28627200D02*
X74963095Y-29341485D01*
X74963095Y-29341485D02*
X75582142Y-29341485D01*
D14*
%TO.C,D16*%
X45935774Y-84420000D02*
G75*
G02*
X45935774Y-81580000I-2325774J1420000D01*
G01*
%TO.C,D2*%
X26530000Y-20980000D02*
X26530000Y-26420000D01*
X26530000Y-26420000D02*
X26660000Y-26420000D01*
X26660000Y-20980000D02*
X26530000Y-20980000D01*
X29340000Y-20980000D02*
X29470000Y-20980000D01*
X29470000Y-20980000D02*
X29470000Y-26420000D01*
X29470000Y-21760000D02*
X26530000Y-21760000D01*
X29470000Y-21880000D02*
X26530000Y-21880000D01*
X29470000Y-22000000D02*
X26530000Y-22000000D01*
X29470000Y-26420000D02*
X29340000Y-26420000D01*
%TO.C,Q6*%
X40890000Y-79080000D02*
X40890000Y-73830000D01*
X41990000Y-79080000D02*
X40890000Y-79080000D01*
X47145000Y-79080000D02*
X47145000Y-78860000D01*
X47440000Y-79080000D02*
X45010000Y-79080000D01*
X50755000Y-79080000D02*
X50755000Y-78860000D01*
X52890000Y-79080000D02*
X50460000Y-79080000D01*
X57010000Y-73830000D02*
X40890000Y-73830000D01*
X57010000Y-79080000D02*
X55910000Y-79080000D01*
X57010000Y-79080000D02*
X57010000Y-73830000D01*
%TO.C,D9*%
X35530000Y-43500000D02*
X36010000Y-43500000D01*
X35530000Y-49960000D02*
X39370000Y-49960000D01*
X35530000Y-50080000D02*
X39370000Y-50080000D01*
X35530000Y-50200000D02*
X39370000Y-50200000D01*
X35530000Y-51340000D02*
X35530000Y-43500000D01*
X36010000Y-51340000D02*
X35530000Y-51340000D01*
X38890000Y-51340000D02*
X39370000Y-51340000D01*
X39370000Y-43500000D02*
X38890000Y-43500000D01*
X39370000Y-51340000D02*
X39370000Y-43500000D01*
%TO.C,D13*%
X72350000Y-43760000D02*
X72350000Y-39140000D01*
X75610000Y-43760000D02*
X75610000Y-42380000D01*
X79310000Y-43760000D02*
X79310000Y-42380000D01*
X82570000Y-39140000D02*
X72350000Y-39140000D01*
X82570000Y-42380000D02*
X72350000Y-42380000D01*
X82570000Y-43760000D02*
X72350000Y-43760000D01*
X82570000Y-43760000D02*
X82570000Y-39140000D01*
%TO.C,R6*%
X97630000Y-81730000D02*
X97960000Y-81730000D01*
X97630000Y-88270000D02*
X97630000Y-81730000D01*
X97960000Y-88270000D02*
X97630000Y-88270000D01*
X100040000Y-88270000D02*
X100370000Y-88270000D01*
X100370000Y-81730000D02*
X100040000Y-81730000D01*
X100370000Y-88270000D02*
X100370000Y-81730000D01*
%TO.C,R8*%
X54130000Y-81930000D02*
X54460000Y-81930000D01*
X54130000Y-88470000D02*
X54130000Y-81930000D01*
X54460000Y-88470000D02*
X54130000Y-88470000D01*
X56540000Y-88470000D02*
X56870000Y-88470000D01*
X56870000Y-81930000D02*
X56540000Y-81930000D01*
X56870000Y-88470000D02*
X56870000Y-81930000D01*
%TO.C,D19*%
X85580000Y-57160000D02*
X86060000Y-57160000D01*
X85580000Y-63620000D02*
X89420000Y-63620000D01*
X85580000Y-63740000D02*
X89420000Y-63740000D01*
X85580000Y-63860000D02*
X89420000Y-63860000D01*
X85580000Y-65000000D02*
X85580000Y-57160000D01*
X86060000Y-65000000D02*
X85580000Y-65000000D01*
X88940000Y-65000000D02*
X89420000Y-65000000D01*
X89420000Y-57160000D02*
X88940000Y-57160000D01*
X89420000Y-65000000D02*
X89420000Y-57160000D01*
%TO.C,D18*%
X71710774Y-84420000D02*
G75*
G02*
X71710774Y-81580000I-2325774J1420000D01*
G01*
%TO.C,D11*%
X40890000Y-43760000D02*
X40890000Y-39140000D01*
X44150000Y-43760000D02*
X44150000Y-42380000D01*
X47850000Y-43760000D02*
X47850000Y-42380000D01*
X51110000Y-39140000D02*
X40890000Y-39140000D01*
X51110000Y-42380000D02*
X40890000Y-42380000D01*
X51110000Y-43760000D02*
X40890000Y-43760000D01*
X51110000Y-43760000D02*
X51110000Y-39140000D01*
%TO.C,D20*%
X89710774Y-84420000D02*
G75*
G02*
X89710774Y-81580000I-2325774J1420000D01*
G01*
%TO.C,D24*%
X93530000Y-82580000D02*
X93660000Y-82580000D01*
X93530000Y-87000000D02*
X96470000Y-87000000D01*
X93530000Y-87120000D02*
X96470000Y-87120000D01*
X93530000Y-87240000D02*
X96470000Y-87240000D01*
X93530000Y-88020000D02*
X93530000Y-82580000D01*
X93660000Y-88020000D02*
X93530000Y-88020000D01*
X96340000Y-88020000D02*
X96470000Y-88020000D01*
X96470000Y-82580000D02*
X96340000Y-82580000D01*
X96470000Y-88020000D02*
X96470000Y-82580000D01*
D15*
%TO.C,G\u002A\u002A\u002A*%
G36*
X17744402Y-82861068D02*
G01*
X17744402Y-83428175D01*
X17600628Y-83428175D01*
X17456855Y-83428175D01*
X17456855Y-82861068D01*
X17456855Y-82293962D01*
X17600628Y-82293962D01*
X17744402Y-82293962D01*
X17744402Y-82861068D01*
G37*
G36*
X17404936Y-83683766D02*
G01*
X17552704Y-83683773D01*
X17552704Y-84139056D01*
X17552704Y-84594339D01*
X17640565Y-84594339D01*
X17728427Y-84594339D01*
X17728427Y-84706163D01*
X17728427Y-84817987D01*
X17497188Y-84817987D01*
X17265949Y-84817987D01*
X17261559Y-84250873D01*
X17257169Y-83683759D01*
X17404936Y-83683766D01*
G37*
G36*
X18303521Y-83795597D02*
G01*
X18303521Y-83907421D01*
X18215660Y-83907421D01*
X18127798Y-83907421D01*
X18127798Y-84362704D01*
X18127798Y-84817987D01*
X17976037Y-84817987D01*
X17824276Y-84817987D01*
X17824276Y-84362704D01*
X17824276Y-83907421D01*
X17736414Y-83907421D01*
X17648553Y-83907421D01*
X17648553Y-83795597D01*
X17648553Y-83683773D01*
X17976037Y-83683773D01*
X18303521Y-83683773D01*
X18303521Y-83795597D01*
G37*
G36*
X16945660Y-82493647D02*
G01*
X16945660Y-82693333D01*
X16993584Y-82693333D01*
X17041509Y-82693333D01*
X17041509Y-82493647D01*
X17041509Y-82293962D01*
X17185282Y-82293962D01*
X17329056Y-82293962D01*
X17329056Y-82861068D01*
X17329056Y-83428175D01*
X17185282Y-83428175D01*
X17041509Y-83428175D01*
X17041509Y-83188553D01*
X17041509Y-82948930D01*
X16993584Y-82948930D01*
X16945660Y-82948930D01*
X16945660Y-83188553D01*
X16945660Y-83428175D01*
X16801886Y-83428175D01*
X16658112Y-83428175D01*
X16658112Y-82861068D01*
X16658112Y-82293962D01*
X16801886Y-82293962D01*
X16945660Y-82293962D01*
X16945660Y-82493647D01*
G37*
G36*
X18958490Y-82493647D02*
G01*
X18958490Y-82693333D01*
X19006414Y-82693333D01*
X19054339Y-82693333D01*
X19054339Y-82493647D01*
X19054339Y-82293962D01*
X19198112Y-82293962D01*
X19341886Y-82293962D01*
X19341886Y-82861068D01*
X19341886Y-83428175D01*
X19198112Y-83428175D01*
X19054339Y-83428175D01*
X19054339Y-83188553D01*
X19054339Y-82948930D01*
X19006414Y-82948930D01*
X18958490Y-82948930D01*
X18958490Y-83188553D01*
X18958490Y-83428175D01*
X18814716Y-83428175D01*
X18670943Y-83428175D01*
X18670943Y-82861068D01*
X18670943Y-82293962D01*
X18814716Y-82293962D01*
X18958490Y-82293962D01*
X18958490Y-82493647D01*
G37*
G36*
X20332326Y-83795597D02*
G01*
X20332326Y-83907421D01*
X20236477Y-83907421D01*
X20140628Y-83907421D01*
X20140628Y-84020723D01*
X20140628Y-84134025D01*
X20228512Y-84128553D01*
X20316395Y-84123081D01*
X20316373Y-84230911D01*
X20316351Y-84338741D01*
X20228490Y-84338741D01*
X20140628Y-84338741D01*
X20140628Y-84466540D01*
X20140628Y-84594339D01*
X20244465Y-84594339D01*
X20348301Y-84594339D01*
X20348301Y-84706163D01*
X20348301Y-84817987D01*
X20092704Y-84817987D01*
X19837106Y-84817987D01*
X19837106Y-84250880D01*
X19837106Y-83683773D01*
X20084716Y-83683773D01*
X20332326Y-83683773D01*
X20332326Y-83795597D01*
G37*
G36*
X15962483Y-83735691D02*
G01*
X15969197Y-83783471D01*
X15977427Y-83853637D01*
X15986465Y-83938718D01*
X15995603Y-84031244D01*
X16004135Y-84123743D01*
X16011352Y-84208744D01*
X16016546Y-84278775D01*
X16019012Y-84326367D01*
X16019119Y-84333762D01*
X16021028Y-84381177D01*
X16026029Y-84399905D01*
X16033035Y-84392935D01*
X16040959Y-84363256D01*
X16048712Y-84313855D01*
X16055207Y-84247722D01*
X16056343Y-84231481D01*
X16062319Y-84148274D01*
X16070370Y-84047906D01*
X16079288Y-83944997D01*
X16085384Y-83879465D01*
X16104257Y-83683773D01*
X16262450Y-83683773D01*
X16334697Y-83684277D01*
X16380422Y-83686461D01*
X16405047Y-83691329D01*
X16413993Y-83699890D01*
X16413079Y-83711729D01*
X16409301Y-83733773D01*
X16402025Y-83783620D01*
X16391778Y-83857374D01*
X16379089Y-83951144D01*
X16364486Y-84061036D01*
X16348498Y-84183156D01*
X16336122Y-84278824D01*
X16266729Y-84817963D01*
X16039087Y-84817975D01*
X15946867Y-84817425D01*
X15882293Y-84815486D01*
X15841073Y-84811738D01*
X15818920Y-84805760D01*
X15811544Y-84797133D01*
X15811446Y-84795698D01*
X15809122Y-84774800D01*
X15802545Y-84726412D01*
X15792309Y-84654623D01*
X15779008Y-84563524D01*
X15763233Y-84457204D01*
X15745580Y-84339754D01*
X15739023Y-84296484D01*
X15720342Y-84173312D01*
X15702797Y-84057357D01*
X15687084Y-83953233D01*
X15673898Y-83865550D01*
X15663933Y-83798923D01*
X15657883Y-83757964D01*
X15656978Y-83751666D01*
X15647355Y-83683773D01*
X15800563Y-83683773D01*
X15953772Y-83683773D01*
X15962483Y-83735691D01*
G37*
G36*
X18900907Y-84206519D02*
G01*
X18919642Y-84334028D01*
X18937231Y-84452981D01*
X18953060Y-84559278D01*
X18966514Y-84648818D01*
X18976977Y-84717501D01*
X18983835Y-84761229D01*
X18986016Y-84774056D01*
X18994433Y-84817987D01*
X18840675Y-84817987D01*
X18686918Y-84817987D01*
X18686918Y-84764072D01*
X18683637Y-84708068D01*
X18676763Y-84659385D01*
X18666076Y-84624536D01*
X18645966Y-84612627D01*
X18616857Y-84613457D01*
X18589185Y-84617781D01*
X18573486Y-84629165D01*
X18565237Y-84655498D01*
X18559915Y-84704670D01*
X18559119Y-84714150D01*
X18551131Y-84809999D01*
X18394926Y-84814577D01*
X18323471Y-84816426D01*
X18278374Y-84816100D01*
X18254056Y-84812393D01*
X18244940Y-84804101D01*
X18245449Y-84790018D01*
X18247067Y-84782627D01*
X18251404Y-84756825D01*
X18259039Y-84704265D01*
X18269299Y-84629892D01*
X18281508Y-84538651D01*
X18294990Y-84435485D01*
X18300600Y-84391809D01*
X18569158Y-84391809D01*
X18570200Y-84406635D01*
X18589511Y-84415539D01*
X18622429Y-84418564D01*
X18650989Y-84414743D01*
X18656967Y-84411291D01*
X18658325Y-84393483D01*
X18656558Y-84351162D01*
X18652355Y-84291539D01*
X18646402Y-84221821D01*
X18639388Y-84149220D01*
X18632001Y-84080944D01*
X18624929Y-84024202D01*
X18618859Y-83986203D01*
X18615265Y-83974217D01*
X18608844Y-83981166D01*
X18606277Y-84004601D01*
X18604104Y-84035939D01*
X18598825Y-84090601D01*
X18591292Y-84160204D01*
X18584465Y-84218930D01*
X18576560Y-84290791D01*
X18571282Y-84350737D01*
X18569158Y-84391809D01*
X18300600Y-84391809D01*
X18303312Y-84370691D01*
X18318247Y-84253885D01*
X18333149Y-84137789D01*
X18347109Y-84029453D01*
X18359217Y-83935928D01*
X18368564Y-83864262D01*
X18371297Y-83843521D01*
X18391383Y-83691760D01*
X18607799Y-83687337D01*
X18824214Y-83682913D01*
X18900907Y-84206519D01*
G37*
G36*
X18283859Y-82274747D02*
G01*
X18384544Y-82307278D01*
X18459559Y-82358079D01*
X18510086Y-82428646D01*
X18537308Y-82520473D01*
X18543144Y-82602527D01*
X18543144Y-82709307D01*
X18399370Y-82709307D01*
X18255597Y-82709307D01*
X18255597Y-82599440D01*
X18250954Y-82523280D01*
X18237359Y-82475452D01*
X18215309Y-82456855D01*
X18185304Y-82468389D01*
X18183710Y-82469685D01*
X18175882Y-82480715D01*
X18169910Y-82501673D01*
X18165561Y-82536350D01*
X18162603Y-82588537D01*
X18160805Y-82662026D01*
X18159933Y-82760609D01*
X18159748Y-82861068D01*
X18160040Y-82982671D01*
X18161072Y-83076119D01*
X18163076Y-83145205D01*
X18166284Y-83193720D01*
X18170928Y-83225456D01*
X18177240Y-83244204D01*
X18183710Y-83252452D01*
X18209278Y-83264286D01*
X18231635Y-83252452D01*
X18245069Y-83230555D01*
X18252737Y-83188808D01*
X18255539Y-83121744D01*
X18255597Y-83107224D01*
X18254680Y-83043977D01*
X18251178Y-83007171D01*
X18243961Y-82991330D01*
X18231898Y-82990978D01*
X18231635Y-82991078D01*
X18217773Y-82990778D01*
X18210417Y-82972334D01*
X18207799Y-82929815D01*
X18207672Y-82910702D01*
X18207672Y-82821131D01*
X18375408Y-82821131D01*
X18543144Y-82821131D01*
X18543144Y-83124653D01*
X18543144Y-83428175D01*
X18453787Y-83428175D01*
X18401278Y-83426478D01*
X18372406Y-83419596D01*
X18358954Y-83404842D01*
X18356075Y-83396226D01*
X18343525Y-83369148D01*
X18324229Y-83369882D01*
X18295615Y-83396136D01*
X18265773Y-83417770D01*
X18221419Y-83439123D01*
X18176281Y-83454563D01*
X18144091Y-83458460D01*
X18143773Y-83458401D01*
X18124287Y-83454029D01*
X18087198Y-83445381D01*
X18081835Y-83444117D01*
X17997447Y-83409327D01*
X17932957Y-83349599D01*
X17888523Y-83265119D01*
X17870381Y-83196540D01*
X17863382Y-83139350D01*
X17859019Y-83061449D01*
X17857110Y-82968913D01*
X17857471Y-82867822D01*
X17859919Y-82764253D01*
X17864272Y-82664284D01*
X17870348Y-82573993D01*
X17877963Y-82499459D01*
X17886934Y-82446760D01*
X17893524Y-82426864D01*
X17947295Y-82356095D01*
X18022606Y-82304185D01*
X18113708Y-82273374D01*
X18214852Y-82265902D01*
X18283859Y-82274747D01*
G37*
G36*
X16912518Y-83670355D02*
G01*
X17000730Y-83702576D01*
X17068360Y-83757358D01*
X17101098Y-83803630D01*
X17112464Y-83824481D01*
X17121141Y-83845220D01*
X17127439Y-83870192D01*
X17131666Y-83903744D01*
X17134131Y-83950224D01*
X17135144Y-84013978D01*
X17135013Y-84099354D01*
X17134046Y-84210698D01*
X17133531Y-84260083D01*
X17132162Y-84382084D01*
X17130684Y-84476424D01*
X17128679Y-84547391D01*
X17125729Y-84599271D01*
X17121414Y-84636350D01*
X17115316Y-84662918D01*
X17107017Y-84683259D01*
X17096096Y-84701663D01*
X17089433Y-84711609D01*
X17030292Y-84771839D01*
X16949870Y-84814636D01*
X16854942Y-84837857D01*
X16752281Y-84839355D01*
X16706961Y-84832691D01*
X16625789Y-84802293D01*
X16552684Y-84749015D01*
X16498746Y-84681194D01*
X16494395Y-84673077D01*
X16485261Y-84651536D01*
X16478322Y-84624501D01*
X16473290Y-84587584D01*
X16469876Y-84536399D01*
X16467789Y-84466557D01*
X16466740Y-84373671D01*
X16466440Y-84253354D01*
X16466439Y-84249399D01*
X16466444Y-84244639D01*
X16753962Y-84244639D01*
X16754393Y-84347981D01*
X16755601Y-84441426D01*
X16757453Y-84519931D01*
X16759818Y-84578450D01*
X16762565Y-84611941D01*
X16763658Y-84616995D01*
X16785992Y-84638716D01*
X16801886Y-84642263D01*
X16831170Y-84629866D01*
X16840114Y-84616995D01*
X16842934Y-84594188D01*
X16845432Y-84544400D01*
X16847480Y-84472598D01*
X16848954Y-84383750D01*
X16849726Y-84282823D01*
X16849811Y-84235554D01*
X16849548Y-84117823D01*
X16848576Y-84028025D01*
X16846624Y-83962148D01*
X16843417Y-83916180D01*
X16838683Y-83886106D01*
X16832149Y-83867914D01*
X16824120Y-83858061D01*
X16801425Y-83845889D01*
X16782224Y-83859276D01*
X16776195Y-83867146D01*
X16768465Y-83884690D01*
X16762635Y-83915846D01*
X16758488Y-83964311D01*
X16755805Y-84033784D01*
X16754369Y-84127959D01*
X16753962Y-84244639D01*
X16466444Y-84244639D01*
X16466562Y-84131019D01*
X16467208Y-84039975D01*
X16468765Y-83971654D01*
X16471623Y-83921440D01*
X16476171Y-83884722D01*
X16482798Y-83856884D01*
X16491893Y-83833314D01*
X16503480Y-83810090D01*
X16554449Y-83739711D01*
X16622684Y-83692290D01*
X16711278Y-83666271D01*
X16801886Y-83659811D01*
X16912518Y-83670355D01*
G37*
G36*
X19457606Y-83663121D02*
G01*
X19547682Y-83691395D01*
X19624133Y-83738982D01*
X19680172Y-83804575D01*
X19680477Y-83805096D01*
X19697927Y-83850378D01*
X19712207Y-83916551D01*
X19719628Y-83976771D01*
X19729970Y-84099119D01*
X19576537Y-84099119D01*
X19423104Y-84099119D01*
X19418439Y-83975487D01*
X19414865Y-83911345D01*
X19409025Y-83872710D01*
X19399293Y-83853146D01*
X19385863Y-83846526D01*
X19358058Y-83856044D01*
X19341933Y-83883336D01*
X19337377Y-83911146D01*
X19333519Y-83964825D01*
X19330409Y-84038297D01*
X19328102Y-84125488D01*
X19326648Y-84220324D01*
X19326101Y-84316729D01*
X19326513Y-84408629D01*
X19327937Y-84489949D01*
X19330425Y-84554614D01*
X19334030Y-84596550D01*
X19335691Y-84605215D01*
X19355866Y-84640618D01*
X19385894Y-84648435D01*
X19413974Y-84631793D01*
X19427266Y-84603712D01*
X19434759Y-84558091D01*
X19436748Y-84503994D01*
X19433524Y-84450483D01*
X19425382Y-84406624D01*
X19412615Y-84381479D01*
X19405785Y-84378679D01*
X19390171Y-84368956D01*
X19380854Y-84336363D01*
X19376995Y-84294811D01*
X19372166Y-84210943D01*
X19548724Y-84210943D01*
X19725282Y-84210943D01*
X19725282Y-84514465D01*
X19725282Y-84817987D01*
X19630510Y-84817987D01*
X19575960Y-84816418D01*
X19545143Y-84810062D01*
X19529927Y-84796441D01*
X19525597Y-84786037D01*
X19511047Y-84761414D01*
X19494364Y-84753954D01*
X19485703Y-84767824D01*
X19485660Y-84769652D01*
X19471236Y-84792074D01*
X19434132Y-84812913D01*
X19383595Y-84829461D01*
X19328876Y-84839009D01*
X19279222Y-84838849D01*
X19261908Y-84835175D01*
X19169104Y-84794278D01*
X19102223Y-84736313D01*
X19083837Y-84710544D01*
X19072274Y-84690989D01*
X19063372Y-84671330D01*
X19056783Y-84647303D01*
X19052160Y-84614644D01*
X19049154Y-84569090D01*
X19047418Y-84506376D01*
X19046604Y-84422239D01*
X19046364Y-84312415D01*
X19046351Y-84250880D01*
X19046633Y-84115848D01*
X19048098Y-84008798D01*
X19051672Y-83925762D01*
X19058284Y-83862773D01*
X19068862Y-83815864D01*
X19084334Y-83781068D01*
X19105627Y-83754418D01*
X19133669Y-83731947D01*
X19169388Y-83709687D01*
X19173486Y-83707280D01*
X19263721Y-83669755D01*
X19360690Y-83655472D01*
X19457606Y-83663121D01*
G37*
G36*
X18027491Y-78367258D02*
G01*
X18047348Y-78370529D01*
X18047924Y-78371495D01*
X18043126Y-78389024D01*
X18029516Y-78433227D01*
X18008268Y-78500428D01*
X17980557Y-78586954D01*
X17947556Y-78689130D01*
X17910442Y-78803279D01*
X17886154Y-78877617D01*
X17847353Y-78996966D01*
X17812300Y-79106348D01*
X17782114Y-79202142D01*
X17757917Y-79280726D01*
X17740829Y-79338481D01*
X17731971Y-79371785D01*
X17731108Y-79378572D01*
X17747199Y-79375014D01*
X17789846Y-79361850D01*
X17855534Y-79340265D01*
X17940745Y-79311446D01*
X18041966Y-79276577D01*
X18155680Y-79236845D01*
X18248318Y-79204117D01*
X18369124Y-79161432D01*
X18480043Y-79122608D01*
X18577568Y-79088842D01*
X18658195Y-79061333D01*
X18718418Y-79041279D01*
X18754733Y-79029880D01*
X18764186Y-79027742D01*
X18758136Y-79042446D01*
X18738816Y-79083090D01*
X18707482Y-79147157D01*
X18665390Y-79232130D01*
X18613796Y-79335491D01*
X18553956Y-79454725D01*
X18487126Y-79587314D01*
X18414560Y-79730741D01*
X18348840Y-79860217D01*
X18272090Y-80011229D01*
X18199683Y-80153749D01*
X18132911Y-80285228D01*
X18073068Y-80403118D01*
X18021444Y-80504873D01*
X17979335Y-80587944D01*
X17948031Y-80649783D01*
X17928825Y-80687842D01*
X17922984Y-80699581D01*
X17922605Y-80705835D01*
X17931492Y-80711464D01*
X17955331Y-80718086D01*
X17999805Y-80727318D01*
X18062196Y-80739200D01*
X18132380Y-80752389D01*
X17905862Y-81031949D01*
X17836865Y-81117037D01*
X17771487Y-81197544D01*
X17713494Y-81268838D01*
X17666656Y-81326288D01*
X17634740Y-81365265D01*
X17627405Y-81374152D01*
X17575465Y-81436796D01*
X17541723Y-81046668D01*
X17532534Y-80938786D01*
X17524567Y-80842051D01*
X17518158Y-80760821D01*
X17513643Y-80699450D01*
X17511359Y-80662294D01*
X17511310Y-80652942D01*
X17527483Y-80653420D01*
X17566452Y-80658204D01*
X17615538Y-80665593D01*
X17668566Y-80672979D01*
X17707594Y-80676253D01*
X17723327Y-80674952D01*
X17728964Y-80657138D01*
X17739231Y-80612909D01*
X17753227Y-80547028D01*
X17770050Y-80464254D01*
X17788797Y-80369349D01*
X17808568Y-80267072D01*
X17828461Y-80162186D01*
X17847573Y-80059450D01*
X17865003Y-79963625D01*
X17879849Y-79879472D01*
X17891208Y-79811752D01*
X17898181Y-79765225D01*
X17899863Y-79744653D01*
X17899652Y-79744138D01*
X17883039Y-79747468D01*
X17840778Y-79761453D01*
X17776789Y-79784639D01*
X17694989Y-79815570D01*
X17599297Y-79852791D01*
X17493630Y-79894846D01*
X17490091Y-79896271D01*
X17384178Y-79938800D01*
X17288233Y-79977124D01*
X17206163Y-80009698D01*
X17141877Y-80034979D01*
X17099282Y-80051420D01*
X17082286Y-80057478D01*
X17082214Y-80057484D01*
X17080986Y-80056407D01*
X17081263Y-80051780D01*
X17083781Y-80041506D01*
X17089278Y-80023487D01*
X17098494Y-79995628D01*
X17112165Y-79955830D01*
X17131029Y-79901998D01*
X17155825Y-79832035D01*
X17187291Y-79743843D01*
X17226164Y-79635326D01*
X17273182Y-79504388D01*
X17329084Y-79348930D01*
X17394607Y-79166858D01*
X17442040Y-79035094D01*
X17490769Y-78900105D01*
X17536370Y-78774482D01*
X17577670Y-78661407D01*
X17613494Y-78564061D01*
X17642671Y-78485625D01*
X17664026Y-78429280D01*
X17676385Y-78398207D01*
X17678850Y-78393113D01*
X17697814Y-78387318D01*
X17739750Y-78381481D01*
X17797044Y-78376046D01*
X17862079Y-78371460D01*
X17927242Y-78368170D01*
X17984917Y-78366621D01*
X18027491Y-78367258D01*
G37*
G36*
X21366564Y-76429110D02*
G01*
X21459677Y-76487571D01*
X21540076Y-76570385D01*
X21600133Y-76668861D01*
X21634276Y-76742704D01*
X21634276Y-80999999D01*
X21634276Y-85257295D01*
X21600133Y-85331137D01*
X21538971Y-85431035D01*
X21458325Y-85513529D01*
X21366564Y-85570888D01*
X21282829Y-85608741D01*
X18031949Y-85611246D01*
X17689323Y-85611440D01*
X17358583Y-85611488D01*
X17041060Y-85611397D01*
X16738086Y-85611169D01*
X16450990Y-85610811D01*
X16181104Y-85610327D01*
X15929758Y-85609721D01*
X15698282Y-85608998D01*
X15488008Y-85608163D01*
X15300266Y-85607221D01*
X15136387Y-85606176D01*
X14997701Y-85605034D01*
X14885539Y-85603798D01*
X14801233Y-85602474D01*
X14746112Y-85601067D01*
X14721507Y-85599580D01*
X14720915Y-85599462D01*
X14607299Y-85556890D01*
X14511142Y-85487907D01*
X14433984Y-85393804D01*
X14399360Y-85329993D01*
X14365723Y-85257295D01*
X14365723Y-80999999D01*
X14589370Y-80999999D01*
X14589370Y-85241320D01*
X14624805Y-85290997D01*
X14632249Y-85302749D01*
X14637991Y-85313561D01*
X14643327Y-85323473D01*
X14649555Y-85332522D01*
X14657972Y-85340749D01*
X14669875Y-85348192D01*
X14686560Y-85354891D01*
X14709325Y-85360885D01*
X14739467Y-85366212D01*
X14778283Y-85370912D01*
X14827070Y-85375024D01*
X14887125Y-85378587D01*
X14959745Y-85381639D01*
X15046227Y-85384221D01*
X15147867Y-85386371D01*
X15265964Y-85388129D01*
X15401815Y-85389532D01*
X15556715Y-85390622D01*
X15731962Y-85391435D01*
X15928854Y-85392013D01*
X16148687Y-85392393D01*
X16392758Y-85392615D01*
X16662365Y-85392718D01*
X16958804Y-85392741D01*
X17283372Y-85392723D01*
X17637367Y-85392703D01*
X18000249Y-85392717D01*
X18378647Y-85392752D01*
X18726412Y-85392761D01*
X19044862Y-85392731D01*
X19335314Y-85392651D01*
X19599083Y-85392510D01*
X19837488Y-85392295D01*
X20051845Y-85391995D01*
X20243471Y-85391599D01*
X20413683Y-85391094D01*
X20563799Y-85390469D01*
X20695134Y-85389712D01*
X20809007Y-85388811D01*
X20906734Y-85387755D01*
X20989632Y-85386532D01*
X21059019Y-85385130D01*
X21116210Y-85383538D01*
X21162523Y-85381744D01*
X21199276Y-85379736D01*
X21227784Y-85377502D01*
X21249366Y-85375031D01*
X21265338Y-85372311D01*
X21277016Y-85369330D01*
X21285719Y-85366078D01*
X21291066Y-85363462D01*
X21335134Y-85329877D01*
X21374885Y-85283576D01*
X21382409Y-85271607D01*
X21418090Y-85209370D01*
X21418353Y-81007378D01*
X21418616Y-76805385D01*
X21382672Y-76735289D01*
X21339287Y-76673802D01*
X21291066Y-76636056D01*
X21283607Y-76632645D01*
X21273926Y-76629511D01*
X21260705Y-76626642D01*
X21242628Y-76624027D01*
X21218379Y-76621652D01*
X21186640Y-76619508D01*
X21146096Y-76617582D01*
X21095430Y-76615862D01*
X21033325Y-76614338D01*
X20958464Y-76612996D01*
X20869532Y-76611826D01*
X20765211Y-76610816D01*
X20644185Y-76609954D01*
X20505137Y-76609229D01*
X20346750Y-76608628D01*
X20167709Y-76608141D01*
X19966696Y-76607755D01*
X19742396Y-76607459D01*
X19493490Y-76607242D01*
X19218663Y-76607091D01*
X18916599Y-76606995D01*
X18585980Y-76606942D01*
X18225490Y-76606920D01*
X18002663Y-76606918D01*
X17619564Y-76606889D01*
X17267119Y-76606829D01*
X16944029Y-76606777D01*
X16648997Y-76606772D01*
X16380728Y-76606854D01*
X16137923Y-76607060D01*
X15919285Y-76607431D01*
X15723519Y-76608005D01*
X15549326Y-76608822D01*
X15395410Y-76609921D01*
X15260473Y-76611340D01*
X15143220Y-76613118D01*
X15042352Y-76615296D01*
X14956573Y-76617912D01*
X14884586Y-76621005D01*
X14825094Y-76624614D01*
X14776799Y-76628778D01*
X14738406Y-76633536D01*
X14708616Y-76638928D01*
X14686134Y-76644993D01*
X14669661Y-76651769D01*
X14657901Y-76659296D01*
X14649557Y-76667613D01*
X14643332Y-76676758D01*
X14637929Y-76686772D01*
X14632052Y-76697693D01*
X14624999Y-76708730D01*
X14589370Y-76758679D01*
X14589370Y-80999999D01*
X14365723Y-80999999D01*
X14365723Y-76758679D01*
X14365723Y-76742704D01*
X14410294Y-76651941D01*
X14477619Y-76548970D01*
X14567717Y-76468309D01*
X14644471Y-76424895D01*
X14717169Y-76391257D01*
X17999999Y-76391257D01*
X21282829Y-76391257D01*
X21366564Y-76429110D01*
G37*
G36*
X18111693Y-77612403D02*
G01*
X18217210Y-77658240D01*
X18310918Y-77729734D01*
X18332899Y-77752300D01*
X18356816Y-77780641D01*
X18384163Y-77817130D01*
X18416428Y-77864146D01*
X18455105Y-77924062D01*
X18501682Y-77999255D01*
X18557653Y-78092100D01*
X18624507Y-78204973D01*
X18703736Y-78340250D01*
X18796831Y-78500306D01*
X18824411Y-78547861D01*
X18915021Y-78704114D01*
X19018414Y-78882323D01*
X19131304Y-79076826D01*
X19250404Y-79281966D01*
X19372428Y-79492082D01*
X19494090Y-79701515D01*
X19612102Y-79904606D01*
X19723179Y-80095695D01*
X19770627Y-80177295D01*
X19861863Y-80334365D01*
X19949228Y-80485116D01*
X20031243Y-80626973D01*
X20106428Y-80757359D01*
X20173302Y-80873700D01*
X20230386Y-80973420D01*
X20276201Y-81053943D01*
X20309265Y-81112693D01*
X20328101Y-81147095D01*
X20330498Y-81151760D01*
X20353548Y-81207661D01*
X20367490Y-81268733D01*
X20374842Y-81346965D01*
X20375815Y-81367421D01*
X20377712Y-81436657D01*
X20375138Y-81484834D01*
X20366146Y-81522741D01*
X20348791Y-81561168D01*
X20336939Y-81582929D01*
X20290060Y-81648728D01*
X20226833Y-81701179D01*
X20205234Y-81714722D01*
X20118079Y-81766792D01*
X18000706Y-81766306D01*
X17664158Y-81766133D01*
X17358826Y-81765772D01*
X17083977Y-81765216D01*
X16838878Y-81764460D01*
X16622796Y-81763497D01*
X16434997Y-81762321D01*
X16274750Y-81760927D01*
X16141320Y-81759308D01*
X16033975Y-81757458D01*
X15951981Y-81755371D01*
X15894606Y-81753040D01*
X15861116Y-81750461D01*
X15851383Y-81748446D01*
X15769038Y-81697480D01*
X15710305Y-81644865D01*
X15667371Y-81583185D01*
X15657821Y-81564726D01*
X15635819Y-81515468D01*
X15624063Y-81472982D01*
X15620441Y-81424561D01*
X15620658Y-81418502D01*
X15860774Y-81418502D01*
X15869211Y-81451768D01*
X15892204Y-81481514D01*
X15896663Y-81486040D01*
X15937792Y-81527169D01*
X17999999Y-81527169D01*
X20062206Y-81527169D01*
X20103335Y-81486040D01*
X20132404Y-81442383D01*
X20140854Y-81387831D01*
X20128170Y-81319392D01*
X20093841Y-81234073D01*
X20044098Y-81140526D01*
X20020324Y-81099327D01*
X19982234Y-81033516D01*
X19931574Y-80946098D01*
X19870088Y-80840081D01*
X19799521Y-80718472D01*
X19721618Y-80584278D01*
X19638124Y-80440507D01*
X19550783Y-80290164D01*
X19480551Y-80169307D01*
X19379927Y-79996154D01*
X19272595Y-79811415D01*
X19161716Y-79620536D01*
X19050454Y-79428963D01*
X18941971Y-79242141D01*
X18839428Y-79065515D01*
X18745987Y-78904531D01*
X18664812Y-78764633D01*
X18650334Y-78739676D01*
X18573944Y-78608001D01*
X18500207Y-78480936D01*
X18431170Y-78362002D01*
X18368876Y-78254720D01*
X18315370Y-78162611D01*
X18272697Y-78089195D01*
X18242902Y-78037993D01*
X18232879Y-78020808D01*
X18193895Y-77958642D01*
X18159591Y-77917173D01*
X18121845Y-77887826D01*
X18090661Y-77870715D01*
X18042437Y-77848816D01*
X18007446Y-77841126D01*
X17971299Y-77845802D01*
X17947662Y-77852390D01*
X17895462Y-77875448D01*
X17850289Y-77907323D01*
X17843126Y-77914505D01*
X17825874Y-77938442D01*
X17795002Y-77986418D01*
X17752752Y-78054740D01*
X17701368Y-78139715D01*
X17643094Y-78237648D01*
X17580172Y-78344848D01*
X17545747Y-78404087D01*
X17480285Y-78517061D01*
X17402104Y-78651865D01*
X17314562Y-78802718D01*
X17221014Y-78963841D01*
X17124817Y-79129452D01*
X17029328Y-79293771D01*
X16937903Y-79451017D01*
X16905718Y-79506351D01*
X16755690Y-79764245D01*
X16620892Y-79995976D01*
X16500503Y-80203012D01*
X16393702Y-80386815D01*
X16299668Y-80548851D01*
X16217582Y-80690585D01*
X16146622Y-80813481D01*
X16085969Y-80919005D01*
X16034801Y-81008619D01*
X15992298Y-81083790D01*
X15957640Y-81145982D01*
X15930006Y-81196660D01*
X15908576Y-81237289D01*
X15892530Y-81269332D01*
X15881045Y-81294255D01*
X15873304Y-81313523D01*
X15868483Y-81328600D01*
X15865764Y-81340951D01*
X15864326Y-81352040D01*
X15863348Y-81363333D01*
X15862939Y-81367851D01*
X15860774Y-81418502D01*
X15620658Y-81418502D01*
X15622841Y-81357503D01*
X15622982Y-81355114D01*
X15625575Y-81316113D01*
X15629390Y-81281478D01*
X15635984Y-81247876D01*
X15646916Y-81211974D01*
X15663741Y-81170438D01*
X15688018Y-81119935D01*
X15721304Y-81057130D01*
X15765156Y-80978690D01*
X15821132Y-80881282D01*
X15890788Y-80761572D01*
X15938132Y-80680502D01*
X16011649Y-80554604D01*
X16085686Y-80427685D01*
X16161700Y-80297235D01*
X16241150Y-80160745D01*
X16325492Y-80015705D01*
X16416185Y-79859605D01*
X16514686Y-79689935D01*
X16622454Y-79504186D01*
X16740945Y-79299848D01*
X16871619Y-79074410D01*
X17015932Y-78825365D01*
X17111918Y-78659685D01*
X17216158Y-78480028D01*
X17305953Y-78325965D01*
X17382657Y-78195319D01*
X17447621Y-78085913D01*
X17502198Y-77995569D01*
X17547741Y-77922110D01*
X17585600Y-77863360D01*
X17617130Y-77817140D01*
X17643681Y-77781274D01*
X17666607Y-77753583D01*
X17687259Y-77731891D01*
X17689496Y-77729734D01*
X17787855Y-77655299D01*
X17893411Y-77610932D01*
X18002559Y-77596633D01*
X18111693Y-77612403D01*
G37*
D14*
%TO.C,J2*%
X74940000Y-15990000D02*
X74940000Y-21960000D01*
X74940000Y-21960000D02*
X82560000Y-21960000D01*
X74950000Y-19700000D02*
X75700000Y-19700000D01*
X74950000Y-21200000D02*
X74950000Y-21950000D01*
X74950000Y-21950000D02*
X76750000Y-21950000D01*
X75700000Y-16750000D02*
X78750000Y-16750000D01*
X75700000Y-19700000D02*
X75700000Y-16750000D01*
X76750000Y-21200000D02*
X74950000Y-21200000D01*
X76750000Y-21950000D02*
X76750000Y-21200000D01*
X78250000Y-21200000D02*
X78250000Y-21950000D01*
X78250000Y-21950000D02*
X79250000Y-21950000D01*
X79250000Y-21200000D02*
X78250000Y-21200000D01*
X79250000Y-21950000D02*
X79250000Y-21200000D01*
X80750000Y-21200000D02*
X80750000Y-21950000D01*
X80750000Y-21950000D02*
X82550000Y-21950000D01*
X81600000Y-22250000D02*
X82850000Y-22250000D01*
X81800000Y-16750000D02*
X78750000Y-16750000D01*
X81800000Y-19700000D02*
X81800000Y-16750000D01*
X82550000Y-19700000D02*
X81800000Y-19700000D01*
X82550000Y-21200000D02*
X80750000Y-21200000D01*
X82550000Y-21950000D02*
X82550000Y-21200000D01*
X82560000Y-15990000D02*
X74940000Y-15990000D01*
X82560000Y-21960000D02*
X82560000Y-15990000D01*
X82850000Y-22250000D02*
X82850000Y-21000000D01*
%TO.C,D23*%
X75530000Y-82590000D02*
X75660000Y-82590000D01*
X75530000Y-87010000D02*
X78470000Y-87010000D01*
X75530000Y-87130000D02*
X78470000Y-87130000D01*
X75530000Y-87250000D02*
X78470000Y-87250000D01*
X75530000Y-88030000D02*
X75530000Y-82590000D01*
X75660000Y-88030000D02*
X75530000Y-88030000D01*
X78340000Y-88030000D02*
X78470000Y-88030000D01*
X78470000Y-82590000D02*
X78340000Y-82590000D01*
X78470000Y-88030000D02*
X78470000Y-82590000D01*
%TO.C,Q3*%
X84665000Y-30060000D02*
X84665000Y-35310000D01*
X84665000Y-30060000D02*
X85765000Y-30060000D01*
X84665000Y-35310000D02*
X100785000Y-35310000D01*
X88785000Y-30060000D02*
X91215000Y-30060000D01*
X90920000Y-30060000D02*
X90920000Y-30280000D01*
X94235000Y-30060000D02*
X96665000Y-30060000D01*
X94530000Y-30060000D02*
X94530000Y-30280000D01*
X99685000Y-30060000D02*
X100785000Y-30060000D01*
X100785000Y-30060000D02*
X100785000Y-35310000D01*
%TO.C,D1*%
X33674226Y-24580000D02*
G75*
G02*
X33674226Y-27420000I2325774J-1420000D01*
G01*
%TO.C,R2*%
X40630000Y-20730000D02*
X40630000Y-27270000D01*
X40630000Y-27270000D02*
X40960000Y-27270000D01*
X40960000Y-20730000D02*
X40630000Y-20730000D01*
X43040000Y-20730000D02*
X43370000Y-20730000D01*
X43370000Y-20730000D02*
X43370000Y-27270000D01*
X43370000Y-27270000D02*
X43040000Y-27270000D01*
%TO.C,R3*%
X70630000Y-20730000D02*
X70630000Y-27270000D01*
X70630000Y-27270000D02*
X70960000Y-27270000D01*
X70960000Y-20730000D02*
X70630000Y-20730000D01*
X73040000Y-20730000D02*
X73370000Y-20730000D01*
X73370000Y-20730000D02*
X73370000Y-27270000D01*
X73370000Y-27270000D02*
X73040000Y-27270000D01*
%TO.C,J6*%
X83150000Y-87250000D02*
X83150000Y-88500000D01*
X83440000Y-87540000D02*
X83440000Y-93510000D01*
X83440000Y-93510000D02*
X91060000Y-93510000D01*
X83450000Y-87550000D02*
X83450000Y-88300000D01*
X83450000Y-88300000D02*
X85250000Y-88300000D01*
X83450000Y-89800000D02*
X84200000Y-89800000D01*
X84200000Y-89800000D02*
X84200000Y-92750000D01*
X84200000Y-92750000D02*
X87250000Y-92750000D01*
X84400000Y-87250000D02*
X83150000Y-87250000D01*
X85250000Y-87550000D02*
X83450000Y-87550000D01*
X85250000Y-88300000D02*
X85250000Y-87550000D01*
X86750000Y-87550000D02*
X86750000Y-88300000D01*
X86750000Y-88300000D02*
X87750000Y-88300000D01*
X87750000Y-87550000D02*
X86750000Y-87550000D01*
X87750000Y-88300000D02*
X87750000Y-87550000D01*
X89250000Y-87550000D02*
X89250000Y-88300000D01*
X89250000Y-88300000D02*
X91050000Y-88300000D01*
X90300000Y-89800000D02*
X90300000Y-92750000D01*
X90300000Y-92750000D02*
X87250000Y-92750000D01*
X91050000Y-87550000D02*
X89250000Y-87550000D01*
X91050000Y-88300000D02*
X91050000Y-87550000D01*
X91050000Y-89800000D02*
X90300000Y-89800000D01*
X91060000Y-87540000D02*
X83440000Y-87540000D01*
X91060000Y-93510000D02*
X91060000Y-87540000D01*
%TO.C,D12*%
X85580000Y-43500000D02*
X85580000Y-51340000D01*
X85580000Y-51340000D02*
X86060000Y-51340000D01*
X86060000Y-43500000D02*
X85580000Y-43500000D01*
X88940000Y-43500000D02*
X89420000Y-43500000D01*
X89420000Y-43500000D02*
X89420000Y-51340000D01*
X89420000Y-44640000D02*
X85580000Y-44640000D01*
X89420000Y-44760000D02*
X85580000Y-44760000D01*
X89420000Y-44880000D02*
X85580000Y-44880000D01*
X89420000Y-51340000D02*
X88940000Y-51340000D01*
%TO.C,Snubber1*%
X40955000Y-64730000D02*
X40955000Y-44490000D01*
X82695000Y-44490000D02*
X40955000Y-44490000D01*
X82695000Y-64730000D02*
X40955000Y-64730000D01*
X82695000Y-64730000D02*
X82695000Y-44490000D01*
%TO.C,D4*%
X51674226Y-24580000D02*
G75*
G02*
X51674226Y-27420000I2325774J-1420000D01*
G01*
%TO.C,R1*%
X22630000Y-20730000D02*
X22630000Y-27270000D01*
X22630000Y-27270000D02*
X22960000Y-27270000D01*
X22960000Y-20730000D02*
X22630000Y-20730000D01*
X25040000Y-20730000D02*
X25370000Y-20730000D01*
X25370000Y-20730000D02*
X25370000Y-27270000D01*
X25370000Y-27270000D02*
X25040000Y-27270000D01*
%TO.C,Q7*%
X66665000Y-79190000D02*
X66665000Y-73940000D01*
X67765000Y-79190000D02*
X66665000Y-79190000D01*
X72920000Y-79190000D02*
X72920000Y-78970000D01*
X73215000Y-79190000D02*
X70785000Y-79190000D01*
X76530000Y-79190000D02*
X76530000Y-78970000D01*
X78665000Y-79190000D02*
X76235000Y-79190000D01*
X82785000Y-73940000D02*
X66665000Y-73940000D01*
X82785000Y-79190000D02*
X81685000Y-79190000D01*
X82785000Y-79190000D02*
X82785000Y-73940000D01*
%TO.C,D15*%
X40930000Y-65740000D02*
X40930000Y-70360000D01*
X40930000Y-65740000D02*
X51150000Y-65740000D01*
X40930000Y-67120000D02*
X51150000Y-67120000D01*
X40930000Y-70360000D02*
X51150000Y-70360000D01*
X44190000Y-65740000D02*
X44190000Y-67120000D01*
X47890000Y-65740000D02*
X47890000Y-67120000D01*
X51150000Y-65740000D02*
X51150000Y-70360000D01*
%TO.C,Q8*%
X84665000Y-79190000D02*
X84665000Y-73940000D01*
X85765000Y-79190000D02*
X84665000Y-79190000D01*
X90920000Y-79190000D02*
X90920000Y-78970000D01*
X91215000Y-79190000D02*
X88785000Y-79190000D01*
X94530000Y-79190000D02*
X94530000Y-78970000D01*
X96665000Y-79190000D02*
X94235000Y-79190000D01*
X100785000Y-73940000D02*
X84665000Y-73940000D01*
X100785000Y-79190000D02*
X99685000Y-79190000D01*
X100785000Y-79190000D02*
X100785000Y-73940000D01*
%TO.C,R7*%
X36180000Y-81930000D02*
X36510000Y-81930000D01*
X36180000Y-88470000D02*
X36180000Y-81930000D01*
X36510000Y-88470000D02*
X36180000Y-88470000D01*
X38590000Y-88470000D02*
X38920000Y-88470000D01*
X38920000Y-81930000D02*
X38590000Y-81930000D01*
X38920000Y-88470000D02*
X38920000Y-81930000D01*
%TO.C,D17*%
X72430000Y-65740000D02*
X72430000Y-70360000D01*
X72430000Y-65740000D02*
X82650000Y-65740000D01*
X72430000Y-67120000D02*
X82650000Y-67120000D01*
X72430000Y-70360000D02*
X82650000Y-70360000D01*
X75690000Y-65740000D02*
X75690000Y-67120000D01*
X79390000Y-65740000D02*
X79390000Y-67120000D01*
X82650000Y-65740000D02*
X82650000Y-70360000D01*
%TO.C,D7*%
X85030000Y-20980000D02*
X85030000Y-26420000D01*
X85030000Y-26420000D02*
X85160000Y-26420000D01*
X85160000Y-20980000D02*
X85030000Y-20980000D01*
X87840000Y-20980000D02*
X87970000Y-20980000D01*
X87970000Y-20980000D02*
X87970000Y-26420000D01*
X87970000Y-21760000D02*
X85030000Y-21760000D01*
X87970000Y-21880000D02*
X85030000Y-21880000D01*
X87970000Y-22000000D02*
X85030000Y-22000000D01*
X87970000Y-26420000D02*
X87840000Y-26420000D01*
%TO.C,Q2*%
X40890000Y-30060000D02*
X40890000Y-35310000D01*
X40890000Y-30060000D02*
X41990000Y-30060000D01*
X40890000Y-35310000D02*
X57010000Y-35310000D01*
X45010000Y-30060000D02*
X47440000Y-30060000D01*
X47145000Y-30060000D02*
X47145000Y-30280000D01*
X50460000Y-30060000D02*
X52890000Y-30060000D01*
X50755000Y-30060000D02*
X50755000Y-30280000D01*
X55910000Y-30060000D02*
X57010000Y-30060000D01*
X57010000Y-30060000D02*
X57010000Y-35310000D01*
%TO.C,D6*%
X77674226Y-24580000D02*
G75*
G02*
X77674226Y-27420000I2325774J-1420000D01*
G01*
%TO.C,D22*%
X50030000Y-82780000D02*
X50160000Y-82780000D01*
X50030000Y-87200000D02*
X52970000Y-87200000D01*
X50030000Y-87320000D02*
X52970000Y-87320000D01*
X50030000Y-87440000D02*
X52970000Y-87440000D01*
X50030000Y-88220000D02*
X50030000Y-82780000D01*
X50160000Y-88220000D02*
X50030000Y-88220000D01*
X52840000Y-88220000D02*
X52970000Y-88220000D01*
X52970000Y-82780000D02*
X52840000Y-82780000D01*
X52970000Y-88220000D02*
X52970000Y-82780000D01*
%TO.C,J4*%
X40150000Y-87250000D02*
X40150000Y-88500000D01*
X40440000Y-87540000D02*
X40440000Y-93510000D01*
X40440000Y-93510000D02*
X48060000Y-93510000D01*
X40450000Y-87550000D02*
X40450000Y-88300000D01*
X40450000Y-88300000D02*
X42250000Y-88300000D01*
X40450000Y-89800000D02*
X41200000Y-89800000D01*
X41200000Y-89800000D02*
X41200000Y-92750000D01*
X41200000Y-92750000D02*
X44250000Y-92750000D01*
X41400000Y-87250000D02*
X40150000Y-87250000D01*
X42250000Y-87550000D02*
X40450000Y-87550000D01*
X42250000Y-88300000D02*
X42250000Y-87550000D01*
X43750000Y-87550000D02*
X43750000Y-88300000D01*
X43750000Y-88300000D02*
X44750000Y-88300000D01*
X44750000Y-87550000D02*
X43750000Y-87550000D01*
X44750000Y-88300000D02*
X44750000Y-87550000D01*
X46250000Y-87550000D02*
X46250000Y-88300000D01*
X46250000Y-88300000D02*
X48050000Y-88300000D01*
X47300000Y-89800000D02*
X47300000Y-92750000D01*
X47300000Y-92750000D02*
X44250000Y-92750000D01*
X48050000Y-87550000D02*
X46250000Y-87550000D01*
X48050000Y-88300000D02*
X48050000Y-87550000D01*
X48050000Y-89800000D02*
X47300000Y-89800000D01*
X48060000Y-87540000D02*
X40440000Y-87540000D01*
X48060000Y-93510000D02*
X48060000Y-87540000D01*
%TO.C,J5*%
X57420000Y-90190000D02*
X57420000Y-97810000D01*
X57420000Y-91460000D02*
X67580000Y-91460000D01*
X57420000Y-97810000D02*
X67580000Y-97810000D01*
X67580000Y-90190000D02*
X57420000Y-90190000D01*
X67580000Y-97810000D02*
X67580000Y-90190000D01*
%TO.C,J1*%
X31440000Y-15990000D02*
X31440000Y-21960000D01*
X31440000Y-21960000D02*
X39060000Y-21960000D01*
X31450000Y-19700000D02*
X32200000Y-19700000D01*
X31450000Y-21200000D02*
X31450000Y-21950000D01*
X31450000Y-21950000D02*
X33250000Y-21950000D01*
X32200000Y-16750000D02*
X35250000Y-16750000D01*
X32200000Y-19700000D02*
X32200000Y-16750000D01*
X33250000Y-21200000D02*
X31450000Y-21200000D01*
X33250000Y-21950000D02*
X33250000Y-21200000D01*
X34750000Y-21200000D02*
X34750000Y-21950000D01*
X34750000Y-21950000D02*
X35750000Y-21950000D01*
X35750000Y-21200000D02*
X34750000Y-21200000D01*
X35750000Y-21950000D02*
X35750000Y-21200000D01*
X37250000Y-21200000D02*
X37250000Y-21950000D01*
X37250000Y-21950000D02*
X39050000Y-21950000D01*
X38100000Y-22250000D02*
X39350000Y-22250000D01*
X38300000Y-16750000D02*
X35250000Y-16750000D01*
X38300000Y-19700000D02*
X38300000Y-16750000D01*
X39050000Y-19700000D02*
X38300000Y-19700000D01*
X39050000Y-21200000D02*
X37250000Y-21200000D01*
X39050000Y-21950000D02*
X39050000Y-21200000D01*
X39060000Y-15990000D02*
X31440000Y-15990000D01*
X39060000Y-21960000D02*
X39060000Y-15990000D01*
X39350000Y-22250000D02*
X39350000Y-21000000D01*
%TO.C,D14*%
X28075774Y-84420000D02*
G75*
G02*
X28075774Y-81580000I-2325774J1420000D01*
G01*
%TO.C,D8*%
X95674226Y-24580000D02*
G75*
G02*
X95674226Y-27420000I2325774J-1420000D01*
G01*
%TO.C,R4*%
X89130000Y-20730000D02*
X89130000Y-27270000D01*
X89130000Y-27270000D02*
X89460000Y-27270000D01*
X89460000Y-20730000D02*
X89130000Y-20730000D01*
X91540000Y-20730000D02*
X91870000Y-20730000D01*
X91870000Y-20730000D02*
X91870000Y-27270000D01*
X91870000Y-27270000D02*
X91540000Y-27270000D01*
%TO.C,D21*%
X32030000Y-82780000D02*
X32160000Y-82780000D01*
X32030000Y-87200000D02*
X34970000Y-87200000D01*
X32030000Y-87320000D02*
X34970000Y-87320000D01*
X32030000Y-87440000D02*
X34970000Y-87440000D01*
X32030000Y-88220000D02*
X32030000Y-82780000D01*
X32160000Y-88220000D02*
X32030000Y-88220000D01*
X34840000Y-88220000D02*
X34970000Y-88220000D01*
X34970000Y-82780000D02*
X34840000Y-82780000D01*
X34970000Y-88220000D02*
X34970000Y-82780000D01*
%TO.C,D3*%
X44530000Y-20980000D02*
X44530000Y-26420000D01*
X44530000Y-26420000D02*
X44660000Y-26420000D01*
X44660000Y-20980000D02*
X44530000Y-20980000D01*
X47340000Y-20980000D02*
X47470000Y-20980000D01*
X47470000Y-20980000D02*
X47470000Y-26420000D01*
X47470000Y-21760000D02*
X44530000Y-21760000D01*
X47470000Y-21880000D02*
X44530000Y-21880000D01*
X47470000Y-22000000D02*
X44530000Y-22000000D01*
X47470000Y-26420000D02*
X47340000Y-26420000D01*
%TO.C,C1*%
X103380000Y-62130000D02*
X103380000Y-88870000D01*
X108620000Y-62130000D02*
X103380000Y-62130000D01*
X108620000Y-62130000D02*
X108620000Y-88870000D01*
X108620000Y-88870000D02*
X103380000Y-88870000D01*
%TO.C,D10*%
X35530000Y-57160000D02*
X35530000Y-65000000D01*
X35530000Y-65000000D02*
X36010000Y-65000000D01*
X36010000Y-57160000D02*
X35530000Y-57160000D01*
X38890000Y-57160000D02*
X39370000Y-57160000D01*
X39370000Y-57160000D02*
X39370000Y-65000000D01*
X39370000Y-58300000D02*
X35530000Y-58300000D01*
X39370000Y-58420000D02*
X35530000Y-58420000D01*
X39370000Y-58540000D02*
X35530000Y-58540000D01*
X39370000Y-65000000D02*
X38890000Y-65000000D01*
%TO.C,Q5*%
X22890000Y-79080000D02*
X22890000Y-73830000D01*
X23990000Y-79080000D02*
X22890000Y-79080000D01*
X29145000Y-79080000D02*
X29145000Y-78860000D01*
X29440000Y-79080000D02*
X27010000Y-79080000D01*
X32755000Y-79080000D02*
X32755000Y-78860000D01*
X34890000Y-79080000D02*
X32460000Y-79080000D01*
X39010000Y-73830000D02*
X22890000Y-73830000D01*
X39010000Y-79080000D02*
X37910000Y-79080000D01*
X39010000Y-79080000D02*
X39010000Y-73830000D01*
%TO.C,D5*%
X66530000Y-20980000D02*
X66530000Y-26420000D01*
X66530000Y-26420000D02*
X66660000Y-26420000D01*
X66660000Y-20980000D02*
X66530000Y-20980000D01*
X69340000Y-20980000D02*
X69470000Y-20980000D01*
X69470000Y-20980000D02*
X69470000Y-26420000D01*
X69470000Y-21760000D02*
X66530000Y-21760000D01*
X69470000Y-21880000D02*
X66530000Y-21880000D01*
X69470000Y-22000000D02*
X66530000Y-22000000D01*
X69470000Y-26420000D02*
X69340000Y-26420000D01*
%TO.C,Q1*%
X22890000Y-30060000D02*
X22890000Y-35310000D01*
X22890000Y-30060000D02*
X23990000Y-30060000D01*
X22890000Y-35310000D02*
X39010000Y-35310000D01*
X27010000Y-30060000D02*
X29440000Y-30060000D01*
X29145000Y-30060000D02*
X29145000Y-30280000D01*
X32460000Y-30060000D02*
X34890000Y-30060000D01*
X32755000Y-30060000D02*
X32755000Y-30280000D01*
X37910000Y-30060000D02*
X39010000Y-30060000D01*
X39010000Y-30060000D02*
X39010000Y-35310000D01*
%TO.C,J3*%
X101190000Y-49380000D02*
X101190000Y-59540000D01*
X101190000Y-59540000D02*
X108810000Y-59540000D01*
X102460000Y-59540000D02*
X102460000Y-49380000D01*
X108810000Y-49380000D02*
X101190000Y-49380000D01*
X108810000Y-59540000D02*
X108810000Y-49380000D01*
%TO.C,R5*%
X79630000Y-81740000D02*
X79960000Y-81740000D01*
X79630000Y-88280000D02*
X79630000Y-81740000D01*
X79960000Y-88280000D02*
X79630000Y-88280000D01*
X82040000Y-88280000D02*
X82370000Y-88280000D01*
X82370000Y-81740000D02*
X82040000Y-81740000D01*
X82370000Y-88280000D02*
X82370000Y-81740000D01*
%TO.C,Q4*%
X66665000Y-30060000D02*
X66665000Y-35310000D01*
X66665000Y-30060000D02*
X67765000Y-30060000D01*
X66665000Y-35310000D02*
X82785000Y-35310000D01*
X70785000Y-30060000D02*
X73215000Y-30060000D01*
X72920000Y-30060000D02*
X72920000Y-30280000D01*
X76235000Y-30060000D02*
X78665000Y-30060000D01*
X76530000Y-30060000D02*
X76530000Y-30280000D01*
X81685000Y-30060000D02*
X82785000Y-30060000D01*
X82785000Y-30060000D02*
X82785000Y-35310000D01*
%TD*%
M02*
