M48
; DRILL file {KiCad 9.0.2} date 2025-07-13T13:24:02+0330
; FORMAT={-:-/ absolute / metric / decimal}
; #@! TF.CreationDate,2025-07-13T13:24:02+03:30
; #@! TF.GenerationSoftware,Kicad,Pcbnew,9.0.2
; #@! TF.FileFunction,Plated,1,2,PTH
FMAT,2
METRIC
; #@! TA.AperFunction,Plated,PTH,ComponentDrill
T1C0.800
; #@! TA.AperFunction,Plated,PTH,ComponentDrill
T2C1.000
; #@! TA.AperFunction,Plated,PTH,ComponentDrill
T3C1.100
; #@! TA.AperFunction,Plated,PTH,ComponentDrill
T4C1.200
; #@! TA.AperFunction,Plated,PTH,ComponentDrill
T5C1.300
; #@! TA.AperFunction,Plated,PTH,ComponentDrill
T6C1.400
; #@! TA.AperFunction,Plated,PTH,ComponentDrill
T7C1.500
; #@! TA.AperFunction,Plated,PTH,ComponentDrill
T8C1.520
; #@! TA.AperFunction,Plated,PTH,ComponentDrill
T9C3.200
%
G90
G05
T1
X24.0Y-20.19
X24.0Y-27.81
X37.55Y-81.39
X37.55Y-89.01
X42.0Y-20.19
X42.0Y-27.81
X55.5Y-81.39
X55.5Y-89.01
X72.0Y-20.19
X72.0Y-27.81
X81.0Y-81.2
X81.0Y-88.82
X90.5Y-20.19
X90.5Y-27.81
X99.0Y-81.19
X99.0Y-88.81
T2
X34.0Y-19.5
X36.5Y-19.5
X43.0Y-90.0
X45.5Y-90.0
X77.5Y-19.5
X80.0Y-19.5
X86.0Y-90.0
X88.5Y-90.0
T3
X28.0Y-19.89
X28.0Y-27.51
X33.5Y-81.69
X33.5Y-89.31
X43.46Y-40.5
X43.5Y-69.0
X46.0Y-19.89
X46.0Y-27.51
X48.54Y-40.5
X48.58Y-69.0
X51.5Y-81.69
X51.5Y-89.31
X68.0Y-19.89
X68.0Y-27.51
X74.92Y-40.5
X75.0Y-69.0
X77.0Y-81.5
X77.0Y-89.12
X80.0Y-40.5
X80.08Y-69.0
X86.5Y-19.89
X86.5Y-27.51
X95.0Y-81.49
X95.0Y-89.11
T4
X37.45Y-42.34
X37.45Y-52.5
X37.45Y-56.0
X37.45Y-66.16
X50.34Y-54.5
X70.66Y-54.5
X87.5Y-42.34
X87.5Y-52.5
X87.5Y-56.0
X87.5Y-66.16
X106.0Y-64.25
X106.0Y-86.75
T5
X25.75Y-83.0
X29.56Y-83.0
X32.19Y-26.0
X36.0Y-26.0
X43.61Y-83.0
X47.42Y-83.0
X50.19Y-26.0
X54.0Y-26.0
X69.385Y-83.0
X73.195Y-83.0
X76.19Y-26.0
X80.0Y-26.0
X87.385Y-83.0
X91.195Y-83.0
X94.19Y-26.0
X98.0Y-26.0
T6
X43.075Y-54.61
X80.575Y-54.61
T7
X25.5Y-32.5
X25.5Y-76.64
X30.95Y-32.5
X30.95Y-76.64
X36.4Y-32.5
X36.4Y-76.64
X43.5Y-32.5
X43.5Y-76.64
X48.95Y-32.5
X48.95Y-76.64
X54.4Y-32.5
X54.4Y-76.64
X69.275Y-32.5
X69.275Y-76.75
X74.725Y-32.5
X74.725Y-76.75
X80.175Y-32.5
X80.175Y-76.75
X87.275Y-32.5
X87.275Y-76.75
X92.725Y-32.5
X92.725Y-76.75
X98.175Y-32.5
X98.175Y-76.75
T8
X59.96Y-94.0
X65.04Y-94.0
X105.0Y-51.92
X105.0Y-57.0
T9
X106.0Y-93.4
M30
